<svg width="55" height="16" viewBox="0 0 55 16" fill="none" xmlns="http://www.w3.org/2000/svg">
<path d="M52.5947 15.798H2.32905C1.31039 15.798 0.484924 14.9725 0.484924 13.9538V2.04603C0.484924 1.02737 1.31039 0.201904 2.32905 0.201904H52.5947C53.6134 0.201904 54.4388 1.02737 54.4388 2.04603V13.9538C54.4388 14.9725 53.6134 15.798 52.5947 15.798Z" fill="black"/>
<path d="M2.32809 0.403952C1.42261 0.403952 0.685935 1.14063 0.685935 2.0461V13.9539C0.685935 14.8594 1.42261 15.596 2.32809 15.596H52.5947C53.5002 15.596 54.2369 14.8594 54.2369 13.9539V2.0461C54.2369 1.14063 53.5002 0.403952 52.5947 0.403952H2.32809ZM52.5947 16H2.32809C1.20014 16 0.282959 15.0818 0.282959 13.9539V2.0461C0.282959 0.918161 1.20014 0 2.32809 0H52.5947C53.7226 0 54.6398 0.918161 54.6398 2.0461V13.9539C54.6398 15.0818 53.7226 16 52.5947 16Z" fill="#A7A9AB"/>
<path d="M19.1321 4.18791L18.9252 3.54003C18.8745 3.38001 18.8316 3.20145 18.7925 3.04923H18.7847C18.7467 3.20145 18.7067 3.38391 18.6608 3.54003L18.4579 4.18791H19.1321ZM18.3798 4.5499L18.1534 5.29536H17.6578L18.5008 2.66675H19.1126L19.9664 5.29536H19.4521L19.2141 4.5499" fill="white"/>
<path d="M20.6835 3.39648L20.9918 4.35855C21.0465 4.52638 21.0845 4.67859 21.1196 4.83471H21.1313C21.1665 4.67859 21.2094 4.53028 21.2601 4.35855L21.5646 3.39648H22.0671L21.3421 5.29525H20.8708L20.1644 3.39648" fill="white"/>
<path d="M23.5141 4.36632C23.1745 4.36242 22.8506 4.43267 22.8506 4.72149C22.8506 4.90883 22.9716 4.99469 23.1238 4.99469C23.318 4.99469 23.4556 4.8698 23.5014 4.7332C23.5141 4.69807 23.5141 4.66294 23.5141 4.62782V4.36632ZM23.9815 4.83857C23.9815 5.0103 23.9893 5.17813 24.0127 5.29424H23.5795L23.5453 5.08446H23.5326C23.4204 5.23179 23.2214 5.33717 22.9716 5.33717C22.5891 5.33717 22.3754 5.06104 22.3754 4.77223C22.3754 4.29607 22.7999 4.05116 23.5014 4.05506V4.02384C23.5014 3.89895 23.4517 3.69209 23.116 3.69209C22.9287 3.69209 22.7335 3.75064 22.6047 3.8326L22.5111 3.52037C22.6516 3.4345 22.8974 3.35352 23.198 3.35352C23.8058 3.35352 23.9815 3.73893 23.9815 4.15654" fill="white"/>
<path d="M24.6596 3.39654H25.1387V5.29531H24.6596V3.39654ZM24.8967 3.12334C24.7376 3.12334 24.6323 3.00625 24.6323 2.86574C24.6323 2.71743 24.7406 2.60425 24.9016 2.60425C25.0645 2.60425 25.166 2.71743 25.1699 2.86574C25.1699 3.00625 25.0645 3.12334 24.9016 3.12334" fill="white"/>
<path d="M25.8285 5.29524H26.3086V2.52222H25.8285V5.29524Z" fill="white"/>
<path d="M28.0083 4.36632C27.6688 4.36242 27.3448 4.43267 27.3448 4.72149C27.3448 4.90883 27.4658 4.99469 27.618 4.99469C27.8132 4.99469 27.9498 4.8698 27.9966 4.7332C28.0083 4.69807 28.0083 4.66294 28.0083 4.62782V4.36632ZM28.4757 4.83857C28.4757 5.0103 28.4835 5.17813 28.5069 5.29424H28.0747L28.0395 5.08446H28.0278C27.9146 5.23179 27.7156 5.33717 27.4658 5.33717C27.0843 5.33717 26.8696 5.06104 26.8696 4.77223C26.8696 4.29607 27.295 4.05116 27.9966 4.05506V4.02384C27.9966 3.89895 27.9459 3.69209 27.6102 3.69209C27.4229 3.69209 27.2277 3.75064 27.0999 3.8326L27.0062 3.52037C27.1467 3.4345 27.3916 3.35352 27.6922 3.35352C28.3 3.35352 28.4757 3.73893 28.4757 4.15654" fill="white"/>
<path d="M29.6339 4.51075C29.6339 4.54978 29.6378 4.58881 29.6456 4.62394C29.6963 4.81908 29.8641 4.95959 30.07 4.95959C30.3705 4.95959 30.554 4.72151 30.554 4.3361C30.554 4.00045 30.3939 3.72724 30.0739 3.72724C29.8788 3.72724 29.7002 3.86775 29.6495 4.0785C29.6417 4.11363 29.6339 4.15656 29.6339 4.2034V4.51075ZM29.1538 2.52222H29.6339V3.65699H29.6417C29.7587 3.47355 29.9646 3.35354 30.2495 3.35354C30.714 3.35354 31.0448 3.73895 31.0409 4.31658C31.0409 4.99862 30.6086 5.33817 30.1793 5.33817C29.9334 5.33817 29.7158 5.2445 29.5792 5.01033H29.5714L29.548 5.29524H29.1382C29.146 5.16644 29.1538 4.95568 29.1538 4.76444" fill="white"/>
<path d="M31.6058 5.29524H32.0849V2.52222H31.6058V5.29524Z" fill="white"/>
<path d="M33.9524 4.14483C33.9563 3.9692 33.8783 3.68038 33.5592 3.68038C33.2626 3.68038 33.1377 3.94969 33.1182 4.14483H33.9524ZM33.1182 4.47951C33.1299 4.82296 33.3992 4.97127 33.7036 4.97127C33.9251 4.97127 34.0812 4.93615 34.2296 4.88541L34.2998 5.21228C34.1359 5.28351 33.9095 5.33327 33.6373 5.33327C33.0206 5.33327 32.6577 4.95566 32.6577 4.3751C32.6577 3.84821 32.9777 3.35352 33.5865 3.35352C34.2022 3.35352 34.4052 3.85992 34.4052 4.27753C34.4052 4.3673 34.3974 4.43755 34.3896 4.47951" fill="white"/>
<path d="M36.7869 4.99079C37.0592 4.99079 37.2504 4.72539 37.2504 4.33998C37.2504 4.04336 37.1177 3.6999 36.7908 3.6999C36.4513 3.6999 36.3147 4.03165 36.3147 4.34778C36.3147 4.71368 36.4981 4.99079 36.782 4.99079H36.7869ZM36.7713 5.33815C36.2366 5.33815 35.82 4.97127 35.82 4.35949C35.82 3.73503 36.2288 3.35352 36.8025 3.35352C37.3675 3.35352 37.7461 3.75064 37.7461 4.32827C37.7461 5.02591 37.2543 5.33815 36.7752 5.33815" fill="white"/>
<path d="M38.31 3.96139C38.31 3.74283 38.3032 3.55939 38.2954 3.39547H38.712L38.7355 3.68038H38.7472C38.833 3.53207 39.0399 3.35352 39.356 3.35352C39.6868 3.35352 40.0303 3.5672 40.0303 4.16825V5.29424H39.5502V4.22289C39.5502 3.94969 39.4487 3.74283 39.1882 3.74283C38.997 3.74283 38.8643 3.87943 38.8135 4.02384C38.7979 4.06287 38.7901 4.12141 38.7901 4.17606V5.29424H38.31" fill="white"/>
<path d="M42.2403 2.90869V3.39558H42.6959V3.75465H42.2403V4.5889C42.2403 4.82307 42.3027 4.94016 42.4852 4.94016C42.571 4.94016 42.6179 4.93626 42.6725 4.92064L42.6803 5.28264C42.6101 5.31094 42.4813 5.33338 42.333 5.33338C42.1544 5.33338 42.01 5.27483 41.9202 5.17824C41.8149 5.06895 41.768 4.89332 41.768 4.64354V3.75465H41.4987V3.39558H41.768V3.04139" fill="white"/>
<path d="M43.2296 2.52222H43.7097V3.65309H43.7175C43.7761 3.56332 43.858 3.48916 43.9556 3.43843C44.0532 3.38476 44.1654 3.35354 44.2864 3.35354C44.6103 3.35354 44.9489 3.56722 44.9489 4.17608V5.29524H44.4698V4.22681C44.4698 3.95361 44.3683 3.74285 44.1029 3.74285C43.9166 3.74285 43.7839 3.86775 43.7292 4.01215C43.7136 4.05509 43.7097 4.10582 43.7097 4.15656V5.29524H43.2296" fill="white"/>
<path d="M46.8047 4.14483C46.8086 3.9692 46.7306 3.68038 46.4105 3.68038C46.1139 3.68038 45.99 3.94969 45.9705 4.14483H46.8047ZM45.9705 4.47951C45.9822 4.82296 46.2505 4.97127 46.555 4.97127C46.7774 4.97127 46.9335 4.93615 47.0809 4.88541L47.1521 5.21228C46.9882 5.28351 46.7618 5.33327 46.4886 5.33327C45.8729 5.33327 45.5099 4.95566 45.5099 4.3751C45.5099 3.84821 45.83 3.35352 46.4379 3.35352C47.0536 3.35352 47.2565 3.85992 47.2565 4.27753C47.2565 4.3673 47.2487 4.43755 47.2409 4.47951" fill="white"/>
<path d="M12.4142 7.84398C12.4015 6.54333 13.4787 5.91008 13.5285 5.88081C12.9186 4.99095 11.9732 4.86996 11.6404 4.8602C10.8472 4.77726 10.0773 5.33635 9.67336 5.33635C9.26063 5.33635 8.63714 4.86898 7.96681 4.88264C7.10232 4.8963 6.29442 5.39685 5.85144 6.17255C4.93815 7.75616 5.61921 10.0823 6.49542 11.3625C6.93449 11.9889 7.44578 12.6894 8.1161 12.6641C8.77179 12.6368 9.0167 12.2465 9.80802 12.2465C10.5925 12.2465 10.8228 12.6641 11.5068 12.6485C12.2103 12.6368 12.6532 12.0191 13.0757 11.3859C13.5831 10.6677 13.7861 9.96033 13.7939 9.92423C13.7773 9.91838 12.4278 9.40319 12.4142 7.84398Z" fill="white"/>
<path d="M11.1223 4.0191C11.4746 3.57807 11.7175 2.97702 11.6492 2.36816C11.1389 2.39158 10.5008 2.72138 10.1329 3.15265C9.80801 3.53318 9.51627 4.15667 9.59238 4.74211C10.1661 4.78504 10.7545 4.4533 11.1223 4.0191Z" fill="white"/>
<path d="M20.3274 10.3272L19.8746 8.92895C19.8268 8.78649 19.7371 8.44986 19.6044 7.92102H19.5887C19.5361 8.14836 19.4502 8.48499 19.3341 8.92895L18.8891 10.3272H20.3274ZM21.8924 12.5606H20.9782L20.4776 10.9877H18.7389L18.2618 12.5606H17.3719L19.097 7.20581H20.1605" fill="white"/>
<path d="M25.4519 10.614C25.4519 10.2374 25.367 9.92808 25.1972 9.68415C25.0118 9.43046 24.763 9.30264 24.4508 9.30264C24.2391 9.30264 24.0459 9.37387 23.8751 9.5134C23.7034 9.65488 23.5902 9.83831 23.5365 10.0666C23.5102 10.172 23.4975 10.2589 23.4975 10.3272V10.9711C23.4975 11.2521 23.5834 11.4892 23.7551 11.6824C23.9278 11.8766 24.1512 11.9722 24.4264 11.9722C24.7503 11.9722 25.0021 11.8483 25.1806 11.5985C25.3621 11.3497 25.4519 11.0219 25.4519 10.614ZM26.3261 10.5818C26.3261 11.2385 26.1486 11.7585 25.7934 12.1391C25.4753 12.4786 25.0801 12.6474 24.6098 12.6474C24.1005 12.6474 23.7356 12.464 23.5131 12.0991H23.4975V14.1335H22.6389V9.97004C22.6389 9.5573 22.6291 9.13384 22.6076 8.69866H23.3619L23.4097 9.31142H23.4263C23.7122 8.8499 24.1464 8.61963 24.7289 8.61963C25.1836 8.61963 25.5651 8.80014 25.8685 9.16018C26.1729 9.5212 26.3261 9.99443 26.3261 10.5818Z" fill="white"/>
<path d="M29.8924 10.614C29.8924 10.2374 29.8075 9.92808 29.6378 9.68415C29.4524 9.43046 29.2036 9.30264 28.8913 9.30264C28.6796 9.30264 28.4874 9.37387 28.3157 9.5134C28.143 9.65488 28.0317 9.83831 27.979 10.0666C27.9517 10.172 27.939 10.2589 27.939 10.3272V10.9711C27.939 11.2521 28.0239 11.4892 28.1956 11.6824C28.3683 11.8766 28.5918 11.9722 28.8679 11.9722C29.1909 11.9722 29.4426 11.8483 29.6222 11.5985C29.8017 11.3497 29.8924 11.0219 29.8924 10.614ZM30.7657 10.5818C30.7657 11.2385 30.5891 11.7585 30.2339 12.1391C29.9159 12.4786 29.5217 12.6474 29.0504 12.6474C28.542 12.6474 28.1771 12.464 27.9537 12.0991H27.939V14.1335H27.0804V9.97004C27.0804 9.5573 27.0697 9.13384 27.0492 8.69866H27.8034L27.8512 9.31142H27.8678C28.1527 8.8499 28.5869 8.61963 29.1694 8.61963C29.6251 8.61963 30.0046 8.80014 30.31 9.16018C30.6145 9.5212 30.7657 9.99443 30.7657 10.5818Z" fill="white"/>
<path d="M35.7321 11.0589C35.7321 11.5136 35.5741 11.8844 35.256 12.1712C34.9067 12.4835 34.4217 12.6396 33.7983 12.6396C33.2216 12.6396 32.7591 12.5283 32.4088 12.3059L32.6079 11.5916C32.9855 11.819 33.3982 11.9322 33.849 11.9322C34.172 11.9322 34.4237 11.86 34.6042 11.7146C34.7837 11.5682 34.8735 11.3731 34.8735 11.1291C34.8735 10.9125 34.8003 10.7281 34.652 10.5798C34.5037 10.4315 34.2568 10.2939 33.9124 10.1661C32.9747 9.81582 32.5064 9.30356 32.5064 8.63031C32.5064 8.19025 32.6703 7.82923 32.9991 7.54822C33.327 7.26721 33.7641 7.12573 34.3095 7.12573C34.7974 7.12573 35.2023 7.2116 35.5253 7.3804L35.3106 8.08C35.0091 7.91607 34.6676 7.83314 34.2861 7.83314C33.9836 7.83314 33.7485 7.90729 33.5797 8.0556C33.4372 8.1883 33.365 8.35027 33.365 8.54054C33.365 8.75227 33.446 8.92693 33.6109 9.06451C33.7534 9.19135 34.0129 9.32893 34.3895 9.47821C34.8501 9.6636 35.1887 9.88021 35.4063 10.129C35.6229 10.3778 35.7321 10.6881 35.7321 11.0589Z" fill="white"/>
<path d="M38.5676 9.34262H37.6222V11.217C37.6222 11.6941 37.789 11.9322 38.1237 11.9322C38.2759 11.9322 38.4037 11.9195 38.5042 11.8932L38.5276 12.544C38.3598 12.6084 38.1364 12.6396 37.8612 12.6396C37.5226 12.6396 37.2572 12.5362 37.066 12.3303C36.8757 12.1234 36.7801 11.7761 36.7801 11.2892V9.34262H36.2161V8.69864H36.7801V7.99221L37.6222 7.73755V8.69864H38.5676" fill="white"/>
<path d="M41.9446 10.6257C41.9446 10.2696 41.8675 9.96516 41.7134 9.70952C41.5348 9.40119 41.2772 9.24702 40.9435 9.24702C40.5991 9.24702 40.3366 9.40119 40.1571 9.70952C40.0029 9.96516 39.9278 10.2754 39.9278 10.6423C39.9278 10.9985 40.0029 11.3029 40.1571 11.5575C40.3425 11.8659 40.602 12.02 40.9367 12.02C41.2636 12.02 41.5211 11.8639 41.7065 11.5497C41.8656 11.2902 41.9446 10.9819 41.9446 10.6257ZM42.8345 10.5984C42.8345 11.1916 42.6657 11.6785 42.3261 12.06C41.971 12.4523 41.4997 12.6474 40.9123 12.6474C40.3444 12.6474 39.8936 12.4591 39.557 12.0835C39.2214 11.7078 39.0535 11.2336 39.0535 10.6618C39.0535 10.0627 39.2262 9.57292 39.5736 9.19238C39.92 8.8099 40.3873 8.61963 40.9747 8.61963C41.5416 8.61963 41.9983 8.80794 42.3417 9.1836C42.6706 9.55047 42.8345 10.0208 42.8345 10.5984Z" fill="white"/>
<path d="M45.6231 9.45388C45.5382 9.43827 45.4485 9.43046 45.3528 9.43046C45.0513 9.43046 44.8172 9.54462 44.6532 9.77196C44.5108 9.97394 44.4396 10.2276 44.4396 10.534V12.5606H43.5819L43.5887 9.9154C43.5887 9.46949 43.578 9.06456 43.5575 8.69866H44.3049L44.3361 9.43827H44.3586C44.4493 9.18458 44.5927 8.97967 44.7879 8.82648C44.9791 8.68891 45.186 8.61963 45.4085 8.61963C45.4875 8.61963 45.5597 8.62548 45.6231 8.63524" fill="white"/>
<path d="M48.641 10.2247C48.6469 9.97101 48.5913 9.75049 48.4752 9.5651C48.3269 9.32703 48.0976 9.20701 47.7912 9.20701C47.5112 9.20701 47.2828 9.3241 47.1082 9.5573C46.9657 9.74269 46.8799 9.96515 46.8555 10.2247H48.641ZM49.4587 10.4472C49.4587 10.6013 49.4489 10.7301 49.4285 10.8365H46.8555C46.8642 11.218 46.9891 11.5097 47.2282 11.7107C47.4448 11.8912 47.7258 11.98 48.0702 11.98C48.4508 11.98 48.7981 11.9195 49.1113 11.7976L49.246 12.3937C48.8801 12.5518 48.4488 12.6328 47.9502 12.6328C47.3521 12.6328 46.8818 12.4562 46.5403 12.103C46.1998 11.7517 46.028 11.2785 46.028 10.6852C46.028 10.1027 46.1861 9.61779 46.5052 9.2314C46.8379 8.8177 47.2887 8.61182 47.8546 8.61182C48.4108 8.61182 48.8333 8.8177 49.1192 9.2314C49.3465 9.55925 49.4587 9.96515 49.4587 10.4472Z" fill="white"/>
</svg>
