<svg width="216" height="194" viewBox="0 0 216 194" fill="none" xmlns="http://www.w3.org/2000/svg">
<g clip-path="url(#clip0_1_1076)">
<path opacity="0.1" d="M114.925 194C156.182 194 189.627 188.64 189.627 182.028C189.627 175.416 156.182 170.056 114.925 170.056C73.6678 170.056 40.2224 175.416 40.2224 182.028C40.2224 188.64 73.6678 194 114.925 194Z" fill="black"/>
<path opacity="0.1" d="M92.6145 173.338C110.166 163.667 130.214 160.579 149.807 164.728C177.572 170.604 212.464 168.3 219.214 122.966C230.756 45.5382 182.384 25.1019 182.384 25.1019C182.384 25.1019 150.217 22.4195 131.195 12.2068C104.176 -2.29877 73.2926 -4.15142 46.1366 8.12611C28.7712 15.9693 14.4718 26.8974 12.0261 41.89C5.19478 83.8344 16.4146 106.942 -4.57409 120.634C-25.5628 134.327 -7.62635 171.918 8.4711 170.618C24.5686 169.317 60.9224 155.04 75.0907 171.575C80.1267 177.433 86.4936 176.712 92.6145 173.338Z" fill="black"/>
<path opacity="0.1" d="M202.435 177.742C208.473 177.742 213.367 176.009 213.367 173.872C213.367 171.735 208.473 170.002 202.435 170.002C196.397 170.002 191.503 171.735 191.503 173.872C191.503 176.009 196.397 177.742 202.435 177.742Z" fill="black"/>
<path d="M201.993 174.421C201.993 174.421 204.908 164.544 201.444 157.273C199.968 154.233 199.523 150.798 200.176 147.485C200.498 145.914 200.964 144.376 201.568 142.89" stroke="#535461" stroke-width="2" stroke-miterlimit="10"/>
<path d="M199.41 138.297C199.41 139.506 201.611 143.018 201.611 143.018C201.611 143.018 203.812 139.508 203.812 138.297C203.812 137.715 203.58 137.158 203.167 136.746C202.754 136.335 202.194 136.104 201.61 136.104C201.026 136.104 200.466 136.335 200.053 136.746C199.64 137.158 199.408 137.715 199.408 138.297H199.41Z" fill="white"/>
<path d="M195.771 145.004C196.432 146.019 200.197 147.775 200.197 147.775C200.197 147.775 200.129 143.637 199.469 142.621C199.151 142.133 198.652 141.791 198.082 141.669C197.511 141.548 196.915 141.657 196.425 141.973C195.935 142.289 195.591 142.786 195.469 143.354C195.347 143.922 195.456 144.516 195.774 145.004H195.771Z" fill="white"/>
<path d="M195.929 156.461C197.015 157.005 201.155 156.63 201.155 156.63C201.155 156.63 198.997 153.091 197.911 152.547C197.653 152.418 197.372 152.34 197.084 152.319C196.796 152.297 196.506 152.333 196.231 152.423C195.957 152.513 195.703 152.656 195.484 152.843C195.265 153.031 195.085 153.26 194.955 153.517C194.825 153.774 194.747 154.054 194.725 154.341C194.704 154.628 194.739 154.916 194.83 155.19C194.92 155.463 195.064 155.716 195.252 155.934C195.441 156.152 195.671 156.331 195.929 156.461Z" fill="white"/>
<path d="M198.011 165.105C198.983 165.83 203.132 166.15 203.132 166.15C203.132 166.15 201.606 162.302 200.63 161.576C200.397 161.405 200.133 161.281 199.853 161.211C199.572 161.142 199.281 161.128 198.995 161.17C198.709 161.213 198.434 161.311 198.187 161.459C197.939 161.608 197.723 161.803 197.551 162.034C197.379 162.266 197.254 162.529 197.184 162.808C197.114 163.087 197.1 163.377 197.143 163.662C197.186 163.947 197.285 164.22 197.433 164.467C197.582 164.714 197.779 164.929 198.011 165.1V165.105Z" fill="white"/>
<path d="M204.818 148.01C203.946 148.854 199.882 149.727 199.882 149.727C199.882 149.727 200.878 145.71 201.75 144.866C202.169 144.461 202.732 144.238 203.316 144.246C203.9 144.255 204.456 144.494 204.863 144.91C205.27 145.327 205.494 145.888 205.485 146.469C205.477 147.051 205.237 147.605 204.818 148.01Z" fill="white"/>
<path d="M207.119 158.146C206.033 158.691 201.893 158.316 201.893 158.316C201.893 158.316 204.05 154.777 205.136 154.233C205.658 153.971 206.262 153.926 206.816 154.108C207.371 154.29 207.83 154.684 208.093 155.203C208.356 155.722 208.401 156.323 208.218 156.875C208.035 157.427 207.64 157.885 207.119 158.146Z" fill="white"/>
<path d="M208.008 168.307C207.036 169.033 202.887 169.352 202.887 169.352C202.887 169.352 204.412 165.501 205.389 164.783C205.858 164.437 206.446 164.291 207.024 164.377C207.601 164.463 208.121 164.774 208.468 165.241C208.815 165.709 208.962 166.294 208.876 166.869C208.789 167.444 208.477 167.961 208.008 168.307Z" fill="white"/>
<path opacity="0.1" d="M10.5162 172.905C16.5539 172.905 21.4483 171.172 21.4483 169.035C21.4483 166.898 16.5539 165.165 10.5162 165.165C4.47862 165.165 -0.415833 166.898 -0.415833 169.035C-0.415833 171.172 4.47862 172.905 10.5162 172.905Z" fill="black"/>
<path d="M10.526 169.074C10.526 169.074 16.7621 147.991 9.35744 132.475C6.24787 125.962 5.22755 118.653 6.65358 111.585C7.33654 108.231 8.327 104.945 9.61252 101.771" stroke="#535461" stroke-width="2" stroke-miterlimit="10"/>
<path d="M5.01379 91.9632C5.01379 94.5463 9.71216 102.039 9.71216 102.039C9.71216 102.039 14.4105 94.5415 14.4105 91.9632C14.4105 90.7226 13.9155 89.5329 13.0344 88.6557C12.1533 87.7784 10.9582 87.2856 9.71216 87.2856C8.46607 87.2856 7.27103 87.7784 6.38991 88.6557C5.5088 89.5329 5.01379 90.7226 5.01379 91.9632Z" fill="white"/>
<path d="M-2.75286 106.274C-1.34141 108.451 6.69245 112.19 6.69245 112.19C6.69245 112.19 6.54669 103.357 5.13524 101.19C4.80764 100.659 4.3766 100.198 3.86746 99.8345C3.35833 99.4713 2.78137 99.2131 2.17053 99.075C1.55968 98.937 0.927286 98.922 0.310528 99.0309C-0.306231 99.1397 -0.894898 99.3703 -1.42086 99.7089C-1.94682 100.048 -2.39945 100.488 -2.75214 101.003C-3.10482 101.518 -3.35044 102.099 -3.47454 102.71C-3.59865 103.321 -3.59874 103.951 -3.4748 104.562C-3.35086 105.173 -3.1054 105.754 -2.75286 106.269V106.274Z" fill="white"/>
<path d="M-2.41519 130.731C-0.104878 131.895 8.73795 131.101 8.73795 131.101C8.73795 131.101 4.12219 123.55 1.81674 122.394C1.26578 122.118 0.665481 121.952 0.0501242 121.906C-0.565233 121.86 -1.1836 121.936 -1.76967 122.128C-2.9533 122.516 -3.93353 123.357 -4.49472 124.465C-5.05591 125.572 -5.15209 126.857 -4.7621 128.035C-4.37211 129.214 -3.5279 130.19 -2.41519 130.748V130.731Z" fill="white"/>
<path d="M2.02809 149.178C4.1149 150.714 12.9602 151.408 12.9602 151.408C12.9602 151.408 9.70483 143.185 7.61559 141.656C6.6137 140.919 5.3585 140.607 4.12613 140.791C2.89375 140.975 1.78515 141.638 1.0442 142.636C0.303252 143.633 -0.00934961 144.883 0.175165 146.11C0.359679 147.337 1.0262 148.44 2.02809 149.178Z" fill="white"/>
<path d="M16.5581 112.691C14.6972 114.49 6.02441 116.355 6.02441 116.355C6.02441 116.355 8.14767 107.779 10.0086 105.979C10.4512 105.55 10.9743 105.213 11.5481 104.985C12.1219 104.758 12.735 104.645 13.3526 104.653C13.9701 104.662 14.58 104.791 15.1473 105.034C15.7146 105.277 16.2282 105.629 16.6589 106.07C17.0896 106.511 17.4289 107.031 17.6574 107.603C17.8859 108.174 17.9991 108.784 17.9907 109.399C17.9822 110.014 17.8522 110.621 17.6081 111.186C17.3639 111.751 17.0104 112.262 16.5678 112.691H16.5581Z" fill="white"/>
<path d="M21.4775 134.33C19.1599 135.494 10.3243 134.691 10.3243 134.691C10.3243 134.691 14.9401 127.14 17.2456 125.984C18.3583 125.425 19.6483 125.329 20.832 125.717C22.0156 126.106 22.9958 126.946 23.557 128.054C24.1182 129.162 24.2144 130.446 23.8244 131.624C23.4344 132.803 22.5902 133.779 21.4775 134.337V134.33Z" fill="white"/>
<path d="M23.3602 156.013C21.2734 157.549 12.4282 158.243 12.4282 158.243C12.4282 158.243 15.6835 150.02 17.7727 148.491C18.7746 147.754 20.0298 147.442 21.2622 147.626C22.4946 147.81 23.6032 148.473 24.3441 149.471C25.0851 150.468 25.3977 151.718 25.2132 152.945C25.0286 154.172 24.3621 155.275 23.3602 156.013Z" fill="white"/>
<path d="M191.364 89.6365C191.959 89.3505 192.457 88.8983 192.798 88.3353C191.969 88.0792 191.163 87.7556 190.388 87.3678L191.085 84.3446C191.148 84.0624 191.153 83.7706 191.101 83.4862C191.049 83.2019 190.941 82.9307 190.783 82.6884C190.624 82.4462 190.419 82.2378 190.179 82.0753C189.939 81.9128 189.669 81.7996 189.384 81.7421L188.558 81.5607C187.985 81.4317 187.384 81.5317 186.885 81.8392C186.385 82.1468 186.026 82.6374 185.886 83.2054L185.733 83.8681C184.595 82.6468 183.663 81.2501 182.973 79.7323C182.731 79.2756 182.605 78.7663 182.607 78.2496C182.653 77.6329 183.02 77.0911 183.318 76.5566C184.339 74.7017 184.673 72.5487 184.261 70.4738C183.884 68.6163 182.93 66.9257 182.317 65.131C181.107 61.5776 181.246 57.7062 182.706 54.2472C183.549 52.2688 184.844 50.2202 184.3 48.1451C183.695 45.8304 181.142 44.655 178.955 43.5497C176.769 42.4444 174.454 40.5071 174.908 38.1586C175.051 37.4185 175.472 36.6929 175.301 35.9601C175.073 34.9926 173.943 34.5089 172.96 34.209C170.329 33.377 167.659 32.5377 164.894 32.4095C162.625 32.3055 160.254 32.7409 158.364 33.9163C157.804 34.2221 157.282 34.5932 156.809 35.0216C156.379 35.467 155.918 35.8831 155.432 36.2672C154.436 36.7679 153.245 36.7026 152.121 36.809C150.824 36.9279 149.572 37.3416 148.462 38.0183C147.78 38.377 147.165 38.849 146.642 39.4138C145.367 40.8166 144.806 42.8725 145.428 44.6405C145.555 44.9904 145.729 45.3216 145.945 45.6249C144.981 47.1991 144.472 49.0077 144.473 50.8515C144.473 56.0951 148.523 60.4171 153.748 61.0339C154.054 62.2021 154.351 63.4259 154.582 64.5602C154.519 64.616 154.454 64.6677 154.385 64.715C153.955 64.9206 153.464 65.0512 153.015 65.2278C152.683 65.3577 152.365 65.5198 152.065 65.7115C149.842 66.9039 148.703 69.487 147.784 71.8476C148.416 71.7339 149.043 71.6057 149.665 71.4533C149.633 71.5307 149.609 71.6057 149.587 71.6758C148.948 73.8526 145.425 85.9796 145.425 85.9796L146.174 84.3784C146.204 84.6068 146.166 84.839 146.064 85.046C145.753 85.6482 146.348 85.2104 147.294 84.3422C147.294 84.3929 147.306 84.422 147.342 84.4244C145.122 88.033 138.13 99.3013 134.651 103.873C130.329 104.451 127.181 104.946 127.181 104.946C126.497 104.952 125.824 105.118 125.216 105.43C124.362 105.866 123.643 106.523 123.133 107.332C122.622 108.14 122.34 109.071 122.315 110.025L122.072 117.685C122.072 117.685 120.221 126.898 120.257 132.144C120.229 133.03 120.301 133.917 120.471 134.787C120.762 136.102 120.904 137.444 120.896 138.79C120.884 140.367 120.741 141.94 120.471 143.494C120.483 143.506 120.505 143.519 120.52 143.531C120.49 143.707 120.471 143.804 120.471 143.804C120.823 144.145 121.902 144.394 123.279 144.573C122.891 146.726 121.462 148.927 117.272 149.089C111.15 149.318 109.879 150.387 109.636 150.936C109.583 151.038 109.568 151.154 109.592 151.265C109.913 155.307 119.033 154.84 121.754 154.997C122.155 155.007 122.556 154.971 122.949 154.888C123.192 154.845 123.435 154.789 123.695 154.724C124.348 154.56 125.082 154.327 125.847 154.052C126.766 153.72 127.732 153.326 128.67 152.898C129.139 152.685 129.598 152.465 130.043 152.243C130.339 152.093 130.626 151.943 130.903 151.793C132.29 151.043 133.415 150.293 133.913 149.71C133.959 149.657 134.001 149.6 134.039 149.541C134.051 149.519 134.063 149.497 134.075 149.476C134.088 149.454 134.119 149.398 134.139 149.357C134.158 149.316 134.163 149.301 134.173 149.272C134.182 149.243 134.199 149.2 134.211 149.164C134.224 149.127 134.231 149.098 134.241 149.064C134.25 149.031 134.255 148.997 134.262 148.963C134.27 148.929 134.277 148.888 134.282 148.849C134.287 148.81 134.282 148.794 134.282 148.765C134.408 147.461 133.424 145.688 132.625 144.493V139.443C132.625 139.443 133.757 127.551 133.735 122.302C133.769 121.484 133.718 120.663 133.585 119.855C133.519 119.604 133.478 119.347 133.463 119.088C133.464 118.685 133.604 118.295 133.859 117.982C134.114 117.669 134.469 117.452 134.865 117.368C137.712 115.893 145.068 116.495 150.568 117.231C145.79 117.956 135.101 119.209 135.101 120.636V124.022C135.11 124.844 135.427 125.632 135.99 126.233C136.554 126.834 137.322 127.204 138.145 127.27V184.998H141.949V127.287H175.758V184.998H179.563V126.624C180.475 126.158 181.241 125.452 181.778 124.582C182.315 123.712 182.601 122.712 182.607 121.69V120.851L189.688 90.3766C190.28 90.2118 190.844 89.9625 191.364 89.6365ZM177.25 120.399C177.026 119.431 175.447 118.573 172.93 117.905C177.201 115.82 178.103 111.685 178.071 108.473C178.079 107.383 177.988 106.295 177.801 105.222C178.072 104.995 178.278 104.702 178.4 104.372C178.523 104.042 178.556 103.685 178.499 103.338C178.553 102.699 178.413 102.059 178.098 101.5C175.571 96.4207 175.182 93.5184 175.129 89.5712C175.631 90.0381 176.211 90.4152 176.842 90.6862C178.333 91.3271 180 91.4408 181.635 91.4263C182.424 91.4263 183.214 91.3803 184.003 91.3199L177.25 120.399ZM151.207 90.0041C151.411 90.3863 151.535 90.6281 151.535 90.6281L152.232 90.0138C155.568 90.1275 156.282 91.7335 156.384 92.8001C156.375 92.9058 156.359 93.0109 156.336 93.1145L153.454 101.51C148.452 100.743 146.266 102.078 145.649 102.576C144.106 102.721 142.537 102.891 140.992 103.06C144.094 99.0401 148.37 93.6127 151.207 90.0041Z" fill="url(#paint0_linear_1_1076)"/>
<path d="M143.139 79.4541C143.139 79.4541 131.809 98.4717 129.154 100.997C129.154 100.997 117.823 112.703 123.583 111.881C124.006 111.82 132.297 104.842 132.781 103.701C133.264 102.559 148.943 82.2815 148.943 82.2815L146.708 80.2329L143.139 79.4541Z" fill="#F8BDC5"/>
<path d="M174.403 182.047H177.996V125.103H174.403V182.047Z" fill="#40414D"/>
<path d="M138.477 182.047H142.07V125.103H138.477V182.047Z" fill="#40414D"/>
<path d="M135.601 119.734C135.601 121.911 150.534 123.669 159.666 123.669C168.798 123.669 175.838 121.911 175.838 119.734C175.838 117.557 168.793 115.799 159.664 115.799C150.534 115.799 135.601 117.557 135.601 119.734Z" fill="#F6C6CD"/>
<path d="M176.497 126.175H138.152C137.816 126.176 137.483 126.112 137.172 125.985C136.861 125.858 136.578 125.671 136.34 125.435C136.102 125.199 135.913 124.919 135.784 124.61C135.655 124.301 135.589 123.97 135.589 123.635V119.734H180.87V121.821C180.87 122.976 180.409 124.083 179.589 124.9C178.769 125.716 177.656 126.175 176.497 126.175Z" fill="#40414D"/>
<path d="M176.462 125.501L174.552 125.072L184.07 83.091C184.169 82.653 184.439 82.2722 184.821 82.0324C185.202 81.7926 185.663 81.7134 186.103 81.8123L187.703 82.1718C188.143 82.2706 188.525 82.5395 188.766 82.9191C189.007 83.2987 189.086 83.758 188.987 84.196L180.146 123.19C179.967 123.982 179.478 124.671 178.789 125.104C178.099 125.538 177.265 125.681 176.469 125.503L176.462 125.501Z" fill="#40414D"/>
<path d="M132.781 141.557C132.781 141.557 136.408 146.073 134.897 147.879C133.385 149.686 125.84 153.14 123.408 152.997C120.838 152.847 112.233 153.297 111.92 149.386C111.92 149.386 111.315 147.579 119.176 147.28C127.038 146.98 124.608 138.841 124.608 138.841L132.781 141.557Z" fill="#594C76"/>
<path opacity="0.1" d="M176.008 103.628C176.008 103.628 179.635 115.963 168.752 118.077L156.96 117.475C156.96 117.475 140.331 114.164 135.795 116.573C135.795 116.573 133.981 116.873 134.581 119.282C135.181 121.69 133.675 137.944 133.675 137.944V143.361C133.675 143.361 123.394 143.361 122.186 142.152C122.186 142.152 123.092 137.337 122.186 133.423C121.28 129.51 123.697 117.168 123.697 117.168L123.94 109.752C123.958 108.834 124.221 107.937 124.703 107.154C125.185 106.371 125.867 105.73 126.68 105.297C127.253 104.995 127.889 104.834 128.536 104.828C128.536 104.828 149.096 101.517 156.353 102.119C163.609 102.721 176.008 103.628 176.008 103.628Z" fill="black"/>
<path d="M176.008 103.326C176.008 103.326 179.635 115.661 168.752 117.775L156.96 117.172C156.96 117.172 140.331 113.861 135.795 116.27C135.795 116.27 133.981 116.57 134.581 118.979C135.181 121.388 133.677 137.632 133.677 137.632V143.049C133.677 143.049 123.396 143.049 122.189 141.84C122.189 141.84 123.095 137.025 122.189 133.111C121.282 129.198 123.7 116.856 123.7 116.856L123.943 109.44C123.96 108.522 124.224 107.625 124.705 106.842C125.187 106.059 125.87 105.418 126.683 104.985C127.255 104.683 127.891 104.522 128.539 104.516C128.539 104.516 149.099 101.205 156.355 101.807C163.611 102.409 176.008 103.326 176.008 103.326Z" fill="#8B9CD1"/>
<path d="M155.75 63.8951C155.75 63.8951 150.308 70.2174 149.703 72.324C149.099 74.4307 142.447 79.8484 142.447 79.8484C142.447 79.8484 147.284 83.4545 146.385 85.2661C145.486 87.0776 152.726 79.2461 152.726 79.2461L161.192 66.9112L155.75 63.8951Z" fill="white"/>
<path opacity="0.1" d="M155.75 63.8951C155.75 63.8951 150.308 70.2174 149.703 72.324C149.099 74.4307 142.447 79.8484 142.447 79.8484C142.447 79.8484 147.284 83.4545 146.385 85.2661C145.486 87.0776 152.726 79.2461 152.726 79.2461L161.192 66.9112L155.75 63.8951Z" fill="black"/>
<path d="M152.121 56.6707C152.121 56.6707 154.842 65.3995 154.842 68.7106C154.842 72.0217 166.33 67.8085 166.017 66.0018C165.703 64.195 159.365 57.5729 159.061 54.8761C158.758 52.1793 152.121 56.6707 152.121 56.6707Z" fill="#F8BDC5"/>
<path opacity="0.1" d="M161.204 62.6906C161.204 62.6906 171.786 59.9818 173.297 75.3328C174.808 90.6838 172.083 92.4905 176.623 101.822C181.164 111.153 145.782 103.031 145.782 103.031C145.782 103.031 147.597 100.924 153.34 101.822L156.061 93.695C156.061 93.695 156.967 90.084 151.829 90.084C146.691 90.084 149.108 79.5484 149.108 79.5484C149.108 79.5484 151.829 70.5173 153.34 69.6152C154.851 68.713 157.56 63.2929 161.204 62.6906Z" fill="black"/>
<path d="M161.204 62.0884C161.204 62.0884 171.786 59.3796 173.297 74.7305C174.808 90.0815 172.083 91.8882 176.623 101.219C181.164 110.55 145.782 102.429 145.782 102.429C145.782 102.429 147.597 100.322 153.34 101.219L156.061 93.0927C156.061 93.0927 156.967 89.4817 151.829 89.4817C146.691 89.4817 149.108 78.9462 149.108 78.9462C149.108 78.9462 151.829 69.9151 153.34 69.0129C154.851 68.1108 157.56 62.6907 161.204 62.0884Z" fill="white"/>
<path d="M148.241 83.5658C148.241 83.5658 136.91 102.583 134.255 105.108C134.255 105.108 122.925 116.815 128.685 115.992C129.107 115.932 137.399 108.954 137.882 107.812C138.366 106.671 154.045 86.3931 154.045 86.3931L151.81 84.3446L148.241 83.5658Z" fill="#F8BDC5"/>
<path opacity="0.1" d="M167.542 76.2349L151.508 90.6838C151.508 90.6838 148.494 84.6638 147.587 84.6638C146.681 84.6638 158.471 66.9039 158.471 66.9039C158.471 66.9039 161.495 63.2929 163.308 65.0972C165.12 66.9015 170.564 65.6994 167.542 76.2349Z" fill="black"/>
<path d="M167.843 75.6327L151.81 90.0815C151.81 90.0815 148.785 84.0616 147.879 84.0616C146.973 84.0616 158.775 66.3017 158.775 66.3017C158.775 66.3017 161.799 62.6906 163.611 64.4949C165.424 66.2992 170.868 65.0972 167.843 75.6327Z" fill="white"/>
<path d="M154.842 62.0884C160.352 62.0884 164.819 57.6411 164.819 52.1551C164.819 46.6691 160.352 42.2219 154.842 42.2219C149.331 42.2219 144.864 46.6691 144.864 52.1551C144.864 57.6411 149.331 62.0884 154.842 62.0884Z" fill="#F8BDC5"/>
<path opacity="0.1" d="M149.99 48.89C148.185 49.1319 146.366 47.8548 145.768 46.1425C145.17 44.4301 145.7 42.4396 146.905 41.0827C148.11 39.7259 149.903 38.9664 151.715 38.7899C152.815 38.6834 153.989 38.7608 154.948 38.2142C155.553 37.8708 156.003 37.3145 156.51 36.8404C158.413 35.0555 161.17 34.4073 163.782 34.5282C166.393 34.6492 168.915 35.4643 171.402 36.2697C172.33 36.5696 173.399 37.017 173.613 37.9627C173.776 38.6738 173.37 39.3776 173.241 40.0911C172.814 42.3622 175.012 44.2293 177.065 45.3105C179.118 46.3916 181.538 47.5283 182.109 49.7704C182.621 51.7803 181.399 53.7611 180.602 55.6767C179.224 59.0313 179.094 62.7657 180.236 66.2073C180.819 67.9439 181.722 69.5934 182.077 71.3808C182.467 73.3873 182.153 75.4663 181.188 77.2701C180.904 77.7974 180.556 78.3222 180.515 78.9172C180.512 79.4168 180.63 79.9097 180.86 80.3539C181.735 82.3107 183.013 84.0629 184.611 85.4973C186.21 86.9317 188.092 88.0163 190.138 88.6812C189.489 89.8518 188.073 90.3403 186.766 90.6475C184.535 91.169 182.254 91.4432 179.963 91.465C178.423 91.4795 176.842 91.3707 175.435 90.7394C174.029 90.1082 172.807 88.9013 172.542 87.3896C172.389 86.5141 172.559 85.6095 172.449 84.7291C172.207 82.7459 170.606 81.1907 170.02 79.28C169.459 77.4539 169.133 77.1758 169.35 75.2772C169.566 73.3786 169.525 71.2695 168.281 69.8159C166.979 68.2922 164.69 67.9536 162.727 68.3865C160.764 68.8195 159.749 68.2075 157.956 69.1121C154.819 70.701 151.47 71.8347 148.01 72.4788C148.948 70.007 150.126 67.2812 152.585 66.2823C153.289 65.9969 154.105 65.8446 154.584 65.2568C155.347 64.3184 154.827 62.814 155.485 61.803C156.144 60.7921 157.711 60.7461 158.612 59.9044C159.377 59.1788 159.518 57.9913 159.222 56.99C158.925 55.9887 158.272 55.1349 157.611 54.3295C157.026 53.6055 156.428 52.8928 155.816 52.1914C155.245 51.6026 154.769 50.9305 154.402 50.1985C154.195 49.7148 154.234 48.8005 153.897 48.416C153.041 47.4413 151.032 48.7522 149.99 48.89Z" fill="black"/>
<path d="M150.357 48.6699C148.552 48.9118 146.732 47.6348 146.135 45.9224C145.537 44.21 146.067 42.2195 147.272 40.8626C148.477 39.5058 150.27 38.7463 152.082 38.5698C153.182 38.4633 154.356 38.5407 155.315 37.9941C155.92 37.6507 156.37 37.0944 156.877 36.6204C158.78 34.8354 161.537 34.1872 164.148 34.3082C166.76 34.4291 169.282 35.2442 171.769 36.0496C172.697 36.3495 173.766 36.7969 173.98 37.7426C174.143 38.4537 173.737 39.1575 173.608 39.871C173.181 42.1421 175.379 44.0092 177.432 45.0904C179.485 46.1715 181.904 47.3082 182.475 49.5503C182.988 51.5602 181.766 53.541 180.969 55.4566C179.591 58.8112 179.461 62.5456 180.602 65.9873C181.185 67.7238 182.089 69.3733 182.444 71.1607C182.833 73.1672 182.52 75.2462 181.555 77.05C181.27 77.5773 180.923 78.1021 180.882 78.6971C180.879 79.1967 180.997 79.6896 181.227 80.1338C182.102 82.0906 183.38 83.8428 184.978 85.2772C186.576 86.7116 188.459 87.7962 190.504 88.4611C189.856 89.6317 188.439 90.1203 187.132 90.4274C184.902 90.9489 182.621 91.2231 180.33 91.2449C178.79 91.2594 177.209 91.1506 175.802 90.5193C174.395 89.8881 173.173 88.6812 172.909 87.1695C172.756 86.294 172.926 85.3894 172.816 84.509C172.573 82.5258 170.972 80.9706 170.387 79.0599C169.826 77.2338 169.5 76.9557 169.716 75.0571C169.933 73.1585 169.891 71.0494 168.648 69.5958C167.345 68.0721 165.057 67.7335 163.094 68.1664C161.131 68.5994 160.116 67.9875 158.323 68.892C155.186 70.4809 151.837 71.6146 148.377 72.2587C149.315 69.7869 150.493 67.0611 152.952 66.0622C153.656 65.7768 154.472 65.6245 154.951 65.0367C155.714 64.0983 155.194 62.5939 155.852 61.5829C156.51 60.572 158.077 60.526 158.979 59.6843C159.744 58.9587 159.885 57.7712 159.588 56.7699C159.292 55.7686 158.639 54.9148 157.978 54.1094C157.393 53.3854 156.795 52.6727 156.183 51.9713C155.619 51.3819 155.149 50.7107 154.788 49.9808C154.582 49.4971 154.62 48.5829 154.283 48.1983C153.408 47.2212 151.399 48.5345 150.357 48.6699Z" fill="#EB6475"/>
<g opacity="0.1">
<path d="M124.953 141.218C124.93 140.418 124.815 139.622 124.608 138.848L124.761 138.899C124.912 139.663 124.976 140.441 124.953 141.218Z" fill="white"/>
<path d="M123.398 152.385C125.828 152.528 133.376 149.074 134.887 147.267C135.085 147.023 135.206 146.726 135.237 146.414C135.28 146.666 135.272 146.926 135.212 147.175C135.152 147.425 135.041 147.659 134.887 147.865C133.376 149.672 125.83 153.125 123.398 152.983C120.828 152.833 112.223 153.283 111.91 149.372C111.887 149.264 111.902 149.153 111.951 149.055C112.644 152.668 120.894 152.245 123.398 152.385Z" fill="white"/>
</g>
<path d="M58.8433 154.306C60.3009 153.822 62.4874 153.27 64.2098 153.466C65.8471 152.871 69.7001 151.319 72.3311 149.018C72.2544 146.74 72.312 144.46 72.5036 142.188C73.8494 126.951 70.8225 116.916 70.8225 116.916C70.8225 116.916 68.4466 109.256 68.7065 102.9C68.5534 103.188 68.4636 103.36 68.4636 103.36C68.2546 97.8767 66.3792 92.2027 64.975 88.6691C64.9211 88.6535 64.8683 88.6341 64.8171 88.611L63.221 84.9057C63.0959 84.6897 62.9965 84.46 62.9246 84.2212L62.6817 83.6335L62.757 83.6021C62.7327 83.5053 62.706 83.4037 62.6817 83.2997C61.6784 79.0744 60.9131 69.054 60.9131 69.054C58.2239 58.5089 64.6106 51.9834 64.6106 51.9834L75.4479 42.6887C75.3941 42.8094 75.3581 42.9373 75.3411 43.0684L75.4309 42.991C75.584 42.5556 75.7516 42.0235 75.9168 41.4334C75.53 41.161 75.1675 40.856 74.8333 40.5216C73.6009 39.3623 72.7533 37.8561 72.404 36.2043C72.1416 34.92 72.1926 33.5971 72.2461 32.2886L72.4258 27.8093C72.4338 26.9323 72.5233 26.0578 72.6931 25.1972C73.5118 21.6321 77.1704 19.1506 80.8411 18.9934C82.0096 18.9451 83.1757 19.0926 84.3394 19.1797C85.2847 19.2568 86.2339 19.277 87.1817 19.2401C87.2896 19.2462 87.3967 19.2182 87.4878 19.1603C87.5712 19.0784 87.6191 18.9673 87.6214 18.8507C87.64 18.6429 87.616 18.4335 87.5508 18.2352C87.4857 18.0369 87.3808 17.8538 87.2424 17.697C87.1005 17.5727 86.9354 17.4774 86.7566 17.4165L87.0189 17.4794C86.8899 17.3788 86.7444 17.3011 86.5889 17.2496C87.5267 17.4697 88.4863 17.6995 89.2928 18.2171C89.5236 18.3681 89.7357 18.5459 89.9244 18.7467C90.4239 19.1831 90.7482 19.7843 90.8379 20.4398C91.2581 20.031 91.6614 19.5812 91.8096 19.02C91.8655 18.7945 91.8655 18.5587 91.8096 18.3331C91.8728 18.4122 91.9343 18.4928 91.9942 18.575C91.9942 18.5508 91.9942 18.5266 91.9772 18.5024C92.6626 19.3509 93.1452 20.3434 93.3887 21.4048C93.4805 21.2877 93.5481 21.1537 93.5877 21.0105C93.6273 20.8673 93.6381 20.7177 93.6195 20.5704C93.6729 20.7348 93.7239 20.9017 93.7701 21.071C93.7919 20.9612 93.7977 20.8487 93.7871 20.7373C94.2078 22.0186 94.3978 23.3639 94.3483 24.711C94.3483 26.0558 93.7507 28.1479 92.3028 28.6195C92.2299 28.6437 92.1522 28.6631 92.0744 28.68C92.8873 29.9369 93.3742 31.375 93.4914 32.8654C93.6086 34.3558 93.3525 35.8518 92.746 37.2194C92.1395 38.587 91.2015 39.7833 90.0163 40.7011C88.831 41.6189 87.4355 42.2296 85.9549 42.4782C85.9322 42.6395 85.9095 42.8112 85.8869 42.9934H85.8286C85.7897 43.3562 85.7581 43.7383 85.7338 44.1374C86.0981 44.4934 86.4968 44.8126 86.9242 45.0904C88.1378 45.8049 89.4916 46.2512 90.8938 46.3988C92.5677 46.5266 94.1951 47.0081 95.6674 47.8113C97.3971 48.7787 99.3114 50.1791 99.9066 51.8843C100.908 54.731 106.408 59.1401 110.11 59.6891L111.422 59.6142L111.516 59.5851V59.6093L111.837 59.59H111.857H111.942V59.6093L112.274 59.59C112.274 59.59 112.308 59.7424 112.352 60.0132C114.211 59.3796 118.153 57.614 123.284 52.9799C129.003 47.8161 136.721 48.832 139.697 49.4826C139.798 49.5048 139.89 49.5573 139.961 49.633C140.031 49.7087 140.077 49.8039 140.092 49.9061C140.107 50.0083 140.09 50.1126 140.044 50.205C139.997 50.2974 139.924 50.3736 139.833 50.4234C138.633 51.0813 136.767 52.0366 135.893 52.1431C135.893 52.1431 137.695 54.0006 135.781 54.9922C135.552 55.1045 135.295 55.1511 135.041 55.1268C134.786 55.1024 134.544 55.0081 134.34 54.8543C133.42 54.1844 130.859 55.7033 127.152 56.4941C127.152 56.4941 116.686 67.2764 111.495 68.9452C111.375 69.181 111.243 69.4103 111.099 69.6321L110.778 69.6055L110.761 69.6321H110.717L110.678 69.9707C110.678 69.9707 102.601 69.5474 99.9892 66.6282C99.8025 66.4623 99.6309 66.2802 99.4766 66.084L102.285 101.27H102.258L102.285 101.604H100.22C100.04 105.935 100.225 110.274 100.774 114.575V137.503C100.774 137.503 100.881 139.523 96.6707 142.462C92.2549 145.521 87.9996 148.805 83.9215 152.298L83.4114 152.738C84.1863 159.752 85.8067 172.832 87.1574 173.321L86.3241 173.466C87.7599 175.268 91.8047 180.211 93.0413 180.349C94.5548 180.516 95.563 182.86 93.0413 183.363C90.714 183.827 84.6649 184.432 78.0644 181.892C77.5873 181.708 77.1862 181.369 76.9255 180.93C76.6647 180.492 76.5593 179.979 76.6262 179.474L77.112 175.778C77.0194 175.83 76.9448 175.908 76.8983 176.003C76.563 177.007 76.8983 174.663 76.8983 174.663C75.5158 170.238 74.4299 165.726 73.6478 161.158L68.6458 165.446C68.6458 165.446 68.5437 165.322 68.3712 165.1C67.1566 167.867 64.9702 173.519 65.456 177.665C66.129 183.356 59.7398 178.335 60.4127 174.987C60.9569 172.278 58.5299 160.804 57.5825 156.523C57.4812 156.064 57.5539 155.584 57.7866 155.174C58.0192 154.765 58.3956 154.456 58.8433 154.306Z" fill="url(#paint1_linear_1_1076)"/>
<path d="M111.043 61.4451C111.043 61.4451 115.804 60.6276 122.862 54.2545C128.449 49.2117 135.98 50.2057 138.895 50.8394C138.999 50.8548 139.094 50.9029 139.168 50.9765C139.241 51.0502 139.289 51.1455 139.304 51.2483C139.319 51.3512 139.3 51.4561 139.251 51.5475C139.201 51.639 139.123 51.7121 139.029 51.7561C137.856 52.397 136.034 53.3306 135.181 53.437C135.181 53.437 136.94 55.251 135.071 56.2208C134.847 56.3303 134.597 56.3756 134.349 56.3517C134.101 56.3278 133.864 56.2356 133.665 56.0854C132.766 55.4324 130.264 56.915 126.647 57.6865C126.647 57.6865 112.53 72.2321 109.247 69.7796L111.043 61.4451Z" fill="#FEC3BE"/>
<path d="M86.7469 41.6801C86.7469 41.6801 85.4326 47.2429 86.7469 51.1587L80.8362 51.9762L75.5864 49.352V45.9296C75.5864 45.9296 78.0498 40.7005 77.3914 34.654L86.7469 41.6801Z" fill="#FEC3BE"/>
<path d="M70.0037 162.127C70.0037 162.127 65.7305 170.462 66.3937 176.018C67.0569 181.573 60.8062 176.671 61.4694 173.403C62.0015 170.759 59.6304 159.554 58.7073 155.375C58.6057 154.923 58.6768 154.449 58.9068 154.047C59.1368 153.645 59.5091 153.342 59.9511 153.198C61.9262 152.552 65.2276 151.747 66.8893 152.971C69.3478 154.772 70.0037 162.127 70.0037 162.127Z" fill="#5A5773"/>
<path d="M86.2561 171.277C86.2561 171.277 91.8436 178.468 93.3158 178.632C94.788 178.797 95.7792 181.085 93.3158 181.573C91.0444 182.025 85.1362 182.618 78.6911 180.136C78.2246 179.956 77.8326 179.625 77.578 179.196C77.3233 178.767 77.2208 178.265 77.287 177.771L78.2126 170.786L86.2561 171.277Z" fill="#5A5773"/>
<path d="M95.4488 94.9575L100.793 95.6685C100.793 95.6685 99.5447 104.598 100.857 114.406V136.795C100.857 136.795 100.961 138.766 96.8505 141.632C92.5391 144.62 88.3843 147.825 84.4025 151.236L69.5058 164.084C69.5058 164.084 63.5952 156.894 64.4163 152.644C64.4163 152.644 74.2649 149.538 75.5791 144.471C76.3322 141.569 80.1512 139.15 83.2778 137.615C87.3056 135.634 89.5017 131.133 88.3988 126.799C88.2166 126.063 87.9346 125.356 87.5607 124.697C84.9346 120.121 81.1594 109.825 81.1594 109.825L88.3818 96.0966L95.4488 94.9575Z" fill="#605D82"/>
<path opacity="0.05" d="M95.4731 94.9575L100.818 95.6685C100.818 95.6685 99.569 104.598 100.881 114.406V136.795C100.881 136.795 100.985 138.766 96.8748 141.632C92.5665 144.621 88.415 147.829 84.4365 151.241L69.5398 164.089C69.5398 164.089 63.6292 156.898 64.4503 152.649C64.4503 152.649 74.2989 149.543 75.6131 144.476C76.3662 141.574 80.1852 139.155 83.3117 137.62C87.3396 135.639 89.5357 131.138 88.4328 126.803C88.2506 126.068 87.9686 125.361 87.5947 124.702C84.9686 120.126 81.1933 109.83 81.1933 109.83L88.4158 96.1015L95.4731 94.9575Z" fill="black"/>
<path d="M87.5679 171.768C87.5679 171.768 77.8773 173.403 77.5542 174.395C77.2311 175.386 77.5542 173.086 77.5542 173.086C77.5542 173.086 71.9667 156.253 73.2858 141.38C74.6049 126.508 71.6436 116.711 71.6436 116.711C71.6436 116.711 68.1963 105.597 70.1665 99.2239C72.1367 92.8509 92.8202 95.6274 92.8202 95.6274C92.8202 95.6274 85.5977 112.444 85.7629 120.459C85.7629 120.459 84.9418 144.646 83.4648 147.425C83.4648 147.417 85.7629 171.115 87.5679 171.768Z" fill="#605D82"/>
<path d="M86.4189 45.9296C86.4189 45.9296 85.435 51.9762 75.584 49.3616L82.1432 99.0425C82.1432 99.0425 101.184 99.6956 101.022 97.4076L97.0886 67.3393L86.4189 45.9296Z" fill="white"/>
<path opacity="0.1" d="M86.1735 45.6031C86.1735 45.6031 88.0392 47.596 90.9156 47.8452C92.5497 47.9708 94.1381 48.4416 95.5751 49.2262C97.2756 50.167 99.1292 51.536 99.705 53.2048C100.854 56.4724 108.077 61.8659 111.366 60.7219L110.217 70.527C110.217 70.527 100.861 70.0433 99.2191 66.4419L102.01 101.415H99.5519C99.5519 101.415 98.2377 91.9366 97.2538 89.9751C96.2699 88.0136 94.2997 77.229 94.1345 74.612C93.9693 71.9951 91.5084 56.9561 89.373 54.3464L86.1711 46.5826L86.1735 45.6031Z" fill="black"/>
<path opacity="0.1" d="M86.1735 46.0941C86.1735 46.0941 88.3599 47.925 91.2436 48.1717C92.8776 48.2973 94.4661 48.7681 95.9031 49.5527C97.6036 50.4936 99.4572 51.8625 100.033 53.5313C101.182 56.7989 108.404 62.1924 111.694 61.0484L110.545 70.8535C110.545 70.8535 101.189 70.3698 99.5471 66.7685L102.341 101.739H99.8799C99.8799 101.739 98.5656 92.2607 97.5817 90.2992C96.5978 88.3377 94.6277 77.5531 94.4625 74.9361C94.2973 72.3192 91.8363 57.2802 89.7009 54.6705L86.1711 47.0712L86.1735 46.0941Z" fill="black"/>
<path d="M86.1735 45.7676C86.1735 45.7676 88.3599 47.5985 91.2436 47.8452C92.8776 47.9708 94.4661 48.4416 95.9031 49.2262C97.6036 50.1671 99.4572 51.536 100.033 53.2048C101.182 56.4724 108.404 61.8659 111.694 60.7219L110.545 70.527C110.545 70.527 101.189 70.0433 99.5471 66.442L102.338 101.415H99.8799C99.8799 101.415 98.5656 91.9366 97.5817 89.9751C96.5978 88.0136 94.6277 77.229 94.4625 74.6121C94.2973 71.9951 91.8363 56.9561 89.7009 54.3464L86.1711 46.7471L86.1735 45.7676Z" fill="#67647E"/>
<path opacity="0.1" d="M77.802 39.4743C78.0158 37.9264 77.5882 36.959 77.3914 35.1426L86.7468 42.1711C86.7468 42.1711 86.5233 43.1216 86.3533 44.5099C85.8866 44.585 85.4146 44.623 84.9418 44.6236C81.6768 44.6236 79.3349 42.0961 77.802 39.4743Z" fill="black"/>
<path d="M84.9419 44.135C89.8377 44.135 93.8065 40.1837 93.8065 35.3094C93.8065 30.4352 89.8377 26.4839 84.9419 26.4839C80.046 26.4839 76.0771 30.4352 76.0771 35.3094C76.0771 40.1837 80.046 44.135 84.9419 44.135Z" fill="#FEC3BE"/>
<path opacity="0.1" d="M94.6155 26.6581C94.6677 25.1682 94.4199 23.683 93.8867 22.29C94.0306 22.5083 94.0908 22.7708 94.0565 23.0297C94.0222 23.2885 93.8955 23.5265 93.6996 23.7001C93.4159 22.183 92.6361 20.802 91.4816 19.7722C92.1133 19.8738 92.4364 20.655 92.2833 21.2742C92.1303 21.8934 91.6492 22.3698 91.1877 22.81C91.2411 21.874 90.6216 21.0033 89.8345 20.4882C89.0474 19.973 88.1097 19.7626 87.1938 19.5352C87.5122 19.6478 87.7843 19.8621 87.9675 20.1447C88.1508 20.4274 88.2349 20.7624 88.2069 21.0976C88.2046 21.2116 88.1575 21.3202 88.0757 21.4C87.987 21.4572 87.8824 21.4851 87.7769 21.4798C86.8518 21.5161 85.9253 21.4967 85.0025 21.4217C83.8686 21.2946 82.728 21.234 81.5869 21.2403C78.0012 21.3903 74.43 23.8162 73.6308 27.2869C73.4654 28.1269 73.3784 28.9802 73.3708 29.8361L73.1959 34.209C73.1449 35.486 73.0939 36.78 73.3514 38.0328C73.5968 39.202 74.0988 40.3028 74.8217 41.2561C75.5445 42.2095 76.4701 42.9919 77.5323 43.5473C78.8199 41.6898 78.934 39.3026 79.381 37.0896C79.4504 36.5768 79.641 36.0877 79.9374 35.6626C80.2605 35.2611 80.8289 35.0071 81.3099 35.1982C81.791 35.3893 81.9999 36.1221 81.599 36.4486C81.944 36.8671 82.6242 36.5551 83.0202 36.1826C84.147 35.1192 84.923 33.7402 85.2455 32.2281C85.4058 31.4663 85.5662 30.5351 86.3047 30.2715C86.5632 30.2007 86.8334 30.1826 87.0991 30.2183C88.6612 30.3247 91.1051 30.968 92.621 30.4746C94.0324 30.003 94.6155 27.9689 94.6155 26.6581Z" fill="black"/>
<path d="M94.4527 26.4936C94.5049 25.0037 94.2571 23.5186 93.7239 22.1255C93.8678 22.3438 93.9281 22.6064 93.8937 22.8652C93.8594 23.1241 93.7327 23.362 93.5368 23.5356C93.2541 22.0168 92.4742 20.6339 91.3189 19.6029C91.9505 19.7045 92.2736 20.4857 92.1205 21.1049C91.9675 21.7241 91.4865 22.2005 91.0249 22.6407C91.0783 21.7047 90.4589 20.834 89.6717 20.3188C88.8846 19.8037 87.9469 19.5933 87.031 19.3659C87.3495 19.4785 87.6215 19.6928 87.8047 19.9754C87.988 20.258 88.0721 20.5931 88.0441 20.9283C88.0418 21.0423 87.9947 21.1509 87.9129 21.2307C87.8242 21.2879 87.7196 21.3158 87.6141 21.3105C86.689 21.3468 85.7625 21.3274 84.8398 21.2524C83.7058 21.1253 82.5652 21.0647 81.4241 21.071C77.8384 21.221 74.2672 23.6469 73.468 27.1176C73.3026 27.9575 73.2156 28.8109 73.208 29.6668L73.0331 34.0397C72.9821 35.3167 72.9311 36.6107 73.1886 37.8635C73.436 39.0301 73.9389 40.128 74.6617 41.0787C75.3844 42.0294 76.309 42.8096 77.3695 43.3635C78.6571 41.506 78.7713 39.1188 79.2183 36.9057C79.2876 36.3929 79.4783 35.9039 79.7746 35.4788C80.0977 35.0773 80.6661 34.8233 81.1472 35.0144C81.6282 35.2055 81.8371 35.9383 81.4362 36.2648C81.7812 36.6832 82.4614 36.3712 82.8574 35.9988C83.9842 34.9353 84.7602 33.5564 85.0827 32.0443C85.243 31.2825 85.4034 30.3513 86.1419 30.0877C86.4004 30.0169 86.6706 29.9988 86.9363 30.0344C88.4984 30.1409 90.9423 30.7842 92.4582 30.2908C93.8672 29.8506 94.4527 27.8069 94.4527 26.4936Z" fill="#916168"/>
<path opacity="0.1" d="M112.109 60.7195C112.109 60.7195 113.424 66.766 110.96 70.5246L109.566 70.4109L110.326 60.8211L112.109 60.7195Z" fill="black"/>
<path d="M111.781 60.7195C111.781 60.7195 113.096 66.766 110.632 70.5246L109.238 70.4109L109.998 60.8211L111.781 60.7195Z" fill="#FD6F8D"/>
<path opacity="0.1" d="M76.4877 44.2148L65.9006 53.2846C65.9006 53.2846 59.6572 59.6577 62.2881 69.9538C62.2881 69.9538 63.4372 84.9879 64.7515 85.6434C64.7515 85.6434 69.3478 94.7954 69.6758 103.457C69.6758 103.457 75.8318 91.1215 78.6231 98.6362C81.4144 106.151 87.8984 107.215 87.8984 107.215L84.2859 62.7632C84.2859 62.7632 75.1758 46.9914 76.4877 44.2148Z" fill="black"/>
<path d="M76.1597 44.2148L65.5726 53.2846C65.5726 53.2846 59.3341 59.6577 61.9602 69.9538C61.9602 69.9538 63.1093 84.9879 64.4235 85.6434C64.4235 85.6434 69.0199 94.7954 69.3478 103.457C69.3478 103.457 75.8318 90.4637 78.6231 97.9808C81.4144 105.498 87.5704 107.215 87.5704 107.215L83.9507 62.7632C83.9507 62.7632 74.8455 46.9914 76.1597 44.2148Z" fill="#67647E"/>
<path d="M71.318 82.5379C71.318 82.5379 68.6919 80.7408 64.4235 85.6434L74.928 104.601L78.4579 99.2795C78.4579 99.2795 70.9901 84.6638 71.318 82.5379Z" fill="#FEC3BE"/>
<path opacity="0.1" d="M73.8616 83.5996C73.8616 83.5996 68.053 90.096 65.7864 89.0536L63.6874 84.1801L71.561 80.8206L73.8616 83.5996Z" fill="black"/>
<path d="M73.8616 83.2731C73.8616 83.2731 68.053 89.7695 65.7864 88.7271L63.6874 83.8632L71.561 80.4941L73.8616 83.2731Z" fill="#FD6F8D"/>
<path opacity="0.1" d="M78.1032 98.0581C78.1032 98.0581 75.3386 103.701 73.8616 104.03L75.9945 106.482L79.1138 100.598L78.1032 98.0581Z" fill="black"/>
<path d="M78.2684 98.2202C78.2684 98.2202 75.5038 103.863 74.0267 104.192L76.1597 106.644L79.279 100.76L78.2684 98.2202Z" fill="#4D4981"/>
<path opacity="0.1" d="M73.0405 63.334C73.0405 63.334 72.7125 75.1006 74.0244 79.5122L73.0405 63.334Z" fill="black"/>
<path opacity="0.1" d="M99.6345 65.622C99.6345 65.622 97.6643 64.969 97.6643 63.334L99.6345 65.622Z" fill="black"/>
<path d="M139.319 53.5644L125.551 51.3492L125.392 52.3281L139.16 54.5433L139.319 53.5644Z" fill="#40414D"/>
<path d="M143.837 54.7793C143.837 54.7793 142.411 55.7468 141.04 55.9209C140.79 55.9566 140.535 55.9566 140.285 55.9209C139.029 55.7202 138.378 55.1083 138.259 54.3899C138.212 54.059 138.267 53.7217 138.417 53.4225C138.757 52.7767 139.568 52.4018 140.824 52.605C141.208 52.6776 141.574 52.8221 141.903 53.0307C142.641 53.5025 143.294 54.0935 143.837 54.7793Z" fill="#40414D"/>
<path d="M143.837 54.7793C143.837 54.7793 142.411 55.7468 141.04 55.9209C140.998 55.7705 141.008 55.6101 141.07 55.4662C141.202 55.2614 141.357 55.0717 141.531 54.9003C141.674 54.7019 141.713 54.373 141.502 54.2521C141.452 54.231 141.404 54.2051 141.359 54.1747C141.232 54.061 141.359 53.8578 141.466 53.7369C141.67 53.5313 141.903 53.287 141.9 53.0113C142.641 53.4888 143.295 54.0864 143.837 54.7793Z" fill="#F8BDC5"/>
</g>
<defs>
<linearGradient id="paint0_linear_1_1076" x1="151.2" y1="184.998" x2="151.2" y2="32.3829" gradientUnits="userSpaceOnUse">
<stop stop-color="#808080" stop-opacity="0.25"/>
<stop offset="0.54" stop-color="#808080" stop-opacity="0.12"/>
<stop offset="1" stop-color="#808080" stop-opacity="0.1"/>
</linearGradient>
<linearGradient id="paint1_linear_1_1076" x1="98.8061" y1="183.776" x2="98.8061" y2="17.2496" gradientUnits="userSpaceOnUse">
<stop stop-color="#808080" stop-opacity="0.25"/>
<stop offset="0.54" stop-color="#808080" stop-opacity="0.12"/>
<stop offset="1" stop-color="#808080" stop-opacity="0.1"/>
</linearGradient>
<clipPath id="clip0_1_1076">
<rect width="226" height="194" fill="white" transform="translate(-5)"/>
</clipPath>
</defs>
</svg>
