<svg width="33" height="40" viewBox="0 0 33 40" fill="none" xmlns="http://www.w3.org/2000/svg">
<path d="M31.3483 16.1622L32.0716 12.9911C32.1035 12.8512 32.1034 12.706 32.0715 12.5662C32.0396 12.4263 31.9766 12.2955 31.8872 12.1833L29.8594 9.63999L29.1361 6.46888C29.1041 6.32905 29.041 6.19821 28.9516 6.08607C28.8622 5.97394 28.7486 5.88337 28.6194 5.8211L25.6883 4.40999L23.6583 1.86554C23.5689 1.75332 23.4553 1.66269 23.326 1.60036C23.1968 1.53804 23.0551 1.50563 22.9116 1.50554H19.6583L16.7272 0.0944326C16.5979 0.0321957 16.4562 -0.00012207 16.3127 -0.00012207C16.1692 -0.00012207 16.0276 0.0321957 15.8983 0.0944326L12.9694 1.50554H9.71719C9.57369 1.50563 9.43205 1.53804 9.30278 1.60036C9.17352 1.66269 9.05995 1.75332 8.97052 1.86554L6.94163 4.40888L4.01052 5.81999C3.8813 5.88226 3.76776 5.97282 3.67832 6.08496C3.58888 6.1971 3.52583 6.32794 3.49385 6.46777L2.76941 9.63999L0.74163 12.1833C0.65223 12.2955 0.589233 12.4263 0.557303 12.5662C0.525374 12.706 0.525331 12.8512 0.557185 12.9911L1.28052 16.1622L0.558299 19.3333C0.526446 19.4732 0.526484 19.6184 0.558414 19.7582C0.590343 19.8981 0.653345 20.0289 0.742744 20.1411L2.76941 22.6844L3.49274 25.8555C3.52472 25.9954 3.58777 26.1262 3.67721 26.2383C3.76665 26.3505 3.88019 26.441 4.00941 26.5033L6.26941 27.5911L1.51719 33.8444C1.42061 33.9746 1.35849 34.1271 1.33659 34.2877C1.31468 34.4483 1.33371 34.6118 1.3919 34.7631C1.45009 34.9144 1.54555 35.0486 1.66944 35.1531C1.79332 35.2576 1.9416 35.3292 2.10052 35.3611L5.82941 36.0655L7.50385 39.4711C7.57707 39.6158 7.68566 39.7396 7.81955 39.8311C7.95343 39.9226 8.10826 39.9787 8.26966 39.9944C8.43105 40.01 8.59378 39.9846 8.74273 39.9205C8.89168 39.8564 9.02201 39.7557 9.12163 39.6278L15.0583 31.8233L15.9027 32.2289C16.032 32.2911 16.1737 32.3234 16.3172 32.3234C16.4607 32.3234 16.6023 32.2911 16.7316 32.2289L17.5761 31.8233L23.5116 39.6278C23.6113 39.7557 23.7416 39.8564 23.8905 39.9205C24.0395 39.9846 24.2022 40.01 24.3636 39.9944C24.525 39.9787 24.6798 39.9226 24.8137 39.8311C24.9476 39.7396 25.0562 39.6158 25.1294 39.4711L26.8039 36.0655L30.5327 35.3611C30.6917 35.3292 30.8399 35.2576 30.9638 35.1531C31.0877 35.0486 31.1832 34.9144 31.2414 34.7631C31.2996 34.6118 31.3186 34.4483 31.2967 34.2877C31.2748 34.1271 31.2126 33.9746 31.1161 33.8444L26.3616 27.5933L28.6205 26.5055C28.7497 26.4433 28.8633 26.3527 28.9527 26.2406C29.0422 26.1284 29.1052 25.9976 29.1372 25.8578L29.8605 22.6867L31.8883 20.1433C31.9777 20.0312 32.0407 19.9003 32.0726 19.7605C32.1046 19.6206 32.1046 19.4754 32.0727 19.3355L31.3483 16.1622ZM8.53607 37.2411L7.33274 34.7967C7.26737 34.6635 7.17189 34.5474 7.05386 34.4575C6.93583 34.3676 6.7985 34.3065 6.65274 34.2789L3.97385 33.7722L7.70274 28.87L8.97164 30.4611C9.06107 30.5733 9.17463 30.664 9.3039 30.7263C9.43316 30.7886 9.5748 30.821 9.7183 30.8211H12.9694L13.3027 30.98L8.53607 37.2411ZM25.9805 34.2767C25.8348 34.3042 25.6974 34.3654 25.5794 34.4553C25.4614 34.5451 25.3659 34.6613 25.3005 34.7944L24.0972 37.2389L19.3305 30.9778L19.6639 30.8189H22.9161C23.0596 30.8188 23.2012 30.7864 23.3305 30.7241C23.4597 30.6617 23.5733 30.5711 23.6627 30.4589L24.9316 28.8678L28.6583 33.77L25.9805 34.2767ZM29.4361 16.3744L30.1027 19.31L28.2294 21.6667C28.1399 21.7789 28.0769 21.91 28.045 22.05L27.3783 24.9855L24.6583 26.2889C24.5286 26.3512 24.4147 26.4419 24.325 26.5544L22.4483 28.9078H19.4372C19.2937 28.9078 19.1521 28.94 19.0227 29.0022L16.3105 30.3089L13.6027 29C13.4734 28.9378 13.3318 28.9055 13.1883 28.9055H10.1772L8.30052 26.5555C8.21082 26.4431 8.09687 26.3523 7.96718 26.29L5.25496 24.9833L4.5883 22.0478C4.5564 21.9078 4.49336 21.7767 4.40385 21.6644L2.52608 19.3111L3.19274 16.3755C3.22473 16.2355 3.22473 16.09 3.19274 15.95L2.52608 13.0144L4.40385 10.6611C4.49336 10.5488 4.5564 10.4178 4.5883 10.2778L5.25496 7.34221L7.96718 6.03554C8.09687 5.97325 8.21082 5.88247 8.30052 5.76999L10.1772 3.41665H13.1883C13.3318 3.41669 13.4734 3.38441 13.6027 3.32221L16.315 2.01554L19.0283 3.32221C19.1576 3.38441 19.2993 3.41669 19.4427 3.41665H22.4539L24.325 5.7711C24.4147 5.88358 24.5286 5.97436 24.6583 6.03665L27.3705 7.34332L28.0372 10.2789C28.0691 10.4189 28.1321 10.5499 28.2216 10.6622L30.1027 13.0144L29.4361 15.95C29.404 16.09 29.404 16.2355 29.4361 16.3755V16.3744Z" fill="#0081CF"/>
<path d="M23.5961 13.3933C23.3913 13.2595 23.1519 13.1883 22.9072 13.1883C22.6626 13.1883 22.4232 13.2595 22.2183 13.3933L19.6361 15.08L17.3906 11.3955C17.278 11.2112 17.12 11.0588 16.9317 10.9531C16.7433 10.8474 16.531 10.7919 16.315 10.7919C16.099 10.7919 15.8866 10.8474 15.6983 10.9531C15.51 11.0588 15.3519 11.2112 15.2394 11.3955L12.9939 15.08L10.4128 13.3933C10.2079 13.2598 9.9687 13.1888 9.72421 13.1889C9.47972 13.189 9.24054 13.2603 9.03584 13.3939C8.83113 13.5276 8.66975 13.718 8.57134 13.9418C8.47294 14.1656 8.44178 14.4132 8.48166 14.6544L9.685 21.8378C9.73415 22.1317 9.88593 22.3988 10.1134 22.5914C10.3408 22.7841 10.6292 22.8898 10.9272 22.89H21.7139C22.012 22.8898 22.3003 22.7841 22.5277 22.5914C22.7552 22.3988 22.907 22.1317 22.9561 21.8378L24.155 14.6466C24.1949 14.4052 24.1636 14.1574 24.0649 13.9334C23.9662 13.7094 23.8045 13.5191 23.5994 13.3855L23.5961 13.3933ZM20.6417 20.3789H11.9894L11.4339 17.0711L12.7017 17.8989C12.8429 17.9911 13.0013 18.054 13.1673 18.0839C13.3334 18.1138 13.5037 18.11 13.6683 18.0728C13.8328 18.0356 13.9883 17.9657 14.1253 17.8673C14.2624 17.7689 14.3782 17.644 14.4661 17.5L16.3117 14.4711L18.1572 17.5C18.2451 17.644 18.361 17.7689 18.498 17.8673C18.6351 17.9657 18.7905 18.0356 18.955 18.0728C19.1196 18.11 19.29 18.1138 19.456 18.0839C19.622 18.054 19.7804 17.9911 19.9217 17.8989L21.1894 17.0711L20.6417 20.3789Z" fill="#E6760F"/>
<path d="M16.315 9.91441C17.0109 9.91441 17.575 9.35029 17.575 8.65441C17.575 7.95853 17.0109 7.39441 16.315 7.39441C15.6191 7.39441 15.055 7.95853 15.055 8.65441C15.055 9.35029 15.6191 9.91441 16.315 9.91441Z" fill="#E6760F"/>
<path d="M25.1316 13.2378C25.8275 13.2378 26.3916 12.6737 26.3916 11.9778C26.3916 11.2819 25.8275 10.7178 25.1316 10.7178C24.4358 10.7178 23.8716 11.2819 23.8716 11.9778C23.8716 12.6737 24.4358 13.2378 25.1316 13.2378Z" fill="#E6760F"/>
<path d="M7.49828 13.2378C8.19416 13.2378 8.75828 12.6737 8.75828 11.9778C8.75828 11.2819 8.19416 10.7178 7.49828 10.7178C6.8024 10.7178 6.23828 11.2819 6.23828 11.9778C6.23828 12.6737 6.8024 13.2378 7.49828 13.2378Z" fill="#E6760F"/>
</svg>
