<svg width="66" height="40" viewBox="0 0 66 40" fill="none" xmlns="http://www.w3.org/2000/svg">
<path d="M19.0761 28.08C18.4445 28.08 17.8271 28.2672 17.302 28.6181C16.7768 28.969 16.3675 29.4678 16.1258 30.0513C15.8841 30.6348 15.8209 31.2768 15.9441 31.8963C16.0673 32.5157 16.3715 33.0847 16.8181 33.5313C17.2647 33.9779 17.8337 34.2821 18.4531 34.4053C19.0725 34.5285 19.7146 34.4652 20.2981 34.2236C20.8816 33.9819 21.3804 33.5725 21.7312 33.0474C22.0821 32.5223 22.2694 31.9049 22.2694 31.2733C22.2685 30.4266 21.9318 29.6149 21.3331 29.0162C20.7345 28.4176 19.9227 28.0808 19.0761 28.08ZM19.0761 32.3377C18.8656 32.3377 18.6598 32.2753 18.4847 32.1584C18.3097 32.0414 18.1732 31.8751 18.0927 31.6806C18.0121 31.4861 17.991 31.2721 18.0321 31.0656C18.0732 30.8591 18.1745 30.6695 18.3234 30.5206C18.4723 30.3718 18.6619 30.2704 18.8684 30.2293C19.0749 30.1882 19.2889 30.2093 19.4834 30.2899C19.6779 30.3704 19.8442 30.5069 19.9611 30.6819C20.0781 30.857 20.1405 31.0628 20.1405 31.2733C20.1402 31.5555 20.028 31.8261 19.8284 32.0256C19.6289 32.2252 19.3583 32.3374 19.0761 32.3377Z" fill="#0081CF"/>
<path d="M48.0305 28.08C47.3989 28.08 46.7815 28.2672 46.2563 28.6181C45.7312 28.969 45.3219 29.4678 45.0802 30.0513C44.8385 30.6348 44.7753 31.2768 44.8985 31.8963C45.0217 32.5157 45.3258 33.0847 45.7724 33.5313C46.219 33.9779 46.7881 34.2821 47.4075 34.4053C48.027 34.5285 48.669 34.4652 49.2525 34.2236C49.836 33.9819 50.3347 33.5725 50.6856 33.0474C51.0365 32.5223 51.2238 31.9049 51.2238 31.2733C51.2229 30.4266 50.8862 29.6149 50.2875 29.0162C49.6888 28.4176 48.8771 28.0808 48.0305 28.08ZM48.0305 32.3377C47.8199 32.3377 47.6142 32.2753 47.4391 32.1584C47.2641 32.0414 47.1276 31.8751 47.0471 31.6806C46.9665 31.4861 46.9454 31.2721 46.9865 31.0656C47.0276 30.8591 47.1289 30.6695 47.2778 30.5206C47.4267 30.3718 47.6163 30.2704 47.8228 30.2293C48.0293 30.1882 48.2433 30.2093 48.4378 30.2899C48.6323 30.3704 48.7986 30.5069 48.9155 30.6819C49.0325 30.857 49.0949 31.0628 49.0949 31.2733C49.0946 31.5555 48.9824 31.8261 48.7828 32.0256C48.5833 32.2252 48.3127 32.3374 48.0305 32.3377Z" fill="#0081CF"/>
<path d="M59.7394 26.2366V23.7555C59.7365 22.3449 59.1748 20.9928 58.1773 19.9954C57.1798 18.9979 55.8278 18.4362 54.4172 18.4333H53.9905L49.9905 7.48883C49.6775 6.63654 49.1039 5.90456 48.3511 5.39692C47.5983 4.88928 46.7047 4.6318 45.7972 4.66106H10.5605C9.71386 4.66194 8.90213 4.99866 8.30346 5.59734C7.70478 6.19601 7.36806 7.00774 7.36718 7.85439V26.2366C7.04367 26.4235 6.77502 26.6922 6.58818 27.0158C6.40135 27.3393 6.30291 27.7063 6.30273 28.0799V30.2088C6.30332 30.7733 6.5278 31.3144 6.92692 31.7135C7.32604 32.1126 7.86719 32.3371 8.43162 32.3377H11.7005C11.9651 34.1046 12.8551 35.7178 14.2087 36.8838C15.5623 38.0498 17.2895 38.6911 19.0761 38.6911C20.8626 38.6911 22.5898 38.0498 23.9434 36.8838C25.297 35.7178 26.1871 34.1046 26.4516 32.3377H40.655C40.9195 34.1046 41.8096 35.7178 43.1632 36.8838C44.5167 38.0498 46.2439 38.6911 48.0305 38.6911C49.8171 38.6911 51.5443 38.0498 52.8979 36.8838C54.2515 35.7178 55.1415 34.1046 55.4061 32.3377H58.6761C59.2405 32.3371 59.7816 32.1126 60.1808 31.7135C60.5799 31.3144 60.8044 30.7733 60.805 30.2088V28.0799C60.8048 27.7063 60.7063 27.3393 60.5195 27.0158C60.3327 26.6922 60.064 26.4235 59.7405 26.2366H59.7394ZM49.3883 12.0455L51.7216 18.4322H45.2627V12.0455H49.3883ZM10.5605 6.78995H45.795C46.2653 6.76276 46.7321 6.88693 47.1268 7.14426C47.5215 7.4016 47.8234 7.77857 47.9883 8.21995L48.6094 9.91662H44.1983C43.916 9.91662 43.6452 10.0288 43.4456 10.2284C43.246 10.428 43.1338 10.6988 43.1338 10.9811V19.4966C43.1338 19.7789 43.246 20.0497 43.4456 20.2493C43.6452 20.4489 43.916 20.5611 44.1983 20.5611H54.4205C55.2672 20.5619 56.0789 20.8987 56.6776 21.4973C57.2762 22.096 57.613 22.9077 57.6138 23.7544V25.9499H53.2394C51.8437 24.5947 49.9748 23.8367 48.0294 23.8367C46.084 23.8367 44.2151 24.5947 42.8194 25.9499H38.375C38.0926 25.9499 37.8219 26.0621 37.6223 26.2617C37.4227 26.4613 37.3105 26.7321 37.3105 27.0144C37.3105 27.2967 37.4227 27.5674 37.6223 27.7671C37.8219 27.9667 38.0926 28.0788 38.375 28.0788H41.3027C40.9821 28.752 40.7652 29.4697 40.6594 30.2077H26.4516C26.3458 29.4697 26.1289 28.752 25.8083 28.0788H28.8016C29.0839 28.0788 29.3547 27.9667 29.5543 27.7671C29.7539 27.5674 29.8661 27.2967 29.8661 27.0144C29.8661 26.7321 29.7539 26.4613 29.5543 26.2617C29.3547 26.0621 29.0839 25.9499 28.8016 25.9499H24.2861C22.8904 24.5947 21.0215 23.8367 19.0761 23.8367C17.1306 23.8367 15.2618 24.5947 13.8661 25.9499H9.49607V7.85439C9.49636 7.57217 9.6086 7.3016 9.80816 7.10204C10.0077 6.90248 10.2783 6.79024 10.5605 6.78995ZM8.43162 28.0799H12.345C12.0244 28.7531 11.8075 29.4708 11.7016 30.2088H8.43162V28.0799ZM19.0772 36.5955C18.0245 36.5955 16.9955 36.2834 16.1203 35.6985C15.2451 35.1137 14.5629 34.2825 14.1601 33.31C13.7573 32.3375 13.6519 31.2674 13.8572 30.235C14.0626 29.2026 14.5695 28.2542 15.3138 27.5099C16.0581 26.7656 17.0065 26.2587 18.0389 26.0533C19.0713 25.848 20.1414 25.9534 21.1139 26.3562C22.0864 26.759 22.9176 27.4412 23.5024 28.3164C24.0873 29.1916 24.3994 30.2206 24.3994 31.2733C24.3965 32.6833 23.8353 34.0349 22.8385 35.0322C21.8417 36.0296 20.4906 36.5917 19.0805 36.5955H19.0772ZM48.0305 36.5955C46.9779 36.5955 45.9489 36.2834 45.0736 35.6985C44.1984 35.1137 43.5162 34.2825 43.1134 33.31C42.7106 32.3375 42.6052 31.2674 42.8106 30.235C43.0159 29.2026 43.5228 28.2542 44.2671 27.5099C45.0115 26.7656 45.9598 26.2587 46.9922 26.0533C48.0246 25.848 49.0947 25.9534 50.0672 26.3562C51.0397 26.759 51.871 27.4412 52.4558 28.3164C53.0406 29.1916 53.3527 30.2206 53.3527 31.2733C53.3498 32.6839 52.7881 34.0359 51.7906 35.0334C50.7932 36.0309 49.4412 36.5926 48.0305 36.5955ZM58.675 30.2088H55.4061C55.3002 29.4708 55.0833 28.7531 54.7627 28.0799H58.6761V30.2088H58.675Z" fill="#0081CF"/>
<path d="M30.4783 26.1744C30.4783 26.4001 30.5452 26.6207 30.6705 26.8083C30.7958 26.9959 30.974 27.1422 31.1824 27.2286C31.3909 27.315 31.6203 27.3376 31.8416 27.2937C32.0629 27.2498 32.2662 27.1412 32.4259 26.9817C32.5855 26.8222 32.6943 26.619 32.7384 26.3977C32.7826 26.1765 32.7601 25.947 32.6739 25.7385C32.5877 25.53 32.4417 25.3517 32.2542 25.2262C32.0666 25.1006 31.8461 25.0335 31.6205 25.0333C31.4705 25.0332 31.322 25.0626 31.1835 25.1199C31.0449 25.1771 30.919 25.2612 30.8129 25.3672C30.7068 25.4731 30.6226 25.599 30.5652 25.7375C30.5078 25.876 30.4783 26.0245 30.4783 26.1744Z" fill="#0081CF"/>
<path d="M28.6949 19.3377H31.9094C33.1316 19.2977 33.1316 17.8444 31.9094 17.8044H29.6138V16.2711H30.6238C31.8461 16.23 31.8461 14.7777 30.6238 14.7366H29.6138V13.2022H31.9094C33.1316 13.1611 33.1316 11.7089 31.9094 11.6689H28.6949C28.4718 11.6506 28.2505 11.7207 28.0786 11.8641C27.9067 12.0075 27.7981 12.2127 27.7761 12.4355V18.5711C27.7981 18.7939 27.9067 18.9991 28.0786 19.1425C28.2505 19.2859 28.4718 19.356 28.6949 19.3377Z" fill="#E6760F"/>
<path d="M21.8061 19.3378C22.0292 19.356 22.2505 19.2859 22.4224 19.1425C22.5943 18.9991 22.703 18.7939 22.725 18.5711V16.27H23.0761L24.6594 18.9144C25.2505 19.8033 26.805 19.1511 26.3027 18.2289L24.9627 15.99C27.4338 14.8455 26.5083 11.6978 23.645 11.6689H21.8083C21.5852 11.6506 21.3638 11.7207 21.1919 11.8641C21.02 12.0075 20.9114 12.2128 20.8894 12.4355V18.5711C20.9114 18.7935 21.0197 18.9983 21.1911 19.1417C21.3625 19.285 21.5833 19.3554 21.8061 19.3378ZM22.725 13.2022H23.6439C24.8561 13.2433 24.8661 14.6833 23.655 14.7355H22.7261L22.725 13.2022Z" fill="#E6760F"/>
<path d="M15.7816 19.3378C16.0047 19.356 16.2261 19.2859 16.398 19.1425C16.5699 18.9991 16.6785 18.7939 16.7005 18.5711V16.27H17.7105C18.9327 16.2289 18.9327 14.7767 17.7105 14.7355H16.7005V13.2011H18.9961C20.2183 13.16 20.2183 11.7078 18.9961 11.6678H15.7816C15.5585 11.6495 15.3371 11.7196 15.1653 11.863C14.9934 12.0064 14.8847 12.2117 14.8627 12.4344V18.57C14.8844 18.793 14.993 18.9985 15.1649 19.1421C15.3368 19.2858 15.5583 19.356 15.7816 19.3378Z" fill="#E6760F"/>
<path d="M35.126 19.3377H38.3405C39.5627 19.2977 39.5627 17.8444 38.3405 17.8044H36.0438V16.2711H37.0538C38.2761 16.23 38.2761 14.7777 37.0538 14.7366H36.0438V13.2022H38.3405C39.5627 13.1611 39.5627 11.7089 38.3405 11.6689H35.126C34.9029 11.6506 34.6816 11.7207 34.5097 11.8641C34.3378 12.0075 34.2291 12.2127 34.2072 12.4355V18.5711C34.2291 18.7939 34.3378 18.9991 34.5097 19.1425C34.6816 19.2859 34.9029 19.356 35.126 19.3377Z" fill="#E6760F"/>
</svg>
