<svg width="118" height="23" viewBox="0 0 118 23" fill="none" xmlns="http://www.w3.org/2000/svg">
<path d="M10.4849 13.1609H21.2013V14.5836C21.2013 15.781 20.2291 16.7541 19.0308 16.7541H8.31439V15.3314C8.31439 14.134 9.28661 13.1609 10.4849 13.1609Z" fill="white"/>
<path d="M16.5549 8.5144V19.2308C16.5549 20.4283 15.5827 21.4014 14.3843 21.4014H12.9616V10.685C12.9616 9.4875 13.9338 8.5144 15.1322 8.5144H16.5549Z" fill="white"/>
<path d="M7.64483 20.3085C6.37347 19.5923 5.15929 18.7574 4.05158 17.7763C3.49464 17.2889 2.9773 16.7531 2.49339 16.183C2.01124 15.6119 1.5678 15.0005 1.18507 14.3467L0.913205 13.847L0.669491 13.3411C0.51552 12.9918 0.367707 12.6179 0.251569 12.2589C0.0140132 11.5295 -0.148756 10.772 -0.226182 9.99948C-0.371355 8.45888 -0.163714 6.84351 0.51288 5.37682L0.787389 4.83748L1.10677 4.32102L1.12701 4.28846L1.16484 4.23655L1.20531 4.18112L1.28626 4.07114L1.44727 3.85031C1.5854 3.6893 1.72529 3.52213 1.86783 3.36904C2.42652 2.77955 3.07232 2.28068 3.77003 1.87859C4.46774 1.47475 5.22176 1.17649 5.99865 0.973243C6.77379 0.771761 7.57884 0.66706 8.38829 0.674979C8.59065 0.678498 8.79301 0.692576 8.99538 0.702254L9.56991 0.766482C9.77579 0.801675 9.98959 0.834229 10.1893 0.875581C10.3838 0.923092 10.5817 0.960925 10.7744 1.01723C11.5478 1.2284 12.2921 1.53194 12.9898 1.91203C14.3861 2.67309 15.6153 3.71745 16.5848 4.97034L15.1841 4.8674C15.7217 4.36061 16.313 3.91629 16.942 3.53972C17.5711 3.16315 18.2398 2.85257 18.9375 2.62733C20.3285 2.17598 21.8278 1.99737 23.2971 2.23053C23.481 2.249 23.6622 2.2974 23.8444 2.33259C24.0274 2.36602 24.206 2.41529 24.3846 2.46896L24.6521 2.54727L24.6855 2.55695L24.7022 2.56223L24.7515 2.57894L24.8095 2.60094L24.9266 2.64581L25.1597 2.73467L25.2759 2.77955L25.4087 2.84113C25.5856 2.9256 25.7677 3.0083 25.9366 3.09805L26.417 3.37871C26.7258 3.58284 27.0311 3.79224 27.3109 4.03243C28.4468 4.97122 29.3213 6.20915 29.8114 7.59577C30.0569 8.2882 30.2047 9.01758 30.2364 9.75576L30.2311 10.3092V10.3778L30.2276 10.4306L30.2249 10.4614L30.2135 10.5854L30.1871 10.8353C30.1317 11.2189 30.0639 11.5744 29.9627 11.9193C29.7657 12.6135 29.4832 13.2733 29.1287 13.8822C28.775 14.4919 28.3667 15.0621 27.903 15.5794C26.9731 16.6114 25.8891 17.4605 24.7409 18.1696C23.5962 18.8858 22.4006 19.4841 21.1969 20.063C22.3002 19.3099 23.415 18.5744 24.4506 17.7561C25.4817 16.937 26.4487 16.0448 27.208 15.0119C27.5837 14.4937 27.9242 13.9552 28.1951 13.3886C28.4705 12.8237 28.6711 12.2307 28.7943 11.6325C28.8603 11.3324 28.8911 11.028 28.9131 10.75L28.9201 10.501L28.9245 10.376V10.3453L28.9263 10.3294C28.9272 10.3083 28.9254 10.3497 28.9254 10.3426V10.3356L28.9228 10.2801L28.9034 9.83495C28.8453 9.24282 28.694 8.66037 28.4644 8.10871C28.2339 7.55793 27.9312 7.03531 27.559 6.5646C27.1842 6.09653 26.7549 5.6742 26.285 5.30907C26.0519 5.12255 25.7994 4.96594 25.5477 4.81109L25.1571 4.60257L24.7805 4.4354L24.6855 4.39316L24.5676 4.35269L24.3318 4.26999L24.2139 4.22863L24.1549 4.2084L24.1479 4.20576C24.1145 4.19432 24.1849 4.21808 24.1752 4.21544L24.162 4.21192L24.1356 4.20488L23.9218 4.14945C23.7801 4.10986 23.6376 4.07378 23.4907 4.05267C23.3446 4.02979 23.2021 3.99284 23.0534 3.98316C21.8797 3.83183 20.6646 3.99724 19.5323 4.38173C18.9639 4.57265 18.4237 4.84364 17.9107 5.14982C17.3996 5.45953 16.9218 5.8229 16.4916 6.23202L15.7384 6.94821L15.0918 6.12908C14.27 5.08823 13.245 4.19784 12.0871 3.56172C11.5082 3.24498 10.8993 2.98719 10.272 2.8033C10.1154 2.75403 9.95616 2.72236 9.79778 2.68012C9.64205 2.64493 9.496 2.62206 9.34467 2.5895L8.83525 2.52351C8.67424 2.51472 8.5141 2.49976 8.35222 2.49448C7.05974 2.45401 5.74174 2.75755 4.59356 3.36552C4.01902 3.66818 3.48672 4.04827 3.02569 4.49874L2.71247 4.82604L2.38957 5.22373L2.1133 5.62141L1.86959 6.04286C1.56516 6.61915 1.34608 7.24735 1.21147 7.90107C1.07597 8.55479 1.02846 9.23226 1.0487 9.91149C1.0663 10.5916 1.16044 11.2744 1.32585 11.943C1.40943 12.2835 1.50709 12.5959 1.62147 12.9223L1.81592 13.4159L2.03148 13.8927C2.33238 14.5245 2.68783 15.1351 3.09344 15.7167C3.49728 16.3009 3.95392 16.8499 4.43343 17.3848C5.39861 18.4485 6.49576 19.4058 7.64483 20.305V20.3085Z" fill="white"/>
<path d="M35.7103 18.6969V6.65894H40.4572C44.2296 6.65894 46.8466 9.0587 46.8466 12.6691C46.8466 16.2796 44.2296 18.6969 40.4761 18.6969H35.7116H35.7103ZM44.2282 12.6691C44.2282 10.5582 42.9285 8.91563 40.4747 8.91563H38.2733V16.4415H40.4572C42.8394 16.4415 44.2296 14.7274 44.2296 12.6691H44.2282Z" fill="white"/>
<path d="M48.616 18.6967V9.97902H50.9078V11.1519C51.5395 10.3934 52.6044 9.76172 53.6868 9.76172V11.9995C53.5249 11.9631 53.3265 11.9455 53.0552 11.9455C52.2967 11.9455 51.2871 12.3788 50.9078 12.9376V18.6954H48.616V18.6967Z" fill="white"/>
<path d="M60.9969 18.6969V17.5956C60.4016 18.2448 59.3543 18.9129 57.929 18.9129C56.0165 18.9129 55.1135 17.8655 55.1135 16.169V9.97925H57.4053V15.2674C57.4053 16.4767 58.037 16.8735 59.0114 16.8735C59.8955 16.8735 60.6 16.3863 60.9969 15.8815V9.97925H63.2886V18.6969H60.9969Z" fill="white"/>
<path d="M65.3834 20.9346L66.4118 19.2921C67.1164 20.0506 68.0544 20.357 69.1369 20.357C70.2193 20.357 71.5555 19.8886 71.5555 18.1192V17.2716C70.8699 18.1381 69.9318 18.6253 68.848 18.6253C66.6818 18.6253 65.0041 17.1096 65.0041 14.2037C65.0041 11.2978 66.6467 9.76318 68.848 9.76318C69.8954 9.76318 70.851 10.1964 71.5555 11.0994V9.98049H73.8473V18.1205C73.8473 21.4232 71.2842 22.2357 69.1369 22.2357C67.6562 22.2357 66.4834 21.8929 65.3834 20.936V20.9346ZM71.5569 15.6114V12.7784C71.1601 12.2183 70.33 11.8039 69.589 11.8039C68.2717 11.8039 67.3688 12.7069 67.3688 14.2037C67.3688 15.7005 68.2717 16.6035 69.589 16.6035C70.3287 16.6035 71.1587 16.1702 71.5569 15.6114Z" fill="white"/>
<path d="M75.3481 17.0003L76.7559 14.9973C77.6035 15.8814 78.9221 16.6399 80.5823 16.6399C82.0076 16.6399 82.6757 16.0082 82.6757 15.3037C82.6757 13.2103 75.745 14.672 75.745 10.1411C75.745 8.13816 77.478 6.47803 80.311 6.47803C82.2235 6.47803 83.8121 7.0557 85.0039 8.15705L83.5786 10.0696C82.6041 9.16798 81.3044 8.75227 80.0775 8.75227C78.995 8.75227 78.3809 9.22196 78.3809 9.94405C78.3809 11.839 85.2927 10.5582 85.2927 15.0513C85.2927 17.2527 83.7041 18.9141 80.4743 18.9141C78.1461 18.9141 76.4859 18.1381 75.3481 17.0016V17.0003Z" fill="white"/>
<path d="M87.1701 16.5131V11.9836H85.726V9.98061H87.1701V7.59839H89.4619V9.98061H91.23V11.9836H89.4619V15.9004C89.4619 16.4605 89.7508 16.8749 90.2555 16.8749C90.5984 16.8749 90.9236 16.748 91.0492 16.6036L91.5364 18.3541C91.1936 18.6605 90.5795 18.9143 89.6239 18.9143C88.0177 18.9143 87.1688 18.0842 87.1688 16.5145L87.1701 16.5131Z" fill="white"/>
<path d="M92.2424 14.3292C92.2424 11.8566 93.9754 9.76318 96.8448 9.76318C99.7143 9.76318 101.465 11.8566 101.465 14.3292C101.465 16.8019 99.7319 18.9128 96.8448 18.9128C93.9578 18.9128 92.2424 16.8005 92.2424 14.3292ZM99.0826 14.3292C99.0826 12.9755 98.289 11.8026 96.8448 11.8026C95.4007 11.8026 94.6246 12.9755 94.6246 14.3292C94.6246 15.683 95.4182 16.8734 96.8448 16.8734C98.2715 16.8734 99.0826 15.7005 99.0826 14.3292Z" fill="white"/>
<path d="M103.182 18.6967V9.97902H105.473V11.1519C106.105 10.3934 107.17 9.76172 108.252 9.76172V11.9995C108.09 11.9631 107.891 11.9455 107.621 11.9455C106.862 11.9455 105.853 12.3788 105.473 12.9376V18.6954H103.182V18.6967Z" fill="white"/>
<path d="M109.12 14.3292C109.12 11.8026 110.998 9.76318 113.632 9.76318C116.267 9.76318 118 11.7121 118 14.5465V15.0877H111.52C111.682 16.1527 112.549 17.0367 114.029 17.0367C114.769 17.0367 115.78 16.7303 116.34 16.1891L117.368 17.7048C116.502 18.4984 115.131 18.9141 113.777 18.9141C111.123 18.9141 109.12 17.1271 109.12 14.3306V14.3292ZM113.631 11.6406C112.206 11.6406 111.592 12.634 111.501 13.4991H115.797C115.724 12.6691 115.147 11.6406 113.631 11.6406Z" fill="white"/>
</svg>
