<svg width="356" height="39" viewBox="0 0 356 39" fill="none" xmlns="http://www.w3.org/2000/svg">
<mask id="mask0_11_4253" style="mask-type:alpha" maskUnits="userSpaceOnUse" x="0" y="11" width="24" height="24">
<rect y="11" width="24" height="24" fill="#D9D9D9"/>
</mask>
<g mask="url(#mask0_11_4253)">
<path d="M12 31.3249L10.9 30.3249C9.23333 28.8249 7.85833 27.5332 6.775 26.4499C5.69167 25.3666 4.83333 24.4039 4.2 23.5619C3.56667 22.7206 3.125 21.9539 2.875 21.2619C2.625 20.5706 2.5 19.8666 2.5 19.1499C2.5 17.7332 2.97933 16.5456 3.938 15.5869C4.896 14.6289 6.08333 14.1499 7.5 14.1499C8.36667 14.1499 9.19167 14.3539 9.975 14.7619C10.7583 15.1706 11.4333 15.7582 12 16.5249C12.5667 15.7582 13.2417 15.1706 14.025 14.7619C14.8083 14.3539 15.6333 14.1499 16.5 14.1499C17.9167 14.1499 19.104 14.6289 20.062 15.5869C21.0207 16.5456 21.5 17.7332 21.5 19.1499C21.5 19.8666 21.375 20.5706 21.125 21.2619C20.875 21.9539 20.4333 22.7206 19.8 23.5619C19.1667 24.4039 18.3083 25.3666 17.225 26.4499C16.1417 27.5332 14.7667 28.8249 13.1 30.3249L12 31.3249ZM12 29.2999C13.6 27.8666 14.9167 26.6332 15.95 25.5999C16.9833 24.5666 17.8 23.6706 18.4 22.9119C19 22.1539 19.4167 21.4832 19.65 20.8999C19.8833 20.3166 20 19.7332 20 19.1499C20 18.1499 19.6667 17.3166 19 16.6499C18.3333 15.9832 17.5 15.6499 16.5 15.6499C15.7167 15.6499 14.9873 15.8749 14.312 16.3249C13.6373 16.7749 13.1083 17.3999 12.725 18.1999H11.275C10.875 17.3832 10.3417 16.7539 9.675 16.3119C9.00833 15.8706 8.28333 15.6499 7.5 15.6499C6.5 15.6499 5.66667 15.9832 5 16.6499C4.33333 17.3166 4 18.1499 4 19.1499C4 19.7332 4.11667 20.3166 4.35 20.8999C4.58333 21.4832 5 22.1539 5.6 22.9119C6.2 23.6706 7.01667 24.5622 8.05 25.5869C9.08333 26.6122 10.4 27.8499 12 29.2999Z" fill="white"/>
</g>
<path d="M34.664 28L32.138 19.36H33.656L35.378 25.6L37.094 19.372L38.612 19.36L40.334 25.6L42.05 19.36H43.568L41.048 28H39.62L37.85 21.856L36.092 28H34.664ZM44.4327 20.536V19.21H45.8787V20.536H44.4327ZM44.4327 28V21.52H45.8787V28H44.4327ZM50.1779 28.18C49.3779 28.18 48.7279 28 48.2279 27.64C47.7279 27.28 47.4239 26.774 47.3159 26.122L48.7919 25.894C48.8679 26.214 49.0359 26.466 49.2959 26.65C49.5559 26.834 49.8839 26.926 50.2799 26.926C50.6279 26.926 50.8959 26.858 51.0839 26.722C51.2759 26.582 51.3719 26.392 51.3719 26.152C51.3719 26.004 51.3359 25.886 51.2639 25.798C51.1959 25.706 51.0439 25.618 50.8079 25.534C50.5719 25.45 50.2099 25.344 49.7219 25.216C49.1779 25.072 48.7459 24.918 48.4259 24.754C48.1059 24.586 47.8759 24.388 47.7359 24.16C47.5959 23.932 47.5259 23.656 47.5259 23.332C47.5259 22.928 47.6319 22.576 47.8439 22.276C48.0559 21.976 48.3519 21.746 48.7319 21.586C49.1119 21.422 49.5599 21.34 50.0759 21.34C50.5799 21.34 51.0259 21.418 51.4139 21.574C51.8059 21.73 52.1219 21.952 52.3619 22.24C52.6019 22.528 52.7499 22.866 52.8059 23.254L51.3299 23.518C51.2939 23.242 51.1679 23.024 50.9519 22.864C50.7399 22.704 50.4559 22.614 50.0999 22.594C49.7599 22.574 49.4859 22.626 49.2779 22.75C49.0699 22.87 48.9659 23.04 48.9659 23.26C48.9659 23.384 49.0079 23.49 49.0919 23.578C49.1759 23.666 49.3439 23.754 49.5959 23.842C49.8519 23.93 50.2319 24.038 50.7359 24.166C51.2519 24.298 51.6639 24.45 51.9719 24.622C52.2839 24.79 52.5079 24.992 52.6439 25.228C52.7839 25.464 52.8539 25.75 52.8539 26.086C52.8539 26.738 52.6159 27.25 52.1399 27.622C51.6679 27.994 51.0139 28.18 50.1779 28.18ZM58.6501 28V24.88C58.6501 24.676 58.6361 24.45 58.6081 24.202C58.5801 23.954 58.5141 23.716 58.4101 23.488C58.3101 23.256 58.1581 23.066 57.9541 22.918C57.7541 22.77 57.4821 22.696 57.1381 22.696C56.9541 22.696 56.7721 22.726 56.5921 22.786C56.4121 22.846 56.2481 22.95 56.1001 23.098C55.9561 23.242 55.8401 23.442 55.7521 23.698C55.6641 23.95 55.6201 24.274 55.6201 24.67L54.7621 24.304C54.7621 23.752 54.8681 23.252 55.0801 22.804C55.2961 22.356 55.6121 22 56.0281 21.736C56.4441 21.468 56.9561 21.334 57.5641 21.334C58.0441 21.334 58.4401 21.414 58.7521 21.574C59.0641 21.734 59.3121 21.938 59.4961 22.186C59.6801 22.434 59.8161 22.698 59.9041 22.978C59.9921 23.258 60.0481 23.524 60.0721 23.776C60.1001 24.024 60.1141 24.226 60.1141 24.382V28H58.6501ZM54.1561 28V19.36H55.4461V23.908H55.6201V28H54.1561ZM61.7998 28V19.18H63.2458V28H61.7998ZM65.1631 20.536V19.21H66.6091V20.536H65.1631ZM65.1631 28V21.52H66.6091V28H65.1631ZM70.9084 28.18C70.1084 28.18 69.4584 28 68.9584 27.64C68.4584 27.28 68.1544 26.774 68.0464 26.122L69.5224 25.894C69.5984 26.214 69.7664 26.466 70.0264 26.65C70.2864 26.834 70.6144 26.926 71.0104 26.926C71.3584 26.926 71.6264 26.858 71.8144 26.722C72.0064 26.582 72.1024 26.392 72.1024 26.152C72.1024 26.004 72.0664 25.886 71.9944 25.798C71.9264 25.706 71.7744 25.618 71.5384 25.534C71.3024 25.45 70.9404 25.344 70.4524 25.216C69.9084 25.072 69.4764 24.918 69.1564 24.754C68.8364 24.586 68.6064 24.388 68.4664 24.16C68.3264 23.932 68.2564 23.656 68.2564 23.332C68.2564 22.928 68.3624 22.576 68.5744 22.276C68.7864 21.976 69.0824 21.746 69.4624 21.586C69.8424 21.422 70.2904 21.34 70.8064 21.34C71.3104 21.34 71.7564 21.418 72.1444 21.574C72.5364 21.73 72.8524 21.952 73.0924 22.24C73.3324 22.528 73.4804 22.866 73.5364 23.254L72.0604 23.518C72.0244 23.242 71.8984 23.024 71.6824 22.864C71.4704 22.704 71.1864 22.614 70.8304 22.594C70.4904 22.574 70.2164 22.626 70.0084 22.75C69.8004 22.87 69.6964 23.04 69.6964 23.26C69.6964 23.384 69.7384 23.49 69.8224 23.578C69.9064 23.666 70.0744 23.754 70.3264 23.842C70.5824 23.93 70.9624 24.038 71.4664 24.166C71.9824 24.298 72.3944 24.45 72.7024 24.622C73.0144 24.79 73.2384 24.992 73.3744 25.228C73.5144 25.464 73.5844 25.75 73.5844 26.086C73.5844 26.738 73.3464 27.25 72.8704 27.622C72.3984 27.994 71.7444 28.18 70.9084 28.18ZM78.6966 28C78.2686 28.08 77.8486 28.114 77.4366 28.102C77.0286 28.094 76.6626 28.02 76.3386 27.88C76.0146 27.736 75.7686 27.51 75.6006 27.202C75.4526 26.922 75.3746 26.636 75.3666 26.344C75.3586 26.052 75.3546 25.722 75.3546 25.354V19.72H76.7946V25.27C76.7946 25.53 76.7966 25.758 76.8006 25.954C76.8086 26.15 76.8506 26.31 76.9266 26.434C77.0706 26.674 77.3006 26.808 77.6166 26.836C77.9326 26.864 78.2926 26.848 78.6966 26.788V28ZM74.1786 22.654V21.52H78.6966V22.654H74.1786Z" fill="white"/>
<circle cx="24.0001" cy="11.7501" r="9.80524" fill="white" stroke="#0AA79F" stroke-width="2"/>
<path d="M23.79 15.9C23.28 15.9 22.83 15.7917 22.44 15.575C22.05 15.355 21.745 15.05 21.525 14.66C21.3083 14.27 21.2 13.82 21.2 13.31V10.99C21.2 10.48 21.3083 10.03 21.525 9.64C21.745 9.25 22.05 8.94667 22.44 8.73C22.83 8.51 23.28 8.4 23.79 8.4C24.3 8.4 24.7483 8.51 25.135 8.73C25.525 8.94667 25.83 9.25 26.05 9.64C26.27 10.03 26.38 10.48 26.38 10.99V13.31C26.38 13.82 26.27 14.27 26.05 14.66C25.83 15.05 25.525 15.355 25.135 15.575C24.7483 15.7917 24.3 15.9 23.79 15.9ZM23.79 14.755C24.0433 14.755 24.2733 14.695 24.48 14.575C24.6867 14.4517 24.85 14.2883 24.97 14.085C25.09 13.8783 25.15 13.6483 25.15 13.395V10.9C25.15 10.6433 25.09 10.4133 24.97 10.21C24.85 10.0033 24.6867 9.84 24.48 9.72C24.2733 9.59667 24.0433 9.535 23.79 9.535C23.5367 9.535 23.3067 9.59667 23.1 9.72C22.8933 9.84 22.73 10.0033 22.61 10.21C22.49 10.4133 22.43 10.6433 22.43 10.9V13.395C22.43 13.6483 22.49 13.8783 22.61 14.085C22.73 14.2883 22.8933 14.4517 23.1 14.575C23.3067 14.695 23.5367 14.755 23.79 14.755Z" fill="#0AA79F"/>
<path d="M104 11V35" stroke="#4EBFB9"/>
<mask id="mask1_11_4253" style="mask-type:alpha" maskUnits="userSpaceOnUse" x="128" y="11" width="24" height="24">
<rect x="128" y="11" width="24" height="24" fill="#D9D9D9"/>
</mask>
<g mask="url(#mask1_11_4253)">
<path d="M144 24.5C144.433 24.5 144.792 24.3583 145.075 24.075C145.358 23.7917 145.5 23.4333 145.5 23C145.5 22.5667 145.358 22.2083 145.075 21.925C144.792 21.6417 144.433 21.5 144 21.5C143.567 21.5 143.208 21.6417 142.925 21.925C142.642 22.2083 142.5 22.5667 142.5 23C142.5 23.4333 142.642 23.7917 142.925 24.075C143.208 24.3583 143.567 24.5 144 24.5ZM133.3 31.5C132.8 31.5 132.375 31.325 132.025 30.975C131.675 30.625 131.5 30.2 131.5 29.7V16.3C131.5 15.8 131.675 15.375 132.025 15.025C132.375 14.675 132.8 14.5 133.3 14.5H146.7C147.2 14.5 147.625 14.675 147.975 15.025C148.325 15.375 148.5 15.8 148.5 16.3V19.025H147V16.3C147 16.2167 146.971 16.146 146.913 16.088C146.854 16.0293 146.783 16 146.7 16H133.3C133.217 16 133.146 16.0293 133.088 16.088C133.029 16.146 133 16.2167 133 16.3V29.7C133 29.7833 133.029 29.8543 133.088 29.913C133.146 29.971 133.217 30 133.3 30H146.7C146.783 30 146.854 29.971 146.913 29.913C146.971 29.8543 147 29.7833 147 29.7V26.975H148.5V29.7C148.5 30.2 148.325 30.625 147.975 30.975C147.625 31.325 147.2 31.5 146.7 31.5H133.3ZM141.3 27.5C140.8 27.5 140.375 27.325 140.025 26.975C139.675 26.625 139.5 26.2 139.5 25.7V20.3C139.5 19.8 139.675 19.375 140.025 19.025C140.375 18.675 140.8 18.5 141.3 18.5H147.7C148.2 18.5 148.625 18.675 148.975 19.025C149.325 19.375 149.5 19.8 149.5 20.3V25.7C149.5 26.2 149.325 26.625 148.975 26.975C148.625 27.325 148.2 27.5 147.7 27.5H141.3ZM147.7 26C147.783 26 147.854 25.9707 147.913 25.912C147.971 25.854 148 25.7833 148 25.7V20.3C148 20.2167 147.971 20.1457 147.913 20.087C147.854 20.029 147.783 20 147.7 20H141.3C141.217 20 141.146 20.029 141.088 20.087C141.029 20.1457 141 20.2167 141 20.3V25.7C141 25.7833 141.029 25.854 141.088 25.912C141.146 25.9707 141.217 26 141.3 26H147.7Z" fill="white"/>
</g>
<path d="M160.84 20V11.36H164.41C164.494 11.36 164.602 11.364 164.734 11.372C164.866 11.376 164.988 11.388 165.1 11.408C165.6 11.484 166.012 11.65 166.336 11.906C166.664 12.162 166.906 12.486 167.062 12.878C167.222 13.266 167.302 13.698 167.302 14.174C167.302 14.878 167.124 15.484 166.768 15.992C166.412 16.496 165.866 16.808 165.13 16.928L164.512 16.982H162.286V20H160.84ZM165.802 20L164.098 16.484L165.568 16.16L167.44 20H165.802ZM162.286 15.632H164.35C164.43 15.632 164.52 15.628 164.62 15.62C164.72 15.612 164.812 15.596 164.896 15.572C165.136 15.512 165.324 15.406 165.46 15.254C165.6 15.102 165.698 14.93 165.754 14.738C165.814 14.546 165.844 14.358 165.844 14.174C165.844 13.99 165.814 13.802 165.754 13.61C165.698 13.414 165.6 13.24 165.46 13.088C165.324 12.936 165.136 12.83 164.896 12.77C164.812 12.746 164.72 12.732 164.62 12.728C164.52 12.72 164.43 12.716 164.35 12.716H162.286V15.632ZM171.708 20.18C171.052 20.18 170.476 20.038 169.98 19.754C169.484 19.47 169.096 19.076 168.816 18.572C168.54 18.068 168.402 17.488 168.402 16.832C168.402 16.124 168.538 15.51 168.81 14.99C169.082 14.466 169.46 14.06 169.944 13.772C170.428 13.484 170.988 13.34 171.624 13.34C172.296 13.34 172.866 13.498 173.334 13.814C173.806 14.126 174.156 14.568 174.384 15.14C174.612 15.712 174.698 16.386 174.642 17.162H173.208V16.634C173.204 15.93 173.08 15.416 172.836 15.092C172.592 14.768 172.208 14.606 171.684 14.606C171.092 14.606 170.652 14.79 170.364 15.158C170.076 15.522 169.932 16.056 169.932 16.76C169.932 17.416 170.076 17.924 170.364 18.284C170.652 18.644 171.072 18.824 171.624 18.824C171.98 18.824 172.286 18.746 172.542 18.59C172.802 18.43 173.002 18.2 173.142 17.9L174.57 18.332C174.322 18.916 173.938 19.37 173.418 19.694C172.902 20.018 172.332 20.18 171.708 20.18ZM169.476 17.162V16.07H173.934V17.162H169.476ZM177.126 20L175.146 13.508L176.562 13.52L177.828 17.678L179.112 13.52H180.33L181.608 17.678L182.88 13.52H184.296L182.316 20H181.188L179.718 15.542L178.254 20H177.126ZM186.828 20.18C186.36 20.18 185.964 20.092 185.64 19.916C185.316 19.736 185.07 19.498 184.902 19.202C184.738 18.906 184.656 18.58 184.656 18.224C184.656 17.912 184.708 17.632 184.812 17.384C184.916 17.132 185.076 16.916 185.292 16.736C185.508 16.552 185.788 16.402 186.132 16.286C186.392 16.202 186.696 16.126 187.044 16.058C187.396 15.99 187.776 15.928 188.184 15.872C188.596 15.812 189.026 15.748 189.474 15.68L188.958 15.974C188.962 15.526 188.862 15.196 188.658 14.984C188.454 14.772 188.11 14.666 187.626 14.666C187.334 14.666 187.052 14.734 186.78 14.87C186.508 15.006 186.318 15.24 186.21 15.572L184.89 15.158C185.05 14.61 185.354 14.17 185.802 13.838C186.254 13.506 186.862 13.34 187.626 13.34C188.202 13.34 188.708 13.434 189.144 13.622C189.584 13.81 189.91 14.118 190.122 14.546C190.238 14.774 190.308 15.008 190.332 15.248C190.356 15.484 190.368 15.742 190.368 16.022V20H189.102V18.596L189.312 18.824C189.02 19.292 188.678 19.636 188.286 19.856C187.898 20.072 187.412 20.18 186.828 20.18ZM187.116 19.028C187.444 19.028 187.724 18.97 187.956 18.854C188.188 18.738 188.372 18.596 188.508 18.428C188.648 18.26 188.742 18.102 188.79 17.954C188.866 17.77 188.908 17.56 188.916 17.324C188.928 17.084 188.934 16.89 188.934 16.742L189.378 16.874C188.942 16.942 188.568 17.002 188.256 17.054C187.944 17.106 187.676 17.156 187.452 17.204C187.228 17.248 187.03 17.298 186.858 17.354C186.69 17.414 186.548 17.484 186.432 17.564C186.316 17.644 186.226 17.736 186.162 17.84C186.102 17.944 186.072 18.066 186.072 18.206C186.072 18.366 186.112 18.508 186.192 18.632C186.272 18.752 186.388 18.848 186.54 18.92C186.696 18.992 186.888 19.028 187.116 19.028ZM191.93 20V13.52H193.208V15.098L193.052 14.894C193.132 14.678 193.238 14.482 193.37 14.306C193.506 14.126 193.668 13.978 193.856 13.862C194.016 13.754 194.192 13.67 194.384 13.61C194.58 13.546 194.78 13.508 194.984 13.496C195.188 13.48 195.386 13.488 195.578 13.52V14.87C195.386 14.814 195.164 14.796 194.912 14.816C194.664 14.836 194.44 14.906 194.24 15.026C194.04 15.134 193.876 15.272 193.748 15.44C193.624 15.608 193.532 15.8 193.472 16.016C193.412 16.228 193.382 16.458 193.382 16.706V20H191.93ZM199.204 20.18C198.608 20.18 198.088 20.03 197.644 19.73C197.2 19.43 196.856 19.022 196.612 18.506C196.368 17.99 196.246 17.408 196.246 16.76C196.246 16.104 196.368 15.52 196.612 15.008C196.86 14.492 197.21 14.086 197.662 13.79C198.114 13.49 198.646 13.34 199.258 13.34C199.874 13.34 200.39 13.49 200.806 13.79C201.226 14.086 201.544 14.492 201.76 15.008C201.976 15.524 202.084 16.108 202.084 16.76C202.084 17.404 201.976 17.986 201.76 18.506C201.544 19.022 201.222 19.43 200.794 19.73C200.366 20.03 199.836 20.18 199.204 20.18ZM199.426 18.884C199.814 18.884 200.126 18.796 200.362 18.62C200.602 18.44 200.776 18.19 200.884 17.87C200.996 17.55 201.052 17.18 201.052 16.76C201.052 16.336 200.996 15.966 200.884 15.65C200.776 15.33 200.606 15.082 200.374 14.906C200.142 14.726 199.842 14.636 199.474 14.636C199.086 14.636 198.766 14.732 198.514 14.924C198.262 15.112 198.076 15.368 197.956 15.692C197.836 16.012 197.776 16.368 197.776 16.76C197.776 17.156 197.834 17.516 197.95 17.84C198.07 18.16 198.252 18.414 198.496 18.602C198.74 18.79 199.05 18.884 199.426 18.884ZM201.052 20V15.452H200.872V11.36H202.33V20H201.052ZM206.514 20.18C205.714 20.18 205.064 20 204.564 19.64C204.064 19.28 203.76 18.774 203.652 18.122L205.128 17.894C205.204 18.214 205.372 18.466 205.632 18.65C205.892 18.834 206.22 18.926 206.616 18.926C206.964 18.926 207.232 18.858 207.42 18.722C207.612 18.582 207.708 18.392 207.708 18.152C207.708 18.004 207.672 17.886 207.6 17.798C207.532 17.706 207.38 17.618 207.144 17.534C206.908 17.45 206.546 17.344 206.058 17.216C205.514 17.072 205.082 16.918 204.762 16.754C204.442 16.586 204.212 16.388 204.072 16.16C203.932 15.932 203.862 15.656 203.862 15.332C203.862 14.928 203.968 14.576 204.18 14.276C204.392 13.976 204.688 13.746 205.068 13.586C205.448 13.422 205.896 13.34 206.412 13.34C206.916 13.34 207.362 13.418 207.75 13.574C208.142 13.73 208.458 13.952 208.698 14.24C208.938 14.528 209.086 14.866 209.142 15.254L207.666 15.518C207.63 15.242 207.504 15.024 207.288 14.864C207.076 14.704 206.792 14.614 206.436 14.594C206.096 14.574 205.822 14.626 205.614 14.75C205.406 14.87 205.302 15.04 205.302 15.26C205.302 15.384 205.344 15.49 205.428 15.578C205.512 15.666 205.68 15.754 205.932 15.842C206.188 15.93 206.568 16.038 207.072 16.166C207.588 16.298 208 16.45 208.308 16.622C208.62 16.79 208.844 16.992 208.98 17.228C209.12 17.464 209.19 17.75 209.19 18.086C209.19 18.738 208.952 19.25 208.476 19.622C208.004 19.994 207.35 20.18 206.514 20.18Z" fill="white"/>
<path d="M163.948 36.18C163.336 36.18 162.796 36.05 162.328 35.79C161.86 35.526 161.494 35.16 161.23 34.692C160.97 34.224 160.84 33.684 160.84 33.072V30.288C160.84 29.676 160.97 29.136 161.23 28.668C161.494 28.2 161.86 27.836 162.328 27.576C162.796 27.312 163.336 27.18 163.948 27.18C164.56 27.18 165.098 27.312 165.562 27.576C166.03 27.836 166.396 28.2 166.66 28.668C166.924 29.136 167.056 29.676 167.056 30.288V33.072C167.056 33.684 166.924 34.224 166.66 34.692C166.396 35.16 166.03 35.526 165.562 35.79C165.098 36.05 164.56 36.18 163.948 36.18ZM163.948 34.806C164.252 34.806 164.528 34.734 164.776 34.59C165.024 34.442 165.22 34.246 165.364 34.002C165.508 33.754 165.58 33.478 165.58 33.174V30.18C165.58 29.872 165.508 29.596 165.364 29.352C165.22 29.104 165.024 28.908 164.776 28.764C164.528 28.616 164.252 28.542 163.948 28.542C163.644 28.542 163.368 28.616 163.12 28.764C162.872 28.908 162.676 29.104 162.532 29.352C162.388 29.596 162.316 29.872 162.316 30.18V33.174C162.316 33.478 162.388 33.754 162.532 34.002C162.676 34.246 162.872 34.442 163.12 34.59C163.368 34.734 163.644 34.806 163.948 34.806Z" fill="white"/>
<path d="M234 11V35" stroke="#4EBFB9"/>
<mask id="mask2_11_4253" style="mask-type:alpha" maskUnits="userSpaceOnUse" x="258" y="11" width="24" height="24">
<rect x="258" y="11" width="24" height="24" fill="#D9D9D9"/>
</mask>
<g mask="url(#mask2_11_4253)">
<path d="M264.298 32.5C263.704 32.5 263.199 32.325 262.783 31.975C262.367 31.625 262.159 31.2 262.159 30.7V19.3C262.159 18.8 262.367 18.375 262.783 18.025C263.199 17.675 263.704 17.5 264.298 17.5H266.912C266.912 16.25 267.431 15.1873 268.471 14.312C269.511 13.4373 270.774 13 272.259 13C273.744 13 275.007 13.4373 276.047 14.312C277.086 15.1873 277.606 16.25 277.606 17.5H280.22C280.814 17.5 281.319 17.675 281.735 18.025C282.151 18.375 282.359 18.8 282.359 19.3V30.7C282.359 31.2 282.151 31.625 281.735 31.975C281.319 32.325 280.814 32.5 280.22 32.5H264.298ZM264.298 31H280.22C280.299 31 280.378 30.9667 280.458 30.9C280.537 30.8333 280.576 30.7667 280.576 30.7V19.3C280.576 19.2333 280.537 19.1667 280.458 19.1C280.378 19.0333 280.299 19 280.22 19H264.298C264.218 19 264.139 19.0333 264.06 19.1C263.981 19.1667 263.941 19.2333 263.941 19.3V30.7C263.941 30.7667 263.981 30.8333 264.06 30.9C264.139 30.9667 264.218 31 264.298 31ZM272.259 24.5C273.744 24.5 275.007 24.0627 276.047 23.188C277.086 22.3127 277.606 21.25 277.606 20H275.824C275.824 20.8333 275.477 21.5417 274.784 22.125C274.091 22.7083 273.249 23 272.259 23C271.269 23 270.427 22.7083 269.734 22.125C269.041 21.5417 268.694 20.8333 268.694 20H266.912C266.912 21.25 267.431 22.3127 268.471 23.188C269.511 24.0627 270.774 24.5 272.259 24.5ZM268.694 17.5H275.824C275.824 16.6667 275.477 15.9583 274.784 15.375C274.091 14.7917 273.249 14.5 272.259 14.5C271.269 14.5 270.427 14.7917 269.734 15.375C269.041 15.9583 268.694 16.6667 268.694 17.5Z" fill="white"/>
</g>
<path d="M298.705 20L296.643 13.2793H296.59C296.664 14.6465 296.701 15.5586 296.701 16.0156V20H295.078V11.4336H297.551L299.578 17.9844H299.613L301.764 11.4336H304.236V20H302.543V15.9453C302.543 15.7539 302.545 15.5332 302.549 15.2832C302.557 15.0332 302.584 14.3691 302.631 13.291H302.578L300.369 20H298.705ZM305.32 13.4492H307.277L308.514 17.1348C308.619 17.4551 308.691 17.834 308.73 18.2715H308.766C308.809 17.8691 308.893 17.4902 309.018 17.1348L310.23 13.4492H312.146L309.375 20.8379C309.121 21.5215 308.758 22.0332 308.285 22.373C307.816 22.7129 307.268 22.8828 306.639 22.8828C306.33 22.8828 306.027 22.8496 305.73 22.7832V21.3652C305.945 21.416 306.18 21.4414 306.434 21.4414C306.75 21.4414 307.025 21.3438 307.26 21.1484C307.498 20.957 307.684 20.666 307.816 20.2754L307.922 19.9531L305.32 13.4492ZM319.986 12.8223C319.303 12.8223 318.773 13.0801 318.398 13.5957C318.023 14.1074 317.836 14.8223 317.836 15.7402C317.836 17.6504 318.553 18.6055 319.986 18.6055C320.588 18.6055 321.316 18.4551 322.172 18.1543V19.6777C321.469 19.9707 320.684 20.1172 319.816 20.1172C318.57 20.1172 317.617 19.7402 316.957 18.9863C316.297 18.2285 315.967 17.1426 315.967 15.7285C315.967 14.8379 316.129 14.0586 316.453 13.3906C316.777 12.7188 317.242 12.2051 317.848 11.8496C318.457 11.4902 319.17 11.3105 319.986 11.3105C320.818 11.3105 321.654 11.5117 322.494 11.9141L321.908 13.3906C321.588 13.2383 321.266 13.1055 320.941 12.9922C320.617 12.8789 320.299 12.8223 319.986 12.8223ZM328.02 20L327.674 19.1094H327.627C327.326 19.4883 327.016 19.752 326.695 19.9004C326.379 20.0449 325.965 20.1172 325.453 20.1172C324.824 20.1172 324.328 19.9375 323.965 19.5781C323.605 19.2188 323.426 18.707 323.426 18.043C323.426 17.3477 323.668 16.8359 324.152 16.5078C324.641 16.1758 325.375 15.9922 326.355 15.957L327.492 15.9219V15.6348C327.492 14.9707 327.152 14.6387 326.473 14.6387C325.949 14.6387 325.334 14.7969 324.627 15.1133L324.035 13.9062C324.789 13.5117 325.625 13.3145 326.543 13.3145C327.422 13.3145 328.096 13.5059 328.564 13.8887C329.033 14.2715 329.268 14.8535 329.268 15.6348V20H328.02ZM327.492 16.9648L326.801 16.9883C326.281 17.0039 325.895 17.0977 325.641 17.2695C325.387 17.4414 325.26 17.7031 325.26 18.0547C325.26 18.5586 325.549 18.8105 326.127 18.8105C326.541 18.8105 326.871 18.6914 327.117 18.4531C327.367 18.2148 327.492 17.8984 327.492 17.5039V16.9648ZM334.77 13.3262C335.012 13.3262 335.213 13.3438 335.373 13.3789L335.238 15.0547C335.094 15.0156 334.918 14.9961 334.711 14.9961C334.141 14.9961 333.695 15.1426 333.375 15.4355C333.059 15.7285 332.9 16.1387 332.9 16.666V20H331.113V13.4492H332.467L332.73 14.5508H332.818C333.021 14.1836 333.295 13.8887 333.639 13.666C333.986 13.4395 334.363 13.3262 334.77 13.3262ZM339.322 18.6934C339.635 18.6934 340.01 18.625 340.447 18.4883V19.8184C340.002 20.0176 339.455 20.1172 338.807 20.1172C338.092 20.1172 337.57 19.9375 337.242 19.5781C336.918 19.2148 336.756 18.6719 336.756 17.9492V14.791H335.9V14.0352L336.885 13.4375L337.4 12.0547H338.543V13.4492H340.377V14.791H338.543V17.9492C338.543 18.2031 338.613 18.3906 338.754 18.5117C338.898 18.6328 339.088 18.6934 339.322 18.6934Z" fill="white"/>
<path d="M296.34 36V28.938L294.72 29.928V28.332L296.34 27.36H297.816V36H296.34ZM303.21 36.18C302.598 36.18 302.058 36.05 301.59 35.79C301.122 35.526 300.756 35.16 300.492 34.692C300.232 34.224 300.102 33.684 300.102 33.072V30.288C300.102 29.676 300.232 29.136 300.492 28.668C300.756 28.2 301.122 27.836 301.59 27.576C302.058 27.312 302.598 27.18 303.21 27.18C303.822 27.18 304.36 27.312 304.824 27.576C305.292 27.836 305.658 28.2 305.922 28.668C306.186 29.136 306.318 29.676 306.318 30.288V33.072C306.318 33.684 306.186 34.224 305.922 34.692C305.658 35.16 305.292 35.526 304.824 35.79C304.36 36.05 303.822 36.18 303.21 36.18ZM303.21 34.806C303.514 34.806 303.79 34.734 304.038 34.59C304.286 34.442 304.482 34.246 304.626 34.002C304.77 33.754 304.842 33.478 304.842 33.174V30.18C304.842 29.872 304.77 29.596 304.626 29.352C304.482 29.104 304.286 28.908 304.038 28.764C303.79 28.616 303.514 28.542 303.21 28.542C302.906 28.542 302.63 28.616 302.382 28.764C302.134 28.908 301.938 29.104 301.794 29.352C301.65 29.596 301.578 29.872 301.578 30.18V33.174C301.578 33.478 301.65 33.754 301.794 34.002C301.938 34.246 302.134 34.442 302.382 34.59C302.63 34.734 302.906 34.806 303.21 34.806ZM311.108 36.18C310.496 36.18 309.956 36.05 309.488 35.79C309.02 35.526 308.654 35.16 308.39 34.692C308.13 34.224 308 33.684 308 33.072V30.288C308 29.676 308.13 29.136 308.39 28.668C308.654 28.2 309.02 27.836 309.488 27.576C309.956 27.312 310.496 27.18 311.108 27.18C311.72 27.18 312.258 27.312 312.722 27.576C313.19 27.836 313.556 28.2 313.82 28.668C314.084 29.136 314.216 29.676 314.216 30.288V33.072C314.216 33.684 314.084 34.224 313.82 34.692C313.556 35.16 313.19 35.526 312.722 35.79C312.258 36.05 311.72 36.18 311.108 36.18ZM311.108 34.806C311.412 34.806 311.688 34.734 311.936 34.59C312.184 34.442 312.38 34.246 312.524 34.002C312.668 33.754 312.74 33.478 312.74 33.174V30.18C312.74 29.872 312.668 29.596 312.524 29.352C312.38 29.104 312.184 28.908 311.936 28.764C311.688 28.616 311.412 28.542 311.108 28.542C310.804 28.542 310.528 28.616 310.28 28.764C310.032 28.908 309.836 29.104 309.692 29.352C309.548 29.596 309.476 29.872 309.476 30.18V33.174C309.476 33.478 309.548 33.754 309.692 34.002C309.836 34.246 310.032 34.442 310.28 34.59C310.528 34.734 310.804 34.806 311.108 34.806ZM316.139 36V34.518H317.621V36H316.139ZM319.602 36V28.938L317.982 29.928V28.332L319.602 27.36H321.078V36H319.602ZM325.835 36.162C325.403 36.162 324.995 36.078 324.611 35.91C324.227 35.742 323.893 35.504 323.609 35.196C323.329 34.888 323.127 34.524 323.003 34.104L324.401 33.726C324.501 34.07 324.683 34.336 324.947 34.524C325.215 34.708 325.509 34.798 325.829 34.794C326.113 34.794 326.367 34.728 326.591 34.596C326.815 34.464 326.991 34.286 327.119 34.062C327.247 33.834 327.311 33.58 327.311 33.3C327.311 32.872 327.173 32.514 326.897 32.226C326.621 31.938 326.265 31.794 325.829 31.794C325.697 31.794 325.567 31.812 325.439 31.848C325.315 31.884 325.195 31.934 325.079 31.998L324.419 30.858L327.323 28.374L327.449 28.722H323.339V27.36H328.637V28.728L326.303 30.972L326.291 30.546C326.815 30.582 327.261 30.728 327.629 30.984C328.001 31.24 328.285 31.57 328.481 31.974C328.681 32.378 328.781 32.82 328.781 33.3C328.781 33.844 328.647 34.332 328.379 34.764C328.115 35.196 327.759 35.538 327.311 35.79C326.867 36.038 326.375 36.162 325.835 36.162ZM332.138 36L334.862 27.36H336.98L339.704 36H338.216L335.744 28.248H336.068L333.626 36H332.138ZM333.656 34.128V32.778H338.192V34.128H333.656ZM340.789 36V27.36H346.369V28.716H342.235V30.846H345.649V32.202H342.235V34.644H346.369V36H340.789ZM347.809 36V27.36H350.563C350.635 27.36 350.777 27.362 350.989 27.366C351.205 27.37 351.413 27.384 351.613 27.408C352.297 27.496 352.875 27.74 353.347 28.14C353.823 28.536 354.183 29.042 354.427 29.658C354.671 30.274 354.793 30.948 354.793 31.68C354.793 32.412 354.671 33.086 354.427 33.702C354.183 34.318 353.823 34.826 353.347 35.226C352.875 35.622 352.297 35.864 351.613 35.952C351.417 35.976 351.211 35.99 350.995 35.994C350.779 35.998 350.635 36 350.563 36H347.809ZM349.279 34.638H350.563C350.683 34.638 350.835 34.634 351.019 34.626C351.207 34.618 351.373 34.6 351.517 34.572C351.925 34.496 352.257 34.314 352.513 34.026C352.769 33.738 352.957 33.388 353.077 32.976C353.201 32.564 353.263 32.132 353.263 31.68C353.263 31.212 353.201 30.772 353.077 30.36C352.953 29.948 352.761 29.602 352.501 29.322C352.245 29.042 351.917 28.864 351.517 28.788C351.373 28.756 351.207 28.738 351.019 28.734C350.835 28.726 350.683 28.722 350.563 28.722H349.279V34.638Z" fill="white"/>
<circle cx="282" cy="11.7501" r="9.80524" fill="white" stroke="#0AA79F" stroke-width="2"/>
<path d="M278.525 8.41C278.995 8.41 279.418 8.52167 279.795 8.745C280.172 8.965 280.468 9.27167 280.685 9.665C280.905 10.055 281.015 10.505 281.015 11.015V13.21C281.015 13.7533 280.905 14.2283 280.685 14.635C280.468 15.0383 280.163 15.35 279.77 15.57C279.377 15.79 278.917 15.9 278.39 15.9C278.027 15.9 277.683 15.8383 277.36 15.715C277.037 15.5883 276.747 15.395 276.49 15.135L277.355 14.29C277.485 14.44 277.64 14.5583 277.82 14.645C278.003 14.7283 278.193 14.77 278.39 14.77C278.67 14.77 278.915 14.705 279.125 14.575C279.335 14.4417 279.498 14.27 279.615 14.06C279.732 13.8467 279.79 13.6183 279.79 13.375V12.18L280.005 12.42C279.802 12.66 279.555 12.8483 279.265 12.985C278.975 13.1183 278.67 13.185 278.35 13.185C277.9 13.185 277.5 13.0817 277.15 12.875C276.803 12.6683 276.53 12.3883 276.33 12.035C276.133 11.6783 276.035 11.275 276.035 10.825C276.035 10.375 276.148 9.96833 276.375 9.605C276.602 9.23833 276.903 8.94833 277.28 8.735C277.66 8.51833 278.075 8.41 278.525 8.41ZM278.525 9.56C278.292 9.56 278.078 9.61667 277.885 9.73C277.692 9.84333 277.538 9.99667 277.425 10.19C277.312 10.38 277.255 10.5917 277.255 10.825C277.255 11.0583 277.31 11.2717 277.42 11.465C277.533 11.6583 277.685 11.8117 277.875 11.925C278.068 12.0383 278.282 12.095 278.515 12.095C278.748 12.095 278.962 12.0383 279.155 11.925C279.348 11.8117 279.502 11.6583 279.615 11.465C279.732 11.2717 279.79 11.0583 279.79 10.825C279.79 10.5983 279.733 10.39 279.62 10.2C279.507 10.0067 279.353 9.85167 279.16 9.735C278.97 9.61833 278.758 9.56 278.525 9.56ZM284.736 8.41C285.206 8.41 285.629 8.52167 286.006 8.745C286.383 8.965 286.679 9.27167 286.896 9.665C287.116 10.055 287.226 10.505 287.226 11.015V13.21C287.226 13.7533 287.116 14.2283 286.896 14.635C286.679 15.0383 286.374 15.35 285.981 15.57C285.588 15.79 285.128 15.9 284.601 15.9C284.238 15.9 283.894 15.8383 283.571 15.715C283.248 15.5883 282.958 15.395 282.701 15.135L283.566 14.29C283.696 14.44 283.851 14.5583 284.031 14.645C284.214 14.7283 284.404 14.77 284.601 14.77C284.881 14.77 285.126 14.705 285.336 14.575C285.546 14.4417 285.709 14.27 285.826 14.06C285.943 13.8467 286.001 13.6183 286.001 13.375V12.18L286.216 12.42C286.013 12.66 285.766 12.8483 285.476 12.985C285.186 13.1183 284.881 13.185 284.561 13.185C284.111 13.185 283.711 13.0817 283.361 12.875C283.014 12.6683 282.741 12.3883 282.541 12.035C282.344 11.6783 282.246 11.275 282.246 10.825C282.246 10.375 282.359 9.96833 282.586 9.605C282.813 9.23833 283.114 8.94833 283.491 8.735C283.871 8.51833 284.286 8.41 284.736 8.41ZM284.736 9.56C284.503 9.56 284.289 9.61667 284.096 9.73C283.903 9.84333 283.749 9.99667 283.636 10.19C283.523 10.38 283.466 10.5917 283.466 10.825C283.466 11.0583 283.521 11.2717 283.631 11.465C283.744 11.6583 283.896 11.8117 284.086 11.925C284.279 12.0383 284.493 12.095 284.726 12.095C284.959 12.095 285.173 12.0383 285.366 11.925C285.559 11.8117 285.713 11.6583 285.826 11.465C285.943 11.2717 286.001 11.0583 286.001 10.825C286.001 10.5983 285.944 10.39 285.831 10.2C285.718 10.0067 285.564 9.85167 285.371 9.735C285.181 9.61833 284.969 9.56 284.736 9.56Z" fill="#0AA79F"/>
</svg>
