<svg width="55" height="16" viewBox="0 0 55 16" fill="none" xmlns="http://www.w3.org/2000/svg">
<path d="M52.9548 15.7979H2.68607C1.66734 15.7979 0.841827 14.9724 0.841827 13.9547V2.04517C0.841827 1.02742 1.66734 0.200928 2.68607 0.200928H52.9548C53.9735 0.200928 54.799 1.02742 54.799 2.04517V13.9547C54.799 14.9724 53.9735 15.7979 52.9548 15.7979Z" fill="black"/>
<path d="M2.68508 0.403001C1.77955 0.403001 1.04283 1.13972 1.04283 2.04525V13.9547C1.04283 14.8603 1.77955 15.596 2.68508 15.596H52.9548C53.8603 15.596 54.597 14.8603 54.597 13.9547V2.04525C54.597 1.13972 53.8603 0.403001 52.9548 0.403001H2.68508ZM52.9548 16H2.68508C1.55707 16 0.639832 15.0828 0.639832 13.9547V2.04525C0.639832 0.917241 1.55707 0 2.68508 0H52.9548C54.0828 0 55 0.917241 55 2.04525V13.9547C55 15.0828 54.0828 16 52.9548 16Z" fill="#A7A9AB"/>
<path d="M43.6516 12.0637H44.401V7.04136H43.6516V12.0637ZM50.4041 8.85047L49.5444 11.0284H49.519L48.6271 8.85047H47.8192L49.157 11.894L48.3939 13.5869H49.1765L51.2374 8.85047H50.4041ZM46.1516 11.4929C45.9066 11.4929 45.5641 11.3709 45.5641 11.0665C45.5641 10.6791 45.9906 10.5308 46.3584 10.5308C46.6883 10.5308 46.8434 10.602 47.0434 10.6986C46.9849 11.1641 46.5848 11.4929 46.1516 11.4929ZM46.2423 8.74118C45.6998 8.74118 45.1377 8.98025 44.9045 9.5101L45.57 9.78723C45.7125 9.5101 45.9769 9.41936 46.255 9.41936C46.6434 9.41936 47.0366 9.65159 47.0434 10.0653V10.117C46.9078 10.04 46.617 9.92286 46.2618 9.92286C45.5446 9.92286 44.8147 10.3171 44.8147 11.0538C44.8147 11.7261 45.4022 12.1594 46.0618 12.1594C46.5653 12.1594 46.8434 11.933 47.0181 11.6676H47.0434V12.0559H47.7675V10.1297C47.7675 9.23883 47.102 8.74118 46.2423 8.74118ZM41.6093 9.46229H40.5427V7.74002H41.6093C42.1704 7.74002 42.4875 8.2045 42.4875 8.60067C42.4875 8.99098 42.1704 9.46229 41.6093 9.46229ZM41.5898 7.04136H39.7933V12.0637H40.5427V10.161H41.5898C42.4211 10.161 43.2379 9.55889 43.2379 8.60067C43.2379 7.64245 42.4211 7.04136 41.5898 7.04136ZM31.7948 11.4939C31.2767 11.4939 30.8424 11.0606 30.8424 10.4654C30.8424 9.86334 31.2767 9.42326 31.7948 9.42326C32.3061 9.42326 32.7072 9.86334 32.7072 10.4654C32.7072 11.0606 32.3061 11.4939 31.7948 11.4939ZM32.6545 9.1315H32.6291C32.4613 8.93146 32.1373 8.74996 31.7294 8.74996C30.8746 8.74996 30.092 9.50132 30.092 10.4654C30.092 11.4236 30.8746 12.1682 31.7294 12.1682C32.1373 12.1682 32.4613 11.9867 32.6291 11.7798H32.6545V12.0247C32.6545 12.6785 32.3061 13.0288 31.7421 13.0288C31.2825 13.0288 30.9976 12.698 30.8815 12.4199L30.2277 12.6921C30.415 13.1449 30.9137 13.7011 31.7421 13.7011C32.6223 13.7011 33.3668 13.1839 33.3668 11.9213V8.8534H32.6545V9.1315ZM33.8849 12.0637H34.6363V7.04136H33.8849V12.0637ZM35.7428 10.4069C35.7233 9.74624 36.2541 9.41057 36.6357 9.41057C36.9333 9.41057 37.186 9.55889 37.2699 9.77259L35.7428 10.4069ZM38.073 9.83699C37.9306 9.45546 37.4973 8.74996 36.6093 8.74996C35.7302 8.74996 34.9983 9.44277 34.9983 10.4586C34.9983 11.4168 35.7233 12.1682 36.6942 12.1682C37.4778 12.1682 37.9306 11.689 38.1179 11.41L37.5354 11.0216C37.3412 11.3065 37.0758 11.4939 36.6942 11.4939C36.3127 11.4939 36.0405 11.3202 35.8658 10.9767L38.1501 10.0322L38.073 9.83699ZM19.8687 9.27396V9.99897H21.6037C21.5519 10.4069 21.4163 10.7045 21.2085 10.9113C20.9567 11.1641 20.5615 11.4422 19.8687 11.4422C18.8012 11.4422 17.9659 10.5815 17.9659 9.51401C17.9659 8.44552 18.8012 7.58487 19.8687 7.58487C20.4454 7.58487 20.866 7.81126 21.1763 8.10302L21.6876 7.59073C21.2543 7.17699 20.6786 6.85986 19.8687 6.85986C18.406 6.85986 17.1765 8.0513 17.1765 9.51401C17.1765 10.9767 18.406 12.1682 19.8687 12.1682C20.6591 12.1682 21.2543 11.9086 21.7208 11.4236C22.1989 10.9445 22.3482 10.2712 22.3482 9.7277C22.3482 9.55889 22.3355 9.40374 22.3092 9.27396H19.8687ZM24.3203 11.4939C23.8021 11.4939 23.3562 11.0675 23.3562 10.4586C23.3562 9.84382 23.8021 9.42326 24.3203 9.42326C24.8384 9.42326 25.2843 9.84382 25.2843 10.4586C25.2843 11.0675 24.8384 11.4939 24.3203 11.4939ZM24.3203 8.74996C23.3747 8.74996 22.6048 9.46814 22.6048 10.4586C22.6048 11.4422 23.3747 12.1682 24.3203 12.1682C25.2658 12.1682 26.0357 11.4422 26.0357 10.4586C26.0357 9.46814 25.2658 8.74996 24.3203 8.74996ZM28.0624 11.4939C27.5443 11.4939 27.0974 11.0675 27.0974 10.4586C27.0974 9.84382 27.5443 9.42326 28.0624 9.42326C28.5796 9.42326 29.0265 9.84382 29.0265 10.4586C29.0265 11.0675 28.5796 11.4939 28.0624 11.4939ZM28.0624 8.74996C27.1169 8.74996 26.347 9.46814 26.347 10.4586C26.347 11.4422 27.1169 12.1682 28.0624 12.1682C29.007 12.1682 29.7778 11.4422 29.7778 10.4586C29.7778 9.46814 29.007 8.74996 28.0624 8.74996Z" fill="white"/>
<path d="M10.3919 7.79839L6.66971 11.7492C6.66985 11.75 6.67013 11.7507 6.67026 11.7516C6.78442 12.1806 7.17627 12.4965 7.64132 12.4965C7.82722 12.4965 8.00176 12.4462 8.15144 12.358L8.16333 12.351L12.3533 9.9332L10.3921 7.79834" fill="#EB3131"/>
<path d="M14.1579 7.12582L14.1543 7.12339L12.3454 6.07471L10.3073 7.88822L12.3524 9.93305L14.1518 8.89481C14.4673 8.7245 14.6815 8.39192 14.6815 8.0084C14.6815 7.62764 14.4702 7.29672 14.1578 7.12585" fill="#F6B60B"/>
<path d="M6.66921 4.25073C6.64683 4.33325 6.63507 4.41968 6.63507 4.50943V11.4909C6.63507 11.5805 6.64669 11.6672 6.66935 11.7494L10.52 7.89957L6.66935 4.25083" fill="#5778C5"/>
<path d="M10.4194 8.00007L12.3461 6.07393L8.16085 3.64736C8.00873 3.55625 7.83117 3.50366 7.64118 3.50366C7.17613 3.50366 6.78375 3.82013 6.66957 4.24964C6.66943 4.25006 6.66943 4.25035 6.66943 4.25072L10.4194 8.00016" fill="#3BAD49"/>
<path d="M19.1066 3.32746C18.9554 3.19378 18.7573 3.10791 18.5368 3.10791C18.043 3.10791 17.6625 3.51579 17.6625 4.01637C17.6625 4.51792 18.043 4.9219 18.5368 4.9219C18.9622 4.9219 19.2715 4.67503 19.292 4.28374H18.6197V4.00661H19.655C19.655 4.83701 19.213 5.22732 18.5368 5.22732C17.8645 5.22732 17.3434 4.68576 17.3434 4.01637C17.3434 3.34405 17.8645 2.80151 18.5368 2.80151C18.849 2.80151 19.1301 2.92251 19.3359 3.11377" fill="white"/>
<path d="M21.4914 2.82983V3.12745H20.4103V3.88271H21.3539V4.1813H20.4103V4.8946H21.5256V5.19319H20.0912V2.82983" fill="white"/>
<path d="M23.5601 2.82983V3.13135H22.8429V5.19319H22.5209V3.13135H21.8037V2.82983" fill="white"/>
<path d="M24.7711 5.19319H25.0901V2.82983H24.7711V5.19319Z" fill="white"/>
<path d="M27.2662 2.82983V3.13135H26.5489V5.19319H26.226V3.13135H25.5088V2.82983" fill="white"/>
<path d="M29.5163 4.91897C30.014 4.91897 30.3945 4.51792 30.3945 4.01637C30.3945 3.51579 30.014 3.11084 29.5163 3.11084C29.0226 3.11084 28.642 3.51579 28.642 4.01637C28.642 4.51792 29.0226 4.91897 29.5163 4.91897ZM29.5163 2.80151C30.1925 2.80151 30.7175 3.34405 30.7175 4.01637C30.7175 4.68576 30.1925 5.22732 29.5163 5.22732C28.844 5.22732 28.3229 4.68576 28.3229 4.01637C28.3229 3.34405 28.844 2.80151 29.5163 2.80151Z" fill="white"/>
<path d="M32.6047 5.19319L31.5274 3.41336V5.19319H31.2083V2.82983H31.5245L32.591 4.59601V2.82983H32.9101V5.19319" fill="white"/>
</svg>
