<svg width="39" height="36" viewBox="0 0 39 36" fill="none" xmlns="http://www.w3.org/2000/svg">
<path d="M25.4794 34.2678C25.4794 34.6332 25.3343 34.9837 25.0759 35.2421C24.8175 35.5004 24.467 35.6456 24.1016 35.6456H7.28164C5.82015 35.6444 4.41877 35.0637 3.38482 34.0308C2.35086 32.9979 1.76873 31.5971 1.76608 30.1356V14.83C1.76608 14.4643 1.91135 14.1136 2.16995 13.855C2.42854 13.5964 2.77928 13.4512 3.14498 13.4512C3.51069 13.4512 3.86141 13.5964 4.12 13.855C4.37859 14.1136 4.52387 14.4643 4.52387 14.83V30.1367C4.52446 30.8679 4.81519 31.5691 5.33224 32.0861C5.8493 32.6032 6.55041 32.8939 7.28164 32.8945H24.1005C24.4653 32.8945 24.8152 33.039 25.0736 33.2964C25.332 33.5538 25.478 33.9031 25.4794 34.2678ZM35.6816 4.49005V8.63004C35.6816 8.99545 35.5365 9.3459 35.2781 9.60429C35.0197 9.86267 34.6693 10.0078 34.3039 10.0078V20.07C34.3039 20.4357 34.1586 20.7865 33.9 21.0451C33.6414 21.3037 33.2907 21.4489 32.925 21.4489C32.5593 21.4489 32.2085 21.3037 31.9499 21.0451C31.6914 20.7865 31.5461 20.4357 31.5461 20.07V10.0045H1.7683C1.40289 10.0045 1.05246 9.85933 0.794078 9.60094C0.535694 9.34256 0.390533 8.99212 0.390533 8.62671V4.49005C0.39171 3.39359 0.827786 2.34238 1.6031 1.56707C2.37841 0.791754 3.42963 0.355669 4.52609 0.354492H31.5472C32.6437 0.355669 33.6949 0.791754 34.4702 1.56707C35.2455 2.34238 35.6816 3.39359 35.6828 4.49005H35.6816ZM3.14608 7.25116H32.9239V4.49005C32.9233 4.12482 32.7779 3.77472 32.5197 3.51646C32.2614 3.2582 31.9113 3.11286 31.5461 3.11227H4.52387C4.15873 3.11315 3.80879 3.25859 3.55059 3.51678C3.2924 3.77498 3.14696 4.12491 3.14608 4.49005V7.25116ZM21.0683 15.5234C21.434 15.5234 21.7847 15.3781 22.0433 15.1195C22.3019 14.8609 22.4472 14.5102 22.4472 14.1445C22.4472 13.7788 22.3019 13.4281 22.0433 13.1695C21.7847 12.9109 21.434 12.7656 21.0683 12.7656H14.8683C14.5026 12.7656 14.1519 12.9109 13.8933 13.1695C13.6347 13.4281 13.4894 13.7788 13.4894 14.1445C13.4894 14.5102 13.6347 14.8609 13.8933 15.1195C14.1519 15.3781 14.5026 15.5234 14.8683 15.5234H21.0683Z" fill="#0081CF"/>
<path d="M32.3194 24.22H25.5083L27.1272 22.62C27.3707 22.3793 27.5087 22.0516 27.5107 21.7091C27.5127 21.3667 27.3785 21.0375 27.1377 20.7939C26.897 20.5503 26.5693 20.4124 26.2269 20.4104C25.8844 20.4084 25.5552 20.5426 25.3116 20.7833L22.9127 23.1533C22.6126 23.4495 22.3737 23.802 22.2098 24.1905C22.0458 24.579 21.96 24.996 21.9573 25.4177C21.9545 25.8394 22.0348 26.2575 22.1936 26.6481C22.3524 27.0388 22.5865 27.3943 22.8828 27.6945L22.9061 27.7178L25.3083 30.1045C25.4285 30.224 25.5711 30.3188 25.728 30.3832C25.8848 30.4477 26.0528 30.4806 26.2224 30.4802C26.392 30.4797 26.5598 30.4458 26.7163 30.3805C26.8728 30.3152 27.0148 30.2197 27.1344 30.0995C27.254 29.9792 27.3487 29.8366 27.4132 29.6798C27.4776 29.5229 27.5106 29.3549 27.5101 29.1854C27.5096 29.0158 27.4758 28.848 27.4105 28.6915C27.3452 28.535 27.2496 28.3929 27.1294 28.2733L25.6483 26.7989H32.3205C32.7318 26.7965 33.1395 26.8751 33.5204 27.0303C33.9012 27.1854 34.2478 27.4141 34.5403 27.7032C34.8328 27.9923 35.0655 28.3362 35.2251 28.7152C35.3847 29.0942 35.4681 29.501 35.4705 29.9122C35.4729 30.3235 35.3943 30.7312 35.2392 31.1121C35.084 31.4929 34.8554 31.8395 34.5663 32.132C34.2772 32.4245 33.9333 32.6572 33.5542 32.8168C33.1752 32.9764 32.7684 33.0598 32.3572 33.0622C32.0146 33.0622 31.6861 33.1983 31.4438 33.4406C31.2016 33.6828 31.0655 34.0113 31.0655 34.3539C31.0655 34.6965 31.2016 35.025 31.4438 35.2672C31.6861 35.5095 32.0146 35.6456 32.3572 35.6456C33.1066 35.6483 33.8489 35.5012 34.5407 35.2129C35.2324 34.9246 35.8594 34.5009 36.385 33.9667C37.0466 33.2846 37.536 32.4546 37.8127 31.5456C37.9702 31.0207 38.0451 30.4746 38.035 29.9267C38.0317 28.4118 37.4279 26.9601 36.3558 25.8899C35.2837 24.8197 33.8309 24.2184 32.3161 24.2178L32.3194 24.22Z" fill="#E6760F"/>
</svg>
