<svg width="43" height="36" viewBox="0 0 43 36" fill="none" xmlns="http://www.w3.org/2000/svg">
<path d="M41.355 23.5233C41.0245 23.5063 40.7007 23.6208 40.4542 23.8416C40.2077 24.0625 40.0586 24.3718 40.0394 24.7022V32.9567H3.1883V18.8067H17.6672C17.833 18.825 18.0009 18.8082 18.1598 18.7574C18.3187 18.7065 18.4651 18.6226 18.5894 18.5113C18.7138 18.4 18.8132 18.2638 18.8813 18.1114C18.9494 17.9591 18.9846 17.7941 18.9846 17.6272C18.9846 17.4604 18.9494 17.2954 18.8813 17.143C18.8132 16.9907 18.7138 16.8544 18.5894 16.7431C18.4651 16.6318 18.3187 16.548 18.1598 16.4971C18.0009 16.4462 17.833 16.4294 17.6672 16.4478H3.1883V11.7311H17.6672C17.833 11.7495 18.0009 11.7327 18.1598 11.6818C18.3187 11.6309 18.4651 11.5471 18.5894 11.4358C18.7138 11.3245 18.8132 11.1882 18.8813 11.0358C18.9494 10.8835 18.9846 10.7185 18.9846 10.5517C18.9846 10.3848 18.9494 10.2198 18.8813 10.0675C18.8132 9.91511 18.7138 9.77884 18.5894 9.66754C18.4651 9.55624 18.3187 9.47241 18.1598 9.42152C18.0009 9.37063 17.833 9.35383 17.6672 9.37221H3.1883C2.527 9.33824 1.8791 9.56718 1.38598 10.0091C0.892849 10.451 0.594517 11.0701 0.556076 11.7311L0.556076 32.9533C0.594517 33.6144 0.892849 34.2334 1.38598 34.6753C1.8791 35.1172 2.527 35.3462 3.1883 35.3122H40.0383C40.6996 35.3462 41.3475 35.1172 41.8406 34.6753C42.3337 34.2334 42.6321 33.6144 42.6705 32.9533V24.6989C42.6505 24.3691 42.501 24.0606 42.2546 23.8404C42.0082 23.6203 41.6849 23.5063 41.355 23.5233Z" fill="#0081CF"/>
<path d="M12.4005 22.1599H7.13607C6.96324 22.1599 6.7921 22.194 6.63242 22.2601C6.47274 22.3263 6.32766 22.4232 6.20545 22.5454C6.08323 22.6676 5.98628 22.8127 5.92014 22.9724C5.854 23.132 5.81996 23.3032 5.81996 23.476C5.81996 23.6489 5.854 23.82 5.92014 23.9797C5.98628 24.1394 6.08323 24.2844 6.20545 24.4067C6.32766 24.5289 6.47274 24.6258 6.63242 24.692C6.7921 24.7581 6.96324 24.7921 7.13607 24.7921H12.4005C12.5733 24.7921 12.7445 24.7581 12.9042 24.692C13.0639 24.6258 13.2089 24.5289 13.3311 24.4067C13.4534 24.2844 13.5503 24.1394 13.6164 23.9797C13.6826 23.82 13.7166 23.6489 13.7166 23.476C13.7166 23.3032 13.6826 23.132 13.6164 22.9724C13.5503 22.8127 13.4534 22.6676 13.3311 22.5454C13.2089 22.4232 13.0639 22.3263 12.9042 22.2601C12.7445 22.194 12.5733 22.1599 12.4005 22.1599Z" fill="#0081CF"/>
<path d="M40.6072 4.39552L32.1705 0.779967C32.0198 0.716679 31.8579 0.684082 31.6944 0.684082C31.5309 0.684082 31.369 0.716679 31.2183 0.779967L22.7816 4.39552C22.565 4.48934 22.3806 4.64458 22.2513 4.84205C22.1219 5.03952 22.0533 5.27057 22.0539 5.50664V10.3277C22.0539 16.9589 24.505 20.8355 31.0961 24.6311C31.2789 24.7352 31.4857 24.79 31.6961 24.79C31.9065 24.79 32.1133 24.7352 32.2961 24.6311C38.8861 20.8444 41.3383 16.9644 41.3383 10.3277V5.50441C41.3383 5.26832 41.269 5.03743 41.1391 4.84032C41.0091 4.64322 40.8242 4.48857 40.6072 4.39552ZM38.9272 10.3255C38.9272 15.8911 37.085 18.9555 31.6961 22.1855C26.3061 18.9477 24.465 15.8844 24.465 10.3255V6.29997L31.6961 3.19997L38.9272 6.29997V10.3255Z" fill="#E6760F"/>
<path d="M36.0639 8.17775C35.8135 7.97995 35.4953 7.88874 35.1781 7.92389C34.861 7.95904 34.5704 8.1177 34.3694 8.36551L30.5805 13.1044L29.0839 10.8633C28.8979 10.6206 28.6267 10.4576 28.325 10.4075C28.0234 10.3574 27.714 10.4239 27.4596 10.5935C27.2052 10.7631 27.0248 11.0232 26.955 11.3209C26.8853 11.6185 26.9313 11.9316 27.0839 12.1966L29.4939 15.8122C29.5995 15.97 29.7407 16.1008 29.9061 16.1942C30.0714 16.2876 30.2564 16.3409 30.4461 16.35H30.4972C30.6782 16.35 30.8569 16.3092 31.02 16.2308C31.1831 16.1523 31.3265 16.0381 31.4394 15.8966L36.2605 9.86996C36.4583 9.61928 36.5487 9.3004 36.5118 8.98321C36.475 8.66602 36.3139 8.37639 36.0639 8.17775Z" fill="#E6760F"/>
</svg>
