<svg width="68" height="56" viewBox="0 0 68 56" fill="none" xmlns="http://www.w3.org/2000/svg">
<g clip-path="url(#clip0_1_830)">
<path d="M62.8105 49.0068C62.8105 49.0068 53.131 44.5585 56.5314 41.4737C59.9318 38.389 62.8105 49.0068 62.8105 49.0068Z" fill="#F5A778"/>
<path d="M62.6421 50.0448C62.6421 50.0448 58.193 35.4516 64.7444 36.1495C71.2959 36.8474 62.6421 50.0448 62.6421 50.0448Z" fill="#9B4715"/>
<path d="M59.3982 48.7505L59.5849 51.1916L59.5879 51.2338C59.5877 51.615 59.607 51.996 59.6457 52.3752C59.8991 54.8651 60.9884 55.9999 62.2614 55.9999C63.5345 55.9999 64.5763 54.8651 64.8298 52.3752C64.8685 51.996 64.8877 51.615 64.8876 51.2338L64.8891 51.1998L64.8898 51.1916L65.0773 48.7505H59.3982Z" fill="#C75613"/>
<path d="M64.8898 51.1917L64.8891 51.1998L64.8876 51.2338C64.8877 51.615 64.8685 51.996 64.8298 52.3752H59.6457C59.607 51.996 59.5877 51.615 59.5879 51.2338L59.5849 51.1917H64.8898Z" fill="white"/>
<path d="M8.11385 51.1312C8.11385 51.1312 4.51459 49.4771 5.77901 48.3301C7.04343 47.1831 8.11385 51.1312 8.11385 51.1312Z" fill="#9B4715"/>
<path d="M5.73026 50.9561L5.86018 52.6545L5.86224 52.6839C5.86212 52.9491 5.87554 53.2142 5.90246 53.478C6.07879 55.2105 6.83668 56 7.72244 56C8.6082 56 9.33309 55.2105 9.50942 53.478C9.53634 53.2142 9.54976 52.9491 9.54964 52.6839L9.55067 52.6602L9.55119 52.6545L9.68163 50.9561L5.73026 50.9561Z" fill="#C75613"/>
<path d="M45.9159 26.3566C46.0509 26.2635 46.1571 26.1345 46.2224 25.9841C46.2877 25.8338 46.3095 25.6683 46.2853 25.5062C46.2611 25.3442 46.1919 25.1922 46.0856 25.0674C45.9792 24.9426 45.84 24.8501 45.6836 24.8003L43.6684 24.1587L42.5612 25.1166L45.0056 26.41C45.1477 26.4851 45.3077 26.5199 45.4682 26.5105C45.6288 26.5011 45.7836 26.4479 45.9159 26.3566Z" fill="#FFB9B9"/>
<path d="M42.5272 25.7423L43.8557 24.2045L38.9088 18.7997L36.6312 13.5282C36.4811 13.1808 36.214 12.8969 35.8761 12.7257C35.5382 12.5544 35.1509 12.5067 34.7815 12.5908C34.5398 12.6458 34.314 12.7553 34.1214 12.9109C33.9288 13.0666 33.7745 13.2642 33.6703 13.4887C33.5661 13.7132 33.5148 13.9585 33.5204 14.2058C33.5259 14.4532 33.5882 14.6959 33.7024 14.9155L36.6751 20.6317L42.5272 25.7423Z" fill="#E6760F"/>
<path d="M45.7009 46.1125L45.4463 45.718H44.9762V45.5459H45.5403L45.8459 46.0192L45.7009 46.1125Z" fill="#3F3D56"/>
<path d="M44.6459 45.7181H43.6549V45.546H44.6459V45.7181ZM43.3246 45.7181H42.3337V45.546H43.3246V45.7181ZM42.0034 45.7181H41.0124V45.546H42.0034L42.0034 45.7181ZM40.6821 45.7181H39.6912V45.546H40.6821V45.7181ZM39.3609 45.7181H38.3699V45.546H39.3609V45.7181ZM38.0396 45.7181L37.1216 45.7174L37.0381 45.7063L37.0608 45.5357L37.1386 45.546H38.0396V45.7181ZM36.7106 45.6628L35.7283 45.5326L35.751 45.362L36.7334 45.4923L36.7106 45.6628ZM35.4009 45.4892L34.4186 45.3588L34.4413 45.1883L35.4236 45.3186L35.4009 45.4892ZM34.0912 45.3154L33.1089 45.1852L33.1316 45.0146L34.1139 45.1448L34.0912 45.3154ZM32.7814 45.1417L31.7991 45.0114L31.8218 44.8408L32.8041 44.9711L32.7814 45.1417Z" fill="#3F3D56"/>
<path d="M31.0417 45.3332L30.8695 45.3284L30.887 44.7168L31.4944 44.7974L31.4717 44.968L31.0538 44.9126L31.0417 45.3332Z" fill="#3F3D56"/>
<path d="M30.9099 49.94L30.7377 49.9352L30.7706 48.7834L30.9429 48.7883L30.9099 49.94ZM30.9539 48.4044L30.7816 48.3995L30.8145 47.2478L30.9868 47.2527L30.9539 48.4044ZM30.9978 46.8688L30.8255 46.8639L30.8585 45.7122L31.0308 45.717L30.9978 46.8688Z" fill="#3F3D56"/>
<path d="M30.7091 50.9308L30.7266 50.3191L30.8989 50.3239L30.8869 50.7444L31.3069 50.7118L31.3203 50.8834L30.7091 50.9308Z" fill="#3F3D56"/>
<path d="M31.6501 50.8578L31.6368 50.6862L32.6264 50.6094L32.6398 50.781L31.6501 50.8578ZM32.9696 50.7554L32.9562 50.5839L33.9459 50.5071L33.9592 50.6786L32.9696 50.7554ZM34.2891 50.6531L34.2757 50.4815L35.2654 50.4047L35.2787 50.5763L34.2891 50.6531ZM35.6085 50.5508L35.5952 50.3792L36.5848 50.3024L36.5981 50.474L35.6085 50.5508ZM36.928 50.4484L36.9147 50.2768L37.9043 50.2L37.9176 50.3716L36.928 50.4484ZM38.2475 50.3461L38.2342 50.1745L39.2238 50.0977L39.2371 50.2693L38.2475 50.3461ZM39.5669 50.2437L39.5536 50.0721L40.5433 49.9953L40.5566 50.1669L39.5669 50.2437ZM40.8865 50.1414L40.8732 49.9698L41.8627 49.893L41.876 50.0646L40.8865 50.1414ZM42.2059 50.039L42.1926 49.8675L43.1823 49.7907L43.1956 49.9622L42.2059 50.039ZM43.5254 49.9367L43.5121 49.7651L44.5017 49.6883L44.515 49.8599L43.5254 49.9367ZM44.8448 49.8344L44.8315 49.6628L45.8212 49.586L45.8345 49.7576L44.8448 49.8344ZM46.1644 49.732L46.1511 49.5604L47.1406 49.4836L47.1539 49.6552L46.1644 49.732Z" fill="#3F3D56"/>
<path d="M47.4838 49.6298L47.4705 49.4582L47.8421 49.4294L47.6402 49.1167L47.7851 49.0234L48.1434 49.5786L47.4838 49.6298Z" fill="#3F3D56"/>
<path d="M47.4247 48.7827L46.7783 47.7814L46.9232 47.6881L47.5697 48.6894L47.4247 48.7827ZM46.5628 47.4476L45.9164 46.4463L46.0613 46.353L46.7078 47.3544L46.5628 47.4476Z" fill="#3F3D56"/>
<path d="M44.2435 53.3327C47.4804 53.3327 50.1044 50.7132 50.1044 47.4819C50.1044 44.2506 47.4804 41.6311 44.2435 41.6311C41.0067 41.6311 38.3827 44.2506 38.3827 47.4819C38.3827 50.7132 41.0067 53.3327 44.2435 53.3327Z" fill="#020202"/>
<path d="M49.0701 54.2791L40.4943 39.0928L38.5981 40.9857L47.0447 54.236L49.0701 54.2791Z" fill="#3F3D56"/>
<path d="M23.0841 53.8919L42.3474 34.4036L43.9419 37.5441L25.6697 54.7523L23.0841 53.8919Z" fill="#3F3D56"/>
<path d="M30.9273 51.827C33.0693 51.827 34.8058 50.0935 34.8058 47.9551C34.8058 45.8167 33.0693 44.0833 30.9273 44.0833C28.7852 44.0833 27.0488 45.8167 27.0488 47.9551C27.0488 50.0935 28.7852 51.827 30.9273 51.827Z" fill="#3F3D56"/>
<path d="M25.7559 49.0737C25.7331 49.0738 25.7112 49.0828 25.695 49.099C25.6788 49.1151 25.6698 49.137 25.6697 49.1598V49.8481C25.6698 49.8709 25.6788 49.8928 25.695 49.9089C25.7112 49.9251 25.7331 49.9341 25.7559 49.9341H27.9107C27.9335 49.9341 27.9554 49.9251 27.9716 49.9089C27.9877 49.8928 27.9968 49.8709 27.9969 49.8481V49.1598C27.9968 49.137 27.9877 49.1151 27.9716 49.099C27.9554 49.0828 27.9335 49.0738 27.9107 49.0737H25.7559Z" fill="#020202"/>
<path d="M30.7118 39.48C30.689 39.48 30.6671 39.4891 30.6509 39.5052C30.6347 39.5213 30.6256 39.5432 30.6256 39.566V40.2544C30.6256 40.2772 30.6347 40.299 30.6509 40.3152C30.6671 40.3313 30.689 40.3404 30.7118 40.3404H32.8665C32.8894 40.3404 32.9113 40.3313 32.9275 40.3152C32.9436 40.299 32.9527 40.2772 32.9527 40.2544V39.566C32.9527 39.5432 32.9436 39.5213 32.9275 39.5052C32.9113 39.4891 32.8894 39.48 32.8665 39.48H30.7118Z" fill="#020202"/>
<path d="M41.1838 38.0604H38.9429V36.3395L39.8048 35.9954L41.1838 37.0279V38.0604Z" fill="#3F3D56"/>
<path d="M39.2265 35.5595L38.9928 35.6699L39.435 36.6033L39.6688 36.4929L39.2265 35.5595Z" fill="#3F3D56"/>
<path d="M39.4742 34.4429C39.4578 34.4429 39.4417 34.4476 39.4279 34.4566L37.9055 35.434C37.8863 35.4464 37.8728 35.4658 37.868 35.4881C37.8631 35.5104 37.8673 35.5337 37.8797 35.5529L38.2526 36.1318C38.265 36.151 38.2845 36.1645 38.3068 36.1693C38.3291 36.1742 38.3525 36.17 38.3717 36.1576L39.8941 35.1802V35.1803C39.9133 35.1679 39.9268 35.1484 39.9316 35.1261C39.9365 35.1038 39.9323 35.0805 39.9199 35.0613L39.547 34.4824C39.5409 34.4729 39.5329 34.4647 39.5236 34.4582C39.5143 34.4518 39.5038 34.4473 39.4928 34.4449C39.4867 34.4436 39.4805 34.4429 39.4742 34.4429Z" fill="#020202"/>
<path d="M42.9076 37.8882L41.1407 29.3271L43.2093 28.9829L44.6197 35.8796C44.6803 36.1296 44.6808 36.3904 44.6211 36.6406C44.5614 36.8909 44.4433 37.1234 44.2763 37.3193C44.1093 37.5153 43.8982 37.6689 43.6604 37.7678C43.4225 37.8667 43.1645 37.9079 42.9076 37.8882Z" fill="#3F3D56"/>
<path d="M49.4176 27.6404L47.3713 27.4944C47.344 27.4925 47.3175 27.4841 47.2941 27.4698C47.2706 27.4556 47.2509 27.436 47.2366 27.4127C47.2223 27.3893 47.2138 27.3629 47.2117 27.3356C47.2097 27.3083 47.2142 27.2809 47.2249 27.2557L50.1972 20.2497C50.2084 20.2233 50.226 20.2001 50.2485 20.1823C50.2709 20.1644 50.2974 20.1524 50.3257 20.1474L52.344 19.7876C52.3742 19.7822 52.4052 19.785 52.434 19.7955C52.4627 19.8061 52.4881 19.8242 52.5076 19.8478C52.527 19.8715 52.5398 19.8999 52.5446 19.9301C52.5494 19.9603 52.546 19.9912 52.5348 20.0197L49.5904 27.5314C49.577 27.5656 49.553 27.5946 49.5219 27.6142C49.4908 27.6338 49.4543 27.643 49.4176 27.6404Z" fill="#3F3D56"/>
<path d="M47.648 26.961L49.2856 27.1331L51.9575 20.4219L50.2337 20.68L47.648 26.961Z" fill="#020202"/>
<path d="M29.8068 45.3738L27.6521 47.5248L24.5493 34.0164L26.2731 34.2745L29.8068 45.3738Z" fill="#3F3D56"/>
<path d="M27.2958 34.2542L26.9236 34.1427C26.1923 34.4646 25.3967 34.6141 24.5983 34.5796C24.4258 34.5724 24.2629 34.4988 24.1437 34.3741C24.0246 34.2494 23.9586 34.0835 23.9595 33.9112C23.9595 33.7338 24.0301 33.5636 24.1558 33.4381C24.2815 33.3127 24.4519 33.2422 24.6297 33.2422H27.8805C27.9685 33.2422 28.0529 33.2771 28.1151 33.3392C28.1774 33.4013 28.2123 33.4856 28.2123 33.5734C28.2123 33.6842 28.1864 33.7935 28.1365 33.8925C28.0867 33.9915 28.0144 34.0775 27.9254 34.1437C27.8363 34.2098 27.733 34.2542 27.6237 34.2734C27.5144 34.2926 27.4021 34.286 27.2958 34.2542Z" fill="#3F3D56"/>
<path d="M47.8866 25.8062C47.8034 25.806 47.7224 25.8333 47.6563 25.8837L45.0102 27.9037L42.0482 28.2894C41.5382 28.3558 41.185 28.9096 41.1407 29.4131L44.6274 28.9298C45.1117 28.8832 45.5694 28.687 45.9369 28.3687L48.1349 26.471C48.1935 26.4205 48.2353 26.3533 48.2545 26.2785C48.2737 26.2037 48.2695 26.1247 48.2425 26.0523C48.2154 25.9799 48.1669 25.9175 48.1032 25.8735C48.0396 25.8295 47.964 25.806 47.8866 25.8062Z" fill="#3F3D56"/>
<path d="M46.5938 24.5156C46.5106 24.5155 46.4296 24.5428 46.3634 24.5932L43.7173 26.6132L40.7553 26.9989C40.2453 27.0653 39.8922 27.6191 39.8479 28.1226L43.3345 27.6392C43.8188 27.5926 44.2766 27.3965 44.6441 27.0782L46.8421 25.1805C46.9007 25.13 46.9424 25.0628 46.9616 24.988C46.9809 24.9131 46.9767 24.8342 46.9496 24.7618C46.9226 24.6894 46.874 24.627 46.8104 24.583C46.7468 24.539 46.6712 24.5155 46.5938 24.5156Z" fill="#3F3D56"/>
<path d="M48.2083 29.7144C47.5921 29.7131 46.9848 29.5675 46.4352 29.2893C45.8857 29.0111 45.4092 28.608 45.044 28.1125L45.3915 27.8581C45.6702 28.2381 46.0232 28.5578 46.4291 28.7979C46.8351 29.0379 47.2856 29.1933 47.7534 29.2547C48.2212 29.316 48.6966 29.2821 49.1509 29.1549C49.6052 29.0277 50.0289 28.8098 50.3965 28.5145C50.7641 28.2193 51.0679 27.8527 51.2896 27.4369C51.5113 27.0211 51.6463 26.5648 51.6863 26.0954C51.7264 25.6261 51.6707 25.1536 51.5227 24.7063C51.3747 24.2591 51.1374 23.8465 50.8252 23.4933L51.1482 23.2085C51.6478 23.7734 51.9734 24.4703 52.086 25.2155C52.1986 25.9606 52.0934 26.7224 51.783 27.4093C51.4726 28.0962 50.9702 28.6791 50.3361 29.088C49.702 29.4968 48.9631 29.7143 48.2083 29.7144V29.7144Z" fill="#3F3D56"/>
<path d="M51.2249 53.8489H20.7139V55.9999H51.2249V53.8489Z" fill="#3F3D56"/>
<path d="M43.7477 28.57C43.9001 28.5092 44.0323 28.4069 44.1294 28.2749C44.2266 28.1428 44.2846 27.9862 44.2971 27.8229C44.3096 27.6595 44.276 27.4959 44.2001 27.3507C44.1242 27.2054 44.009 27.0843 43.8677 27.0011L42.0457 25.9285L40.7529 26.6168L42.8483 28.4201C42.9701 28.5249 43.1184 28.5943 43.277 28.6208C43.4356 28.6472 43.5984 28.6296 43.7477 28.57Z" fill="#FFB9B9"/>
<path d="M29.4621 36.1675L30.6687 36.8558L38.1196 31.3809C38.3928 31.1946 38.6245 30.9538 38.8 30.6737C38.9756 30.3937 39.0913 30.0804 39.1398 29.7536C39.2004 29.3405 39.1521 28.9187 38.9998 28.5298C38.8474 28.1409 38.5962 27.7983 38.2709 27.5358C36.6255 26.2016 34.5919 24.9915 32.4356 23.8206L29.2466 25.3693C30.5608 28.0595 32.0197 30.2775 34.1594 30.2737L29.4621 36.1675Z" fill="#020202"/>
<path d="M28.9361 37.9202C29.9372 38.9327 31.2555 39.6571 32.728 40.2415C32.839 40.2854 32.9609 40.2939 33.0769 40.2657C33.1929 40.2376 33.2974 40.1743 33.3758 40.0844C33.4711 39.9754 33.5218 39.8346 33.5178 39.69C33.5138 39.5453 33.4554 39.4075 33.3543 39.3039L32.3998 38.3257L31.8231 36.2752C30.5847 36.8863 29.7727 36.7495 29.6126 35.4692L28.832 36.5319C28.6811 36.7379 28.6087 36.9907 28.6278 37.2452C28.6469 37.4996 28.7562 37.7389 28.9361 37.9202Z" fill="#2F2E41"/>
<path d="M25.5836 47.0088L27.3935 47.0948L31.5306 25.8426L24.42 23.5625C23.7101 26.2122 24.7641 30.5493 26.6178 35.6513L25.5836 47.0088Z" fill="#020202"/>
<path d="M39.5031 11.9468C41.074 11.9468 42.3474 10.6756 42.3474 9.10743C42.3474 7.53929 41.074 6.26807 39.5031 6.26807C37.9323 6.26807 36.6589 7.53929 36.6589 9.10743C36.6589 10.6756 37.9323 11.9468 39.5031 11.9468Z" fill="#FFB9B9"/>
<path d="M34.2887 12.5922L36.0986 13.8828L38.8567 11.1295L37.4777 9.40869L34.2887 12.5922Z" fill="#FFB9B9"/>
<path d="M24.1183 23.7774C26.3505 25.5933 28.788 26.7869 31.7892 26.2726C32.6961 24.8252 33.3657 21.7762 34.5041 20.4648C36.9903 17.6011 38.2234 15.0485 37.4346 12.7211C36.6678 12.2207 36.7016 12.2215 36.1417 10.5701C31.7567 11.3799 27.5115 16.3215 24.1183 23.7774Z" fill="#E6760F"/>
<path d="M25.5546 48.7795C26.8429 49.3877 28.3302 49.6167 29.9142 49.6613C30.0335 49.6645 30.1509 49.6307 30.2502 49.5646C30.3495 49.4984 30.4258 49.4032 30.4686 49.2919C30.5207 49.1569 30.5199 49.0072 30.4664 48.8728C30.413 48.7383 30.3108 48.6288 30.1802 48.5661L28.9475 47.9741L27.7011 46.2456C26.7479 47.2437 25.9381 47.3933 25.3478 46.2456L24.9798 47.5111C24.9088 47.7562 24.9277 48.0186 25.0331 48.251C25.1384 48.4835 25.3233 48.6708 25.5546 48.7795Z" fill="#2F2E41"/>
<path d="M40.5805 27.2192L42.2181 26.0146L38.5981 19.6476L37.551 14.0025C37.482 13.6306 37.2847 13.2945 36.9934 13.0526C36.702 12.8107 36.3351 12.6782 35.9561 12.6782C35.7083 12.6782 35.4638 12.7349 35.2413 12.8439C35.0189 12.953 34.8244 13.1114 34.6729 13.3072C34.5213 13.5029 34.4167 13.7307 34.3671 13.9731C34.3174 14.2155 34.3241 14.466 34.3866 14.7054L36.0125 20.9382L40.5805 27.2192Z" fill="#E6760F"/>
<path d="M32.3494 40.2544H31.4013V45.4169H32.3494V40.2544Z" fill="#3F3D56"/>
<path d="M41.7544 8.28395C41.8657 8.41719 42.0086 8.52067 42.17 8.58505C42.3314 8.64944 42.5063 8.67271 42.679 8.65277C43.0213 8.59949 43.3261 8.30794 43.348 7.96272C43.3669 7.66461 43.1914 7.39119 43.0072 7.15579C42.6008 6.63669 42.1181 6.18186 41.5756 5.80669C41.3169 5.6279 41.0315 5.46331 40.7174 5.44403C40.562 5.4345 40.4063 5.46124 40.2507 5.45456C39.9647 5.4423 39.6967 5.31875 39.4177 5.25476C39.1313 5.19105 38.8344 5.18951 38.5473 5.25025C38.2602 5.31098 37.9895 5.43257 37.7535 5.60679C37.5962 5.72682 37.4538 5.8653 37.3296 6.01926C36.9861 6.43874 36.7557 6.93894 36.6603 7.47234C36.5103 8.31786 36.6975 9.24517 36.2905 10.0016C36.7681 9.9571 37.151 9.59359 37.6047 9.43821C37.9413 9.32412 38.3068 9.32737 38.6413 9.44744C38.7275 9.49154 38.8246 9.50968 38.921 9.49965C39.0005 9.47161 39.0701 9.42084 39.121 9.35365L39.9885 8.41131C40.1651 8.21954 40.3656 8.01521 40.6252 7.98866C40.7802 7.98331 40.9343 8.01383 41.0755 8.07782C41.4233 8.20912 41.7598 8.36872 42.0814 8.55501" fill="#2F2E41"/>
<path d="M40.1065 27.9505L39.8479 28.1226L41.5717 29.8434L42.6059 28.8969L40.8822 27.5203L40.1065 27.9505Z" fill="#3F3D56"/>
</g>
<defs>
<clipPath id="clip0_1_830">
<rect width="66.3918" height="56" fill="white" transform="translate(0.804123)"/>
</clipPath>
</defs>
</svg>
