<svg width="94" height="56" viewBox="0 0 94 56" fill="none" xmlns="http://www.w3.org/2000/svg">
<g clip-path="url(#clip0_1_444)">
<path d="M73.8194 38.1292H71.4094L71.4006 38.1198C70.9721 37.6647 70.7794 37.0255 70.8852 36.41C70.9189 36.2113 70.9829 36.0184 71.0756 35.8367L71.8087 34.4029L71.5176 29.2662C71.5122 29.171 71.5453 29.0804 71.6107 29.0112C71.6762 28.9419 71.7649 28.9038 71.8603 28.9038H72.3109C72.4962 28.9038 72.6471 29.0487 72.6543 29.2336L72.8504 34.3108L73.8656 35.8961C73.9523 36.0316 74.022 36.1757 74.0728 36.3245C74.2718 36.9017 74.1989 37.529 73.8728 38.0451L73.8728 38.0452L73.8193 38.1292L73.8194 38.1292Z" fill="#3F3D56"/>
<path d="M73.6121 37.7739C73.5892 37.8099 73.5495 37.8317 73.5069 37.8317H71.6725C71.6371 37.8317 71.6028 37.8171 71.5794 37.7905C71.2698 37.4383 71.1333 36.9768 71.1874 36.5269C71.1933 36.4777 71.2298 36.4371 71.2778 36.4244C71.6607 36.3236 72.1229 36.2649 72.6206 36.2649C73.0098 36.2649 73.3774 36.301 73.7024 36.3648C73.7469 36.3735 73.7837 36.406 73.7965 36.4495C73.9263 36.89 73.8649 37.3737 73.6121 37.7739Z" fill="#F9A826"/>
<path d="M92.9581 39.2149H1.04195C0.972773 39.2149 0.916687 39.1589 0.916687 39.0896C0.916687 39.0204 0.972773 38.9644 1.04195 38.9644H92.9581C93.0273 38.9644 93.0833 39.0204 93.0833 39.0896C93.0833 39.1589 93.0273 39.2149 92.9581 39.2149Z" fill="#DEDEDE"/>
<path d="M27.9044 15.9493C26.5574 15.5461 25.6737 14.5243 25.9304 13.6671C26.1871 12.8099 27.487 12.4421 28.8344 12.8457C29.3748 12.9995 29.8706 13.2805 30.2801 13.6651L35.9656 15.4455L35.0732 18.0958L29.5631 16.0592C29.0094 16.1556 28.4406 16.1179 27.9044 15.9493H27.9044Z" fill="#A0616A"/>
<path d="M53.125 16.6457L53.1933 21.3272C53.1933 21.3272 47.3086 21.2489 45.2497 21.4117C43.1909 21.5744 30.3575 16.8769 30.3575 16.8769L32.4888 13.8545L46.6462 17.2719L53.125 16.6457Z" fill="#F6B60B"/>
<path d="M28.3232 10.2795H27.4464V22.1794H28.3232V10.2795Z" fill="#F9A826"/>
<path d="M31.4892 39.0898H26.4173L26.3987 39.0701C25.4969 38.1123 25.0914 36.7671 25.3141 35.4717C25.3849 35.0534 25.5197 34.6474 25.7147 34.265L27.2577 31.2475L26.6449 20.437C26.6336 20.2366 26.7032 20.0461 26.841 19.9004C26.9787 19.7546 27.1653 19.6743 27.3663 19.6743H28.3145C28.7046 19.6743 29.022 19.9792 29.0372 20.3684L29.4499 31.0536L31.5864 34.3901C31.7689 34.6752 31.9157 34.9785 32.0226 35.2916C32.4414 36.5065 32.288 37.8266 31.6017 38.9128L31.6016 38.913L31.4892 39.0898H31.4892Z" fill="#3F3D56"/>
<path d="M31.0528 38.3418C31.0047 38.4175 30.9212 38.4634 30.8315 38.4634H26.9708C26.8964 38.4634 26.8242 38.4327 26.775 38.3768C26.1233 37.6356 25.8362 36.6642 25.95 35.7175C25.9625 35.6138 26.0392 35.5284 26.1402 35.5018C26.9462 35.2895 27.9188 35.166 28.9662 35.166C29.7853 35.166 30.5589 35.2419 31.243 35.3762C31.3366 35.3946 31.414 35.4629 31.441 35.5545C31.7141 36.4816 31.5851 37.4995 31.0528 38.3418V38.3418Z" fill="#F9A826"/>
<path d="M49.3672 10.0292L50.1187 15.1649L44.1062 15.7912L44.482 9.15234L49.3672 10.0292Z" fill="#A0616A"/>
<path d="M43.6518 11.5588C45.8913 11.5588 47.7068 9.74328 47.7068 7.50375C47.7068 5.26422 45.8913 3.44873 43.6518 3.44873C41.4123 3.44873 39.5968 5.26422 39.5968 7.50375C39.5968 9.74328 41.4123 11.5588 43.6518 11.5588Z" fill="#A0616A"/>
<path d="M31.0185 25.9021C29.8716 24.8724 28.3953 24.6409 27.7213 25.385C27.0472 26.129 27.4307 27.5666 28.5781 28.5965C29.0307 29.0143 29.5795 29.3155 30.1787 29.4749L35.0949 33.775L37.1232 31.3819L32.0614 27.3968C31.8404 26.8197 31.4828 26.3072 31.0185 25.9021V25.9021Z" fill="#A0616A"/>
<path d="M44.482 14.5384L50.6198 13.6616L54.2523 16.4174L54.6281 31.574L58.1354 55.7494L34.8369 55.9999C34.8369 55.9999 36.5905 40.3423 37.4673 39.4654C38.3442 38.5886 38.9705 34.5802 38.9705 34.5802L40.7241 17.2942L44.482 14.5384Z" fill="#F6B60B"/>
<path d="M42.1646 17.2317C42.1646 17.2317 38.9078 16.9811 38.1563 19.2359C37.4047 21.4906 36.5279 28.881 36.5279 28.881L34.5237 29.1315L32.77 27.2526L30.8911 31.762C30.8911 31.762 37.53 39.0271 40.0352 35.7703C42.5404 32.5135 42.1646 17.2317 42.1646 17.2317Z" fill="#F6B60B"/>
<path d="M51.6845 28.8809C51.6845 28.8809 48.4277 27.1273 48.8035 24.4968C49.1793 21.8663 51.5592 21.24 49.9308 18.2337C48.3024 15.2275 49.1793 11.7201 49.1793 11.7201L48.7733 11.0938C48.7733 11.0938 45.4796 12.3465 44.4484 11.0938C43.4172 9.84123 43.9183 8.71388 42.4152 8.46336C40.912 8.21283 38.9078 5.70761 39.9099 4.07921C40.912 2.45082 40.7868 1.44873 42.4152 1.1982C44.0435 0.947682 47.9266 -0.805975 48.553 0.446637C49.1793 1.69925 51.3087 3.07712 50.9329 4.32974C50.5571 5.58235 50.5571 9.59712 50.5571 9.59712C50.5571 9.59712 55.8862 11.7201 55.1006 13.6617C54.315 15.6032 52.9371 15.6032 54.1897 19.3611C55.4423 23.1189 51.6845 28.8809 51.6845 28.8809H51.6845Z" fill="#2F2E41"/>
<path d="M80.3462 38.0029H78.1137V34.2601H80.3462C80.6001 34.2594 80.8053 34.053 80.8045 33.7991C80.8038 33.5463 80.599 33.3416 80.3462 33.3408H64.784C64.5302 33.3416 64.325 33.548 64.3257 33.8018C64.3265 34.0546 64.5312 34.2594 64.784 34.2601H66.6883V38.0029H64.784C64.5302 38.0037 64.325 38.2101 64.3258 38.4639C64.3265 38.7167 64.5312 38.9214 64.784 38.9222H80.3462C80.6001 38.9214 80.8053 38.7151 80.8045 38.4612C80.8038 38.2084 80.599 38.0037 80.3462 38.0029H80.3462ZM67.6076 38.0029L68.6574 35.2067L77.1944 34.2601V38.0029H67.6076V38.0029Z" fill="#F2F2F2"/>
</g>
<defs>
<clipPath id="clip0_1_444">
<rect width="92.1666" height="56" fill="white" transform="translate(0.916687)"/>
</clipPath>
</defs>
</svg>
