<svg width="80" height="56" viewBox="0 0 80 56" fill="none" xmlns="http://www.w3.org/2000/svg">
<g clip-path="url(#clip0_1_465)">
<path opacity="0.1" d="M26.8337 55.9686C30.6607 55.9686 33.7632 55.4673 33.7632 54.8489C33.7632 54.2305 30.6607 53.7292 26.8337 53.7292C23.0066 53.7292 19.9041 54.2305 19.9041 54.8489C19.9041 55.4673 23.0066 55.9686 26.8337 55.9686Z" fill="#F9A826"/>
<path opacity="0.1" d="M64.5015 56.0001C69.2771 56.0001 73.1484 55.4988 73.1484 54.8804C73.1484 54.262 69.2771 53.7607 64.5015 53.7607C59.7259 53.7607 55.8545 54.262 55.8545 54.8804C55.8545 55.4988 59.7259 56.0001 64.5015 56.0001Z" fill="#F9A826"/>
<path opacity="0.1" d="M1.69144 24.196H8.90897V34.0927H2.21983C2.20205 34.1943 2.18498 34.2966 2.16649 34.3989H8.90897V42.3803C8.89688 42.3767 8.88621 42.3724 8.87483 42.3681C8.68424 42.2923 8.49507 42.2121 8.3059 42.1263L8.18501 42.0712C7.99537 41.9811 7.80572 41.8857 7.61608 41.785C7.54995 41.75 7.48381 41.7135 7.41838 41.6763C6.36557 41.083 5.40915 40.3312 4.58229 39.447C4.55811 39.4234 4.53535 39.3983 4.51117 39.3754C4.39597 39.2495 4.28289 39.1222 4.17337 38.992L4.05248 38.8489C3.92305 38.6893 3.79788 38.5255 3.67628 38.3595C3.6585 38.3352 3.64143 38.3109 3.62294 38.288C3.12836 37.5981 2.71771 36.8511 2.39975 36.063C2.38979 36.0394 2.38126 36.0136 2.37202 35.9914C2.27435 35.7386 2.18783 35.4835 2.11244 35.2259C2.07973 35.1179 2.04844 35.0113 2.02142 34.899C2.01146 34.8661 2.00293 34.8339 1.9951 34.8017C1.59117 33.2155 1.54352 31.5679 1.54352 29.9317C1.54352 29.7407 1.54352 29.5489 1.54352 29.3593C1.54352 28.6976 1.55134 28.0315 1.56272 27.3661C1.56272 27.1937 1.56983 27.022 1.57339 26.8489C1.58334 26.4096 1.59757 25.9703 1.61606 25.531C1.62032 25.4087 1.62601 25.2871 1.63241 25.1655C1.63241 25.0953 1.63597 25.0252 1.64308 24.9551C1.66015 24.7004 1.67437 24.4479 1.69144 24.196Z" fill="#F9A826"/>
<path opacity="0.1" d="M8.90896 13.1769H4.94995C5.59351 12.1635 6.29667 11.1897 7.05568 10.2608C7.64381 9.53387 8.26465 8.82559 8.90896 8.14307V13.1769Z" fill="#F9A826"/>
<path opacity="0.1" d="M8.90894 13.4832V23.8899H1.71417C1.71417 23.8598 1.71915 23.8291 1.72128 23.799C1.72768 23.7167 1.73408 23.6345 1.7412 23.5529C1.74902 23.457 1.75755 23.3605 1.7668 23.2667C1.77604 23.173 1.786 23.0585 1.79667 22.9548C1.80733 22.8511 1.81729 22.7459 1.82938 22.6422C1.84147 22.5384 1.85214 22.4347 1.86494 22.3317C1.87774 22.2286 1.88912 22.1242 1.90263 22.0212C1.9133 21.9353 1.92467 21.8502 1.93605 21.7643C1.95241 21.6434 1.96948 21.5218 1.98797 21.4016C1.98797 21.3837 1.99295 21.3651 1.99579 21.3479C2.12559 20.4681 2.30245 19.5959 2.5256 18.7352C2.75919 17.8323 3.05747 16.9476 3.4181 16.0881C3.80139 15.1889 4.25017 14.3194 4.76077 13.4867L8.90894 13.4832Z" fill="#F9A826"/>
<path opacity="0.1" d="M1.69144 24.196H8.90897V34.0927H2.21983C2.20205 34.1943 2.18498 34.2966 2.16649 34.3989H8.90897V42.3803C8.89688 42.3767 8.88621 42.3724 8.87483 42.3681C8.68424 42.2923 8.49507 42.2121 8.3059 42.1263L8.18501 42.0712C7.99537 41.9811 7.80572 41.8857 7.61608 41.785C7.54995 41.75 7.48381 41.7135 7.41838 41.6763C6.36557 41.083 5.40915 40.3312 4.58229 39.447C4.55811 39.4234 4.53535 39.3983 4.51117 39.3754C4.39597 39.2495 4.28289 39.1222 4.17337 38.992L4.05248 38.8489C3.92305 38.6893 3.79788 38.5255 3.67628 38.3595C3.6585 38.3352 3.64143 38.3109 3.62294 38.288C3.12836 37.5981 2.71771 36.8511 2.39975 36.063C2.38979 36.0394 2.38126 36.0136 2.37202 35.9914C2.27435 35.7386 2.18783 35.4835 2.11244 35.2259C2.07973 35.1179 2.04844 35.0113 2.02142 34.899C2.01146 34.8661 2.00293 34.8339 1.9951 34.8017C1.59117 33.2155 1.54352 31.5679 1.54352 29.9317C1.54352 29.7407 1.54352 29.5489 1.54352 29.3593C1.54352 28.6976 1.55134 28.0315 1.56272 27.3661C1.56272 27.1937 1.56983 27.022 1.57339 26.8489C1.58334 26.4096 1.59757 25.9703 1.61606 25.531C1.62032 25.4087 1.62601 25.2871 1.63241 25.1655C1.63241 25.0953 1.63597 25.0252 1.64308 24.9551C1.66015 24.7004 1.67437 24.4479 1.69144 24.196Z" fill="#F9A826"/>
<path opacity="0.1" d="M16.0589 14.9728V23.8899H10.6321V14.9728H11.4058V11.9536H14.5818V14.9728H16.0589Z" fill="#F9A826"/>
<path opacity="0.1" d="M16.0589 24.1953H10.6328V34.0919H16.0589V24.1953Z" fill="#F9A826"/>
<path opacity="0.1" d="M10.6321 34.3989H16.0589V42.6264C15.4188 42.8115 14.7664 42.9509 14.1068 43.0435L13.9446 43.0636C13.865 43.0729 13.7861 43.0807 13.7078 43.0886C13.6296 43.0965 13.5485 43.1022 13.4696 43.1072H13.4447C13.4106 43.1072 13.3736 43.1115 13.3402 43.1122H13.3039C13.2612 43.1122 13.2186 43.1165 13.1759 43.1179C13.1154 43.1215 13.055 43.1222 12.9931 43.1229C12.9668 43.1229 12.9419 43.1229 12.9156 43.1229C12.8544 43.1229 12.794 43.1229 12.7328 43.1229H12.5984C12.5622 43.1229 12.5273 43.1229 12.4896 43.1229L12.3524 43.1179C12.2813 43.1179 12.2044 43.1101 12.1305 43.1051L11.9939 43.095L11.824 43.0793C11.7045 43.0686 11.5857 43.055 11.4684 43.0385L11.3262 43.0185L11.2551 43.0085C11.1363 42.9899 11.0189 42.9698 10.8995 42.9469C10.812 42.9319 10.7252 42.9133 10.6371 42.8954L10.6321 34.3989Z" fill="#F9A826"/>
<path opacity="0.1" d="M49.9818 13.9194H45.5072V23.889H49.9818V13.9194Z" fill="#F9A826"/>
<path opacity="0.1" d="M49.9825 24.1953V34.0926H27.7724V29.8236H39.6025V32.342H45.5072V24.1953H49.9825Z" fill="#F9A826"/>
<path opacity="0.1" d="M50.0529 45.0102H49.9818V51.5028C49.1805 51.4346 48.3817 51.3418 47.5852 51.2245C43.9993 50.6963 40.5036 49.6701 37.198 48.1753C36.2437 47.7432 35.3087 47.2714 34.3932 46.7601C32.864 45.9078 31.3989 44.9439 30.0097 43.8762C29.6607 43.6072 29.3163 43.332 28.9764 43.0506C28.741 42.8553 28.507 42.655 28.2702 42.4604C28.1059 42.3266 27.9402 42.195 27.7724 42.069V34.3989H45.4482C45.4361 34.3531 45.424 34.3073 45.4112 34.2622C45.4247 34.3073 45.4375 34.3531 45.4496 34.3989H49.9818V45.0059C50.006 45.0066 50.0294 45.0088 50.0529 45.0102Z" fill="#F9A826"/>
<path opacity="0.1" d="M61.6519 13.1768H58.7361V12.2654H60.0433V9.55029C60.1566 9.59179 60.2694 9.63448 60.3818 9.67836V12.2654H61.6519V13.1768Z" fill="#F9A826"/>
<path opacity="0.1" d="M68.6767 23.8899H54.3625C54.3625 23.8899 54.3625 23.8899 54.3675 23.8935L54.3611 23.8899H51.7056V13.9203H52.458V21.2893H55.8965V16.9251H58.7368V13.4832H61.6526V16.928H64.4929V21.2921H68.6767V23.8899Z" fill="#F9A826"/>
<path opacity="0.1" d="M51.7056 24.1953V34.0926H68.6767V24.1953H51.7056ZM73.2835 45.7428L73.307 37.9088H68.6767V34.4031H51.7056V51.6094C53.097 51.6682 54.4905 51.6515 55.8801 51.5593H55.9043C56.568 51.5173 57.2287 51.4563 57.8863 51.3761H57.9012C61.4094 50.9654 64.8397 50.0446 68.085 48.6425" fill="#F9A826"/>
<path opacity="0.1" d="M75.331 34.3989H79.29C79.2551 36.4086 78.854 38.3825 77.9765 40.2054C77.2461 41.72 76.2313 43.0442 75.0323 44.2011V37.9053H75.331V34.3989Z" fill="#F9A826"/>
<path opacity="0.1" d="M79.2921 34.0927H75.331V25.8215H77.4744C78.5838 28.4293 79.2886 31.291 79.2921 34.0927Z" fill="#F9A826"/>
<path opacity="0.1" d="M49.9825 16.6912H47.5852V19.8169H49.9825V16.6912Z" fill="#F9A826"/>
<path opacity="0.1" d="M49.9825 23.1702H47.5852V23.8899H49.9825V23.1702Z" fill="#F9A826"/>
<path opacity="0.1" d="M49.9825 24.1953H47.5852V26.2951H49.9825V24.1953Z" fill="#F9A826"/>
<path opacity="0.1" d="M49.9825 29.6492H47.5852V32.7749H49.9825V29.6492Z" fill="#F9A826"/>
<path opacity="0.1" d="M49.9825 36.1282H47.5852V39.2539H49.9825V36.1282Z" fill="#F9A826"/>
<path opacity="0.1" d="M49.9818 45.0058C50.006 45.0058 50.0295 45.0058 50.0529 45.0101H49.9818V45.7362H47.5852V42.6069H49.9818V45.0058Z" fill="#F9A826"/>
<path opacity="0.1" d="M49.9818 49.0847V51.4993C49.1806 51.4311 48.3817 51.3383 47.5852 51.221V49.0847H49.9818Z" fill="#F9A826"/>
<path opacity="0.1" d="M38.0464 33.863H27.7724V34.0927H38.0464V33.863Z" fill="#F9A826"/>
<path opacity="0.1" d="M38.0464 34.3982H27.7724V35.2782H38.0464V34.3982Z" fill="#F9A826"/>
<path opacity="0.1" d="M38.0464 38.1628H27.7724V39.578H38.0464V38.1628Z" fill="#F9A826"/>
<path opacity="0.1" d="M38.0457 42.4626V43.8778H30.0097C29.6607 43.6097 29.3161 43.3345 28.9756 43.0522C28.7403 42.8569 28.507 42.6565 28.2695 42.4626H38.0457Z" fill="#F9A826"/>
<path opacity="0.1" d="M38.0458 46.7617V48.1754H37.1973C36.2439 47.7428 35.3092 47.2708 34.3932 46.7595L38.0458 46.7617Z" fill="#F9A826"/>
<path opacity="0.1" d="M57.9034 25.1548H55.8808V27.1895H57.9034V25.1548Z" fill="#F9A826"/>
<path opacity="0.1" d="M14.1118 15.6746H12.0892V17.7093H14.1118V15.6746Z" fill="#F9A826"/>
<path opacity="0.1" d="M14.1118 20.4006H12.0892V22.4353H14.1118V20.4006Z" fill="#F9A826"/>
<path opacity="0.1" d="M14.1118 25.1267H12.0892V27.1614H14.1118V25.1267Z" fill="#F9A826"/>
<path opacity="0.1" d="M14.1118 29.8523H12.0892V31.887H14.1118V29.8523Z" fill="#F9A826"/>
<path opacity="0.1" d="M14.1118 34.5784H12.0892V36.6131H14.1118V34.5784Z" fill="#F9A826"/>
<path opacity="0.1" d="M14.1118 39.3047H12.0892V41.3394H14.1118V39.3047Z" fill="#F9A826"/>
<path opacity="0.1" d="M65.6244 25.1548H63.6019V27.1895H65.6244V25.1548Z" fill="#F9A826"/>
<path opacity="0.1" d="M57.9034 30.1736H55.8808V32.2083H57.9034V30.1736Z" fill="#F9A826"/>
<path opacity="0.1" d="M65.6244 30.1736H63.6019V32.2083H65.6244V30.1736Z" fill="#F9A826"/>
<path opacity="0.1" d="M57.9034 35.1917H55.8808V37.2263H57.9034V35.1917Z" fill="#F9A826"/>
<path opacity="0.1" d="M65.6244 35.1917H63.6019V37.2263H65.6244V35.1917Z" fill="#F9A826"/>
<path opacity="0.1" d="M57.9034 40.2104H55.8808V42.2451H57.9034V40.2104Z" fill="#F9A826"/>
<path opacity="0.1" d="M65.6244 40.2104H63.6019V42.2451H65.6244V40.2104Z" fill="#F9A826"/>
<path opacity="0.1" d="M57.9034 45.229H55.8808V47.2637H57.9034V45.229Z" fill="#F9A826"/>
<path opacity="0.1" d="M65.6244 45.229H63.6019V47.2637H65.6244V45.229Z" fill="#F9A826"/>
<path opacity="0.1" d="M55.8808 51.5592V50.2471H57.9026V51.3724L55.8808 51.5592Z" fill="#F9A826"/>
<path opacity="0.1" d="M1.98727 21.3464V22.5104H8.90896V21.3464H1.98727ZM2.6771 22.4375H2.11244V21.418H2.68136L2.6771 22.4375ZM3.36621 22.4375H2.79728V21.418H3.36621V22.4375ZM4.0539 22.4375H3.48497V21.418H4.0539V22.4375ZM4.74301 22.4375H4.17479V21.418H4.74372L4.74301 22.4375ZM5.4314 22.4375H4.86248V21.418H5.4314V22.4375ZM6.12052 22.4375H5.55159V21.418H6.12052V22.4375ZM6.80963 22.4375H6.2407V21.418H6.80963V22.4375ZM7.49802 22.4375H6.9291V21.418H7.49802V22.4375ZM8.18643 22.4375H7.6175V21.418H8.18643V22.4375ZM8.87482 22.4375H8.3059V21.418H8.87482V22.4375Z" fill="#F9A826"/>
<path opacity="0.1" d="M1.98727 24.7334V25.8974H8.90896V24.7334H1.98727ZM2.6771 25.8237H2.11244V24.8071H2.68136L2.6771 25.8237ZM3.36621 25.8237H2.79728V24.8071H3.36621V25.8237ZM4.0539 25.8237H3.48497V24.8071H4.0539V25.8237ZM4.74301 25.8237H4.17479V24.8071H4.74372L4.74301 25.8237ZM5.4314 25.8237H4.86248V24.8071H5.4314V25.8237ZM6.12052 25.8237H5.55159V24.8071H6.12052V25.8237ZM6.80963 25.8237H6.2407V24.8071H6.80963V25.8237ZM7.49802 25.8237H6.9291V24.8071H7.49802V25.8237ZM8.18643 25.8237H7.6175V24.8071H8.18643V25.8237ZM8.87482 25.8237H8.3059V24.8071H8.87482V25.8237Z" fill="#F9A826"/>
<path opacity="0.1" d="M1.98727 28.1216V29.2877H8.90896V28.1216H1.98727ZM2.6771 29.2119H2.11244V28.1946H2.68136L2.6771 29.2119ZM3.36621 29.2119H2.79728V28.1946H3.36621V29.2119ZM4.0539 29.2119H3.48497V28.1946H4.0539V29.2119ZM4.74301 29.2119H4.17479V28.1946H4.74372L4.74301 29.2119ZM5.4314 29.2119H4.86248V28.1946H5.4314V29.2119ZM6.12052 29.2119H5.55159V28.1946H6.12052V29.2119ZM6.80963 29.2119H6.2407V28.1946H6.80963V29.2119ZM7.49802 29.2119H6.9291V28.1946H7.49802V29.2119ZM8.18643 29.2119H7.6175V28.1946H8.18643V29.2119ZM8.87482 29.2119H8.3059V28.1946H8.87482V29.2119Z" fill="#F9A826"/>
<path opacity="0.1" d="M1.98727 31.51V32.6726H8.90896V31.51H1.98727ZM2.6771 32.6003H2.11244V31.5823H2.68136L2.6771 32.6003ZM3.36621 32.6003H2.79728V31.5823H3.36621V32.6003ZM4.0539 32.6003H3.48497V31.5823H4.0539V32.6003ZM4.74301 32.6003H4.17479V31.5823H4.74372L4.74301 32.6003ZM5.4314 32.6003H4.86248V31.5823H5.4314V32.6003ZM6.12052 32.6003H5.55159V31.5823H6.12052V32.6003ZM6.80963 32.6003H6.2407V31.5823H6.80963V32.6003ZM7.49802 32.6003H6.9291V31.5823H7.49802V32.6003ZM8.18643 32.6003H7.6175V31.5823H8.18643V32.6003ZM8.87482 32.6003H8.3059V31.5823H8.87482V32.6003Z" fill="#F9A826"/>
<path opacity="0.1" d="M2.01712 34.8975C2.04486 35.0069 2.07615 35.1164 2.10886 35.2244V34.9704H2.67778V35.9878H2.37341C2.38265 36.0114 2.3919 36.0372 2.40114 36.0593H8.90894V34.8975H2.01712ZM3.36832 35.9878H2.79939V34.9704H3.36832V35.9878ZM4.05601 35.9878H3.48708V34.9704H4.05601V35.9878ZM4.74512 35.9878H4.17477V34.9704H4.74369L4.74512 35.9878ZM5.43352 35.9878H4.86459V34.9704H5.43352V35.9878ZM6.12263 35.9878H5.5537V34.9704H6.12263V35.9878ZM6.81174 35.9878H6.24281V34.9704H6.81174V35.9878ZM7.50014 35.9878H6.93121V34.9704H7.50014V35.9878ZM8.18854 35.9878H7.61961V34.9704H8.18854V35.9878ZM8.87694 35.9878H8.30801V34.9704H8.87694V35.9878Z" fill="#F9A826"/>
<path opacity="0.1" d="M3.62436 38.2859C3.64214 38.3088 3.65921 38.3345 3.6777 38.3574H4.0539V38.8461C4.09443 38.8947 4.13426 38.9434 4.17551 38.9892V38.3546H4.74443V39.3755H4.51402C4.53677 39.3991 4.55882 39.4241 4.58513 39.447H8.9111V38.2859H3.62436ZM5.43141 39.3755H4.86248V38.3589H5.43141V39.3755ZM6.12052 39.3755H5.55159V38.3589H6.12052V39.3755ZM6.80963 39.3755H6.2407V38.3589H6.80963V39.3755ZM7.49803 39.3755H6.9291V38.3589H7.49803V39.3755ZM8.18643 39.3755H7.6175V38.3589H8.18643V39.3755ZM8.87483 39.3755H8.3059V38.3589H8.87483V39.3755Z" fill="#F9A826"/>
<path opacity="0.1" d="M7.4212 41.6733C7.48592 41.7105 7.55206 41.7449 7.6189 41.7821V41.7463H8.18783V42.0683L8.30873 42.1248V41.7463H8.87765V42.3652C8.88856 42.3706 8.9 42.3749 8.91179 42.378V41.6733H7.4212Z" fill="#F9A826"/>
<path opacity="0.1" d="M54.3625 23.8899H54.3668H54.3625ZM49.9818 45.0052H50.0529H49.9818ZM45.4112 34.2616C45.4247 34.3073 45.4361 34.3531 45.4489 34.3982C45.4375 34.3531 45.4254 34.3073 45.4112 34.2616ZM54.3625 23.8877H54.3668H54.3625ZM11.4087 13.1748V13.4803H14.5854V13.1748H11.4087ZM49.9818 45.0052H50.0529H49.9818ZM45.4112 34.2616C45.4247 34.3073 45.4361 34.3531 45.4489 34.3982C45.4375 34.3531 45.4254 34.3073 45.4112 34.2616ZM54.3625 23.8877H54.3668H54.3625ZM49.9818 45.0031H50.0529H49.9818ZM45.4112 34.2616C45.4247 34.3073 45.4361 34.3531 45.4489 34.3982C45.4375 34.3531 45.4254 34.3073 45.4112 34.2616Z" fill="#F9A826"/>
<path d="M33.5342 27.163C33.5342 27.163 33.254 27.1237 33.254 26.713C33.254 26.3023 33.0534 25.5354 33.0534 25.5354C33.0534 25.5318 32.8799 24.1997 32.6402 23.9879C32.4006 23.7761 32.0926 22.5327 32.0926 22.5327C32.0926 22.5327 32.04 21.8581 31.9326 21.7128C31.8252 21.5676 31.6802 21.212 31.4661 20.7048C31.2521 20.1975 30.3596 19.8462 30.3596 19.8462C30.3596 19.8462 28.7459 18.9047 28.2887 18.5978C28.2471 18.5726 28.2083 18.5431 28.1728 18.5098C28.0931 18.4046 27.7461 18.4025 27.7461 18.4025C27.7098 18.1721 27.6749 17.9074 27.6636 17.6677C27.6636 17.642 27.6636 17.6162 27.66 17.5905C28.1699 17.2873 28.554 16.8092 28.7417 16.244C28.7502 16.2168 28.7573 16.1882 28.7651 16.161C28.7957 16.1509 28.8238 16.1345 28.8477 16.1128C28.8716 16.0911 28.8907 16.0647 28.9038 16.0351C28.9451 15.9428 28.9458 15.8348 28.997 15.7489C29.0567 15.6474 29.1705 15.593 29.2601 15.5164C29.4863 15.3233 29.5446 14.9977 29.5339 14.7016C29.5268 14.4619 29.4884 14.2201 29.5033 13.9818L29.5076 13.9217C29.5119 13.886 29.5168 13.8502 29.5232 13.8158C29.5581 13.6384 29.6342 13.471 29.6768 13.295C29.7195 13.119 29.7238 12.9208 29.6242 12.7692C29.4784 12.5467 29.1748 12.5023 28.9081 12.4794C28.6058 12.4537 28.3356 12.4873 28.1422 12.2347C28.0516 12.1027 27.9498 11.979 27.8378 11.8648C27.798 11.8276 27.4111 11.5901 27.4111 11.5744C27.0335 11.3985 26.6055 11.3654 26.2057 11.4814C26.0051 11.54 25.816 11.6359 25.6126 11.6838C25.1738 11.7883 24.6689 11.6753 24.2962 11.9278C24.0886 12.0709 23.9641 12.2984 23.8475 12.5202C23.7527 12.7029 23.6564 12.8853 23.5588 13.0675C23.4016 13.3673 23.2416 13.672 23.1755 14.004C23.1615 14.0762 23.153 14.1494 23.1499 14.2229V14.2265C23.1499 14.253 23.1499 14.2794 23.1499 14.3059V14.3395C23.1499 14.3646 23.1499 14.3889 23.1541 14.4111C23.1584 14.4333 23.1577 14.4404 23.1598 14.4554C23.1619 14.4705 23.1655 14.5041 23.1698 14.527C23.174 14.5499 23.1826 14.5899 23.1911 14.6214C23.1947 14.635 23.1996 14.6479 23.2039 14.6608C23.211 14.6851 23.2195 14.7087 23.2288 14.7323C23.2338 14.7445 23.2387 14.7574 23.2444 14.7695C23.2551 14.7946 23.2679 14.8189 23.2807 14.8411C23.2864 14.8511 23.2907 14.8604 23.2964 14.8697C23.3162 14.9029 23.338 14.935 23.3618 14.9655C23.514 15.1566 23.738 15.2782 23.9037 15.4571C23.9037 15.4642 23.9037 15.4714 23.9037 15.4778C23.9037 15.4978 23.9037 15.5171 23.9037 15.5372C23.9125 15.9361 24.018 16.3268 24.2111 16.6753C24.4042 17.0238 24.679 17.3195 25.0117 17.5368C25.0117 17.564 25.0152 17.5919 25.0166 17.6191C25.0305 17.8315 25.0279 18.0446 25.0088 18.2566C24.9799 18.2222 24.9436 18.1949 24.9027 18.1766C24.8619 18.1583 24.8174 18.1494 24.7727 18.1507C24.7422 18.1492 24.7115 18.1518 24.6817 18.1585L24.6753 18.1535V18.16C24.5188 18.1986 24.3261 18.3624 24.1419 18.8282C24.1419 18.8282 23.5815 19.4635 23.1548 19.437C22.7281 19.4105 21.6479 20.0981 21.6479 20.0981C21.6479 20.0981 20.594 20.7863 20.3678 21.4875C20.2414 21.885 20.0899 22.2741 19.9141 22.6522L18.6113 25.353L18.3709 27.4957C18.3709 27.4957 18.5039 28.4486 18.4776 28.5939C18.4512 28.7391 19.0244 30.0491 19.0244 30.0491C19.0244 30.0491 20.9182 33.3966 21.692 33.5683L21.7475 33.529C21.7806 33.5463 21.8157 33.5596 21.852 33.5683L22.0113 33.4553C22.0209 33.5812 22.0168 33.7079 21.9992 33.833C21.8925 34.1635 22.039 36.3206 22.2253 36.7434C22.4117 37.1662 22.3455 42.7101 22.3455 42.7101L22.3192 43.1995C22.3192 43.1995 22.3192 43.2152 22.3256 43.2424L22.3192 43.3583L22.3384 43.3683C22.3584 43.5236 22.3519 43.6811 22.3192 43.8341C22.2524 44.0487 22.2253 44.6554 22.2253 44.6554C22.2253 44.6554 21.6927 48.0809 21.9452 48.7692C22.1976 49.4574 22.4124 50.2115 22.4124 50.2115C22.4124 50.2115 22.6791 51.07 22.4252 51.2167C22.1713 51.3633 21.4495 51.6094 21.5981 51.9672C21.7332 52.2977 22.246 53.1834 22.3221 53.3129L22.3157 53.3809L22.2111 54.5205C22.2281 54.671 22.2686 54.8179 22.3313 54.9555C22.4458 55.2038 22.6684 55.4613 23.0915 55.4334C23.1627 55.4284 23.2451 55.4198 23.3248 55.4091C24.0992 55.3047 25.0529 54.957 25.0529 54.957C25.0034 54.9253 24.958 54.8876 24.9178 54.8446C24.8797 54.8075 24.8496 54.763 24.8291 54.7138C24.8087 54.6646 24.7985 54.6118 24.799 54.5585C24.8104 54.351 24.4242 53.3623 24.3282 53.119C24.3133 53.084 24.3055 53.0639 24.3055 53.0639C24.3055 53.0639 25.1859 52.1381 25.0394 51.3175C25.0394 51.3175 24.0651 50.7452 24.3858 50.4311C24.7066 50.117 25.2798 49.2149 25.2798 49.2149C25.2798 49.2149 25.3061 45.8416 25.2798 45.3379C25.2523 44.9883 25.2688 44.6367 25.3288 44.2912C25.3395 44.239 25.3523 44.1882 25.3658 44.1381C25.8094 44.2048 26.2572 44.2389 26.7056 44.2405C26.8692 44.2405 27.0356 44.2405 27.2034 44.2304C27.2034 44.2781 27.2056 44.3296 27.2098 44.385C27.2468 45.2206 27.3158 46.6858 27.372 47.2303C27.4516 48.0108 27.8918 50.1142 27.8918 50.1142C27.8918 50.1142 27.052 50.6565 28.0383 51.9929C28.0383 51.9929 28.0383 52.4773 27.9729 52.5474C27.9031 52.7766 27.8468 53.0097 27.8044 53.2456C27.7631 53.4975 27.7461 53.7522 27.8129 53.8845C27.9729 54.2007 28.933 54.175 28.933 54.175L28.9564 54.1707C29.1377 54.1518 29.3209 54.1694 29.4953 54.2223C29.6698 54.2753 29.832 54.3625 29.9727 54.479C30.3375 54.7738 31.7221 54.6443 32.4717 54.5506C32.7654 54.5134 32.9617 54.479 32.9617 54.479C32.9712 54.4456 32.9746 54.4107 32.9716 54.376C32.9638 54.1907 32.8194 53.7844 31.8409 53.4216C31.8409 53.4216 30.9207 52.7992 30.9335 52.2569H30.9143H30.8076C30.8851 52.2526 30.9349 52.2569 30.9349 52.2569C30.9349 52.2569 30.5743 50.9334 30.7215 50.826C30.8687 50.7187 30.4278 49.2521 30.4278 49.2521C30.4278 49.2521 30.1754 46.791 30.1619 46.6186C30.1624 46.4706 30.1847 46.3235 30.228 46.1821L30.1619 44.8328C30.1619 44.8328 30.1491 44.3843 30.1619 44.2383C30.1597 44.1116 30.1495 43.9852 30.1313 43.8598C30.1249 43.8098 30.1185 43.7575 30.1114 43.706C30.4563 43.618 30.6803 43.5365 30.6803 43.5365L30.6405 38.8396C30.9335 38.2673 30.9875 37.0117 30.9861 36.121C30.9861 35.5486 30.9605 35.1251 30.9605 35.1251L31.3609 34.4676C31.3609 34.4676 31.4533 33.6806 31.3068 33.5082C31.2421 33.4302 31.2713 33.3494 31.3246 33.2828C31.3523 33.2607 31.3815 33.2407 31.4121 33.2227C31.4121 33.2227 31.4078 33.2163 31.4028 33.207C31.4308 33.1835 31.4605 33.1622 31.4917 33.1433C31.4917 33.1433 31.3495 32.9215 31.4768 32.8278C31.5963 32.9094 31.7029 32.9709 31.784 33.021C31.7783 33.0732 31.7726 33.1033 31.7726 33.1033L31.8068 33.0317C31.885 33.0761 31.9326 33.1033 31.9326 33.1033C31.9326 33.1033 32.5599 31.8462 32.5464 31.6609C32.5329 31.4757 32.9731 30.6951 32.9731 30.6951C32.9731 30.6951 33.0264 30.2852 33.2668 30.1135C33.5071 29.9418 33.4531 28.6976 33.4531 28.6976C33.4531 28.6976 33.5199 28.0494 33.6799 27.7847C33.84 27.52 33.5342 27.163 33.5342 27.163ZM21.5327 26.6114L21.5448 26.9112C21.4737 26.796 21.4225 26.713 21.4225 26.713L21.5327 26.6114Z" fill="url(#paint0_linear_1_465)"/>
<path d="M31.9668 32.5603L31.8132 33.2185C31.8132 33.2185 30.5829 32.5867 30.361 31.784C30.1391 30.9813 30.7322 30.6765 30.7322 30.6765L31.8786 31.1652L31.9668 32.5603Z" fill="#E37C3D"/>
<path opacity="0.1" d="M31.9668 32.5603L31.8132 33.2185C31.8132 33.2185 30.5829 32.5867 30.361 31.784C30.1391 30.9813 30.7322 30.6765 30.7322 30.6765L31.8786 31.1652L31.9668 32.5603Z" fill="black"/>
<path d="M25.0622 54.9611C25.0622 54.9611 23.9243 55.3817 23.142 55.4347C22.7267 55.4626 22.5084 55.2065 22.396 54.9596C22.3346 54.8224 22.295 54.6764 22.2787 54.5268L22.3804 53.3928L22.4344 52.789L24.0964 52.3547L24.3318 53.0788L24.3538 53.1338C24.4484 53.3757 24.8275 54.3594 24.8161 54.5647C24.8156 54.6173 24.8257 54.6694 24.8458 54.718C24.8658 54.7665 24.8954 54.8105 24.9327 54.8473C24.9709 54.8906 25.0144 54.9288 25.0622 54.9611Z" fill="#E37C3D"/>
<path d="M32.8344 54.3846C32.8372 54.419 32.8339 54.4537 32.8244 54.4869C32.8244 54.4869 30.3909 54.8954 29.8931 54.4869C29.7527 54.3676 29.5891 54.2791 29.4127 54.2271C29.2364 54.1751 29.0512 54.1607 28.869 54.185C28.869 54.185 27.9274 54.2107 27.7703 53.8988C27.7048 53.7679 27.7219 53.5139 27.7624 53.2635C27.8038 53.0289 27.8589 52.7969 27.9274 52.5688L27.9651 52.5388L28.1891 52.3578L30.8119 52.2798H30.8318C30.819 52.8192 31.7221 53.4381 31.7221 53.4381C32.6815 53.7958 32.823 54.2 32.8344 54.3846Z" fill="#E37C3D"/>
<path opacity="0.1" d="M32.8344 54.3845C32.8369 54.419 32.8333 54.4536 32.8237 54.4868C32.8237 54.4868 30.3909 54.8953 29.893 54.4868C29.7528 54.3676 29.5893 54.2791 29.4131 54.2271C29.2368 54.1751 29.0518 54.1608 28.8697 54.1849C28.8697 54.1849 27.9274 54.2107 27.771 53.8987C27.7055 53.7671 27.7219 53.5138 27.7624 53.2634C28.1251 53.2999 28.6976 53.3908 28.9223 53.6076C29.2622 53.9374 29.8383 54.2665 30.1917 54.2922C30.4684 54.3101 32.1232 54.3631 32.8344 54.3845Z" fill="black"/>
<path opacity="0.1" d="M25.0622 54.9612C25.0622 54.9612 23.9243 55.3819 23.142 55.4349C22.7267 55.4628 22.5084 55.2066 22.3968 54.9591C22.6862 55.0571 23.088 55.1601 23.2992 55.0657C23.5495 54.9541 24.4371 54.8818 24.9349 54.8511C24.9728 54.8928 25.0155 54.9298 25.0622 54.9612Z" fill="black"/>
<path d="M26.7505 21.0602C25.8117 20.6932 24.6042 19.4805 24.9057 18.9139C24.9727 18.7709 25.0125 18.6166 25.0231 18.4589C25.0425 18.2448 25.0453 18.0295 25.0316 17.815C25.0105 17.4636 24.9684 17.1139 24.9057 16.7676C24.9057 16.7676 27.8364 16.8341 27.6657 17.2684C27.6159 17.3957 27.6081 17.6168 27.6216 17.8643C27.6351 18.1119 27.6707 18.3916 27.7077 18.6284C27.7589 18.9532 27.8101 19.2008 27.8101 19.2008C27.8101 19.2008 27.6309 19.4533 27.5256 19.4669C27.4204 19.4805 28.0974 21.5832 26.7505 21.0602Z" fill="#CF6F80"/>
<path opacity="0.1" d="M24.3517 53.1338L24.3297 53.1582C23.4535 52.0922 22.3939 53.4207 22.3939 53.4207L22.3783 53.3928L22.4323 52.789L24.0943 52.3547L24.3297 53.0788L24.3517 53.1338Z" fill="black"/>
<path opacity="0.1" d="M30.8325 52.3548C30.8325 52.3548 30.1925 52.3412 29.8511 52.6446C29.5097 52.9479 27.8599 52.7104 27.931 52.6446C27.952 52.612 27.9647 52.5746 27.968 52.5358L28.192 52.3548L30.8147 52.2769C30.8247 52.3248 30.8325 52.3548 30.8325 52.3548Z" fill="black"/>
<path d="M25.4419 43.9835C25.3943 44.1021 25.3581 44.225 25.3338 44.3506C25.2745 44.6944 25.258 45.0443 25.2848 45.3922C25.3111 45.893 25.2848 49.2492 25.2848 49.2492C25.2848 49.2492 24.7222 50.1442 24.4086 50.4597C24.095 50.7752 25.0487 51.3418 25.0487 51.3418C25.1909 52.1574 24.329 53.0789 24.329 53.0789C23.4528 52.0129 22.3932 53.3422 22.3932 53.3422C22.3932 53.3422 21.8172 52.3405 21.6735 51.9828C21.5299 51.6251 22.236 51.3776 22.4842 51.2323C22.7324 51.0871 22.4721 50.2307 22.4721 50.2307C22.4721 50.2307 22.2623 49.4802 22.0134 48.7956C21.7645 48.1109 22.2879 44.7026 22.2879 44.7026C22.2879 44.7026 22.315 44.0973 22.3797 43.8862C22.4123 43.7339 22.4188 43.5771 22.3989 43.4226C22.3946 43.3704 22.3896 43.3268 22.3861 43.2974C22.3825 43.2681 22.3797 43.2545 22.3797 43.2545L22.3896 43.2373L22.7452 42.5706C22.7452 42.5706 25.6126 43.5636 25.4419 43.9835Z" fill="#F9A826"/>
<path d="M30.8325 52.2762C30.8325 52.2762 30.1924 52.2626 29.8511 52.5623C29.5097 52.8621 27.8598 52.6282 27.931 52.5623C28.0021 52.4965 27.9964 52.0093 27.9964 52.0093C27.0285 50.68 27.8542 50.1406 27.8542 50.1406C27.8542 50.1406 27.4218 48.0479 27.3435 47.2717C27.2888 46.7294 27.2212 45.2721 27.185 44.44C27.1693 44.0823 27.1601 43.8362 27.1601 43.8362L27.9509 43.6759L28.0526 43.6552L29.9599 43.2703C29.9599 43.2703 30.0125 43.628 30.0481 43.9206C30.0658 44.0455 30.0758 44.1714 30.0779 44.2976C30.0651 44.4407 30.0779 44.8886 30.0779 44.8886L30.1427 46.2315C30.1004 46.3723 30.0786 46.5186 30.0779 46.6657C30.0907 46.8367 30.3389 49.2849 30.3389 49.2849C30.3389 49.2849 30.7706 50.7459 30.6234 50.851C30.4762 50.9562 30.8325 52.2762 30.8325 52.2762Z" fill="#F9A826"/>
<path opacity="0.1" d="M27.6657 17.2684C27.6159 17.3957 27.6081 17.6168 27.6216 17.8643C27.2291 18.1022 26.7778 18.2237 26.3196 18.2151C25.8615 18.2065 25.415 18.0681 25.0316 17.8157C25.0105 17.4641 24.9684 17.1141 24.9057 16.7676C24.9057 16.7676 27.8364 16.8327 27.6657 17.2684Z" fill="black"/>
<path d="M28.7986 15.6873C28.7992 15.9451 28.7588 16.2014 28.6791 16.4464C28.5009 16.9954 28.1356 17.4634 27.6476 17.7676C27.1597 18.0718 26.5805 18.1927 26.0125 18.1089C25.4445 18.025 24.9243 17.7419 24.5437 17.3095C24.1632 16.8772 23.9468 16.3234 23.9329 15.746C23.9329 15.726 23.9329 15.7074 23.9329 15.6873C23.9273 15.3624 23.9862 15.0395 24.106 14.7377C24.2258 14.4358 24.4041 14.161 24.6306 13.9292C24.8571 13.6974 25.1272 13.5133 25.4252 13.3876C25.7231 13.262 26.043 13.1973 26.3661 13.1973C26.6892 13.1973 27.009 13.262 27.307 13.3876C27.6049 13.5133 27.875 13.6974 28.1015 13.9292C28.328 14.161 28.5064 14.4358 28.6262 14.7377C28.746 15.0395 28.8048 15.3624 28.7993 15.6873H28.7986Z" fill="#CF6F80"/>
<path opacity="0.1" d="M26.7505 21.0603C25.8117 20.6933 24.6042 19.4806 24.9057 18.914C24.9727 18.771 25.0125 18.6167 25.0231 18.459L26.3081 19.5214L27.1032 20.1775L27.7077 18.6293C27.7589 18.9541 27.8101 19.2016 27.8101 19.2016C27.8101 19.2016 27.6309 19.4542 27.5256 19.4677C27.4204 19.4813 28.0974 21.5833 26.7505 21.0603Z" fill="black"/>
<path d="M30.0737 25.7557L29.0005 43.892L27.601 43.9843L23.9769 33.4681L24.5715 20.983L24.6966 18.3452L26.3081 19.6766L27.1039 20.3327L27.7261 18.7394L28.8832 19.7539L30.0737 25.7557Z" fill="#F9A826"/>
<path opacity="0.1" d="M25.4419 43.9834C25.3943 44.102 25.3581 44.2249 25.3338 44.3505C24.3154 44.1923 23.3264 43.8814 22.3996 43.4283L22.3804 43.4182L22.3868 43.3031L22.3904 43.243L22.7459 42.5762C22.7459 42.5762 25.6126 43.5635 25.4419 43.9834Z" fill="black"/>
<path opacity="0.1" d="M27.9672 44.3534C27.7069 44.3979 27.4443 44.428 27.1807 44.4435C27.165 44.0858 27.1558 43.8397 27.1558 43.8397L27.9466 43.6794L27.9672 44.3534Z" fill="black"/>
<path opacity="0.1" d="M30.0438 43.9243C29.5382 44.0566 28.7573 44.2054 28.0583 44.1124L28.0483 43.6588L29.9556 43.2739C29.9556 43.2739 30.0083 43.6281 30.0438 43.9243Z" fill="black"/>
<path opacity="0.1" d="M28.0455 44.1952C25.1297 44.696 22.4593 43.2601 22.4593 43.2601L22.4849 42.7737C22.4849 42.7737 22.5511 37.2584 22.3676 36.8355C22.1841 36.4127 22.0412 34.2686 22.145 33.9395C22.2488 33.6104 21.766 28.6753 21.766 28.6753L21.6877 26.6721L18.8246 25.5052L20.1047 22.8209C20.2776 22.4445 20.4263 22.0574 20.5499 21.6619C20.7725 20.965 21.8058 20.2804 21.8058 20.2804C21.8058 20.2804 22.8654 19.5964 23.2843 19.6222C23.7031 19.6479 24.2522 19.0169 24.2522 19.0169C24.6575 17.9774 25.0245 18.4481 25.0245 18.4481C25.0245 18.4975 25.0245 18.4481 25.0046 18.6019C24.8623 19.7431 27.3044 23.3489 27.3393 23.4125L27.5718 29.1117L27.8072 36.324L28.0455 44.1952Z" fill="black"/>
<path d="M27.9672 44.1954C25.0515 44.6962 22.3804 43.2603 22.3804 43.2603L22.4067 42.7738C22.4067 42.7738 22.4728 37.2585 22.2886 36.8357C22.1044 36.4129 21.9622 34.2687 22.0668 33.9396C22.1713 33.6105 21.6877 28.6754 21.6877 28.6754L21.6088 26.6722L18.7442 25.501L20.0243 22.8167C20.1968 22.4402 20.3455 22.0531 20.4695 21.6577C20.6914 20.9609 21.7254 20.2762 21.7254 20.2762C21.7254 20.2762 22.785 19.5923 23.2032 19.618C23.6213 19.6438 24.1711 19.0127 24.1711 19.0127C24.5771 17.9732 25.0245 18.444 25.0245 18.444C25.0245 18.4933 24.9818 18.5155 25.0045 18.5978C25.3175 19.7046 27.2262 23.3447 27.261 23.4084L27.4964 29.1075L27.7318 36.3198L27.9672 44.1954Z" fill="#E37C3D"/>
<path opacity="0.1" d="M27.1814 23.5708C26.8678 23.4392 25.2065 21.5311 25.2065 21.5311V21.0969C25.1461 20.9538 24.7869 21.0411 24.4954 21.1412L24.6205 18.5034L24.7628 18.6222C25.0742 19.7282 27.1451 23.5072 27.1814 23.5708Z" fill="black"/>
<path d="M27.2604 23.4126C26.946 23.281 25.2848 21.3729 25.2848 21.3729V20.9387C25.2243 20.7956 24.8652 20.8829 24.5736 20.983L24.6995 18.3452L24.8417 18.464C25.1539 19.57 27.2255 23.3497 27.2604 23.4126Z" fill="#E37C3D"/>
<path opacity="0.1" d="M22.4593 32.9286C22.4984 32.9286 24.4868 32.7183 24.4868 32.7183C24.4868 32.7183 25.6908 35.0999 25.6119 35.6795C25.5329 36.259 25.39 36.7719 24.9057 36.6811C24.4214 36.5902 22.2993 36.7526 22.2993 36.7526L22.4593 32.9286Z" fill="black"/>
<path d="M22.3804 32.7706C22.4195 32.7706 24.4079 32.5603 24.4079 32.5603C24.4079 32.5603 25.6112 34.9427 25.5329 35.5215C25.4547 36.1003 25.3103 36.614 24.8268 36.5231C24.3432 36.4322 22.2204 36.5946 22.2204 36.5946L22.3804 32.7706Z" fill="#E37C3D"/>
<path d="M23.8788 31.6523C23.8788 31.6523 25.7036 32.6389 25.7427 32.9401C25.7819 33.2413 24.814 32.8085 24.6049 32.7563C24.4673 32.7229 24.3272 32.7009 24.186 32.6904L22.7914 32.7284L23.8788 31.6523Z" fill="#CF6F80"/>
<path opacity="0.1" d="M26.6722 23.6937C26.7783 23.6937 26.8642 23.6072 26.8642 23.5005C26.8642 23.3939 26.7783 23.3074 26.6722 23.3074C26.5662 23.3074 26.4802 23.3939 26.4802 23.5005C26.4802 23.6072 26.5662 23.6937 26.6722 23.6937Z" fill="black"/>
<path d="M26.6722 23.6151C26.7783 23.6151 26.8642 23.5286 26.8642 23.4219C26.8642 23.3152 26.7783 23.2288 26.6722 23.2288C26.5662 23.2288 26.4802 23.3152 26.4802 23.4219C26.4802 23.5286 26.5662 23.6151 26.6722 23.6151Z" fill="#3F3D56"/>
<path opacity="0.1" d="M27.0257 32.0558C27.1317 32.0558 27.2177 31.9693 27.2177 31.8626C27.2177 31.7559 27.1317 31.6694 27.0257 31.6694C26.9196 31.6694 26.8336 31.7559 26.8336 31.8626C26.8336 31.9693 26.9196 32.0558 27.0257 32.0558Z" fill="black"/>
<path d="M27.0257 31.9764C27.1317 31.9764 27.2177 31.8899 27.2177 31.7833C27.2177 31.6766 27.1317 31.5901 27.0257 31.5901C26.9196 31.5901 26.8336 31.6766 26.8336 31.7833C26.8336 31.8899 26.9196 31.9764 27.0257 31.9764Z" fill="#3F3D56"/>
<path opacity="0.1" d="M26.8635 27.8749C26.9696 27.8749 27.0555 27.7884 27.0555 27.6817C27.0555 27.575 26.9696 27.4885 26.8635 27.4885C26.7575 27.4885 26.6715 27.575 26.6715 27.6817C26.6715 27.7884 26.7575 27.8749 26.8635 27.8749Z" fill="black"/>
<path d="M26.8635 27.796C26.9696 27.796 27.0555 27.7095 27.0555 27.6028C27.0555 27.4962 26.9696 27.4097 26.8635 27.4097C26.7575 27.4097 26.6715 27.4962 26.6715 27.6028C26.6715 27.7095 26.7575 27.796 26.8635 27.796Z" fill="#3F3D56"/>
<path d="M31.2897 32.6503C31.2897 32.6503 31.4206 32.8478 31.2897 32.9401C31.1589 33.0324 31.3025 33.2556 31.3025 33.2556C31.3025 33.2556 30.9761 33.448 31.1198 33.6212C31.2634 33.7943 31.1724 34.5763 31.1724 34.5763L30.7798 35.2302C30.7798 35.2302 30.8033 35.6516 30.8047 36.2211C30.8047 37.1096 30.7528 38.3588 30.4655 38.9283L30.5053 43.6008C30.5053 43.6008 29.1307 44.1059 27.98 43.9521L27.8093 36.4543C27.8093 36.4543 28.0583 32.2025 28.15 31.3869C28.2037 30.9635 28.2255 30.5366 28.2154 30.1098C28.2154 30.1098 28.1763 28.8335 28.0447 28.2411C28.0447 28.2411 27.9025 25.6748 27.8883 24.9644C27.8819 24.6246 27.8997 23.633 27.9196 22.69C27.9416 21.6591 27.9665 20.6868 27.9665 20.6868L27.7069 18.6206C27.7069 18.6206 27.9665 18.5942 28.0447 18.6993C28.0798 18.7323 28.1179 18.7617 28.1585 18.7873C28.6066 19.0921 30.1896 20.0293 30.1896 20.0293C30.1896 20.0293 31.0657 20.3799 31.2755 20.8821C31.4853 21.3844 31.6311 21.7407 31.7328 21.8837C31.8345 22.0268 31.89 22.6993 31.89 22.6993C31.89 22.6993 32.1915 23.937 32.4269 24.1467C32.6623 24.3563 32.8344 25.6899 32.8344 25.6899L30.7542 27.3354C30.7542 27.3354 30.5715 30.0726 30.5324 30.1785C30.4933 30.2844 31.2897 32.6503 31.2897 32.6503Z" fill="#E37C3D"/>
<path d="M31.3687 32.6504C31.3687 32.6504 31.4988 32.8479 31.3687 32.9402C31.2385 33.0325 31.3808 33.2557 31.3808 33.2557C31.3808 33.2557 31.0565 33.4503 31.1987 33.6234C31.341 33.7965 31.2513 34.5785 31.2513 34.5785L30.8588 35.2324C30.8588 35.2324 30.8823 35.6538 30.8844 36.2233C30.8844 37.1119 30.8325 38.361 30.5452 38.9305L30.5843 43.603C30.5843 43.603 29.2075 44.1081 28.0583 43.9543L27.8883 36.4565C27.8883 36.4565 28.1372 32.2047 28.2289 31.3891C28.2827 30.9657 28.3043 30.5388 28.2936 30.1121C28.2936 30.1121 28.2545 28.8357 28.1237 28.2433C28.1237 28.2433 27.9814 25.6771 27.9665 24.9666C27.9601 24.6268 27.9786 23.6352 27.9978 22.6923C28.0199 21.6613 28.0447 20.689 28.0447 20.689L27.702 18.595C27.702 18.595 28.0447 18.595 28.1237 18.7016C28.1584 18.7349 28.1965 18.7644 28.2375 18.7896C28.6855 19.0943 30.2692 20.0316 30.2692 20.0316C30.2692 20.0316 31.1447 20.3821 31.3545 20.8844C31.5643 21.3866 31.71 21.7429 31.8125 21.886C31.9149 22.0291 31.9689 22.7016 31.9689 22.7016C31.9689 22.7016 32.2704 23.9393 32.5058 24.1489C32.7412 24.3585 32.9112 25.6892 32.9112 25.6892L30.8311 27.3347C30.8311 27.3347 30.6483 30.072 30.6085 30.1779C30.5686 30.2838 31.3687 32.6504 31.3687 32.6504Z" fill="#E37C3D"/>
<path opacity="0.1" d="M28.8775 21.2963L29.0653 21.8472L28.0768 22.8488C28.0988 21.8185 28.1237 20.8455 28.1237 20.8455L27.7809 18.7515C27.7809 18.7515 28.1237 18.7515 28.2026 18.8581C28.2372 18.8913 28.2754 18.9206 28.3164 18.9453L29.157 21.385L28.8775 21.2963Z" fill="black"/>
<path d="M28.7986 21.1383L28.987 21.6892L27.9985 22.6908C28.0206 21.6599 28.0455 20.6876 28.0455 20.6876L27.702 18.5935C27.702 18.5935 28.0455 18.5935 28.1237 18.7001C28.1586 18.7332 28.1967 18.7627 28.2375 18.7881L29.0788 21.227L28.7986 21.1383Z" fill="#E37C3D"/>
<path opacity="0.1" d="M28.7986 15.6873C28.7992 15.9451 28.7588 16.2014 28.6791 16.4464C28.6657 16.4485 28.652 16.4479 28.6388 16.4446C28.6256 16.4413 28.6132 16.4353 28.6023 16.4271C28.5838 15.7832 28.2688 15.1787 27.8812 14.6643C27.7724 14.509 27.6405 14.3714 27.4901 14.2565C27.338 14.1416 27.1489 14.0878 26.9595 14.1055C26.7462 14.1348 26.5577 14.2808 26.3422 14.2994C26.0578 14.323 25.8032 14.1248 25.5209 14.1148C25.4061 14.1159 25.2929 14.1416 25.1888 14.1902C25.0846 14.2388 24.992 14.3092 24.9171 14.3967C24.7688 14.5732 24.6586 14.7788 24.5935 15.0005C24.4817 15.3367 24.4208 15.6878 24.4129 16.0422C24.4093 16.2425 24.3901 16.4936 24.2052 16.5666C24.2191 16.4193 24.2025 16.2707 24.1564 16.1301C24.1102 15.9896 24.0355 15.8603 23.9371 15.7503L23.9329 15.746C23.9329 15.726 23.9329 15.7074 23.9329 15.6873C23.9273 15.3624 23.9862 15.0395 24.106 14.7377C24.2258 14.4358 24.4041 14.161 24.6306 13.9292C24.8571 13.6974 25.1272 13.5133 25.4252 13.3876C25.7231 13.262 26.043 13.1973 26.3661 13.1973C26.6892 13.1973 27.009 13.262 27.307 13.3876C27.6049 13.5133 27.875 13.6974 28.1015 13.9292C28.328 14.161 28.5064 14.4358 28.6262 14.7377C28.746 15.0395 28.8048 15.3624 28.7993 15.6873H28.7986Z" fill="black"/>
<path d="M27.3734 11.8005C27.0039 11.6256 26.5836 11.5925 26.1915 11.7075C25.9945 11.7661 25.8089 11.8613 25.609 11.9092C25.1823 12.0129 24.6845 11.9006 24.3183 12.1517C24.1149 12.2948 23.9926 12.5209 23.8788 12.7405L23.5943 13.2857C23.4393 13.584 23.2828 13.8874 23.2181 14.2158C23.1534 14.5442 23.1925 14.9119 23.3995 15.1759C23.5502 15.3683 23.7728 15.4892 23.9364 15.6702C24.0344 15.7803 24.1087 15.9096 24.1547 16.05C24.2007 16.1903 24.2174 16.3387 24.2038 16.4858C24.3894 16.4143 24.4072 16.1625 24.4114 15.9621C24.4194 15.6078 24.4803 15.2566 24.5921 14.9205C24.657 14.6987 24.7672 14.4931 24.9157 14.3166C24.9906 14.2292 25.0833 14.1589 25.1874 14.1103C25.2915 14.0617 25.4047 14.036 25.5194 14.0348C25.8039 14.0448 26.0592 14.2422 26.3408 14.2186C26.5542 14.2007 26.7433 14.0541 26.9581 14.0255C27.1475 14.0074 27.3367 14.0613 27.4886 14.1764C27.639 14.2912 27.7707 14.4288 27.879 14.5842C28.2673 15.0986 28.5824 15.7017 28.6009 16.3471C28.6812 16.4064 28.7971 16.3292 28.837 16.2376C28.8768 16.146 28.8782 16.0387 28.9287 15.9514C28.987 15.8505 29.0987 15.7969 29.1862 15.721C29.408 15.5286 29.4635 15.2045 29.455 14.9105C29.4464 14.6164 29.3895 14.3181 29.445 14.029C29.4784 13.8516 29.5538 13.6856 29.5951 13.5103C29.6363 13.3351 29.6413 13.1383 29.5439 12.9874C29.4016 12.7656 29.1022 12.7219 28.8412 12.7012C28.5447 12.6754 28.2794 12.7083 28.0903 12.4572C28.0015 12.3262 27.9015 12.2031 27.7916 12.0895C27.7539 12.0523 27.3734 11.8162 27.3734 11.8005Z" fill="#512E4E"/>
<path opacity="0.1" d="M19.6439 26.8876L18.9007 25.5054L18.6653 27.6381C18.6653 27.6381 18.7962 28.5853 18.7699 28.7306C18.7435 28.8758 19.3061 30.1779 19.3061 30.1779C19.3061 30.1779 21.1643 33.5075 21.9231 33.6792L24.4868 31.8363L23.807 30.9677C23.807 30.9677 23.5716 30.8754 23.5126 30.9677C23.5126 30.9677 22.2503 28.7828 22.1194 28.6247C21.9885 28.4666 22.0141 28.1511 22.0141 28.1511C22.0141 28.1511 21.8179 27.9407 21.8833 27.7433C21.9487 27.5458 21.5042 26.8611 21.5042 26.8611L21.9096 26.4798L19.6439 26.8876Z" fill="black"/>
<path d="M18.9398 25.3479L18.7435 25.5053L18.5081 27.638C18.5081 27.638 18.639 28.5852 18.6127 28.7305C18.5864 28.8757 19.1496 30.1778 19.1496 30.1778C19.1496 30.1778 21.0072 33.5074 21.766 33.6791L24.3304 31.8362L23.6498 30.9676C23.6498 30.9676 23.4144 30.8754 23.3554 30.9676C23.3554 30.9676 22.0931 28.7827 21.9622 28.6246C21.8314 28.4665 21.8577 28.151 21.8577 28.151C21.8577 28.151 21.6614 27.9406 21.7268 27.7432C21.7923 27.5457 21.3471 26.861 21.3471 26.861L21.7524 26.4797L18.9398 25.3479Z" fill="#E37C3D"/>
<path opacity="0.1" d="M31.1198 33.7027C31.262 33.8765 31.1724 34.657 31.1724 34.657L30.7799 35.311C30.7799 35.311 30.8033 35.7331 30.8048 36.3018L30.1448 36.5093C30.0852 36.5281 30.0219 36.5322 29.9604 36.5213C29.8988 36.5105 29.8408 36.485 29.791 36.447C29.7412 36.409 29.7012 36.3595 29.6743 36.3028C29.6474 36.246 29.6344 36.1837 29.6363 36.1208L29.7501 32.4285L31.2898 33.0208C31.1589 33.1124 31.3026 33.3371 31.3026 33.3371C31.3026 33.3371 30.9761 33.5288 31.1198 33.7027Z" fill="black"/>
<path d="M31.1987 33.6233C31.3409 33.7972 31.2513 34.5784 31.2513 34.5784L30.8588 35.2323C30.8588 35.2323 30.8822 35.6537 30.8844 36.2232L30.2123 36.4343C30.1539 36.4525 30.092 36.4565 30.0318 36.4458C29.9715 36.4352 29.9147 36.4102 29.866 36.3729C29.8173 36.3357 29.7782 36.2873 29.7518 36.2318C29.7255 36.1762 29.7127 36.1152 29.7145 36.0537L29.829 32.3499L31.3694 32.9422C31.2378 33.0338 31.3815 33.2577 31.3815 33.2577C31.3815 33.2577 31.0565 33.4502 31.1987 33.6233Z" fill="#E37C3D"/>
<path d="M31.7086 31.8634C31.7086 31.8634 31.6041 32.5352 31.3424 32.5746C31.0807 32.6139 30.9633 33.6613 30.7023 33.6241C30.4413 33.5869 30.6142 32.6504 30.6234 32.4687C30.6326 32.287 30.3389 31.5343 30.5587 31.3633C30.7784 31.1924 31.4739 31.3633 31.4739 31.3633L31.7086 31.8634Z" fill="#CF6F80"/>
<path opacity="0.1" d="M32.2655 26.6901L32.759 25.6885C32.759 25.6885 32.9553 26.4518 32.9553 26.8596C32.9553 27.2674 33.2298 27.3075 33.2298 27.3075C33.2298 27.3075 33.5306 27.6652 33.372 27.9256C33.2134 28.1861 33.1494 28.8342 33.1494 28.8342C33.1494 28.8342 33.2013 30.0712 32.966 30.2422C32.7306 30.4132 32.6815 30.8217 32.6815 30.8217C32.6815 30.8217 32.2491 31.598 32.2626 31.7826C32.2761 31.9671 31.661 33.217 31.661 33.217C31.661 33.217 31.9618 31.6638 30.2088 30.9927C30.2088 30.9927 30.1953 30.4654 30.3261 30.3209C30.457 30.1764 30.6611 30.1106 30.5331 29.3801C30.4051 28.6497 30.4961 27.7768 30.4961 27.6016C30.4961 27.4263 30.8887 26.3331 30.8887 26.3331L32.2655 26.6901Z" fill="black"/>
<path d="M32.4788 25.5454L32.9098 25.6885C32.9098 25.6885 33.1068 26.4519 33.1068 26.8597C33.1068 27.2675 33.3813 27.3075 33.3813 27.3075C33.3813 27.3075 33.6821 27.6652 33.5235 27.9257C33.3649 28.1861 33.3016 28.8343 33.3016 28.8343C33.3016 28.8343 33.3535 30.0713 33.1181 30.2422C32.8827 30.4132 32.8301 30.8217 32.8301 30.8217C32.8301 30.8217 32.3984 31.598 32.412 31.7826C32.4255 31.9672 31.8096 33.217 31.8096 33.217C31.8096 33.217 32.1111 31.6638 30.3574 30.9927C30.3574 30.9927 30.3446 30.4655 30.4755 30.3209C30.6063 30.1764 30.8104 30.1106 30.6824 29.3801C30.5544 28.6497 30.6454 27.7769 30.6454 27.6016C30.6454 27.4263 31.038 26.3331 31.038 26.3331L32.4788 25.5454Z" fill="#E37C3D"/>
<path opacity="0.1" d="M22.96 51.5064C22.96 51.5064 23.647 51.0721 24.0978 51.3876C24.5487 51.7031 22.96 51.5064 22.96 51.5064Z" fill="black"/>
<path opacity="0.1" d="M28.2979 50.1635C28.2979 50.1635 28.906 50.0848 29.4166 50.6379C29.9272 51.1909 28.2979 50.1635 28.2979 50.1635Z" fill="black"/>
<g opacity="0.1">
<path d="M29.1876 15.5642C29.1001 15.6401 28.9877 15.6944 28.9294 15.7953C28.8796 15.8819 28.8782 15.9885 28.8384 16.0815C28.7986 16.1745 28.6827 16.2503 28.6023 16.1917C28.5838 15.5478 28.268 14.9432 27.8805 14.4281C27.7721 14.2727 27.6404 14.1351 27.49 14.0203C27.3378 13.9052 27.1484 13.8514 26.9588 13.8694C26.7455 13.8987 26.5577 14.0447 26.3422 14.0625C26.0578 14.0869 25.8025 13.8887 25.5201 13.8787C25.4054 13.8798 25.2922 13.9056 25.1882 13.9544C25.0842 14.0031 24.9918 14.0736 24.9171 14.1613C24.7686 14.3374 24.6584 14.5429 24.5935 14.7644C24.4818 15.1005 24.4209 15.4517 24.4129 15.8061C24.4086 16.0057 24.3901 16.2546 24.2066 16.329C24.2109 16.3819 24.2109 16.435 24.2066 16.4879C24.3915 16.4163 24.41 16.1645 24.4143 15.9642C24.4222 15.6098 24.4831 15.2586 24.5949 14.9225C24.6598 14.7008 24.77 14.4951 24.9185 14.3187C24.9934 14.2313 25.0859 14.1609 25.1898 14.1123C25.2938 14.0637 25.4069 14.038 25.5216 14.0368C25.806 14.0468 26.062 14.2443 26.3437 14.2206C26.557 14.2028 26.7462 14.0561 26.9602 14.0275C27.1498 14.0095 27.3393 14.0633 27.4915 14.1784C27.6418 14.2932 27.7735 14.4308 27.8819 14.5862C28.2695 15.1006 28.5852 15.7037 28.6037 16.3491C28.6841 16.4084 28.8 16.3312 28.8398 16.2396C28.8796 16.148 28.8811 16.0407 28.9308 15.9534C28.9892 15.8526 29.1015 15.7989 29.189 15.7231C29.4109 15.5306 29.4663 15.2065 29.4578 14.9125C29.4578 14.9032 29.4578 14.8939 29.4578 14.8853C29.4443 15.14 29.3767 15.3997 29.1876 15.5642Z" fill="black"/>
<path d="M23.9378 15.5134C23.7742 15.3324 23.5509 15.2115 23.4009 15.0198C23.2745 14.85 23.2024 14.6457 23.1939 14.4338C23.1716 14.6986 23.2451 14.9626 23.4009 15.1772C23.5509 15.3696 23.7742 15.4905 23.9378 15.6715C24.0949 15.8486 24.1891 16.073 24.2059 16.3097C24.2168 16.1657 24.1987 16.0209 24.1526 15.8841C24.1065 15.7472 24.0335 15.6212 23.9378 15.5134Z" fill="black"/>
<path d="M29.5965 13.3536C29.5545 13.5289 29.4798 13.6955 29.4457 13.8723C29.4255 13.9903 29.4181 14.1103 29.4237 14.23C29.426 14.1618 29.4334 14.0939 29.4457 14.0268C29.4798 13.8494 29.5545 13.6834 29.5965 13.5081C29.6209 13.4114 29.6289 13.3113 29.6199 13.2119C29.6155 13.2596 29.6077 13.307 29.5965 13.3536Z" fill="black"/>
</g>
<path opacity="0.1" d="M10.1464 54.4153C13.9734 54.4153 17.0759 53.9141 17.0759 53.2957C17.0759 52.6773 13.9734 52.176 10.1464 52.176C6.3193 52.176 3.21686 52.6773 3.21686 53.2957C3.21686 53.9141 6.3193 54.4153 10.1464 54.4153Z" fill="#F9A826"/>
<path d="M71.7994 33.7486C71.7994 33.7486 70.6252 27.872 71.0747 27.1408C71.0747 27.1408 71.091 26.4611 71.064 25.5948C71.064 25.5618 71.064 25.5289 71.064 25.4953C71.1431 25.5483 71.2255 25.5961 71.3108 25.6384C71.7249 25.8524 72.2003 25.9142 72.6549 25.813L72.2993 25.4145C72.214 25.3193 72.1251 25.2163 72.1066 25.0904C72.0881 24.9645 72.1393 24.8521 72.1834 24.7398C72.5212 23.8813 72.539 22.8017 71.8883 22.1464C71.3385 21.5955 71.2048 20.8843 70.6082 20.3814C70.1722 20.0129 69.9326 19.4728 69.7064 18.9505C69.5151 18.5091 69.3224 18.0641 69.2129 17.5962C69.1275 17.2306 69.0934 16.8521 68.9761 16.4951C68.8587 16.1381 68.639 15.7911 68.2955 15.6316C68.1732 15.5751 68.0373 15.5429 67.9257 15.4678C67.7792 15.3683 67.691 15.2066 67.5851 15.065C67.0467 14.3495 65.2439 14.7709 64.3905 15.0614C64.1585 15.1345 63.9437 15.2543 63.759 15.4134L63.7669 15.4005C63.7733 15.3898 63.7811 15.379 63.7882 15.3683C63.6948 15.4443 63.6141 15.5349 63.5492 15.6366C63.4248 15.8348 63.3729 16.0659 63.269 16.2805C63.1439 16.5345 62.4477 17.2435 62.7471 17.5289C62.768 17.5481 62.7921 17.5636 62.8182 17.5747C62.9306 17.6218 63.0543 17.6342 63.1737 17.6105L63.1609 17.6413C63.0587 17.8931 63.0063 18.1626 63.0066 18.4347C63.0066 19.6101 63.9702 20.5631 65.16 20.5631C65.3837 20.5633 65.606 20.5288 65.8192 20.4608C65.8242 20.488 65.8285 20.5152 65.8335 20.5423C65.8335 20.5531 65.837 20.5638 65.8385 20.5745L65.8008 20.6275C65.7989 20.6242 65.7967 20.6211 65.7944 20.6182L64.6778 22.1878C64.5072 22.3088 63.5243 23.0242 63.4689 23.5608C63.4106 24.1481 63.3522 24.8357 63.3522 24.8357L63.3444 24.9831C63.2956 25.0241 63.2386 25.054 63.1772 25.0706C63.1158 25.0873 63.0515 25.0904 62.9888 25.0796C62.6404 25.0224 62.6404 26.3674 62.6404 26.3674C62.6404 26.3674 62.4085 26.5821 62.2492 26.396C62.0899 26.21 61.6689 26.8403 61.6689 26.8403L59.0305 26.9548L58.9701 26.9584L58.8279 26.5155C58.8126 26.4688 58.7796 26.4301 58.736 26.4077C58.6925 26.3853 58.6419 26.3811 58.5953 26.396C58.5843 26.3997 58.5736 26.4042 58.5633 26.4096L58.5534 26.4154L58.5349 26.4282L58.5256 26.4368C58.5205 26.4415 58.5158 26.4465 58.5114 26.4518L58.5029 26.4619L58.4986 26.4662C58.4822 26.489 58.4713 26.5154 58.4669 26.5432C58.4624 26.5711 58.4645 26.5995 58.473 26.6264L58.5953 27.0063C58.0861 27.1093 57.5656 27.3998 57.9901 28.1997L55.8382 27.7997L56.5344 28.3878L60.1286 29.134C60.0809 29.2199 60.1122 29.3443 60.2608 29.5196C60.9009 30.2758 62.0672 30.4812 62.5365 30.5341C62.6605 30.8131 62.8153 31.0771 62.9981 31.3211L62.9576 32.0745C62.9576 32.0745 61.7692 37.8165 61.5516 38.1077C61.6615 37.9825 61.762 37.8493 61.8524 37.7092C61.5075 38.889 61.0253 40.5037 60.8988 40.7455C60.6954 41.1319 60.5069 42.6951 60.7387 42.7953C60.8099 42.826 61.0133 42.811 61.3034 42.7888V42.9183L61.2906 47.8255C61.2906 47.8255 61.3489 50.8353 61.1889 51.1222C61.0289 51.4091 60.9862 52.0108 60.9862 52.0108C60.9862 52.0108 60.3462 53.1977 59.8391 53.6749C59.8357 53.6786 59.8319 53.6819 59.8278 53.6849L59.8121 53.5733C59.8121 53.5733 59.2026 54.3474 57.8543 54.3037C57.8543 54.3037 57.0429 54.8346 58.2461 54.8632C59.4494 54.8918 60.9862 54.8203 60.9862 54.8203C60.9862 54.8203 62.0594 53.1748 62.9583 53.3894V54.6364H63.2335V53.3694C63.3611 53.2849 63.4704 53.1751 63.5546 53.0469C63.6388 52.9186 63.6963 52.7745 63.7235 52.6232C63.747 52.4673 63.7298 52.3079 63.6734 52.1607C63.617 52.0135 63.5235 51.8837 63.402 51.784C63.3475 51.7344 63.3037 51.6739 63.2734 51.6064C63.2432 51.539 63.2272 51.4659 63.2264 51.3919L63.2164 51.4005C63.2164 51.3755 63.21 51.3497 63.2072 51.3232C63.1282 50.6794 63.0294 49.3508 63.3786 48.3678C63.8572 47.0199 64.0022 45.1426 63.6538 44.0251C63.5413 43.6679 63.449 43.3046 63.3771 42.9369C63.3686 42.8904 63.3608 42.846 63.3537 42.8046C63.5919 42.837 63.8277 42.8848 64.0598 42.9476C64.867 43.1716 66.6328 43.2131 68.1405 43.2009C68.144 43.2424 68.1483 43.286 68.1533 43.3297C68.1801 43.633 68.2364 43.933 68.3211 44.2254C68.5103 44.7978 68.597 47.3211 68.597 47.3211C68.597 47.3211 68.841 49.3959 68.708 50.2401C68.6368 50.7094 68.5657 51.1809 68.5252 51.6545V51.6638C68.5252 51.6638 68.1255 52.8085 67.8332 53.4302C67.8261 53.4459 67.8183 53.4617 67.8112 53.4767C67.7333 53.4838 67.6566 53.5009 67.5829 53.5275C67.5829 53.5275 67.1911 54.3145 66.8006 54.4447C66.4102 54.5749 66.5396 55.0034 67.4236 54.846C68.3076 54.6887 69.6424 54.5599 69.6424 54.5599L69.7 53.7572L69.9717 53.4152L69.9006 54.2157L70.19 54.1585L70.1516 53.1848L70.5961 52.6253C70.5961 52.6253 71.133 52.1446 70.3351 51.1988V51.2195C70.3266 51.2059 70.3187 51.1916 70.3095 51.178V51.1737C70.1772 50.9677 70.072 50.5835 70.2647 49.9017C70.6132 48.6697 70.8158 47.5515 70.8158 47.5515C70.8158 47.5515 71.5938 44.5559 70.6587 43.1387H70.6999C70.6041 42.9392 70.5363 42.7273 70.4987 42.5091C70.4939 42.4833 70.4896 42.4569 70.4859 42.4297C71.1778 42.3896 71.857 42.2637 72.411 41.9918C72.4088 41.989 72.0753 34.8804 71.7994 33.7486ZM63.0144 28.7906V28.8049L62.8722 28.8121L63.0144 28.7906ZM62.5266 28.8586C62.5032 28.8638 62.4813 28.8743 62.4626 28.8893C62.4014 28.9764 62.363 29.0775 62.3509 29.1834L62.1291 29.1333C62.1291 29.1333 61.9733 29.0997 61.7493 29.0618L61.6433 28.9544C61.9349 28.9301 62.2379 28.8943 62.5266 28.8586Z" fill="url(#paint1_linear_1_465)"/>
<path d="M69.8679 53.1948L69.7832 54.2086L70.067 54.1514L70.0243 53.0518L69.8679 53.1948Z" fill="#1D2366"/>
<path d="M63.3942 48.3813C63.0521 49.3614 63.1488 50.6843 63.2256 51.3267C63.2541 51.5643 63.2804 51.7088 63.2804 51.7088C63.2804 51.7088 62.7691 52.8807 62.7264 52.925C62.6837 52.9694 61.2216 53.8673 61.2216 53.8673L60.1997 54.4675C60.1997 54.4675 59.1628 54.0103 59.6599 53.8529C59.7615 53.8119 59.853 53.7492 59.928 53.6691C60.4258 53.1933 61.0509 52.0107 61.0509 52.0107C61.0509 52.0107 61.0936 51.4104 61.2501 51.125C61.4065 50.8395 61.3496 47.8397 61.3496 47.8397L61.3617 42.9497V42.3123L63.3067 42.3266C63.319 42.543 63.347 42.7582 63.3906 42.9705C63.4604 43.3369 63.5509 43.699 63.6616 44.0551C64.0044 45.1704 63.8621 47.0384 63.3942 48.3813Z" fill="#FFB0B1"/>
<path opacity="0.1" d="M63.2804 51.7087C63.2804 51.7087 62.7691 52.8806 62.7264 52.925C62.6837 52.9693 61.2216 53.8672 61.2216 53.8672L60.1997 54.4675C60.1997 54.4675 59.1628 54.0103 59.6599 53.8529C59.7615 53.8119 59.853 53.7492 59.928 53.669L59.9721 53.9817L60.3128 53.9674L63.2285 51.3281C63.2541 51.5642 63.2804 51.7087 63.2804 51.7087Z" fill="black"/>
<path d="M63.2449 51.3948L60.3128 54.0519L59.9721 54.0662L59.901 53.5654C59.901 53.5654 59.3051 54.3366 57.9809 54.2937C57.9809 54.2937 57.1858 54.8224 58.3642 54.851C59.5426 54.8797 61.0474 54.8081 61.0474 54.8081C61.0474 54.8081 62.0985 53.1626 62.9782 53.3772V54.62H63.2484V53.3658C63.3741 53.2807 63.4813 53.1709 63.5637 53.0431C63.6461 52.9152 63.7019 52.7719 63.7277 52.6217C63.7511 52.4671 63.7346 52.309 63.6797 52.1626C63.6247 52.0163 63.5333 51.8866 63.4141 51.7861C63.3609 51.7359 63.3184 51.6753 63.2893 51.608C63.2602 51.5407 63.2451 51.4682 63.2449 51.3948Z" fill="#1D2366"/>
<path d="M70.1381 49.9095C69.9489 50.5892 70.052 50.972 70.1815 51.1773V51.1816C70.3475 51.4351 70.4629 51.7187 70.5214 52.0165L70.5328 52.0809L69.1987 54.0376L68.4747 54.3238C68.4747 54.3238 67.3105 53.9238 67.5232 53.8094C67.5765 53.7815 67.6597 53.6327 67.755 53.4273C68.0395 52.8085 68.432 51.6666 68.432 51.6666V51.6573C68.4733 51.1859 68.5387 50.7158 68.6112 50.2479C68.7414 49.4059 68.5024 47.339 68.5024 47.339C68.5024 47.339 68.4171 44.8256 68.2322 44.254C68.1487 43.9634 68.0932 43.6653 68.0665 43.364C68.0281 43.0063 68.0196 42.7115 68.0196 42.7115C68.0196 42.7115 68.7862 41.6384 70.1914 42.7974C70.3038 42.8898 70.4027 42.9977 70.4851 43.1179C71.4559 44.5073 70.6743 47.5679 70.6743 47.5679C70.6743 47.5679 70.4787 48.6811 70.1381 49.9095Z" fill="#FFB0B1"/>
<path opacity="0.1" d="M70.5349 52.0809L69.2008 54.0376L68.4768 54.3238C68.4768 54.3238 67.3127 53.9239 67.5253 53.8094C67.5786 53.7815 67.6618 53.6327 67.7571 53.4274C68.25 53.4231 68.5053 53.8953 68.5053 53.8953L69.1297 53.7951C69.1297 53.7951 69.9532 52.1668 70.1381 52.0673C70.323 51.9679 70.1665 51.324 70.1665 51.324V51.1602C70.1715 51.1659 70.1758 51.1723 70.1815 51.178V51.1823C70.3475 51.4359 70.4629 51.7194 70.5214 52.0173L70.5349 52.0809Z" fill="black"/>
<path d="M68.548 53.9375C68.548 53.9375 68.1924 53.2807 67.5111 53.5232C67.5111 53.5232 67.1278 54.3102 66.7445 54.4376C66.3611 54.5649 66.4892 54.9942 67.3553 54.8375C68.2215 54.6808 69.5272 54.5513 69.5272 54.5513L69.5841 53.7508L70.4645 52.6225C70.4645 52.6225 70.9894 52.1439 70.2085 51.2017V51.3655C70.2085 51.3655 70.365 52.0094 70.1801 52.1088C69.9952 52.2083 69.1745 53.8373 69.1745 53.8373L68.548 53.9375Z" fill="#1D2366"/>
<path opacity="0.1" d="M63.3089 42.3251C63.3211 42.5415 63.3492 42.7567 63.3928 42.969C62.592 42.8509 61.8489 42.9096 61.3617 42.9482V42.3108L63.3089 42.3251Z" fill="black"/>
<path opacity="0.1" d="M70.5641 43.296C70.5641 43.296 69.4262 43.3518 68.0693 43.3633C68.0309 43.0056 68.0224 42.7108 68.0224 42.7108C68.0224 42.7108 68.789 41.6376 70.1943 42.7967C70.3066 42.8891 70.4055 42.997 70.488 43.1172C70.51 43.1782 70.5354 43.2379 70.5641 43.296Z" fill="black"/>
<path d="M70.5641 43.1672C70.5641 43.1672 65.5803 43.4097 64.0613 42.9812C62.5422 42.5526 61.0367 42.924 60.8099 42.8245C60.583 42.7251 60.7672 41.1676 60.9663 40.7819C61.1654 40.3963 62.2578 36.4965 62.2578 36.4965L63.3089 30.9833L64.4161 30.6764L64.4944 30.6542L66.4237 30.1191L67.8375 29.7263C67.8375 29.7263 70.6487 40.7676 70.4076 41.5818C70.3201 41.8936 70.306 42.2216 70.3664 42.5398C70.4032 42.7571 70.4697 42.9682 70.5641 43.1672Z" fill="#1D2366"/>
<path d="M59.645 27.2131C59.645 27.2131 58.6494 28.2863 59.4032 28.8844C60.157 29.4825 60.6527 28.9416 60.6527 28.9416L59.645 27.2131Z" fill="#C7DAF5"/>
<path opacity="0.1" d="M59.645 27.2131C59.645 27.2131 58.6494 28.2863 59.4032 28.8844C60.157 29.4825 60.6527 28.9416 60.6527 28.9416L59.645 27.2131Z" fill="black"/>
<path d="M67.6889 20.1573C67.6889 20.1573 67.5722 20.2689 67.3966 20.4335C67.1463 20.6688 66.7758 21.013 66.4472 21.3013C65.9921 21.6998 65.6166 21.9924 65.751 21.7427C65.8854 21.493 65.8598 21.058 65.7929 20.651C65.788 20.6238 65.7837 20.5966 65.7787 20.5701C65.7234 20.2711 65.65 19.9758 65.559 19.6858C65.559 19.6858 66.2943 18.73 66.7011 18.353C66.8526 18.2099 66.9585 18.1512 66.9649 18.2507C66.972 18.3845 67.0716 18.6799 67.1953 18.9933C67.1989 19.0033 67.2024 19.0126 67.2067 19.0226C67.2892 19.2373 67.3824 19.4576 67.4642 19.6479C67.5893 19.9398 67.6889 20.1573 67.6889 20.1573Z" fill="#FFB0B1"/>
<path opacity="0.1" d="M67.2067 19.0228C67.1376 19.3967 66.9699 19.7451 66.7212 20.0315C66.4725 20.3179 66.1519 20.5319 65.7929 20.6511C65.7364 20.3245 65.6582 20.0021 65.559 19.686C65.559 19.686 66.9436 17.8866 66.9649 18.2508C66.9699 18.3889 67.078 18.6951 67.2067 19.0228Z" fill="black"/>
<path opacity="0.1" d="M65.655 21.1319L65.8342 20.8779C65.8342 20.8779 65.9529 21.6062 66.3896 21.285C66.8262 20.9638 66.8476 23.7025 66.8476 23.7025L66.3789 30.7517L62.9924 30.5478L63.0884 27.1416L63.4717 25.4245L64.4197 22.9284L64.9836 22.1035L65.655 21.1319Z" fill="black"/>
<path d="M66.8476 23.7461L66.4209 30.1199L66.3761 30.7953L64.488 30.6815L64.4169 30.6772L62.9945 30.5914L63.0905 27.1845L63.4739 25.4674L64.4218 22.9713L64.9858 22.1464L65.6571 21.1712L65.8363 20.918C65.8363 20.918 65.9551 21.6463 66.3917 21.3251L66.401 21.3186C66.8277 21.0467 66.8476 23.7461 66.8476 23.7461Z" fill="#1D2366"/>
<path d="M63.5215 24.8706C63.5215 24.8706 63.3515 25.2283 63.0102 25.1704C62.6688 25.1124 62.6695 26.4582 62.6695 26.4582C62.6695 26.4582 62.4427 26.6728 62.2862 26.4868C62.1298 26.3008 61.7173 26.9296 61.7173 26.9296L59.133 27.0441C59.133 27.0441 60.2829 27.5728 60.0575 29.1725C60.0575 29.1725 63.9617 28.9293 64.0897 28.558C64.2177 28.1866 63.5215 24.8706 63.5215 24.8706Z" fill="#E37C3D"/>
<path opacity="0.03" d="M63.5215 24.8706C63.5215 24.8706 63.3515 25.2283 63.0102 25.1704C62.6688 25.1124 62.6695 26.4582 62.6695 26.4582C62.6695 26.4582 62.4427 26.6728 62.2862 26.4868C62.1298 26.3008 61.7173 26.9296 61.7173 26.9296L59.133 27.0441C59.133 27.0441 60.2829 27.5728 60.0575 29.1725C60.0575 29.1725 63.9617 28.9293 64.0897 28.558C64.2177 28.1866 63.5215 24.8706 63.5215 24.8706Z" fill="black"/>
<path d="M56.011 27.8848L56.6922 28.47L62.3004 29.6555L61.6049 28.9415L56.011 27.8848Z" fill="#E37C3D"/>
<path d="M65.6656 21.3572C65.5725 21.5003 65.3058 22.2329 65.0832 22.8725C64.8976 23.4055 64.7426 23.8741 64.7426 23.8741C64.7426 23.8741 64.3806 26.245 64.1957 26.6736C64.0108 27.1021 64.1111 28.7734 64.1111 28.7734L63.4219 32.9007C63.4219 32.9007 63.1097 35.0291 62.6276 36.3005C62.1518 37.5518 61.622 38.1384 61.6057 38.157C61.819 37.8666 62.9817 32.1474 62.9817 32.1474L63.3658 24.9343C63.3658 24.9343 63.4219 24.249 63.4788 23.663C63.5357 23.0771 64.6878 22.2772 64.6878 22.2772L65.7986 20.6882C65.9103 20.8385 65.8356 21.1003 65.6656 21.3572Z" fill="#E37C3D"/>
<path d="M62.7691 30.6271C62.7691 30.6271 61.1334 30.5556 60.3412 29.5983C59.549 28.6411 62.1724 29.2163 62.1724 29.2163L62.8544 29.3737L62.7691 30.6271Z" fill="#FFB0B1"/>
<path opacity="0.1" d="M70.4076 41.5825C70.3201 41.8942 70.306 42.2222 70.3664 42.5405C68.5821 42.6678 66.6733 42.1827 66.6733 42.1827C66.3178 42.5118 65.3812 42.9969 65.3812 42.9969L64.8706 36.6295C64.5441 35.771 64.4161 31.2731 64.4161 31.2731C64.4161 31.2731 64.4453 31.0377 64.4873 30.685C64.4873 30.6764 64.4873 30.6671 64.4908 30.6585C64.6181 29.6733 64.8706 27.8239 64.9943 27.5743C65.165 27.2308 64.4695 26.3172 64.4695 26.3172L64.7859 23.6022L64.8243 23.2745C65.4914 22.9747 66.0027 22.0175 66.0027 22.0175L66.3953 21.3256C66.822 21.0502 66.844 23.7495 66.844 23.7495L66.4173 30.1234L67.8311 29.7306C67.8311 29.7306 70.6487 40.7683 70.4076 41.5825Z" fill="black"/>
<path d="M72.2388 42.0226C70.2938 42.9941 66.7587 42.0941 66.7587 42.0941C66.4031 42.4232 65.4665 42.9083 65.4665 42.9083L64.9552 36.5409C64.6295 35.6824 64.5015 31.1844 64.5015 31.1844C64.5015 31.1844 64.9125 27.8283 65.0832 27.4856C65.133 27.3855 65.1088 27.2367 65.0498 27.0764C64.7596 26.3136 64.6528 25.4926 64.7383 24.6804L64.8748 23.5135L64.9125 23.1866C65.5803 22.8861 66.0916 21.9289 66.0916 21.9289L66.4472 21.3021L67.1015 20.1474L67.4115 19.6008L67.4641 19.6488L67.8659 20.0151C67.8659 20.0151 68.0366 20.1582 68.2926 20.3728C68.8495 20.845 69.8117 21.6763 70.3081 22.185C70.7447 22.6328 70.8827 24.3749 70.9225 25.6863C70.9488 26.5499 70.9332 27.2267 70.9332 27.2267C70.493 27.9557 71.6443 33.8087 71.6443 33.8087C71.9124 34.9398 72.2388 42.0226 72.2388 42.0226Z" fill="#E37C3D"/>
<path opacity="0.03" d="M68.5053 21.9144C68.5053 21.9144 67.1704 24.4706 67.3255 25.4422C67.4805 26.4138 67.9214 27.5134 67.7088 27.7702C67.6357 27.8675 67.5413 27.9465 67.4328 28.001C67.3244 28.0555 67.2049 28.084 67.0837 28.0843C66.8703 28.0986 66.3014 28.4985 66.3014 28.5415C66.3014 28.5844 65.7759 28.5844 65.3058 28.7847C64.8357 28.985 64.1416 29.0988 64.1416 29.0988C64.1416 29.0988 62.7904 29.0559 62.6646 29.1846C62.5387 29.3134 62.4093 30.0839 62.6788 30.6985C62.9483 31.3131 63.2477 31.7717 63.4739 31.8554C63.7 31.9391 65.1351 31.4554 66.2993 31.341C67.4634 31.2265 68.7272 30.2986 68.7272 30.2986C68.7272 30.2986 70.1189 29.7978 70.3628 28.9557C70.6067 28.1136 70.0649 23.4855 70.0649 23.4855C70.0649 23.4855 69.6552 21.3284 68.5053 21.9144Z" fill="black"/>
<path opacity="0.03" d="M68.3346 21.6998C68.3346 21.6998 66.9998 24.2568 67.1562 25.2276C67.3127 26.1985 67.7522 27.2988 67.5388 27.5564C67.466 27.6538 67.3717 27.7329 67.2634 27.7874C67.155 27.8419 67.0356 27.8703 66.9144 27.8705C66.7011 27.8848 66.1322 28.2847 66.1322 28.3276C66.1322 28.3706 65.6066 28.3706 65.1365 28.5702C64.6665 28.7698 63.9724 28.8842 63.9724 28.8842C63.9724 28.8842 62.6212 28.8413 62.496 28.9701C62.3709 29.0989 62.24 29.8701 62.5102 30.484C62.7805 31.0978 63.0792 31.5571 63.3053 31.6408C63.5315 31.7245 64.9666 31.2409 66.1307 31.1271C67.2949 31.0134 68.5586 30.084 68.5586 30.084C68.5586 30.084 69.9497 29.5832 70.1907 28.7419C70.4318 27.9005 69.8928 23.2709 69.8928 23.2709C69.8928 23.2709 69.4846 21.1146 68.3346 21.6998Z" fill="black"/>
<path d="M68.4633 21.7857C68.4633 21.7857 67.1285 24.3427 67.2849 25.3135C67.4414 26.2844 67.8809 27.3847 67.6683 27.6415C67.5955 27.7392 67.5011 27.8185 67.3926 27.8731C67.2841 27.9277 67.1645 27.9562 67.0432 27.9563C66.8298 27.9706 66.2609 28.3706 66.2609 28.4128C66.2609 28.455 65.7361 28.4557 65.2653 28.656C64.7945 28.8564 64.1011 28.9701 64.1011 28.9701C64.1011 28.9701 62.7499 28.9272 62.624 29.056C62.4982 29.1847 62.3687 29.956 62.6383 30.5698C62.9078 31.1837 63.2072 31.643 63.4333 31.7267C63.6595 31.8104 65.0946 31.3268 66.2587 31.2123C67.4229 31.0978 68.6866 30.1699 68.6866 30.1699C68.6866 30.1699 70.0784 29.6691 70.3223 28.827C70.5662 27.985 70.0279 23.3568 70.0279 23.3568C70.0279 23.3568 69.6126 21.2033 68.4633 21.7857Z" fill="#E37C3D"/>
<path opacity="0.1" d="M68.4342 28.6439C68.4342 28.6439 67.3674 28.4293 67.7387 28.787C68.1099 29.1447 68.1078 29.4581 68.5622 29.4438C69.0166 29.4295 68.4342 28.6439 68.4342 28.6439Z" fill="black"/>
<path opacity="0.1" d="M70.237 36.3406C70.237 36.3406 69.7548 36.669 70.6772 37.4259C71.5995 38.1828 70.237 36.3406 70.237 36.3406Z" fill="black"/>
<path opacity="0.1" d="M69.3167 39.0398C69.3167 39.0827 69.146 40.6138 69.7846 40.9965C70.4233 41.3793 69.3167 39.0398 69.3167 39.0398Z" fill="black"/>
<path d="M59.177 27.0405C58.6622 27.0584 57.5499 27.2165 58.1267 28.299C58.6366 29.2569 59.4935 28.6166 59.9757 28.1309C59.858 27.6779 59.5722 27.2877 59.177 27.0405Z" fill="#FFB0B1"/>
<path d="M59.9821 28.1223L60.0034 28.1001L59.9821 28.1223Z" fill="#FFB0B1"/>
<path opacity="0.1" d="M68.2926 20.4165C67.7465 20.7921 67.2885 21.109 67.1989 21.1748C66.9542 21.3573 66.4877 22.4283 66.1869 22.9749C65.9472 23.4148 65.1685 23.5279 64.8748 23.5558L64.9125 23.2288C65.5803 22.9283 66.0916 21.9711 66.0916 21.9711L67.4115 19.6431L67.8659 20.0587C67.8659 20.0587 68.0366 20.2018 68.2926 20.4165Z" fill="black"/>
<path d="M68.2926 20.3735C67.7465 20.7491 67.2885 21.066 67.1989 21.1326C66.9542 21.3143 66.4877 22.3853 66.1869 22.9319C65.9472 23.3719 65.1685 23.4849 64.8748 23.5128L64.9125 23.1859C65.5803 22.8854 66.0916 21.9281 66.0916 21.9281L67.4115 19.6001L67.8659 20.0143C67.8659 20.0143 68.0366 20.156 68.2926 20.3735Z" fill="#DCE7FF"/>
<path d="M67.2416 18.5506C67.2419 18.98 67.1124 19.3995 66.8703 19.7532C66.5845 20.1715 66.159 20.4728 65.6712 20.6025C65.1834 20.7322 64.6655 20.6817 64.2115 20.4601C63.7576 20.2385 63.3976 19.8606 63.197 19.3948C62.9963 18.9291 62.9682 18.4064 63.1179 17.9216C63.2675 17.4369 63.5849 17.0221 64.0125 16.7527C64.4401 16.4832 64.9496 16.3768 65.4484 16.4529C65.9473 16.529 66.4025 16.7825 66.7315 17.1673C67.0605 17.5522 67.2415 18.043 67.2416 18.5506Z" fill="#FFB0B1"/>
<path opacity="0.1" d="M70.9225 25.6871C70.6337 25.5083 70.3985 25.2541 70.2419 24.9516C70.1232 24.7155 70.0442 24.4429 69.8415 24.2755C69.6588 24.1253 69.4148 24.0888 69.1873 24.0215C68.4391 23.799 67.8119 23.1122 67.7884 22.3281C67.7771 21.9589 67.8915 21.5905 67.8396 21.2249C67.8101 21.018 67.7283 20.8221 67.6021 20.6561C67.5394 20.5767 67.4707 20.5023 67.3966 20.4336C67.297 20.3392 67.1925 20.2476 67.1015 20.1474C67.0441 20.0854 66.994 20.017 66.9521 19.9435C66.9183 19.8834 66.8909 19.8199 66.8703 19.7539C66.7281 19.3161 66.8575 18.7967 66.7011 18.3538L66.6925 18.3295C66.6335 18.1721 66.5133 18.0147 66.3462 18.0026C66.1791 17.9904 66.0361 18.1299 65.8768 18.1921C65.5433 18.3224 65.1835 18.1006 64.9054 17.8745C64.6273 17.6484 64.3137 17.3901 63.9603 17.4402C63.7263 17.4738 63.5414 17.6341 63.3259 17.7171C63.2773 17.736 63.2271 17.7506 63.1759 17.7607C63.3582 17.3032 63.6933 16.9239 64.1234 16.6879C64.5536 16.4519 65.052 16.374 65.5331 16.4675C66.0142 16.561 66.4479 16.8202 66.7596 17.2005C67.0714 17.5807 67.2418 18.0584 67.2416 18.5513C67.2418 18.7001 67.2263 18.8486 67.1953 18.9941C67.1989 19.0042 67.2024 19.0135 67.2067 19.0235C67.2892 19.2381 67.3824 19.4585 67.4641 19.6488L67.8659 20.0151C67.8659 20.0151 68.0366 20.1582 68.2926 20.3728C68.8495 20.845 69.8117 21.6763 70.3081 22.185C70.7447 22.6343 70.8812 24.3757 70.9225 25.6871Z" fill="black"/>
<path d="M63.301 16.4101C63.4027 16.2019 63.4532 15.9686 63.5748 15.7712C63.7533 15.485 64.0648 15.3018 64.3849 15.191C65.2205 14.9012 66.9863 14.4805 67.5139 15.191C67.6178 15.334 67.7038 15.4929 67.8475 15.5916C67.957 15.6667 68.0893 15.6989 68.2094 15.7554C68.5458 15.9143 68.7606 16.2605 68.8751 16.614C68.9896 16.9674 69.0237 17.3466 69.1076 17.7107C69.215 18.1779 69.4035 18.6208 69.5912 19.0607C69.8124 19.5802 70.0471 20.1189 70.4738 20.4859C71.0562 20.9867 71.1849 21.6957 71.7254 22.2452C72.3654 22.8976 72.3448 23.9744 72.0148 24.8293C71.9715 24.9416 71.9224 25.059 71.9395 25.1784C71.9565 25.2979 72.0447 25.4067 72.1279 25.5018L72.4778 25.8989C71.65 26.0999 70.7134 25.6649 70.328 24.9016C70.2092 24.6655 70.1303 24.3936 69.9269 24.2255C69.7448 24.0752 69.5002 24.0395 69.2733 23.9722C68.5252 23.749 67.898 23.0615 67.8745 22.2773C67.8631 21.9089 67.9776 21.5404 67.9257 21.1756C67.8968 20.9673 67.8147 20.7701 67.6875 20.6032C67.4919 20.3464 67.1968 20.174 67.0375 19.8878C66.7679 19.4092 66.9727 18.7875 66.7786 18.2738C66.7189 18.1164 66.5994 17.959 66.4323 17.9468C66.2651 17.9347 66.1222 18.0742 65.9622 18.1364C65.6294 18.2666 65.2695 18.0455 64.9915 17.8188C64.7134 17.592 64.3998 17.3344 64.0456 17.3852C63.8117 17.4181 63.6275 17.5784 63.412 17.6621C63.2527 17.7236 62.9298 17.7787 62.7904 17.6435C62.496 17.3709 63.178 16.6648 63.301 16.4101Z" fill="#591D4B"/>
<path opacity="0.1" d="M70.5257 24.6654C70.4062 24.4293 70.328 24.1574 70.1246 23.99C69.9425 23.8397 69.6979 23.8033 69.4703 23.736C68.7229 23.5135 68.0956 22.826 68.0715 22.0419C68.0601 21.6734 68.1746 21.3042 68.1234 20.9394C68.0936 20.7324 68.0116 20.5366 67.8851 20.3706C67.6889 20.1138 67.3937 19.9413 67.2351 19.6552C66.9656 19.1773 67.1704 18.5555 66.9756 18.0411C66.9166 17.8845 66.7964 17.7271 66.63 17.7142C66.4635 17.7013 66.3192 17.8423 66.1599 17.9045C65.8271 18.0347 65.4665 17.8129 65.1892 17.5868C64.9118 17.3608 64.5968 17.1025 64.2433 17.1526C64.0093 17.1862 63.8244 17.3465 63.6097 17.4294C63.4504 17.491 63.1268 17.5468 62.9874 17.4116C62.6944 17.1254 63.3764 16.4207 63.4987 16.1674C63.6004 15.9585 63.6509 15.726 63.7732 15.5285C63.7796 15.5178 63.7868 15.5071 63.7939 15.4963C63.7024 15.5726 63.6234 15.6629 63.5599 15.7639C63.4383 15.9614 63.3878 16.1932 63.2861 16.4028C63.1631 16.6561 62.4811 17.3629 62.7748 17.6469C62.917 17.7829 63.237 17.7271 63.3963 17.6655C63.6097 17.5818 63.796 17.4216 64.03 17.3887C64.3855 17.3379 64.6985 17.5961 64.9758 17.8222C65.2532 18.0483 65.6158 18.2701 65.9472 18.1399C66.1065 18.0776 66.2459 17.9374 66.4166 17.9503C66.5873 17.9632 66.7011 18.1198 66.7629 18.2772C66.9571 18.7909 66.7523 19.4126 67.0218 19.8913C67.1811 20.1724 67.4762 20.3484 67.6718 20.6067C67.7991 20.7735 67.8811 20.9707 67.91 21.179C67.9619 21.5439 67.8475 21.9124 67.8588 22.2808C67.8823 23.0678 68.5095 23.7525 69.2577 23.9757C69.4831 24.0429 69.7292 24.0787 69.9112 24.2289C70.1153 24.3971 70.1957 24.6689 70.3123 24.905C70.6978 25.6684 71.6344 26.1034 72.4621 25.9023L72.2972 25.7149C71.5796 25.7256 70.8535 25.315 70.5257 24.6654Z" fill="black"/>
<path opacity="0.1" d="M65.623 21.4002C65.5298 21.5433 65.2631 22.2759 65.0405 22.9155C64.8322 22.8339 64.643 22.3138 64.643 22.3138L65.7538 20.7241C65.8676 20.8815 65.7929 21.1427 65.623 21.4002Z" fill="black"/>
<path d="M65.6656 21.3573C65.5725 21.5003 65.3058 22.2329 65.0832 22.8725C64.8748 22.7917 64.6857 22.2709 64.6857 22.2709L65.7965 20.6819C65.9103 20.8386 65.8356 21.1004 65.6656 21.3573Z" fill="#DCE7FF"/>
<path d="M59.2069 28.666L58.5911 26.7121C58.5838 26.6892 58.581 26.6651 58.583 26.6412C58.585 26.6172 58.5917 26.5939 58.6027 26.5726C58.6136 26.5513 58.6287 26.5323 58.6469 26.5168C58.6652 26.5014 58.6863 26.4897 58.7091 26.4824C58.7549 26.468 58.8046 26.4725 58.8472 26.4947C58.8898 26.5169 58.922 26.5552 58.9367 26.6012L59.5525 28.5529L59.4914 28.9614L59.2069 28.666Z" fill="#BE8B87"/>
<path opacity="0.1" d="M58.6494 26.5405C58.6953 26.5258 58.7451 26.5301 58.7879 26.5524C58.8307 26.5747 58.8629 26.6131 58.8776 26.6592L59.4935 28.6109L59.4473 28.9171L59.4921 28.9644L59.5532 28.5558L58.9338 26.6041C58.9191 26.5581 58.887 26.5199 58.8443 26.4976C58.8017 26.4754 58.7521 26.471 58.7062 26.4854C58.6677 26.498 58.6344 26.5231 58.6117 26.5569C58.6238 26.5504 58.6364 26.5449 58.6494 26.5405Z" fill="#E37C3D"/>
<path d="M59.2069 28.6661L59.5525 28.5559L59.502 28.8907L59.4914 28.9644L59.3904 28.8585L59.2069 28.6661Z" fill="#EFC8C4"/>
<path d="M59.3904 28.8584C59.3964 28.8508 59.4039 28.8444 59.4124 28.8398C59.4174 28.8366 59.4232 28.835 59.4291 28.835C59.4351 28.835 59.4409 28.8366 59.4459 28.8398C59.4507 28.8457 59.4548 28.8522 59.4579 28.8591C59.4626 28.867 59.469 28.8738 59.4767 28.8788C59.4843 28.8839 59.493 28.8872 59.502 28.8885L59.4914 28.96L59.3904 28.8584Z" fill="#727A9C"/>
<path d="M58.5875 27.4063C58.5875 27.4063 59.8228 27.3991 59.5319 27.9278C59.241 28.4565 58.7866 28.5202 58.7866 28.5202L58.5875 27.4063Z" fill="#FFB0B1"/>
<path d="M50.9049 3.67871H50.8515C48.7294 3.67871 46.8527 4.80838 45.7732 6.47535C44.6936 4.80838 42.8169 3.67871 40.6948 3.67871H40.6415C39.0489 3.69398 37.5267 4.34092 36.4056 5.47894C35.2845 6.61697 34.6551 8.15411 34.6542 9.75634C34.6542 11.746 35.5204 14.5691 37.2094 16.8921C40.4274 21.3185 45.7732 25.1911 45.7732 25.1911C45.7732 25.1911 51.1189 21.3192 54.3362 16.8921C56.0259 14.5691 56.8914 11.746 56.8914 9.75634C56.8905 8.15423 56.2613 6.6172 55.1403 5.47919C54.0194 4.34119 52.4973 3.69417 50.9049 3.67871ZM50.1418 17.2326C49.9001 17.2317 49.6644 17.1573 49.4655 17.0191C49.2666 16.881 49.1139 16.6856 49.0274 16.4585H47.7587C47.6752 16.458 47.5939 16.4313 47.5262 16.382C47.4585 16.3328 47.4078 16.2635 47.3811 16.1838L46.9914 15.0026L45.7582 19.3374C45.7342 19.4209 45.6839 19.4943 45.615 19.5465C45.546 19.5987 45.462 19.6271 45.3756 19.6272H45.3507C45.2606 19.6228 45.1748 19.5875 45.1074 19.527C45.0401 19.4666 44.9955 19.3848 44.9809 19.2952L43.7101 11.6057L42.7813 16.1559C42.76 16.2423 42.7106 16.3191 42.6408 16.374C42.5711 16.4288 42.4851 16.4586 42.3966 16.4585H40.6095C40.5559 16.4608 40.5024 16.4522 40.4522 16.4331C40.4021 16.4141 40.3563 16.385 40.3176 16.3477C40.2788 16.3103 40.248 16.2655 40.227 16.2159C40.206 16.1663 40.1951 16.1129 40.1951 16.059C40.1951 16.005 40.206 15.9516 40.227 15.902C40.248 15.8524 40.2788 15.8076 40.3176 15.7703C40.3563 15.7329 40.4021 15.7039 40.4522 15.6848C40.5024 15.6658 40.5559 15.6571 40.6095 15.6594H42.0837L43.3993 9.5417C43.4209 9.45126 43.4731 9.37116 43.5469 9.31512C43.6207 9.25907 43.7115 9.23056 43.8039 9.23444C43.8963 9.23833 43.9845 9.27438 44.0534 9.33643C44.1223 9.39847 44.1676 9.48267 44.1816 9.57462L45.4795 17.4187L46.5846 13.5403C46.6076 13.4586 46.6563 13.3866 46.7233 13.335C46.7903 13.2834 46.8721 13.2551 46.9565 13.2541H46.9644C47.0479 13.2541 47.1294 13.2807 47.197 13.33C47.2647 13.3794 47.3152 13.4489 47.3413 13.5288L48.046 15.6615H49.0118C49.0804 15.4517 49.2054 15.265 49.3729 15.1221C49.5403 14.9791 49.7438 14.8855 49.9608 14.8516C50.1778 14.8177 50.4 14.8447 50.6027 14.9297C50.8054 15.0148 50.9808 15.1545 51.1095 15.3335C51.2383 15.5125 51.3154 15.7238 51.3323 15.9441C51.3492 16.1643 51.3053 16.385 51.2054 16.5818C51.1055 16.7786 50.9535 16.9437 50.7662 17.0591C50.5789 17.1744 50.3636 17.2355 50.1439 17.2355L50.1418 17.2326Z" fill="#C64A00"/>
</g>
<defs>
<linearGradient id="paint0_linear_1_465" x1="26.0478" y1="55.437" x2="26.0478" y2="11.4134" gradientUnits="userSpaceOnUse">
<stop stop-color="#808080" stop-opacity="0.25"/>
<stop offset="0.54" stop-color="#808080" stop-opacity="0.12"/>
<stop offset="1" stop-color="#808080" stop-opacity="0.1"/>
</linearGradient>
<linearGradient id="paint1_linear_1_465" x1="64.244" y1="54.8804" x2="64.244" y2="14.6729" gradientUnits="userSpaceOnUse">
<stop stop-color="#808080" stop-opacity="0.25"/>
<stop offset="0.54" stop-color="#808080" stop-opacity="0.12"/>
<stop offset="1" stop-color="#808080" stop-opacity="0.1"/>
</linearGradient>
<clipPath id="clip0_1_465">
<rect width="78.5856" height="56" fill="white" transform="translate(0.707184)"/>
</clipPath>
</defs>
</svg>
