<svg width="38" height="56" viewBox="0 0 38 56" fill="none" xmlns="http://www.w3.org/2000/svg">
<g clip-path="url(#clip0_1_802)">
<path d="M24.7807 21.9321L24.1055 14.8535L15.891 15.7524V21.8197L24.7807 21.9321Z" fill="#FFD6D6"/>
<path d="M27.8748 50.7515V56L27.6975 55.9197H6.27008L6.8888 52.1032L6.99316 51.4596L7.07535 50.9552L10.978 50.9174L10.9816 50.9165L12.5395 50.9018L12.9357 50.8981L13.2451 50.8944L17.9234 50.8492L24.3009 50.7865L27.8748 50.7515Z" fill="#2F2E41"/>
<path d="M15.7785 20.1343L24.6681 20.9208L30.7307 27.0361L28.4378 41.7632L27.8752 52.4371L6.72005 52.1001L9.19565 39.6284L8.07038 22.6623L15.7785 20.1343Z" fill="#E6760F"/>
<path d="M26.6309 55.445L26.2753 55.9199H17.1274C16.2926 55.0928 14.9313 53.966 13.4593 52.8143C13.2599 52.6566 13.0576 52.4999 12.8545 52.3431C12.7907 52.2933 12.727 52.2445 12.6633 52.1956L12.6624 52.1947C12.329 51.9374 11.9938 51.6811 11.6613 51.4293C11.4332 51.256 11.206 51.0845 10.9816 50.9166C10.9807 50.9157 10.9798 50.9148 10.978 50.9139C10.9059 50.8595 10.833 50.8051 10.7609 50.7516C9.43852 49.7613 8.23431 48.8881 7.46782 48.3339H7.4669C7.24249 48.1725 7.05503 48.0388 6.91466 47.9374C6.71704 47.7954 6.60714 47.7179 6.60714 47.7179L6.8334 47.5418C6.83524 47.5427 6.83524 47.5418 6.83524 47.5418L7.75872 46.8291L7.76795 46.8217L8.36636 46.3597L12.0298 43.5298L11.8774 43.3943L14.9147 44.4621L18.2623 46.392L21.2064 48.0886L22.1298 48.6216C22.575 48.8779 22.9822 49.1896 23.3433 49.5474C23.6037 49.8055 23.841 50.0877 24.0488 50.3901C24.131 50.5072 24.2077 50.628 24.2806 50.7516L24.3009 50.7866L25.2484 52.3957L26.5607 55.3814L26.6308 55.445L26.6309 55.445Z" fill="#764900"/>
<path d="M21.8921 55.9203H27.6974L26.6306 55.445L25.9555 55.1439C24.5286 54.508 22.9161 54.8709 21.8921 55.9203L21.8921 55.9203Z" fill="#FFD6D6"/>
<path d="M17.5227 19.4038C21.6865 19.4038 25.062 16.0335 25.062 11.8759C25.062 7.71829 21.6865 4.3479 17.5227 4.3479C13.3588 4.3479 9.98335 7.71829 9.98335 11.8759C9.98335 16.0335 13.3588 19.4038 17.5227 19.4038Z" fill="#FFD6D6"/>
<path d="M9.70203 22.7184C9.70203 22.7184 6.21369 22.0442 4.75083 25.3026C3.28798 28.561 2.38776 33.28 2.38776 33.28L10.2647 33.6171L9.70203 22.7184V22.7184Z" fill="#E6760F"/>
<path d="M18.9346 55.9197H12.0012L10.6113 54.6039L10.6076 54.6067L10.6307 54.5836L12.8545 52.343L12.9957 52.2001L13.6422 51.55L13.6588 51.5325L13.9257 51.8119L14.3163 52.2213L14.3366 52.2425L16.4717 54.4776C17.3629 54.7358 18.1783 55.2042 18.8506 55.8414C18.8792 55.8672 18.9069 55.8939 18.9346 55.9197H18.9346Z" fill="#FFD6D6"/>
<path d="M11.3442 50.5702L12.7112 51.8269C13.9919 52.5533 15.6559 52.9435 15.8897 52.9961L16.2086 53.1134C16.5421 53.5156 16.9673 53.8322 17.4485 54.0366C18.645 54.5646 19.8877 54.3762 20.2241 53.6158C20.5605 52.8554 19.8633 51.8112 18.6662 51.2832C18.191 51.0657 17.6705 50.965 17.1483 50.9896L17.0879 50.9639L13.3823 49.1787" fill="#FFD6D6"/>
<path d="M13.4154 44.6282C13.6405 44.6282 9.81455 48.7854 9.81455 48.7854L13.1306 51.3612L14.3156 46.5383L13.4154 44.6282V44.6282Z" fill="#764900"/>
<path d="M14.3685 52.2215L13.1881 51.1305L12.7774 50.7519L11.1323 49.2317L10.2478 48.3126L8.98973 47.007L8.36633 46.3598L7.94548 45.9238L7.56401 45.5272L7.71817 43.9295L8.03663 40.6374L8.4451 36.4094L8.76355 33.1139L8.80181 32.7184L7.44474 30.7617L2.36563 33.2513L1.01268 43.3228L0.783119 44.4081V44.4081C0.592979 45.3061 0.908032 46.2362 1.60505 46.8346L6.26995 50.8395L6.86859 51.353L7.75755 52.117L10.6788 54.6248L14.3685 52.2215L14.3685 52.2215H14.3685Z" fill="#E6760F"/>
<path d="M6.55127 47.5496C9.72077 47.5496 12.2902 44.9841 12.2902 41.8194C12.2902 38.6546 9.72077 36.0891 6.55127 36.0891C3.38177 36.0891 0.812378 38.6546 0.812378 41.8194C0.812378 44.9841 3.38177 47.5496 6.55127 47.5496Z" fill="#FFD6D6"/>
<path d="M9.01364 42.7542L9.11066 41.0012L8.32297 39.6529C8.32297 39.6529 8.09791 35.0462 6.29748 35.2709C4.49704 35.4956 0.558591 38.754 0.446064 39.9899C0.333537 41.2259 1.44215 46.5294 2.92166 46.5067C3.98906 46.4903 3.75084 49.019 9.01465 47.0826C9.61195 46.8629 7.31022 45.4955 7.64781 44.709C7.98539 43.9225 9.01364 42.7542 9.01364 42.7542H9.01364H9.01364Z" fill="#2F2E41"/>
<path d="M14.8982 25.9609C14.8982 25.9609 21.3144 19.6321 23.852 20.764C26.3895 21.8958 30.7102 27.251 30.7102 27.251L24.4792 32.2892L14.8982 25.9609Z" fill="#E6760F"/>
<path d="M13.4911 38.9838C13.4911 38.9838 14.3817 38.8112 14.3077 39.3082C14.2337 39.8052 12.7634 41.8223 12.3026 41.4999C11.8418 41.1775 12.0967 40.1485 12.2756 39.9719C12.4546 39.7952 13.4911 38.9838 13.4911 38.9838H13.4911H13.4911Z" fill="#764900"/>
<path d="M14.3095 39.1135C13.5239 39.414 12.5766 41.0027 12.4278 41.3774L16.971 45.5946C17.2976 45.8187 17.7209 45.8231 18.0491 45.606C19.2991 44.7792 19.8394 43.1634 20.0502 42.2739C20.1509 41.849 19.9491 41.4092 19.5595 41.2041C19.5595 41.2041 14.3095 39.1135 14.3095 39.1135H14.3095Z" fill="#764900"/>
<path d="M12.7128 40.0228C13.0279 39.9199 13.2127 39.6207 13.1254 39.3545C13.0382 39.0883 12.7121 38.9559 12.397 39.0588C12.0819 39.1617 11.8972 39.4609 11.9844 39.7271C12.0716 39.9933 12.3977 40.1257 12.7128 40.0228Z" fill="#764900"/>
<path d="M23.4133 39.1268L19.3006 40.0646C18.3971 39.8571 17.4569 39.8687 16.5587 40.0984C14.3027 40.6426 12.7557 42.2451 13.1024 43.6781C13.449 45.1111 15.5582 45.8318 17.8133 45.2875C18.7177 45.0824 19.5597 44.6639 20.2689 44.0671L24.284 43.3625L23.4129 39.123L23.4133 39.1268L23.4133 39.1268H23.4133Z" fill="#FFD6D6"/>
<path d="M30.1369 26.846L24.6658 31.1116L29.7608 36.8572L23.4129 39.1229L24.284 43.3624C24.841 43.2793 25.9378 43.1048 27.2823 42.8362L29.7926 42.2785C32.3482 41.6481 35.126 40.7509 36.7748 39.5722C40.4357 36.955 30.1369 26.8459 30.1369 26.8459L30.1369 26.846Z" fill="#E6760F"/>
<path d="M14.5292 2.24853C16.0202 1.72527 16.9651 -0.025552 18.2511 0.000282922C21.0446 0.056484 23.6792 2.04878 24.0056 2.34188C25.3645 3.56217 25.8836 4.90803 26.4816 6.45845C27.115 8.10024 26.9516 10.6617 26.7187 12.4528C26.3781 15.0716 24.6791 15.78 25.0882 17.4398C25.3746 18.6015 26.3808 18.9595 27.5806 19.9544C29.8498 21.8362 30.6963 24.2426 31.5605 26.6988C33.6194 32.5516 32.3464 38.8362 31.5601 38.8994C31.3939 38.9128 31.2062 38.5361 30.8309 37.7829C29.681 35.4755 30.0254 34.6898 29.3887 33.9479C28.2498 32.6209 26.3188 34.1688 23.8691 32.9801C21.9391 32.0436 21.0944 30.0916 20.6022 28.9541C20.3192 28.3003 19.126 25.543 20.0741 22.6143C20.9522 19.9017 22.6472 19.5908 23.5463 16.4142C23.7358 15.7445 24.4124 13.986 23.3576 12.8378C22.823 12.2558 23.3286 15.8444 22.5699 15.3346C20.7252 14.095 20.7998 8.16491 19.0504 6.73085C18.2133 6.04468 17.0459 5.8736 16.169 6.06086C14.0875 6.50546 10.582 8.97866 10.5114 11.2694C10.3979 14.956 11.7828 16.4001 15.0278 18.7922C15.3784 19.0507 14.1619 19.0298 13.6438 18.9507C11.0055 18.5477 9.62714 15.3589 9.34298 14.6431C8.51032 12.5458 8.746 10.7102 8.92829 9.2904C9.16127 7.47554 9.41206 5.52231 10.9315 4.0607C11.831 3.19542 12.813 2.85079 14.5292 2.24852L14.5292 2.24853V2.24853Z" fill="#2F2E41"/>
</g>
<defs>
<clipPath id="clip0_1_802">
<rect width="37.1236" height="56" fill="white" transform="translate(0.438202)"/>
</clipPath>
</defs>
</svg>
