<svg width="66" height="56" viewBox="0 0 66 56" fill="none" xmlns="http://www.w3.org/2000/svg">
<g clip-path="url(#clip0_1_724)">
<path opacity="0.1" d="M34.9989 55.9999C46.9082 55.9999 56.5625 54.4527 56.5625 52.544C56.5625 50.6354 46.9082 49.0881 34.9989 49.0881C23.0897 49.0881 13.4353 50.6354 13.4353 52.544C13.4353 54.4527 23.0897 55.9999 34.9989 55.9999Z" fill="black"/>
<path opacity="0.1" d="M60.2596 51.3069C62.0024 51.3069 63.4152 50.8067 63.4152 50.1898C63.4152 49.5729 62.0024 49.0728 60.2596 49.0728C58.5167 49.0728 57.1039 49.5729 57.1039 50.1898C57.1039 50.8067 58.5167 51.3069 60.2596 51.3069Z" fill="black"/>
<path d="M60.1319 50.3485C60.1319 50.3485 60.9734 47.4972 59.9735 45.3985C59.5476 44.521 59.4191 43.5295 59.6074 42.5731C59.7003 42.1196 59.8349 41.6756 60.0092 41.2466" stroke="#535461" stroke-width="2" stroke-miterlimit="10"/>
<path d="M59.3865 39.9207C59.3865 40.2698 60.0218 41.2835 60.0218 41.2835C60.0218 41.2835 60.6572 40.2705 60.6572 39.9207C60.6572 39.7529 60.5902 39.5919 60.471 39.4732C60.3518 39.3545 60.1901 39.2878 60.0215 39.2878C59.8529 39.2878 59.6912 39.3545 59.572 39.4732C59.4528 39.5919 59.3858 39.7529 59.3858 39.9207H59.3865Z" fill="#40B7FF"/>
<path d="M58.336 41.8568C58.5268 42.15 59.6137 42.6569 59.6137 42.6569C59.6137 42.6569 59.5941 41.4623 59.4033 41.1691C59.3117 41.0283 59.1677 40.9295 59.0029 40.8944C58.8381 40.8593 58.6661 40.8908 58.5247 40.982C58.3832 41.0732 58.2839 41.2166 58.2487 41.3806C58.2135 41.5447 58.2451 41.716 58.3367 41.8568H58.336Z" fill="#40B7FF"/>
<path d="M58.3816 45.1639C58.695 45.321 59.89 45.2128 59.89 45.2128C59.89 45.2128 59.2673 44.1914 58.9538 44.0343C58.8793 43.9969 58.7981 43.9745 58.7149 43.9683C58.6317 43.9621 58.5481 43.9723 58.4689 43.9983C58.3896 44.0243 58.3163 44.0656 58.2531 44.1198C58.1898 44.174 58.138 44.2401 58.1004 44.3143C58.0628 44.3884 58.0403 44.4693 58.0341 44.5521C58.0279 44.6349 58.0381 44.7182 58.0642 44.7971C58.0903 44.876 58.1318 44.949 58.1863 45.0119C58.2407 45.0749 58.3071 45.1265 58.3816 45.1639Z" fill="#40B7FF"/>
<path d="M58.9826 47.659C59.2631 47.8685 60.4608 47.9606 60.4608 47.9606C60.4608 47.9606 60.0204 46.8499 59.7385 46.6404C59.6714 46.591 59.5952 46.5552 59.5143 46.5351C59.4333 46.515 59.3491 46.511 59.2666 46.5233C59.1841 46.5356 59.1048 46.5639 59.0332 46.6067C58.9617 46.6495 58.8993 46.7059 58.8497 46.7727C58.8001 46.8395 58.7641 46.9154 58.7439 46.996C58.7237 47.0766 58.7197 47.1604 58.7321 47.2426C58.7444 47.3248 58.7729 47.4037 58.8159 47.4749C58.8588 47.5461 58.9155 47.6082 58.9826 47.6576V47.659Z" fill="#40B7FF"/>
<path d="M60.9475 42.7244C60.6957 42.9681 59.5225 43.2201 59.5225 43.2201C59.5225 43.2201 59.8101 42.0605 60.0618 41.8168C60.1827 41.6999 60.3453 41.6356 60.5138 41.638C60.6823 41.6404 60.843 41.7094 60.9605 41.8298C61.0779 41.9501 61.1425 42.112 61.1401 42.2798C61.1377 42.4476 61.0684 42.6075 60.9475 42.7244Z" fill="#40B7FF"/>
<path d="M61.6116 45.6505C61.2981 45.8076 60.1032 45.6994 60.1032 45.6994C60.1032 45.6994 60.7259 44.678 61.0394 44.5209C61.1898 44.4453 61.3643 44.4324 61.5243 44.4849C61.6844 44.5374 61.8169 44.6511 61.8928 44.8009C61.9687 44.9506 61.9817 45.1243 61.9289 45.2837C61.8762 45.443 61.762 45.575 61.6116 45.6505Z" fill="#40B7FF"/>
<path d="M61.8682 48.5834C61.5877 48.7929 60.39 48.885 60.39 48.885C60.39 48.885 60.8304 47.7736 61.1123 47.5662C61.2478 47.4664 61.4175 47.4243 61.5842 47.4491C61.7509 47.4739 61.9009 47.5636 62.0011 47.6985C62.1014 47.8334 62.1437 48.0024 62.1188 48.1684C62.0939 48.3343 62.0037 48.4836 61.8682 48.5834Z" fill="#40B7FF"/>
<path opacity="0.1" d="M4.86036 49.9106C6.60318 49.9106 8.01601 49.4105 8.01601 48.7936C8.01601 48.1766 6.60318 47.6765 4.86036 47.6765C3.11754 47.6765 1.70471 48.1766 1.70471 48.7936C1.70471 49.4105 3.11754 49.9106 4.86036 49.9106Z" fill="black"/>
<path d="M4.86316 48.8049C4.86316 48.8049 6.66328 42.719 4.52586 38.2403C3.62825 36.3602 3.33372 34.2503 3.74536 32.2103C3.9425 31.2419 4.22841 30.2936 4.59949 29.3772" stroke="#535461" stroke-width="2" stroke-miterlimit="10"/>
<path d="M3.27202 26.546C3.27202 27.2917 4.62825 29.4546 4.62825 29.4546C4.62825 29.4546 5.98448 27.2903 5.98448 26.546C5.98448 26.1879 5.84159 25.8445 5.58725 25.5913C5.3329 25.3381 4.98794 25.1958 4.62825 25.1958C4.26855 25.1958 3.92359 25.3381 3.66925 25.5913C3.41491 25.8445 3.27202 26.1879 3.27202 26.546Z" fill="#40B7FF"/>
<path d="M1.0301 30.677C1.43753 31.3054 3.75658 32.3847 3.75658 32.3847C3.75658 32.3847 3.71451 29.835 3.30708 29.2095C3.21251 29.0561 3.08809 28.923 2.94112 28.8182C2.79415 28.7133 2.62761 28.6388 2.45128 28.5989C2.27496 28.5591 2.09241 28.5547 1.91438 28.5862C1.73634 28.6176 1.56642 28.6841 1.41459 28.7819C1.26277 28.8796 1.13211 29.0066 1.03031 29.1554C0.928502 29.3042 0.857602 29.4717 0.821778 29.6481C0.785954 29.8246 0.785929 30.0064 0.821704 30.1828C0.85748 30.3593 0.928334 30.5268 1.0301 30.6756V30.677Z" fill="#40B7FF"/>
<path d="M1.12757 37.7368C1.79447 38.0726 4.34704 37.8436 4.34704 37.8436C4.34704 37.8436 3.01465 35.6639 2.34916 35.3302C2.19012 35.2504 2.01684 35.2025 1.83921 35.1893C1.66158 35.1761 1.48308 35.1979 1.31391 35.2534C0.972243 35.3654 0.68929 35.6081 0.527297 35.9278C0.365305 36.2476 0.337541 36.6184 0.450115 36.9585C0.562688 37.2987 0.806378 37.5804 1.12757 37.7417V37.7368Z" fill="#40B7FF"/>
<path d="M2.41017 43.0616C3.01255 43.505 5.56582 43.7053 5.56582 43.7053C5.56582 43.7053 4.62614 41.3316 4.02306 40.8904C3.73385 40.6774 3.37153 40.5876 3.01579 40.6406C2.66006 40.6936 2.34005 40.8852 2.12616 41.1731C1.91228 41.4611 1.82205 41.8218 1.87531 42.1759C1.92857 42.5301 2.12097 42.8487 2.41017 43.0616Z" fill="#40B7FF"/>
<path d="M6.60438 32.5292C6.06722 33.0487 3.56374 33.5869 3.56374 33.5869C3.56374 33.5869 4.17663 31.1113 4.7138 30.5918C4.84157 30.4681 4.99258 30.3706 5.15821 30.3049C5.32383 30.2392 5.50083 30.2067 5.67909 30.2091C5.85735 30.2115 6.03338 30.2489 6.19713 30.3191C6.36089 30.3892 6.50916 30.4908 6.63348 30.618C6.7578 30.7452 6.85574 30.8956 6.9217 31.0605C6.98766 31.2254 7.02036 31.4016 7.01791 31.5791C7.01547 31.7565 6.97794 31.9318 6.90747 32.0948C6.837 32.2578 6.73496 32.4055 6.60719 32.5292H6.60438Z" fill="#40B7FF"/>
<path d="M8.02443 38.7757C7.35543 39.1115 4.80496 38.8797 4.80496 38.8797C4.80496 38.8797 6.13735 36.7001 6.80284 36.3663C7.12404 36.2051 7.49643 36.1774 7.83809 36.2895C8.17976 36.4016 8.46271 36.6442 8.6247 36.964C8.78669 37.2837 8.81446 37.6545 8.70189 37.9946C8.58931 38.3348 8.34562 38.6165 8.02443 38.7778V38.7757Z" fill="#40B7FF"/>
<path d="M8.5679 45.0348C7.96552 45.4781 5.41225 45.6785 5.41225 45.6785C5.41225 45.6785 6.35193 43.3048 6.95501 42.8635C7.24422 42.6506 7.60654 42.5607 7.96228 42.6138C8.31802 42.6668 8.63802 42.8583 8.85191 43.1463C9.06579 43.4342 9.15602 43.7949 9.10276 44.1491C9.0495 44.5033 8.8571 44.8219 8.5679 45.0348Z" fill="#40B7FF"/>
<path d="M57.0639 25.8745C57.2355 25.7919 57.3793 25.6614 57.4777 25.4989C57.2385 25.4249 57.0058 25.3315 56.782 25.2196L56.9833 24.3469C57.0013 24.2655 57.0029 24.1812 56.9879 24.0992C56.973 24.0171 56.9417 23.9388 56.896 23.8689C56.8503 23.7989 56.7911 23.7388 56.7218 23.6919C56.6525 23.645 56.5745 23.6123 56.4924 23.5957L56.254 23.5433C56.0886 23.5061 55.9151 23.535 55.7708 23.6237C55.6266 23.7125 55.5231 23.8541 55.4826 24.0181L55.4384 24.2094C55.1099 23.8568 54.8409 23.4537 54.6418 23.0155C54.5717 22.8837 54.5353 22.7367 54.5359 22.5876C54.5492 22.4095 54.6551 22.2531 54.7414 22.0989C55.036 21.5634 55.1323 20.9419 55.0135 20.343C54.9048 19.8068 54.6292 19.3188 54.4525 18.8008C54.1032 17.775 54.1431 16.6575 54.5647 15.659C54.808 15.0879 55.1818 14.4966 55.0247 13.8976C54.8501 13.2294 54.113 12.8901 53.4819 12.5711C52.8508 12.252 52.1825 11.6928 52.3136 11.0149C52.355 10.8013 52.4763 10.5918 52.4272 10.3803C52.3613 10.101 52.0352 9.96137 51.7512 9.8748C50.9918 9.63463 50.2211 9.39237 49.423 9.35537C48.7681 9.32534 48.0836 9.45101 47.5381 9.79032C47.3763 9.8786 47.2256 9.9857 47.0893 10.1094C46.9649 10.2379 46.8321 10.3581 46.6917 10.4689C46.4041 10.6134 46.0605 10.5946 45.7358 10.6253C45.3616 10.6596 45.0003 10.7791 44.6798 10.9744C44.4829 11.0779 44.3053 11.2142 44.1545 11.3772C43.7864 11.7822 43.6244 12.3756 43.8039 12.886C43.8405 12.987 43.8908 13.0826 43.9533 13.1701C43.6749 13.6245 43.5279 14.1466 43.5283 14.6788C43.5283 16.1924 44.6973 17.44 46.2057 17.6181C46.294 17.9553 46.3796 18.3086 46.4462 18.636C46.4283 18.6521 46.4093 18.667 46.3894 18.6807C46.2653 18.74 46.1236 18.7777 45.9939 18.8287C45.8981 18.8662 45.8063 18.913 45.7197 18.9683C45.0781 19.3125 44.7492 20.0581 44.4841 20.7395C44.6664 20.7067 44.8474 20.6697 45.0269 20.6257C45.0178 20.6481 45.0107 20.6697 45.0044 20.69C44.82 21.3183 43.8032 24.8189 43.8032 24.8189L44.0192 24.3567C44.0279 24.4226 44.0169 24.4896 43.9876 24.5494C43.8979 24.7232 44.0697 24.5969 44.3425 24.3462C44.3425 24.3609 44.346 24.3693 44.3565 24.37C43.7155 25.4116 41.6973 28.6643 40.6931 29.9839C39.4456 30.1507 38.5368 30.2938 38.5368 30.2938C38.3393 30.2956 38.145 30.3434 37.9694 30.4335C37.7232 30.5594 37.5155 30.7491 37.3681 30.9824C37.2208 31.2158 37.1393 31.4844 37.1321 31.76L37.062 33.971C37.062 33.971 36.5277 36.6303 36.5382 38.1446C36.53 38.4005 36.5507 38.6565 36.5999 38.9077C36.6838 39.2871 36.725 39.6747 36.7226 40.0632C36.719 40.5184 36.6779 40.9725 36.5999 41.4211C36.6034 41.4246 36.6097 41.4281 36.6139 41.4316C36.6055 41.4825 36.5999 41.5105 36.5999 41.5105C36.7016 41.6089 37.0129 41.6808 37.4105 41.7325C37.2983 42.3538 36.886 42.9892 35.6763 43.0359C33.9092 43.1023 33.5424 43.4108 33.4723 43.5693C33.457 43.5985 33.4525 43.6321 33.4597 43.6643C33.5522 44.8309 36.1847 44.6962 36.9701 44.7415C37.086 44.7444 37.2018 44.7339 37.3152 44.7101C37.3853 44.6975 37.4554 44.6815 37.5305 44.6626C37.7191 44.6152 37.9309 44.5481 38.1518 44.4686C38.4168 44.3729 38.6959 44.2591 38.9666 44.1355C39.102 44.0741 39.2345 44.0106 39.3628 43.9463C39.4484 43.903 39.5311 43.8598 39.6111 43.8165C40.0115 43.6 40.3362 43.3836 40.4799 43.2154C40.4932 43.1999 40.5054 43.1836 40.5164 43.1665C40.5199 43.1602 40.5234 43.1539 40.5269 43.1476C40.5304 43.1413 40.5395 43.1253 40.5452 43.1134C40.5508 43.1016 40.5522 43.0974 40.555 43.089C40.5578 43.0806 40.5627 43.068 40.5662 43.0576C40.5697 43.0471 40.5718 43.0387 40.5746 43.0289C40.5774 43.0192 40.5788 43.0094 40.5809 42.9996C40.583 42.9899 40.5851 42.978 40.5865 42.9668C40.5879 42.9556 40.5865 42.9508 40.5865 42.9424C40.623 42.5661 40.339 42.0543 40.1083 41.7094V40.2517C40.1083 40.2517 40.4351 36.8188 40.4287 35.3038C40.4383 35.0675 40.4238 34.8307 40.3853 34.5973C40.3663 34.5248 40.3546 34.4507 40.3502 34.376C40.3505 34.2597 40.3908 34.147 40.4645 34.0566C40.5381 33.9663 40.6406 33.9038 40.7548 33.8796C41.5767 33.4537 43.7001 33.6275 45.2877 33.8398C43.9084 34.0492 40.8228 34.4109 40.8228 34.8228V35.8002C40.8256 36.0374 40.9172 36.2651 41.0797 36.4385C41.2423 36.612 41.464 36.7187 41.7015 36.7378V53.4015H42.7997V36.7427H52.5591V53.4015H53.6572V36.5514C53.9206 36.4169 54.1418 36.2129 54.2968 35.9617C54.4517 35.7106 54.5344 35.4219 54.5359 35.1272V34.8849L56.5801 26.0881C56.7509 26.0406 56.9139 25.9686 57.0639 25.8745ZM52.9896 34.7544C52.9251 34.4751 52.4693 34.2273 51.7428 34.0346C52.9756 33.4328 53.2358 32.2389 53.2267 31.3118C53.2288 30.9973 53.2028 30.6833 53.1488 30.3734C53.2269 30.3079 53.2865 30.2234 53.3217 30.128C53.357 30.0327 53.3668 29.9298 53.3501 29.8296C53.3658 29.6451 53.3255 29.4603 53.2344 29.299C52.5051 27.8328 52.3929 26.995 52.3774 25.8556C52.5224 25.9904 52.6897 26.0993 52.8718 26.1775C53.3024 26.3625 53.7835 26.3953 54.2554 26.3911C54.4833 26.3911 54.7112 26.3779 54.9391 26.3604L52.9896 34.7544ZM45.4722 25.9806C45.5311 26.0909 45.5668 26.1607 45.5668 26.1607L45.7681 25.9834C46.7309 26.0162 46.9371 26.4798 46.9665 26.7877C46.9639 26.8182 46.9592 26.8485 46.9525 26.8784L46.1208 29.3018C44.6769 29.0804 44.0458 29.4658 43.8677 29.6096C43.4224 29.6515 42.9694 29.7004 42.5234 29.7493C43.4189 28.5889 44.6531 27.0223 45.4722 25.9806Z" fill="url(#paint0_linear_1_724)"/>
<path d="M43.1433 22.9353C43.1433 22.9353 39.8727 28.4249 39.1062 29.1538C39.1062 29.1538 35.8355 32.5329 37.4982 32.2955C37.6202 32.2781 40.0136 30.2639 40.1532 29.9343C40.2927 29.6048 44.8186 23.7515 44.8186 23.7515L44.1735 23.1601L43.1433 22.9353Z" fill="#F8BDC5"/>
<path d="M52.1678 52.5498H53.2049V36.1124H52.1678V52.5498Z" fill="#40414D"/>
<path d="M41.7976 52.5498H42.8347V36.1124H41.7976V52.5498Z" fill="#40414D"/>
<path d="M40.9673 34.5624C40.9673 35.1908 45.2779 35.6983 47.914 35.6983C50.55 35.6983 52.5822 35.1908 52.5822 34.5624C52.5822 33.9341 50.5486 33.4265 47.9133 33.4265C45.2779 33.4265 40.9673 33.9341 40.9673 34.5624Z" fill="#F6C6CD"/>
<path d="M52.7723 36.4216H41.7036C41.6066 36.4221 41.5105 36.4035 41.4208 36.3668C41.331 36.3302 41.2495 36.2763 41.1807 36.2082C41.112 36.14 41.0574 36.0591 41.0202 35.9699C40.983 35.8807 40.9638 35.7851 40.9638 35.6886V34.5624H54.0345V35.1649C54.0345 35.4982 53.9015 35.8179 53.6648 36.0535C53.4281 36.2892 53.107 36.4216 52.7723 36.4216Z" fill="#40414D"/>
<path d="M52.7621 36.227L52.2108 36.1031L54.9583 23.985C54.987 23.8586 55.0649 23.7486 55.175 23.6794C55.2851 23.6102 55.4183 23.5873 55.5452 23.6159L56.007 23.7196C56.134 23.7482 56.2444 23.8258 56.3139 23.9354C56.3834 24.0449 56.4064 24.1775 56.3777 24.304L53.8257 35.5599C53.7738 35.7886 53.6329 35.9874 53.4338 36.1126C53.2347 36.2378 52.9939 36.2791 52.7642 36.2275L52.7621 36.227Z" fill="#40414D"/>
<path d="M40.1531 40.8619C40.1531 40.8619 41.2001 42.1654 40.7639 42.6869C40.3278 43.2084 38.1497 44.2054 37.4477 44.1642C36.7058 44.1209 34.2219 44.2508 34.1315 43.1219C34.1315 43.1219 33.9568 42.6003 36.2261 42.5138C38.4954 42.4272 37.7941 40.0779 37.7941 40.0779L40.1531 40.8619Z" fill="#594C76"/>
<path opacity="0.1" d="M52.6313 29.9133C52.6313 29.9133 53.6783 33.4739 50.5367 34.0841L47.1328 33.9103C47.1328 33.9103 42.3327 32.9545 41.0234 33.6499C41.0234 33.6499 40.4996 33.7364 40.6728 34.4318C40.846 35.1272 40.4112 39.8188 40.4112 39.8188V41.3827C40.4112 41.3827 37.4435 41.3827 37.095 41.0336C37.095 41.0336 37.3566 39.6436 37.095 38.5139C36.8334 37.3843 37.5312 33.8216 37.5312 33.8216L37.6013 31.6811C37.6065 31.4161 37.6825 31.1572 37.8215 30.9312C37.9605 30.7051 38.1576 30.5201 38.3923 30.3951C38.5575 30.3079 38.7412 30.2615 38.9281 30.2596C38.9281 30.2596 44.8628 29.3038 46.9575 29.4777C49.0521 29.6515 52.6313 29.9133 52.6313 29.9133Z" fill="black"/>
<path d="M52.6313 29.826C52.6313 29.826 53.6783 33.3866 50.5366 33.9968L47.1327 33.823C47.1327 33.823 42.3327 32.8672 41.0234 33.5626C41.0234 33.5626 40.4996 33.6491 40.6728 34.3445C40.846 35.0399 40.4119 39.7287 40.4119 39.7287V41.2926C40.4119 41.2926 37.4442 41.2926 37.0957 40.9435C37.0957 40.9435 37.3572 39.5535 37.0957 38.4239C36.8341 37.2942 37.5319 33.7315 37.5319 33.7315L37.602 31.591C37.6071 31.326 37.6832 31.0671 37.8222 30.8411C37.9612 30.6151 38.1583 30.43 38.393 30.305C38.5582 30.2179 38.7419 30.1714 38.9288 30.1695C38.9288 30.1695 44.8635 29.2137 46.9581 29.3876C49.0528 29.5614 52.6313 29.826 52.6313 29.826Z" fill="#8B9CD1"/>
<path d="M46.7835 18.4438C46.7835 18.4438 45.2127 20.2688 45.0381 20.8769C44.8635 21.485 42.9435 23.0489 42.9435 23.0489C42.9435 23.0489 44.3397 24.0899 44.0802 24.6128C43.8207 25.1357 45.9105 22.8751 45.9105 22.8751L48.3543 19.3145L46.7835 18.4438Z" fill="#40B7FF"/>
<path opacity="0.1" d="M46.7835 18.4438C46.7835 18.4438 45.2127 20.2688 45.0381 20.8769C44.8635 21.485 42.9435 23.0489 42.9435 23.0489C42.9435 23.0489 44.3397 24.0899 44.0802 24.6128C43.8207 25.1357 45.9105 22.8751 45.9105 22.8751L48.3543 19.3145L46.7835 18.4438Z" fill="black"/>
<path d="M45.7359 16.3584C45.7359 16.3584 46.5213 18.8781 46.5213 19.8339C46.5213 20.7897 49.8375 19.5735 49.747 19.0519C49.6566 18.5304 47.827 16.6189 47.7393 15.8404C47.6517 15.062 45.7359 16.3584 45.7359 16.3584Z" fill="#F8BDC5"/>
<path opacity="0.1" d="M48.3579 18.0962C48.3579 18.0962 51.4125 17.3142 51.8487 21.7455C52.2849 26.1767 51.4981 26.6982 52.8087 29.3917C54.1194 32.0852 43.9063 29.7408 43.9063 29.7408C43.9063 29.7408 44.4301 29.1327 46.0879 29.3917L46.8733 27.0459C46.8733 27.0459 47.1349 26.0035 45.6517 26.0035C44.1685 26.0035 44.8663 22.9623 44.8663 22.9623C44.8663 22.9623 45.6517 20.3554 46.0879 20.095C46.5241 19.8346 47.306 18.27 48.3579 18.0962Z" fill="black"/>
<path d="M48.3579 17.9223C48.3579 17.9223 51.4125 17.1404 51.8487 21.5716C52.2849 26.0028 51.4981 26.5244 52.8087 29.2179C54.1194 31.9114 43.9063 29.5669 43.9063 29.5669C43.9063 29.5669 44.4301 28.9588 46.0879 29.2179L46.8733 26.872C46.8733 26.872 47.1349 25.8297 45.6517 25.8297C44.1685 25.8297 44.8663 22.7885 44.8663 22.7885C44.8663 22.7885 45.6517 20.1816 46.0879 19.9212C46.5241 19.6608 47.306 18.0962 48.3579 17.9223Z" fill="#40B7FF"/>
<path d="M44.6159 24.1221C44.6159 24.1221 41.3453 29.6117 40.5788 30.3406C40.5788 30.3406 37.3082 33.7197 38.9708 33.4823C39.0929 33.4648 41.4862 31.4506 41.6258 31.1211C41.7653 30.7916 46.2912 24.9382 46.2912 24.9382L45.6461 24.3469L44.6159 24.1221Z" fill="#F8BDC5"/>
<path opacity="0.1" d="M50.1874 22.006L45.5591 26.1768C45.5591 26.1768 44.6889 24.4391 44.4273 24.4391C44.1657 24.4391 47.5689 19.3125 47.5689 19.3125C47.5689 19.3125 48.442 18.2702 48.9651 18.791C49.4883 19.3118 51.0598 18.9649 50.1874 22.006Z" fill="black"/>
<path d="M50.2744 21.8322L45.6461 26.003C45.6461 26.003 44.773 24.2653 44.5115 24.2653C44.2499 24.2653 47.6566 19.1387 47.6566 19.1387C47.6566 19.1387 48.5296 18.0964 49.0528 18.6172C49.5759 19.138 51.1474 18.791 50.2744 21.8322Z" fill="#40B7FF"/>
<path d="M46.5213 17.9224C48.1119 17.9224 49.4013 16.6387 49.4013 15.0551C49.4013 13.4715 48.1119 12.1877 46.5213 12.1877C44.9307 12.1877 43.6412 13.4715 43.6412 15.0551C43.6412 16.6387 44.9307 17.9224 46.5213 17.9224Z" fill="#F8BDC5"/>
<path opacity="0.1" d="M45.1209 14.1126C44.5998 14.1824 44.0746 13.8138 43.9021 13.3195C43.7296 12.8252 43.8824 12.2506 44.2303 11.859C44.5781 11.4673 45.0956 11.2481 45.6187 11.1971C45.9364 11.1664 46.2751 11.1887 46.5521 11.031C46.7267 10.9318 46.8565 10.7712 47.003 10.6344C47.5521 10.1192 48.348 9.93205 49.1019 9.96696C49.8557 10.0019 50.5836 10.2371 51.3017 10.4696C51.5696 10.5562 51.8781 10.6854 51.9399 10.9583C51.9868 11.1636 51.8697 11.3668 51.8326 11.5727C51.7091 12.2283 52.3438 12.7673 52.9363 13.0793C53.5289 13.3914 54.2274 13.7196 54.3921 14.3668C54.5401 14.9469 54.1874 15.5187 53.9574 16.0717C53.5595 17.04 53.5219 18.118 53.8515 19.1114C54.0198 19.6127 54.2806 20.0889 54.383 20.6048C54.4955 21.184 54.4049 21.7841 54.1264 22.3048C54.0443 22.457 53.944 22.6085 53.9321 22.7803C53.9312 22.9245 53.9654 23.0667 54.0317 23.195C54.2844 23.7598 54.6533 24.2656 55.1146 24.6797C55.5759 25.0937 56.1194 25.4068 56.7098 25.5987C56.5226 25.9366 56.1137 26.0777 55.7365 26.1663C55.0927 26.3169 54.4342 26.396 53.7729 26.4023C53.3283 26.4065 52.8718 26.3751 52.4658 26.1929C52.0598 26.0106 51.707 25.6623 51.6306 25.2259C51.5864 24.9732 51.6355 24.7121 51.604 24.4579C51.5338 23.8854 51.0717 23.4365 50.9027 22.885C50.7407 22.3579 50.6467 22.2776 50.7092 21.7295C50.7716 21.1815 50.7596 20.5727 50.4006 20.1531C50.0247 19.7133 49.3641 19.6155 48.7975 19.7405C48.2309 19.8655 47.9378 19.6888 47.4203 19.9499C46.5148 20.4086 45.548 20.7358 44.5493 20.9218C44.82 20.2082 45.1601 19.4214 45.8698 19.1331C46.0732 19.0507 46.3088 19.0067 46.4469 18.8371C46.6671 18.5662 46.517 18.1319 46.7071 17.8401C46.8971 17.5483 47.3494 17.535 47.6096 17.292C47.8305 17.0826 47.8712 16.7398 47.7856 16.4508C47.7001 16.1617 47.5114 15.9153 47.3207 15.6828C47.1519 15.4738 46.9792 15.2681 46.8025 15.0656C46.6378 14.8956 46.5002 14.7016 46.3943 14.4903C46.3347 14.3507 46.3459 14.0868 46.2485 13.9758C46.0016 13.6944 45.4217 14.0728 45.1209 14.1126Z" fill="black"/>
<path d="M45.2267 14.0491C44.7057 14.119 44.1805 13.7503 44.008 13.256C43.8355 12.7617 43.9883 12.1872 44.3362 11.7955C44.684 11.4038 45.2015 11.1846 45.7246 11.1336C46.0423 11.1029 46.381 11.1253 46.658 10.9675C46.8326 10.8683 46.9624 10.7078 47.1089 10.5709C47.658 10.0557 48.4539 9.86857 49.2078 9.90348C49.9616 9.93839 50.6895 10.1737 51.4076 10.4062C51.6755 10.4927 51.984 10.6219 52.0458 10.8949C52.0927 11.1001 51.9756 11.3033 51.9385 11.5092C51.815 12.1648 52.4497 12.7038 53.0422 13.0159C53.6348 13.3279 54.3333 13.6561 54.498 14.3033C54.646 14.8834 54.2933 15.4552 54.0633 16.0082C53.6654 16.9765 53.6278 18.0545 53.9574 19.048C54.1257 19.5492 54.3865 20.0254 54.4889 20.5413C54.6014 21.1205 54.5108 21.7206 54.2323 22.2413C54.1502 22.3935 54.0499 22.545 54.038 22.7168C54.0371 22.861 54.0713 23.0033 54.1376 23.1315C54.3903 23.6964 54.7592 24.2021 55.2205 24.6162C55.6818 25.0302 56.2253 25.3433 56.8157 25.5353C56.6285 25.8732 56.2196 26.0142 55.8424 26.1029C55.1986 26.2534 54.5401 26.3325 53.8788 26.3388C53.4342 26.343 52.9777 26.3116 52.5717 26.1294C52.1657 25.9472 51.8129 25.5988 51.7365 25.1624C51.6923 24.9097 51.7414 24.6486 51.7099 24.3945C51.6397 23.822 51.1776 23.3731 51.0086 22.8215C50.8466 22.2944 50.7526 22.2141 50.8151 21.6661C50.8775 21.118 50.8655 20.5092 50.5065 20.0896C50.1306 19.6498 49.47 19.552 48.9034 19.677C48.3368 19.802 48.0437 19.6253 47.5262 19.8865C46.6207 20.3451 45.6539 20.6724 44.6552 20.8583C44.9259 20.1448 45.266 19.3579 45.9757 19.0696C46.1791 18.9872 46.4147 18.9432 46.5528 18.7736C46.773 18.5027 46.6229 18.0684 46.813 17.7766C47.003 17.4848 47.4553 17.4715 47.7155 17.2286C47.9364 17.0191 47.9771 16.6763 47.8915 16.3873C47.806 16.0982 47.6173 15.8518 47.4266 15.6193C47.2578 15.4103 47.0851 15.2046 46.9084 15.0021C46.7458 14.832 46.6101 14.6382 46.5058 14.4275C46.4462 14.2879 46.4575 14.024 46.36 13.913C46.1075 13.6309 45.5276 14.01 45.2267 14.0491Z" fill="#EB6475"/>
<g opacity="0.1">
<path d="M37.8937 40.764C37.8871 40.5329 37.8537 40.3033 37.7941 40.0798L37.8383 40.0945C37.8817 40.3149 37.9003 40.5395 37.8937 40.764Z" fill="#40B7FF"/>
<path d="M37.4449 43.9874C38.1462 44.0286 40.325 43.0316 40.7612 42.5101C40.8183 42.4396 40.8534 42.3539 40.8621 42.2637C40.8748 42.3367 40.8723 42.4114 40.855 42.4835C40.8376 42.5555 40.8057 42.6232 40.7612 42.6826C40.325 43.2041 38.1469 44.2011 37.4449 44.1599C36.703 44.1166 34.2191 44.2464 34.1287 43.1175C34.1221 43.0866 34.1263 43.0543 34.1406 43.0261C34.3405 44.0691 36.7219 43.9469 37.4449 43.9874Z" fill="#40B7FF"/>
</g>
<path d="M18.8104 44.5418C19.2312 44.4022 19.8623 44.243 20.3595 44.2995C20.8322 44.1278 21.9443 43.6796 22.7038 43.0156C22.6817 42.358 22.6983 41.6997 22.7536 41.044C23.1421 36.6456 22.2683 33.749 22.2683 33.749C22.2683 33.749 21.5825 31.5379 21.6575 29.7031C21.6134 29.7862 21.5874 29.8358 21.5874 29.8358C21.5271 28.2531 20.9857 26.6152 20.5804 25.5952C20.5648 25.5907 20.5496 25.5851 20.5348 25.5784L20.0741 24.5088C20.038 24.4465 20.0093 24.3802 19.9885 24.3113L19.9184 24.1416L19.9402 24.1325C19.9331 24.1046 19.9254 24.0753 19.9184 24.0453C19.6288 22.8256 19.4079 19.9331 19.4079 19.9331C18.6316 16.8891 20.4752 15.0055 20.4752 15.0055L23.6035 12.3225C23.588 12.3573 23.5776 12.3943 23.5727 12.4321L23.5986 12.4097C23.6428 12.2841 23.6912 12.1305 23.7389 11.9601C23.6272 11.8815 23.5226 11.7935 23.4261 11.6969C23.0703 11.3623 22.8257 10.9275 22.7248 10.4507C22.6491 10.08 22.6638 9.6981 22.6793 9.3204L22.7312 8.02741C22.7335 7.77424 22.7593 7.52183 22.8083 7.2734C23.0446 6.24431 24.1007 5.528 25.1603 5.48262C25.4976 5.46866 25.8342 5.51125 26.1701 5.53638C26.443 5.55866 26.717 5.56449 26.9906 5.55383C27.0217 5.55557 27.0526 5.54751 27.0789 5.53079C27.103 5.50715 27.1168 5.47508 27.1175 5.44143C27.1229 5.38144 27.1159 5.32099 27.0971 5.26374C27.0783 5.2065 27.048 5.15365 27.0081 5.10841C26.9671 5.07253 26.9195 5.04501 26.8679 5.02742L26.9436 5.04557C26.9064 5.01654 26.8644 4.9941 26.8195 4.97925C27.0902 5.04278 27.3672 5.10911 27.6 5.25851C27.6666 5.30212 27.7278 5.35344 27.7823 5.41141C27.9265 5.53736 28.0201 5.71091 28.046 5.90012C28.1673 5.78213 28.2837 5.65227 28.3265 5.4903C28.3426 5.42518 28.3426 5.35714 28.3265 5.29202C28.3447 5.31483 28.3625 5.3381 28.3798 5.36184C28.3798 5.35486 28.3798 5.34788 28.3749 5.34089C28.5727 5.58581 28.712 5.87229 28.7823 6.17868C28.8088 6.14489 28.8283 6.10621 28.8397 6.06487C28.8512 6.02354 28.8543 5.98036 28.8489 5.93782C28.8643 5.98529 28.8791 6.03347 28.8924 6.08234C28.8987 6.05063 28.9003 6.01818 28.8973 5.98599C29.0187 6.35587 29.0736 6.74419 29.0593 7.13307C29.0593 7.52124 28.8868 8.12515 28.4688 8.26129C28.4478 8.26827 28.4254 8.27386 28.4029 8.27875C28.6376 8.64157 28.7781 9.05669 28.8119 9.48691C28.8458 9.91712 28.7718 10.349 28.5968 10.7437C28.4217 11.1385 28.1509 11.4838 27.8088 11.7488C27.4667 12.0137 27.0639 12.19 26.6364 12.2617C26.6299 12.3083 26.6234 12.3579 26.6168 12.4104H26.6C26.5888 12.5152 26.5796 12.6255 26.5726 12.7407C26.6778 12.8434 26.7929 12.9356 26.9162 13.0158C27.2666 13.222 27.6574 13.3508 28.0621 13.3935C28.5453 13.4303 29.0151 13.5693 29.4401 13.8012C29.9394 14.0804 30.492 14.4847 30.6638 14.9769C30.9527 15.7986 32.5403 17.0714 33.609 17.2298L33.9877 17.2082L34.0151 17.1998V17.2068L34.1076 17.2012H34.1132H34.1378V17.2068L34.2339 17.2012C34.2339 17.2012 34.2437 17.2452 34.2563 17.3234C34.7928 17.1405 35.9309 16.6308 37.4119 15.2931C39.0627 13.8026 41.2906 14.0958 42.1496 14.2836C42.1789 14.29 42.2054 14.3052 42.2258 14.327C42.2462 14.3489 42.2593 14.3764 42.2636 14.4059C42.2679 14.4354 42.263 14.4655 42.2497 14.4921C42.2363 14.5188 42.2151 14.5408 42.1889 14.5552C41.8425 14.7451 41.3039 15.0209 41.0515 15.0516C41.0515 15.0516 41.5718 15.5878 41.0192 15.874C40.953 15.9064 40.879 15.9199 40.8056 15.9129C40.7322 15.9058 40.6621 15.8786 40.6034 15.8342C40.3376 15.6408 39.5985 16.0793 38.5283 16.3076C38.5283 16.3076 35.5073 19.42 34.0087 19.9017C33.9742 19.9698 33.9361 20.0359 33.8944 20.1L33.8019 20.0923L33.797 20.1H33.7843L33.7731 20.1977C33.7731 20.1977 31.4415 20.0755 30.6876 19.2329C30.6337 19.185 30.5842 19.1324 30.5396 19.0758L31.3503 29.2326H31.3426L31.3503 29.3289H30.7542C30.7023 30.5793 30.7558 31.8317 30.9141 33.0731V39.6917C30.9141 39.6917 30.945 40.2747 29.7297 41.1229C28.455 42.0061 27.2267 42.9539 26.0495 43.9623L25.9022 44.0894C26.1259 46.1141 26.5937 49.8897 26.9836 50.0307L26.743 50.0726C27.1575 50.5927 28.3251 52.0198 28.682 52.0596C29.1189 52.1077 29.4099 52.7843 28.682 52.9295C28.0102 53.0635 26.2641 53.2381 24.3588 52.505C24.2211 52.4517 24.1053 52.3539 24.03 52.2273C23.9547 52.1008 23.9243 51.9527 23.9436 51.8068L24.0839 50.7401C24.0571 50.7549 24.0356 50.7776 24.0222 50.805C23.9254 51.0947 24.0222 50.4182 24.0222 50.4182C23.6231 49.1408 23.3097 47.8384 23.0839 46.5197L21.64 47.7575C21.64 47.7575 21.6105 47.7219 21.5608 47.6577C21.2101 48.4564 20.579 50.088 20.7193 51.2846C20.9135 52.9274 19.0692 51.478 19.2634 50.5118C19.4205 49.7298 18.72 46.4178 18.4465 45.182C18.4172 45.0494 18.4382 44.9107 18.5054 44.7926C18.5726 44.6744 18.6812 44.5851 18.8104 44.5418Z" fill="url(#paint1_linear_1_724)"/>
<path d="M33.8783 17.7367C33.8783 17.7367 35.2528 17.5007 37.2899 15.661C38.9028 14.2054 41.0767 14.4923 41.9182 14.6752C41.948 14.6797 41.9756 14.6936 41.9968 14.7148C42.0181 14.7361 42.0319 14.7636 42.0362 14.7933C42.0406 14.823 42.0352 14.8532 42.0209 14.8796C42.0065 14.906 41.9841 14.9271 41.9568 14.9398C41.6181 15.1249 41.0921 15.3943 40.846 15.4251C40.846 15.4251 41.3537 15.9487 40.8144 16.2286C40.7498 16.2602 40.6776 16.2733 40.6059 16.2664C40.5342 16.2595 40.4658 16.2329 40.4084 16.1895C40.1489 16.001 39.4267 16.429 38.3825 16.6517C38.3825 16.6517 34.3075 20.8505 33.3601 20.1425L33.8783 17.7367Z" fill="#FEC3BE"/>
<path d="M26.8651 12.0313C26.8651 12.0313 26.4857 13.6371 26.8651 14.7674L25.1589 15.0034L23.6435 14.2459V13.258C23.6435 13.258 24.3546 11.7486 24.1645 10.0032L26.8651 12.0313Z" fill="#FEC3BE"/>
<path d="M22.032 46.7998C22.032 46.7998 20.7985 49.2056 20.9899 50.8093C21.1814 52.413 19.3771 50.9978 19.5685 50.0546C19.7221 49.2915 19.0376 46.0569 18.7712 44.8505C18.7418 44.7201 18.7624 44.5835 18.8288 44.4673C18.8951 44.3511 19.0026 44.2637 19.1302 44.2222C19.7003 44.0358 20.6533 43.8033 21.133 44.1565C21.8427 44.6767 22.032 46.7998 22.032 46.7998Z" fill="#5A5773"/>
<path d="M26.7234 49.4408C26.7234 49.4408 28.3363 51.5164 28.7613 51.5639C29.1862 51.6114 29.4723 52.2718 28.7613 52.4129C28.1056 52.5434 26.4001 52.7145 24.5397 51.9982C24.405 51.946 24.2919 51.8504 24.2184 51.7266C24.1449 51.6028 24.1153 51.4579 24.1344 51.3154L24.4016 49.2991L26.7234 49.4408Z" fill="#5A5773"/>
<path d="M29.377 27.4104L30.9197 27.6157C30.9197 27.6157 30.5593 30.1933 30.938 33.0243V39.4871C30.938 39.4871 30.9681 40.0561 29.7816 40.8835C28.537 41.7459 27.3377 42.6712 26.1884 43.6559L21.8883 47.3645C21.8883 47.3645 20.1821 45.2888 20.4191 44.0622C20.4191 44.0622 23.262 43.1657 23.6414 41.7031C23.8588 40.8653 24.9612 40.1672 25.8637 39.7238C27.0264 39.152 27.6603 37.8528 27.3419 36.6017C27.2893 36.3894 27.2079 36.1853 27.1 35.995C26.3419 34.674 25.2522 31.702 25.2522 31.702L27.337 27.7392L29.377 27.4104Z" fill="#605D82"/>
<path opacity="0.05" d="M29.384 27.4104L30.9267 27.6157C30.9267 27.6157 30.5663 30.1933 30.945 33.0243V39.4871C30.945 39.4871 30.9751 40.0561 29.7886 40.8835C28.545 41.7464 27.3466 42.6722 26.1982 43.6573L21.8981 47.3659C21.8981 47.3659 20.1919 45.2902 20.4289 44.0636C20.4289 44.0636 23.2718 43.1671 23.6512 41.7045C23.8686 40.8667 24.971 40.1686 25.8735 39.7252C27.0362 39.1534 27.6701 37.8542 27.3517 36.6031C27.2991 36.3908 27.2177 36.1867 27.1098 35.9964C26.3517 34.6754 25.262 31.7034 25.262 31.7034L27.3468 27.7406L29.384 27.4104Z" fill="black"/>
<path d="M27.1021 49.5824C27.1021 49.5824 24.3048 50.0544 24.2115 50.3406C24.1182 50.6269 24.2115 49.9629 24.2115 49.9629C24.2115 49.9629 22.5986 45.1037 22.9794 40.8108C23.3602 36.5178 22.5054 33.6895 22.5054 33.6895C22.5054 33.6895 21.5103 30.4815 22.079 28.6419C22.6477 26.8022 28.6182 27.6037 28.6182 27.6037C28.6182 27.6037 26.5334 32.458 26.5811 34.7717C26.5811 34.7717 26.344 41.7533 25.9177 42.5555C25.9177 42.5534 26.5811 49.3939 27.1021 49.5824Z" fill="#605D82"/>
<path d="M26.7704 13.2581C26.7704 13.2581 26.4864 15.0035 23.6428 14.2487L25.5362 28.5896C25.5362 28.5896 31.0326 28.7781 30.9856 28.1177L29.8503 19.4382L26.7704 13.2581Z" fill="#40B7FF"/>
<path opacity="0.1" d="M26.6996 13.1638C26.6996 13.1638 27.2381 13.7391 28.0684 13.811C28.5401 13.8473 28.9986 13.9832 29.4134 14.2097C29.9043 14.4812 30.4394 14.8764 30.6056 15.3581C30.9373 16.3013 33.0221 17.8582 33.9716 17.528L33.6399 20.3583C33.6399 20.3583 30.9394 20.2187 30.4653 19.1792L31.2711 29.2745H30.5614C30.5614 29.2745 30.182 26.5384 29.898 25.9722C29.614 25.406 29.0453 22.2929 28.9976 21.5375C28.9499 20.7821 28.2395 16.441 27.6231 15.6877L26.6989 13.4466L26.6996 13.1638Z" fill="black"/>
<path opacity="0.1" d="M26.6996 13.3054C26.6996 13.3054 27.3307 13.8339 28.1631 13.9051C28.6348 13.9414 29.0933 14.0773 29.5081 14.3038C29.999 14.5754 30.534 14.9705 30.7002 15.4523C31.0319 16.3955 33.1168 17.9524 34.0663 17.6221L33.7346 20.4525C33.7346 20.4525 31.034 20.3128 30.56 19.2733L31.3664 29.368H30.6561C30.6561 29.368 30.2767 26.6319 29.9927 26.0657C29.7087 25.4995 29.1399 22.3864 29.0923 21.631C29.0446 20.8756 28.3342 16.5344 27.7178 15.7811L26.6989 13.5875L26.6996 13.3054Z" fill="black"/>
<path d="M26.6996 13.2112C26.6996 13.2112 27.3307 13.7397 28.1631 13.8109C28.6348 13.8472 29.0933 13.9831 29.5081 14.2095C29.999 14.4811 30.534 14.8763 30.7002 15.358C31.0319 16.3012 33.1168 17.8581 34.0663 17.5279L33.7346 20.3582C33.7346 20.3582 31.034 20.2186 30.56 19.179L31.3657 29.2744H30.6561C30.6561 29.2744 30.2767 26.5383 29.9927 25.9721C29.7087 25.4059 29.1399 22.2928 29.0923 21.5374C29.0446 20.782 28.3342 16.4409 27.7178 15.6876L26.6989 13.4939L26.6996 13.2112Z" fill="#67647E"/>
<path opacity="0.1" d="M24.283 11.3947C24.3447 10.9479 24.2213 10.6686 24.1645 10.1443L26.8651 12.1731C26.8651 12.1731 26.8005 12.4475 26.7515 12.8483C26.6167 12.8699 26.4805 12.8809 26.344 12.8811C25.4015 12.8811 24.7255 12.1515 24.283 11.3947Z" fill="black"/>
<path d="M26.344 12.7399C27.7573 12.7399 28.9029 11.5993 28.9029 10.1924C28.9029 8.78537 27.7573 7.64478 26.344 7.64478C24.9308 7.64478 23.7851 8.78537 23.7851 10.1924C23.7851 11.5993 24.9308 12.7399 26.344 12.7399Z" fill="#FEC3BE"/>
<path opacity="0.1" d="M29.1364 7.69499C29.1515 7.26494 29.08 6.83623 28.9261 6.43412C28.9676 6.49713 28.985 6.57291 28.9751 6.64763C28.9652 6.72235 28.9286 6.79103 28.8721 6.84115C28.7902 6.40323 28.565 6.00458 28.2318 5.70734C28.4141 5.73666 28.5074 5.96216 28.4632 6.14089C28.419 6.31962 28.2802 6.45716 28.147 6.58422C28.1624 6.31403 27.9836 6.0627 27.7564 5.91399C27.5292 5.76528 27.2585 5.70454 26.9941 5.63892C27.086 5.67141 27.1645 5.73327 27.2174 5.81486C27.2703 5.89644 27.2946 5.99316 27.2865 6.08993C27.2859 6.12283 27.2723 6.15416 27.2486 6.1772C27.223 6.19371 27.1929 6.20177 27.1624 6.20024C26.8954 6.21072 26.6279 6.20512 26.3616 6.18348C26.0342 6.14678 25.705 6.1293 25.3756 6.13112C24.3405 6.1744 23.3097 6.87466 23.079 7.87651C23.0313 8.11898 23.0061 8.36531 23.004 8.61237L22.9535 9.87464C22.9387 10.2433 22.924 10.6168 22.9983 10.9784C23.0692 11.3159 23.2141 11.6337 23.4227 11.9089C23.6314 12.1841 23.8986 12.4099 24.2052 12.5702C24.5769 12.034 24.6098 11.345 24.7389 10.7062C24.7589 10.5581 24.8139 10.4169 24.8994 10.2942C24.9927 10.1783 25.1568 10.105 25.2957 10.1602C25.4345 10.2153 25.4948 10.4269 25.3791 10.5211C25.4787 10.6419 25.675 10.5519 25.7893 10.4443C26.1146 10.1374 26.3386 9.73932 26.4317 9.30285C26.478 9.08293 26.5243 8.81414 26.7374 8.73804C26.8121 8.71761 26.8901 8.71239 26.9667 8.72268C27.4177 8.7534 28.1231 8.93911 28.5607 8.79669C28.9681 8.66055 29.1364 8.0734 29.1364 7.69499Z" fill="black"/>
<path d="M29.0894 7.64756C29.1045 7.21751 29.033 6.78879 28.8791 6.38669C28.9206 6.4497 28.938 6.52548 28.9281 6.6002C28.9182 6.67492 28.8816 6.7436 28.8251 6.79371C28.7435 6.35529 28.5183 5.95611 28.1848 5.65851C28.3672 5.68783 28.4604 5.91334 28.4162 6.09206C28.3721 6.27079 28.2332 6.40833 28.1 6.53539C28.1154 6.26521 27.9366 6.01387 27.7094 5.86516C27.4822 5.71645 27.2115 5.65571 26.9471 5.59009C27.039 5.62258 27.1176 5.68445 27.1704 5.76603C27.2233 5.84761 27.2476 5.94433 27.2395 6.0411C27.2389 6.074 27.2253 6.10534 27.2017 6.12837C27.1761 6.14488 27.1459 6.15294 27.1154 6.15141C26.8484 6.16189 26.5809 6.1563 26.3146 6.13465C25.9872 6.09795 25.658 6.08047 25.3286 6.08229C24.2936 6.12558 23.2627 6.82583 23.032 7.82769C22.9843 8.07015 22.9592 8.31648 22.957 8.56354L22.9065 9.82582C22.8918 10.1944 22.877 10.568 22.9514 10.9296C23.0228 11.2664 23.1679 11.5833 23.3766 11.8577C23.5852 12.1321 23.8521 12.3573 24.1582 12.5172C24.5299 11.981 24.5628 11.2919 24.6919 10.6531C24.7119 10.5051 24.7669 10.3639 24.8525 10.2412C24.9457 10.1253 25.1098 10.052 25.2487 10.1072C25.3875 10.1623 25.4478 10.3739 25.3321 10.4681C25.4317 10.5889 25.6281 10.4988 25.7424 10.3913C26.0676 10.0844 26.2916 9.68631 26.3847 9.24984C26.431 9.02992 26.4773 8.76112 26.6905 8.68502C26.7651 8.66459 26.8431 8.65937 26.9198 8.66967C27.3707 8.70038 28.0761 8.88609 28.5137 8.74367C28.9204 8.61661 29.0894 8.02666 29.0894 7.64756Z" fill="#916168"/>
<path opacity="0.1" d="M34.1862 17.5273C34.1862 17.5273 34.5656 19.2727 33.8545 20.3577L33.452 20.3249L33.6715 17.5567L34.1862 17.5273Z" fill="black"/>
<path d="M34.0915 17.5273C34.0915 17.5273 34.4709 19.2727 33.7598 20.3577L33.3573 20.3249L33.5768 17.5567L34.0915 17.5273Z" fill="#FD6F8D"/>
<path opacity="0.1" d="M23.9037 12.7629L20.8476 15.381C20.8476 15.381 19.0454 17.2207 19.8048 20.1927C19.8048 20.1927 20.1365 24.5325 20.5159 24.7217C20.5159 24.7217 21.8427 27.3635 21.9373 29.8636C21.9373 29.8636 23.7143 26.303 24.5201 28.4722C25.3258 30.6414 27.1974 30.9486 27.1974 30.9486L26.1547 18.1171C26.1547 18.1171 23.525 13.5644 23.9037 12.7629Z" fill="black"/>
<path d="M23.809 12.7629L20.7529 15.381C20.7529 15.381 18.9521 17.2207 19.7102 20.1927C19.7102 20.1927 20.0418 24.5325 20.4212 24.7217C20.4212 24.7217 21.748 27.3635 21.8427 29.8636C21.8427 29.8636 23.7143 26.1131 24.5201 28.283C25.3258 30.4529 27.1028 30.9486 27.1028 30.9486L26.0579 18.1171C26.0579 18.1171 23.4296 13.5644 23.809 12.7629Z" fill="#67647E"/>
<path d="M22.4114 23.8252C22.4114 23.8252 21.6533 23.3065 20.4212 24.7217L23.4534 30.1938L24.4724 28.6579C24.4724 28.6579 22.3167 24.4389 22.4114 23.8252Z" fill="#FEC3BE"/>
<path opacity="0.1" d="M23.1456 24.1318C23.1456 24.1318 21.4689 26.007 20.8146 25.7061L20.2087 24.2993L22.4815 23.3296L23.1456 24.1318Z" fill="black"/>
<path d="M23.1456 24.0375C23.1456 24.0375 21.4689 25.9128 20.8146 25.6119L20.2087 24.2079L22.4815 23.2354L23.1456 24.0375Z" fill="#FD6F8D"/>
<path opacity="0.1" d="M24.37 28.3054C24.37 28.3054 23.572 29.9342 23.1456 30.0292L23.7613 30.7371L24.6617 29.0385L24.37 28.3054Z" fill="black"/>
<path d="M24.4177 28.3523C24.4177 28.3523 23.6196 29.9811 23.1933 30.076L23.809 30.784L24.7094 29.0854L24.4177 28.3523Z" fill="#4D4981"/>
<path opacity="0.1" d="M22.9086 18.282C22.9086 18.282 22.8139 21.6785 23.1926 22.952L22.9086 18.282Z" fill="black"/>
<path opacity="0.1" d="M30.5852 18.9424C30.5852 18.9424 30.0165 18.7539 30.0165 18.282L30.5852 18.9424Z" fill="black"/>
<path d="M42.0406 15.462L38.0662 14.8225L38.0204 15.1051L41.9947 15.7445L42.0406 15.462Z" fill="#40414D"/>
<path d="M43.3446 15.8126C43.3446 15.8126 42.9329 16.0918 42.5374 16.1421C42.4651 16.1524 42.3917 16.1524 42.3193 16.1421C41.9568 16.0842 41.7689 15.9075 41.7345 15.7002C41.721 15.6046 41.7369 15.5073 41.7801 15.4209C41.8783 15.2345 42.1125 15.1263 42.475 15.1849C42.5857 15.2059 42.6913 15.2476 42.7864 15.3078C42.9993 15.444 43.188 15.6146 43.3446 15.8126Z" fill="#40414D"/>
<path d="M43.3446 15.8126C43.3446 15.8126 42.9329 16.0919 42.5374 16.1421C42.5252 16.0987 42.5281 16.0524 42.5458 16.0109C42.5842 15.9518 42.6288 15.897 42.6791 15.8475C42.7205 15.7903 42.7317 15.6953 42.6707 15.6604C42.6562 15.6543 42.6423 15.6468 42.6293 15.6381C42.5928 15.6052 42.6293 15.5466 42.6601 15.5117C42.7191 15.4524 42.7864 15.3818 42.7857 15.3022C42.9993 15.4401 43.1882 15.6126 43.3446 15.8126Z" fill="#F8BDC5"/>
</g>
<defs>
<linearGradient id="paint0_linear_1_724" x1="45.4701" y1="53.4015" x2="45.4701" y2="9.34768" gradientUnits="userSpaceOnUse">
<stop stop-color="#808080" stop-opacity="0.25"/>
<stop offset="0.54" stop-color="#808080" stop-opacity="0.12"/>
<stop offset="1" stop-color="#808080" stop-opacity="0.1"/>
</linearGradient>
<linearGradient id="paint1_linear_1_724" x1="30.3461" y1="53.0489" x2="30.3461" y2="4.97925" gradientUnits="userSpaceOnUse">
<stop stop-color="#808080" stop-opacity="0.25"/>
<stop offset="0.54" stop-color="#808080" stop-opacity="0.12"/>
<stop offset="1" stop-color="#808080" stop-opacity="0.1"/>
</linearGradient>
<clipPath id="clip0_1_724">
<rect width="65.2371" height="56" fill="white" transform="translate(0.381439)"/>
</clipPath>
</defs>
</svg>
