<svg width="54" height="56" viewBox="0 0 54 56" fill="none" xmlns="http://www.w3.org/2000/svg">
<g clip-path="url(#clip0_1_368)">
<path d="M12.2168 22.6796C9.75895 20.26 8.72086 17.7358 9.2937 15.572C10.0288 12.7951 13.2947 10.8752 18.2538 10.3044L18.2721 10.4637C13.382 11.0265 10.166 12.9033 9.44868 15.613C8.89118 17.7188 9.9142 20.1879 12.3293 22.5654L12.2168 22.6796Z" fill="#0AA79F"/>
<path d="M35.931 31.2683C32.8634 31.2683 29.53 30.8125 26.2189 29.9359C22.1243 28.8519 18.37 27.2158 15.3619 25.2043L15.451 25.071C18.4446 27.0728 22.1823 28.7015 26.2599 29.7809C29.9448 30.7565 33.6573 31.2085 36.9948 31.0893L37.0006 31.2494C36.6481 31.2621 36.2916 31.2684 35.931 31.2683Z" fill="#0AA79F"/>
<path d="M42.9684 30.2603L42.917 30.1084C45.6605 29.1808 47.3765 27.6866 47.8794 25.7871C48.5186 23.3723 47.1299 20.5702 43.9688 17.8968C40.7917 15.2099 36.2102 12.9804 31.0681 11.6191L31.1091 11.4641C36.2737 12.8314 40.8775 15.0724 44.0723 17.7744C47.2833 20.49 48.6904 23.3502 48.0344 25.8281C47.5171 27.7821 45.7653 29.3147 42.9684 30.2603Z" fill="#0AA79F"/>
<path d="M17.7765 31.3354C11.7489 28.6621 7.10422 25.1938 4.69806 21.5694L4.83159 21.4807C7.22112 25.0801 11.8414 28.5278 17.8415 31.1889L17.7765 31.3354Z" fill="#0AA79F"/>
<path d="M38.969 35.9666C38.3473 35.9666 37.7149 35.9528 37.072 35.925L37.0788 35.7649C41.877 35.9726 46.1105 35.3984 49.3225 34.104L49.3824 34.2527C46.5805 35.3817 43.0093 35.9666 38.969 35.9666Z" fill="#0AA79F"/>
<path d="M35.4717 10.4482C34.4754 10.1238 33.4507 9.82183 32.426 9.55054C26.529 7.98941 20.7322 7.43512 15.6621 7.94792L15.6459 7.7884C20.735 7.27392 26.5516 7.82954 32.467 9.39556C33.4946 9.66764 34.5223 9.97051 35.5213 10.2958L35.4717 10.4482Z" fill="#0AA79F"/>
<path d="M8.44971 22.9201C5.99186 20.5005 4.95377 17.9763 5.52661 15.8124C6.26174 13.0356 9.52756 11.1157 14.4867 10.5449L14.505 10.7042C9.61491 11.267 6.39891 13.1438 5.68159 15.8534C5.12409 17.9593 6.14711 20.4284 8.56219 22.8059L8.44971 22.9201Z" fill="#0AA79F"/>
<path d="M32.1639 31.5088C29.0963 31.5088 25.7629 31.053 22.4518 30.1764C18.3572 29.0924 14.603 27.4563 11.5948 25.4447L11.6839 25.3115C14.6776 27.3133 18.4152 28.942 22.4928 30.0214C26.1777 30.997 29.8902 31.449 33.2277 31.3297L33.2335 31.4899C32.881 31.5026 32.5245 31.5089 32.1639 31.5088Z" fill="#0AA79F"/>
<path d="M39.2013 30.5008L39.1499 30.3489C41.8934 29.4213 43.6094 27.9271 44.1123 26.0276C44.7515 23.6128 43.3628 20.8107 40.2018 18.1373C37.0246 15.4503 32.4431 13.2208 27.301 11.8596L27.342 11.7046C32.5066 13.0718 37.1104 15.3129 40.3052 18.0149C43.5162 20.7305 44.9233 23.5907 44.2673 26.0686C43.75 28.0226 41.9982 29.5552 39.2013 30.5008Z" fill="#0AA79F"/>
<path d="M14.0094 31.5759C7.98183 28.9026 3.33713 25.4343 0.930969 21.8099L1.0645 21.7212C3.45403 25.3205 8.07435 28.7683 14.0744 31.4293L14.0094 31.5759Z" fill="#0AA79F"/>
<path d="M35.2019 36.2071C34.5802 36.2071 33.9478 36.1932 33.3049 36.1655L33.3118 36.0053C38.1099 36.2131 42.3434 35.6389 45.5554 34.3445L45.6153 34.4932C42.8134 35.6222 39.2422 36.2071 35.2019 36.2071Z" fill="#0AA79F"/>
<path d="M31.7046 10.6887C30.7084 10.3643 29.6836 10.0623 28.6589 9.79102C22.7619 8.22988 16.9651 7.6756 11.895 8.1884L11.8788 8.02888C16.9679 7.5144 22.7845 8.07001 28.6999 9.63604C29.7275 9.90812 30.7552 10.211 31.7542 10.5363L31.7046 10.6887Z" fill="#0AA79F"/>
<path d="M32.7014 25.1178L34.064 24.9575L34.5449 29.1253L35.7727 34.8808C35.9435 34.964 36.0828 35.1001 36.17 35.2689C36.2571 35.4377 36.2874 35.6301 36.2564 35.8175C36.2253 36.0049 36.1346 36.1772 35.9977 36.3089C35.8608 36.4406 35.685 36.5245 35.4965 36.5482C35.3081 36.5719 35.117 36.5341 34.9517 36.4404C34.7865 36.3467 34.6559 36.2022 34.5795 36.0283C34.503 35.8544 34.4848 35.6605 34.5274 35.4754C34.5701 35.2903 34.6714 35.1239 34.8163 35.001L33.5831 31.61L32.7014 25.1178Z" fill="#FFB6B6"/>
<path d="M30.722 54.8306H31.8446L32.3787 50.5005H30.7219L30.722 54.8306Z" fill="#FFB6B6"/>
<path d="M30.4357 55.9185H34.0555V55.8728C34.0555 55.4991 33.907 55.1408 33.6428 54.8766C33.3786 54.6124 33.0203 54.4639 32.6467 54.4639H30.4357V55.9185Z" fill="#2F2E41"/>
<path d="M22.1067 54.2183L23.2089 54.4311L24.5545 50.2809L22.9274 49.9668L22.1067 54.2183Z" fill="#FFB6B6"/>
<path d="M21.6195 55.2326L25.1736 55.9189L25.1823 55.8739C25.2531 55.507 25.1753 55.127 24.966 54.8175C24.7567 54.508 24.433 54.2943 24.0661 54.2234L21.8954 53.8042L21.6195 55.2326Z" fill="#2F2E41"/>
<path d="M32.4823 18.2878L31.83 19.5393L26.9448 18.4618L27.4799 16.0354C27.9035 14.1149 29.6017 12.7279 31.5222 13.1515C33.4428 13.5751 34.3389 15.4522 33.9153 17.3728L33.1281 19.8254L32.3315 19.6497L32.4823 18.2878Z" fill="#2F2E41"/>
<path d="M34.2243 32.0909C34.2243 32.0909 34.7052 34.4954 34.064 38.0221C33.4228 41.5487 33.2625 43.0716 33.2625 43.0716C33.2625 43.0716 33.7434 43.6326 33.4228 43.9532C33.1022 44.2738 33.4228 44.915 33.4228 44.915L32.7015 52.6896L30.2168 52.2889L30.5374 44.9952C30.5374 44.9952 30.2168 44.354 30.3771 44.1937C30.5374 44.0334 30.2168 43.0716 30.2168 43.0716L29.8161 35.4573L27.3314 43.7929C27.3314 43.7929 27.5718 44.1135 27.3314 44.354C27.0909 44.5944 26.61 45.7967 26.61 45.7967L25.007 51.4072L22.4422 50.9263L23.8849 44.5143C23.8849 44.5143 23.7246 44.1135 23.9651 43.8731C24.0352 43.7995 24.0864 43.71 24.1143 43.6123C24.1423 43.5146 24.146 43.4115 24.1254 43.312C24.1254 43.312 23.8849 43.0716 24.2055 42.751C24.5261 42.4304 24.6864 41.1479 24.6864 41.1479C24.6864 41.1479 24.9269 32.5718 25.7284 32.0909C26.5299 31.61 34.2243 32.0909 34.2243 32.0909Z" fill="#2F2E41"/>
<path d="M30.6001 18.829C31.8396 18.829 32.8443 17.8242 32.8443 16.5848C32.8443 15.3453 31.8396 14.3406 30.6001 14.3406C29.3607 14.3406 28.3559 15.3453 28.3559 16.5848C28.3559 17.8242 29.3607 18.829 30.6001 18.829Z" fill="#FFB6B6"/>
<path d="M27.4374 19.4575C27.4374 19.4575 25.8084 19.2667 25.3275 19.7476L25.8084 29.4458C25.8084 29.4458 25.4878 29.6863 25.6481 30.2473C25.7412 30.6156 25.7412 31.0012 25.6481 31.3694C25.6481 31.3694 25.1672 31.9305 25.4077 32.1709C25.6481 32.4114 34.3044 32.2511 34.3044 32.2511C34.3044 32.2511 34.625 31.69 34.1441 31.3694C33.6632 31.0488 33.9036 30.1672 33.9036 30.1672C33.9036 30.1672 34.0639 29.9267 33.6632 29.526C33.2624 29.1252 32.9418 25.839 32.9418 25.839L33.9838 21.8315C33.9838 21.8315 32.9349 20.6476 31.7361 20.5583L27.4374 19.4575Z" fill="#0AA79F"/>
<path d="M32.7419 21.8867L33.9837 21.8315C33.9837 21.8315 34.705 23.2743 34.7852 24.5567L35.2266 29.3407L32.3807 29.7664L32.7419 21.8867Z" fill="#0AA79F"/>
<path d="M32.5228 16.6961L33.3564 15.6235C33.4056 15.3977 33.3633 15.1616 33.239 14.9669C33.1146 14.7721 32.9181 14.6345 32.6926 14.5841L29.5433 13.8894C29.3175 13.8402 29.0814 13.8825 28.8866 14.0069C28.6918 14.1312 28.5542 14.3277 28.5038 14.5532L28.502 14.5612L28.7276 15.8564L28.7672 15.8493C30.7216 15.5008 31.2784 15.6235 32.4909 16.6689L32.5228 16.6961Z" fill="#2F2E41"/>
<path d="M24.1353 33.8334L24.2856 27.5224L24.4459 23.0339L26.3695 23.2744L25.3364 34.0021C25.4451 34.1385 25.5108 34.3041 25.5254 34.4778C25.5399 34.6516 25.5026 34.8258 25.4182 34.9784C25.3338 35.1309 25.206 35.255 25.051 35.335C24.896 35.4149 24.7208 35.4471 24.5476 35.4275C24.3743 35.4079 24.2107 35.3373 24.0776 35.2247C23.9444 35.1122 23.8476 34.9626 23.7995 34.795C23.7513 34.6274 23.7539 34.4493 23.8069 34.2832C23.86 34.1171 23.9611 33.9705 24.0975 33.8618C24.1098 33.852 24.1224 33.8425 24.1353 33.8333V33.8334Z" fill="#FFB6B6"/>
<path d="M26.7307 19.8829L25.3275 19.7476C25.3275 19.7476 25.087 19.7476 24.8466 20.5491C24.6061 21.3506 23.2843 29.8215 23.2843 29.8215L26.2092 30.087L26.7307 19.8829Z" fill="#0AA79F"/>
<path d="M13.4478 8.8593C15.4618 8.8593 17.0945 7.22662 17.0945 5.21261C17.0945 3.1986 15.4618 1.56592 13.4478 1.56592C11.4338 1.56592 9.80109 3.1986 9.80109 5.21261C9.80109 7.22662 11.4338 8.8593 13.4478 8.8593Z" fill="black"/>
<path d="M14.3031 7.45369C13.566 7.45369 12.8455 7.23512 12.2326 6.82561C11.6197 6.4161 11.1421 5.83404 10.86 5.15305C10.5779 4.47206 10.5041 3.72271 10.6479 2.99978C10.7917 2.27684 11.1467 1.61278 11.6679 1.09157C12.1891 0.57036 12.8531 0.215413 13.5761 0.0716118C14.299 -0.0721893 15.0484 0.00161509 15.7293 0.283692C16.4103 0.565768 16.9924 1.04345 17.4019 1.65633C17.8114 2.2692 18.03 2.98975 18.03 3.72685C18.0289 4.71493 17.6359 5.66222 16.9372 6.36089C16.2385 7.05957 15.2912 7.45258 14.3031 7.45369ZM14.3031 0.160303C13.5978 0.160302 12.9082 0.369475 12.3217 0.761372C11.7352 1.15327 11.278 1.71029 11.0081 2.36199C10.7381 3.01369 10.6675 3.7308 10.8051 4.42264C10.9427 5.11449 11.2824 5.74998 11.7812 6.24877C12.28 6.74756 12.9155 7.08724 13.6073 7.22486C14.2992 7.36248 15.0163 7.29185 15.668 7.0219C16.3197 6.75196 16.8767 6.29483 17.2686 5.70831C17.6605 5.1218 17.8697 4.43224 17.8697 3.72685C17.8686 2.78127 17.4925 1.87473 16.8239 1.20611C16.1553 0.537481 15.2487 0.161376 14.3031 0.160303Z" fill="#3F3D56"/>
<path d="M47.0039 20.7321C48.387 20.7321 49.5081 19.6109 49.5081 18.2279C49.5081 16.8448 48.387 15.7236 47.0039 15.7236C45.6209 15.7236 44.4997 16.8448 44.4997 18.2279C44.4997 19.6109 45.6209 20.7321 47.0039 20.7321Z" fill="black"/>
<path d="M47.5913 19.7921C47.0802 19.7921 46.5805 19.6405 46.1555 19.3565C45.7305 19.0725 45.3993 18.6689 45.2037 18.1967C45.0081 17.7244 44.9569 17.2048 45.0566 16.7035C45.1563 16.2022 45.4025 15.7417 45.7639 15.3802C46.1253 15.0188 46.5858 14.7727 47.0872 14.673C47.5885 14.5732 48.1081 14.6244 48.5803 14.82C49.0526 15.0156 49.4562 15.3469 49.7402 15.7719C50.0242 16.1969 50.1757 16.6965 50.1757 17.2077C50.175 17.8929 49.9024 18.5498 49.4179 19.0343C48.9334 19.5188 48.2765 19.7913 47.5913 19.7921ZM47.5913 14.7836C47.1119 14.7836 46.6432 14.9258 46.2446 15.1921C45.846 15.4585 45.5353 15.8371 45.3518 16.28C45.1683 16.723 45.1203 17.2104 45.2138 17.6806C45.3074 18.1508 45.5382 18.5828 45.8773 18.9218C46.2163 19.2608 46.6482 19.4917 47.1184 19.5852C47.5887 19.6787 48.0761 19.6307 48.519 19.4472C48.9619 19.2638 49.3405 18.9531 49.6069 18.5544C49.8733 18.1558 50.0154 17.6871 50.0154 17.2077C50.0147 16.565 49.7591 15.9488 49.3046 15.4944C48.8502 15.0399 48.234 14.7843 47.5913 14.7836Z" fill="#3F3D56"/>
<path d="M8.53443 30.4069C10.5226 30.4069 12.1342 28.7952 12.1342 26.8071C12.1342 24.819 10.5226 23.2073 8.53443 23.2073C6.54632 23.2073 4.93463 24.819 4.93463 26.8071C4.93463 28.7952 6.54632 30.4069 8.53443 30.4069Z" fill="#E4E4E4"/>
<path d="M9.37884 29.0205C8.65101 29.0205 7.93954 28.8047 7.33437 28.4003C6.72921 27.996 6.25755 27.4212 5.97903 26.7488C5.7005 26.0764 5.62763 25.3365 5.76963 24.6226C5.91162 23.9088 6.26211 23.2531 6.77676 22.7385C7.29141 22.2238 7.94711 21.8733 8.66095 21.7314C9.37479 21.5894 10.1147 21.6622 10.7871 21.9408C11.4595 22.2193 12.0343 22.691 12.4386 23.2961C12.843 23.9013 13.0588 24.6128 13.0588 25.3406C13.0577 26.3163 12.6696 27.2516 11.9797 27.9415C11.2899 28.6314 10.3545 29.0194 9.37884 29.0205ZM9.37884 21.8209C8.68272 21.821 8.00224 22.0274 7.42344 22.4141C6.84464 22.8009 6.39352 23.3506 6.12713 23.9937C5.86074 24.6368 5.79104 25.3445 5.92684 26.0272C6.06265 26.71 6.39787 27.3371 6.89009 27.8293C7.38232 28.3216 8.00946 28.6568 8.6922 28.7926C9.37494 28.9284 10.0826 28.8587 10.7258 28.5923C11.3689 28.3259 11.9186 27.8748 12.3053 27.296C12.6921 26.7172 12.8985 26.0367 12.8985 25.3406C12.8974 24.4075 12.5263 23.5128 11.8664 22.853C11.2066 22.1932 10.312 21.822 9.37884 21.8209Z" fill="#2F2E41"/>
<path d="M6.36124 14.2944C6.71536 14.2944 7.00244 14.0073 7.00244 13.6532C7.00244 13.299 6.71536 13.012 6.36124 13.012C6.00711 13.012 5.72003 13.299 5.72003 13.6532C5.72003 14.0073 6.00711 14.2944 6.36124 14.2944Z" fill="#0AA79F"/>
<path d="M39.3031 11.0883C39.6573 11.0883 39.9443 10.8012 39.9443 10.4471C39.9443 10.093 39.6573 9.80591 39.3031 9.80591C38.949 9.80591 38.6619 10.093 38.6619 10.4471C38.6619 10.8012 38.949 11.0883 39.3031 11.0883Z" fill="#FD6584"/>
<path d="M43.5511 33.851C43.9052 33.851 44.1923 33.5639 44.1923 33.2098C44.1923 32.8557 43.9052 32.5686 43.5511 32.5686C43.197 32.5686 42.9099 32.8557 42.9099 33.2098C42.9099 33.5639 43.197 33.851 43.5511 33.851Z" fill="#0AA79F"/>
<path d="M14.8354 16.1618L14.8598 16.0033L17.9915 16.4838C17.6723 16.1757 16.6154 15.2229 15.6569 15.1263C14.5118 15.0109 14.008 15.501 13.9414 16.1617C13.8748 16.8223 14.2707 17.4032 15.4158 17.5187C16.3864 17.6165 17.6313 16.874 17.9882 16.6455L14.8354 16.1618Z" fill="#0AA79F"/>
<path d="M44.8028 7.67265L44.7062 7.5447L47.2345 5.63525C46.7911 5.64913 45.3712 5.74214 44.6335 6.36174C43.7522 7.10195 43.7522 7.80489 44.1792 8.31333C44.6063 8.82178 45.2986 8.94319 46.18 8.20298C46.927 7.57553 47.263 6.16551 47.3481 5.75033L44.8028 7.67265Z" fill="#0AA79F"/>
<path d="M38.833 26.0542L38.7635 25.9621L40.5825 24.5884C40.2635 24.5984 39.2419 24.6653 38.7112 25.111C38.0772 25.6436 38.0772 26.1493 38.3844 26.5151C38.6916 26.8809 39.1897 26.9682 39.8238 26.4357C40.3613 25.9843 40.603 24.9699 40.6642 24.6712L38.833 26.0542Z" fill="#0AA79F"/>
<path d="M24.4336 4.18795C24.9264 2.8629 26.0908 1.71797 27.4979 1.58179C26.6519 2.86548 26.2873 4.40703 26.4685 5.9337C26.5405 6.52222 26.6819 7.16929 26.3646 7.67019C26.1672 7.98186 25.8193 8.17373 25.4607 8.26032C25.1021 8.34691 24.7284 8.3402 24.3596 8.333L24.277 8.37377C24.0176 6.98405 23.9408 5.51299 24.4336 4.18795Z" fill="#0AA79F"/>
<path d="M27.5047 1.61072C26.5455 2.28087 25.8218 3.23624 25.4364 4.34113C25.3492 4.57751 25.2998 4.82616 25.2901 5.07792C25.2885 5.32347 25.3527 5.56497 25.476 5.77732C25.587 5.97762 25.7238 6.16966 25.7841 6.39346C25.8133 6.50847 25.8179 6.62836 25.7975 6.74527C25.7772 6.86217 25.7323 6.97345 25.6659 7.0718C25.5068 7.32117 25.2676 7.4985 25.0277 7.66379C24.7613 7.84732 24.4817 8.03372 24.3187 8.32203C24.2989 8.35696 24.2459 8.32427 24.2656 8.28939C24.5492 7.78779 25.1444 7.60559 25.5085 7.17952C25.6784 6.9807 25.7894 6.72948 25.7369 6.46475C25.6909 6.23325 25.5501 6.0351 25.4359 5.83326C25.3126 5.62787 25.2414 5.39541 25.2287 5.15618C25.2256 4.90473 25.2653 4.6546 25.3461 4.41648C25.5195 3.87749 25.7766 3.36913 26.108 2.91C26.4832 2.38391 26.9457 1.92589 27.4754 1.55575C27.5082 1.53286 27.5373 1.58797 27.5047 1.61072V1.61072Z" fill="#0AA79F"/>
<path d="M25.5395 3.97801C25.3629 3.88819 25.224 3.73851 25.1475 3.55572C25.0711 3.37293 25.0621 3.16892 25.1222 2.98013C25.1345 2.94197 25.1944 2.95928 25.1821 2.99749C25.1258 3.17319 25.1342 3.36322 25.2057 3.53329C25.2772 3.70336 25.4072 3.84227 25.5721 3.92493C25.6079 3.94294 25.5751 3.99591 25.5395 3.97801Z" fill="#0AA79F"/>
<path d="M25.4063 5.68329C25.7926 5.56131 26.1186 5.29824 26.3195 4.94655C26.3393 4.91169 26.3924 4.94436 26.3725 4.97918C26.1628 5.34477 25.823 5.61785 25.4208 5.7439C25.3825 5.75589 25.3682 5.69521 25.4063 5.68329Z" fill="#0AA79F"/>
<path d="M26.5259 2.45475C26.587 2.50375 26.6592 2.5368 26.7363 2.55094C26.8133 2.56509 26.8926 2.55988 26.9671 2.53579C27.0053 2.52333 27.0195 2.58401 26.9816 2.5964C26.8991 2.62263 26.8115 2.62828 26.7264 2.61284C26.6413 2.5974 26.5612 2.56134 26.4932 2.50783C26.4864 2.50332 26.4815 2.49638 26.4796 2.48842C26.4777 2.48046 26.4789 2.47208 26.483 2.46497C26.4874 2.45797 26.4943 2.45296 26.5023 2.45105C26.5104 2.44914 26.5188 2.45047 26.5259 2.45475Z" fill="#0AA79F"/>
<path d="M30.8896 4.95932C30.866 4.96778 30.8424 4.97624 30.8186 4.98521C30.5018 5.10064 30.1948 5.24162 29.9007 5.40676C29.8778 5.41916 29.8547 5.43208 29.8322 5.44512C29.128 5.85053 28.5053 6.38315 27.9955 7.0159C27.7929 7.26788 27.6098 7.5349 27.4477 7.81466C27.2239 8.20103 27.0119 8.63777 26.6832 8.91934C26.6492 8.94911 26.6134 8.97674 26.5761 9.00207L24.3331 8.47133C24.3286 8.46756 24.324 8.4643 24.3195 8.46053L24.2289 8.44344C24.2363 8.42842 24.2442 8.41301 24.2516 8.398C24.2558 8.38927 24.2606 8.38067 24.2648 8.37194C24.2678 8.36616 24.2708 8.36038 24.2731 8.355C24.2741 8.35307 24.2751 8.35115 24.276 8.34973C24.2783 8.34434 24.2811 8.33959 24.2833 8.33472C24.3275 8.24844 24.3724 8.16233 24.4179 8.07638C24.4181 8.07587 24.4181 8.07587 24.4187 8.07547C24.7595 7.41722 25.1773 6.80173 25.6631 6.24189C25.6779 6.22538 25.6927 6.20835 25.7084 6.19209C25.9303 5.94589 26.172 5.71823 26.431 5.5114C26.5732 5.3986 26.721 5.29308 26.8738 5.19522C27.2692 4.94315 27.7019 4.75484 28.1558 4.6372C29.0608 4.40281 30.0306 4.46046 30.829 4.92335C30.8494 4.93521 30.8693 4.94695 30.8896 4.95932Z" fill="#0AA79F"/>
<path d="M30.8778 4.98666C29.7084 4.9442 28.5554 5.27129 27.5825 5.92145C27.3705 6.0577 27.1814 6.2265 27.022 6.42165C26.8729 6.61675 26.7788 6.84823 26.7494 7.09203C26.7174 7.31879 26.711 7.55445 26.6245 7.76949C26.5785 7.87891 26.51 7.97738 26.4234 8.05846C26.3367 8.13953 26.2339 8.20137 26.1217 8.23992C25.8445 8.34325 25.5468 8.34084 25.2557 8.32836C24.9325 8.3145 24.597 8.29499 24.2933 8.42705C24.2565 8.44305 24.2338 8.38501 24.2705 8.36903C24.799 8.13927 25.3839 8.35214 25.9311 8.23115C26.1865 8.1747 26.4264 8.04096 26.5438 7.79795C26.6465 7.58546 26.6534 7.34246 26.6837 7.11257C26.7089 6.87432 26.792 6.64586 26.9259 6.44715C27.0748 6.24452 27.2571 6.06872 27.465 5.92726C27.928 5.60132 28.4393 5.3502 28.9803 5.18311C29.5967 4.98898 30.2417 4.90172 30.8875 4.9251C30.9274 4.92656 30.9175 4.98812 30.8778 4.98666L30.8778 4.98666Z" fill="#0AA79F"/>
<path d="M27.8834 5.69381C27.7965 5.51576 27.7757 5.31262 27.8247 5.12065C27.8737 4.92869 27.9894 4.7604 28.151 4.64584C28.1838 4.62277 28.2212 4.67264 28.1884 4.69574C28.0376 4.80214 27.9299 4.95891 27.8846 5.13776C27.8393 5.31661 27.8595 5.50576 27.9414 5.67107C27.9592 5.70702 27.901 5.72954 27.8834 5.69381Z" fill="#0AA79F"/>
<path d="M26.7505 6.97505C27.1323 7.11018 27.551 7.09643 27.9231 6.93656C27.96 6.92069 27.9827 6.97872 27.9459 6.99457C27.5583 7.16022 27.1225 7.17363 26.7255 7.03214C26.6877 7.01863 26.7129 6.96161 26.7505 6.97505Z" fill="#0AA79F"/>
<path d="M29.5881 5.07126C29.6074 5.14715 29.6452 5.21707 29.6982 5.27474C29.7512 5.3324 29.8177 5.37601 29.8917 5.40163C29.9296 5.41466 29.9045 5.47167 29.8667 5.45873C29.7851 5.43003 29.7117 5.38179 29.6531 5.31821C29.5944 5.25463 29.5522 5.17764 29.5301 5.09399C29.5274 5.08628 29.5277 5.07781 29.531 5.07031C29.5342 5.06281 29.5402 5.05684 29.5478 5.05361C29.5555 5.05064 29.564 5.05083 29.5716 5.05413C29.5791 5.05744 29.5851 5.06359 29.5881 5.07126H29.5881Z" fill="#0AA79F"/>
<path d="M17.6208 22.4624C18.1136 21.1373 19.278 19.9924 20.6851 19.8562C19.8391 21.1399 19.4745 22.6814 19.6557 24.2081C19.7277 24.7966 19.8691 25.4437 19.5518 25.9446C19.3544 26.2563 19.0065 26.4481 18.6479 26.5347C18.2893 26.6213 17.9156 26.6146 17.5468 26.6074L17.4642 26.6482C17.2048 25.2585 17.1279 23.7874 17.6208 22.4624Z" fill="#0AA79F"/>
<path d="M20.6919 19.8851C19.7327 20.5553 19.009 21.5107 18.6236 22.6155C18.5364 22.8519 18.487 23.1006 18.4773 23.3523C18.4757 23.5979 18.5399 23.8394 18.6632 24.0517C18.7742 24.252 18.911 24.4441 18.9713 24.6679C19.0005 24.7829 19.0051 24.9028 18.9847 25.0197C18.9643 25.1366 18.9195 25.2479 18.8531 25.3462C18.694 25.5956 18.4548 25.7729 18.2149 25.9382C17.9485 26.1217 17.6689 26.3081 17.5059 26.5964C17.4861 26.6314 17.4331 26.5987 17.4528 26.5638C17.7364 26.0622 18.3316 25.88 18.6957 25.4539C18.8656 25.2551 18.9766 25.0039 18.9241 24.7392C18.8781 24.5077 18.7373 24.3095 18.6231 24.1077C18.4998 23.9023 18.4286 23.6698 18.4158 23.4306C18.4128 23.1791 18.4525 22.929 18.5333 22.6909C18.7067 22.1519 18.9638 21.6435 19.2951 21.1844C19.6704 20.6583 20.1329 20.2003 20.6626 19.8302C20.6954 19.8073 20.7245 19.8624 20.6919 19.8851V19.8851Z" fill="#0AA79F"/>
<path d="M18.7267 22.2524C18.5501 22.1626 18.4112 22.0129 18.3348 21.8301C18.2584 21.6473 18.2494 21.4433 18.3095 21.2545C18.3218 21.2164 18.3817 21.2337 18.3694 21.2719C18.3131 21.4476 18.3214 21.6376 18.393 21.8077C18.4645 21.9778 18.5944 22.1167 18.7594 22.1993C18.7952 22.2174 18.7624 22.2703 18.7267 22.2524Z" fill="#0AA79F"/>
<path d="M18.5935 23.9575C18.9798 23.8355 19.3058 23.5724 19.5067 23.2207C19.5265 23.1859 19.5796 23.2185 19.5597 23.2534C19.35 23.6189 19.0102 23.892 18.608 24.0181C18.5697 24.0301 18.5554 23.9694 18.5935 23.9575Z" fill="#0AA79F"/>
<path d="M19.7131 20.7289C19.7741 20.7779 19.8464 20.811 19.9235 20.8251C20.0005 20.8393 20.0798 20.8341 20.1543 20.81C20.1925 20.7975 20.2067 20.8582 20.1688 20.8706C20.0863 20.8968 19.9987 20.9024 19.9136 20.887C19.8285 20.8716 19.7484 20.8355 19.6804 20.782C19.6736 20.7775 19.6687 20.7706 19.6668 20.7626C19.6649 20.7546 19.6661 20.7462 19.6702 20.7391C19.6746 20.7321 19.6815 20.7271 19.6895 20.7252C19.6975 20.7233 19.706 20.7246 19.7131 20.7289Z" fill="#0AA79F"/>
<path d="M24.0768 23.2337C24.0532 23.2422 24.0296 23.2507 24.0058 23.2596C23.6889 23.3751 23.382 23.516 23.0879 23.6812C23.065 23.6936 23.0419 23.7065 23.0194 23.7195C22.3152 24.1249 21.6925 24.6576 21.1827 25.2903C20.9801 25.5423 20.797 25.8093 20.6349 26.0891C20.4111 26.4754 20.1991 26.9122 19.8704 27.1938C19.8364 27.2235 19.8006 27.2511 19.7633 27.2765L17.5203 26.7457C17.5158 26.742 17.5112 26.7387 17.5067 26.7349L17.4161 26.7179C17.4235 26.7028 17.4314 26.6874 17.4388 26.6724C17.443 26.6637 17.4477 26.6551 17.452 26.6464C17.455 26.6406 17.458 26.6348 17.4603 26.6294C17.4613 26.6275 17.4623 26.6256 17.4632 26.6241C17.4655 26.6188 17.4683 26.614 17.4705 26.6091C17.5147 26.5229 17.5596 26.4367 17.6051 26.3508C17.6053 26.3503 17.6053 26.3503 17.6059 26.3499C17.9467 25.6916 18.3645 25.0761 18.8503 24.5163C18.8651 24.4998 18.8799 24.4828 18.8956 24.4665C19.1175 24.2203 19.3592 23.9926 19.6182 23.7858C19.7604 23.673 19.9082 23.5675 20.061 23.4696C20.4564 23.2176 20.889 23.0293 21.343 22.9116C22.248 22.6772 23.2178 22.7349 24.0161 23.1978C24.0366 23.2096 24.0565 23.2214 24.0768 23.2337Z" fill="#0AA79F"/>
<path d="M24.065 23.2611C22.8956 23.2186 21.7426 23.5457 20.7696 24.1959C20.5577 24.3321 20.3686 24.5009 20.2092 24.6961C20.0601 24.8912 19.966 25.1226 19.9366 25.3664C19.9046 25.5932 19.8982 25.8289 19.8117 26.0439C19.7657 26.1533 19.6972 26.2518 19.6105 26.3329C19.5239 26.4139 19.4211 26.4758 19.3088 26.5143C19.0317 26.6177 18.734 26.6153 18.4429 26.6028C18.1197 26.5889 17.7842 26.5694 17.4805 26.7015C17.4437 26.7175 17.421 26.6594 17.4577 26.6434C17.9862 26.4137 18.5711 26.6265 19.1183 26.5056C19.3737 26.4491 19.6135 26.3154 19.731 26.0724C19.8337 25.8599 19.8405 25.6169 19.8709 25.387C19.8961 25.1487 19.9792 24.9203 20.1131 24.7216C20.262 24.5189 20.4443 24.3431 20.6522 24.2017C21.1152 23.8757 21.6265 23.6246 22.1675 23.4575C22.7838 23.2634 23.4289 23.1761 24.0747 23.1995C24.1146 23.201 24.1047 23.2625 24.065 23.2611L24.065 23.2611Z" fill="#0AA79F"/>
<path d="M21.0706 23.968C20.9837 23.7899 20.9629 23.5868 21.0119 23.3948C21.061 23.2029 21.1766 23.0346 21.3383 22.92C21.3711 22.8969 21.4085 22.9468 21.3756 22.9699C21.2249 23.0763 21.1172 23.2331 21.0719 23.4119C21.0266 23.5908 21.0467 23.7799 21.1287 23.9452C21.1464 23.9812 21.0883 24.0037 21.0706 23.968Z" fill="#0AA79F"/>
<path d="M19.9377 25.2492C20.3195 25.3843 20.7382 25.3706 21.1103 25.2107C21.1472 25.1949 21.1699 25.2529 21.1331 25.2687C20.7455 25.4344 20.3097 25.4478 19.9127 25.3063C19.8749 25.2928 19.9 25.2358 19.9377 25.2492Z" fill="#0AA79F"/>
<path d="M22.7753 23.3454C22.7946 23.4213 22.8324 23.4912 22.8854 23.5489C22.9384 23.6066 23.0049 23.6502 23.0789 23.6758C23.1168 23.6888 23.0916 23.7458 23.0539 23.7329C22.9723 23.7042 22.8989 23.656 22.8403 23.5924C22.7816 23.5288 22.7394 23.4518 22.7173 23.3682C22.7146 23.3604 22.7149 23.352 22.7181 23.3445C22.7214 23.337 22.7274 23.331 22.735 23.3278C22.7427 23.3248 22.7512 23.325 22.7588 23.3283C22.7663 23.3316 22.7723 23.3378 22.7753 23.3454H22.7753Z" fill="#0AA79F"/>
<path d="M45.5408 32.3943C45.2893 31.454 45.4865 30.3473 46.2221 29.71C46.2589 30.7677 46.6686 31.7784 47.3788 32.5631C47.6538 32.8648 47.9911 33.1716 48.0127 33.5792C48.0139 33.8361 47.9165 34.0837 47.7405 34.2708C47.5654 34.4552 47.3674 34.6164 47.1514 34.7505L47.1213 34.8063C46.4217 34.1296 45.7923 33.3345 45.5408 32.3943Z" fill="#0AA79F"/>
<path d="M46.2374 29.7233C45.9661 30.4818 45.9406 31.3066 46.1647 32.0804C46.21 32.2478 46.2814 32.4071 46.3762 32.5523C46.4732 32.6907 46.6055 32.8007 46.7594 32.8707C46.9074 32.9279 47.0479 33.0028 47.1779 33.0938C47.2401 33.1467 47.2905 33.2122 47.3256 33.2859C47.3608 33.3597 47.38 33.44 47.3819 33.5217C47.3809 33.7235 47.3393 33.923 47.2596 34.1084C47.1832 34.3176 47.1006 34.5336 47.124 34.7604C47.1268 34.7879 47.084 34.7907 47.0812 34.7633C47.0405 34.3687 47.3019 34.0292 47.3365 33.6449C47.3496 33.5563 47.3424 33.4659 47.3152 33.3806C47.288 33.2953 47.2417 33.2173 47.1798 33.1526C47.0617 33.041 46.9037 32.9859 46.7592 32.9181C46.6081 32.852 46.4755 32.7499 46.3729 32.6207C46.271 32.4808 46.1936 32.3245 46.144 32.1587C46.0266 31.787 45.9682 31.3992 45.9712 31.0094C45.9722 30.5645 46.0492 30.1231 46.199 29.7042C46.2083 29.6783 46.2466 29.6976 46.2374 29.7233L46.2374 29.7233Z" fill="#0AA79F"/>
<path d="M46.0779 31.8356C45.943 31.8555 45.8053 31.8269 45.6896 31.7548C45.5738 31.6826 45.4875 31.5717 45.4459 31.4417C45.4376 31.4154 45.4781 31.4013 45.4865 31.4276C45.5249 31.5487 45.6053 31.652 45.7133 31.719C45.8212 31.7859 45.9495 31.8121 46.075 31.7928C46.1023 31.7886 46.105 31.8314 46.0779 31.8356Z" fill="#0AA79F"/>
<path d="M46.6827 32.8457C46.8509 32.6233 46.9291 32.3457 46.9017 32.0682C46.8989 32.0407 46.9417 32.0379 46.9445 32.0654C46.9725 32.3542 46.8905 32.6429 46.715 32.874C46.6983 32.896 46.6661 32.8676 46.6827 32.8457Z" fill="#0AA79F"/>
<path d="M46.0244 30.5872C46.0782 30.5903 46.1319 30.5801 46.1808 30.5573C46.2297 30.5346 46.2721 30.5 46.3043 30.4568C46.3208 30.4346 46.353 30.463 46.3366 30.4851C46.3008 30.5326 46.2539 30.5707 46.1999 30.596C46.146 30.6213 46.0867 30.6329 46.0272 30.63C46.0216 30.6302 46.0161 30.6282 46.0118 30.6245C46.0076 30.6208 46.0049 30.6156 46.0044 30.61C46.004 30.6043 46.0059 30.5988 46.0097 30.5945C46.0134 30.5902 46.0187 30.5876 46.0244 30.5872Z" fill="#0AA79F"/>
<path d="M49.4722 30.2539C49.4623 30.2681 49.4524 30.2822 49.4426 30.2967C49.3108 30.4878 49.1947 30.6893 49.0954 30.8992C49.0875 30.9153 49.0797 30.9318 49.0723 30.9481C48.8386 31.4563 48.7013 32.0035 48.6674 32.5618C48.6541 32.784 48.6577 33.0069 48.6782 33.2286C48.7066 33.5347 48.7617 33.8643 48.6894 34.1534C48.6822 34.1836 48.6731 34.2134 48.6622 34.2425L47.1917 34.8386C47.1877 34.8383 47.1837 34.8383 47.1797 34.838L47.1221 34.8644C47.1202 34.8531 47.1185 34.8413 47.1167 34.8299C47.1156 34.8233 47.1148 34.8166 47.1137 34.81C47.1131 34.8056 47.1125 34.8012 47.1116 34.7972C47.1114 34.7957 47.1112 34.7942 47.1111 34.7931C47.1103 34.7891 47.11 34.7854 47.1093 34.7817C47.0997 34.7157 47.0906 34.6495 47.0819 34.5831C47.0817 34.5827 47.0817 34.5827 47.0819 34.5823C47.0109 34.0769 47.0001 33.5649 47.0496 33.057C47.0513 33.0419 47.0529 33.0264 47.0552 33.011C47.0816 32.7844 47.1265 32.5603 47.1895 32.3409C47.2243 32.2209 47.2652 32.1028 47.312 31.987C47.4335 31.6878 47.6013 31.4097 47.8092 31.1627C48.2238 30.6705 48.7912 30.3163 49.4238 30.2579C49.44 30.2564 49.4558 30.2551 49.4722 30.2539Z" fill="#0AA79F"/>
<path d="M49.4764 30.274C48.8031 30.7163 48.2862 31.3595 47.9992 32.1122C47.9346 32.2732 47.8957 32.4433 47.884 32.6164C47.8781 32.7853 47.9175 32.9528 47.9982 33.1013C48.082 33.2361 48.1491 33.3805 48.1981 33.5314C48.2159 33.6111 48.2167 33.6937 48.2004 33.7738C48.184 33.8538 48.151 33.9295 48.1033 33.9959C47.981 34.1564 47.8277 34.2906 47.6525 34.3907C47.4655 34.5117 47.2695 34.6345 47.1516 34.8297C47.1373 34.8533 47.1015 34.8298 47.1157 34.8062C47.3208 34.4666 47.7339 34.3529 47.9929 34.0669C48.0567 34.0041 48.1053 33.9275 48.135 33.8431C48.1647 33.7586 48.1746 33.6684 48.1641 33.5795C48.1371 33.4193 48.0441 33.2802 47.9695 33.139C47.8887 32.9953 47.8443 32.8339 47.8402 32.669C47.843 32.4959 47.8753 32.3246 47.9356 32.1623C48.0656 31.7948 48.2525 31.45 48.4896 31.1406C48.7582 30.786 49.0855 30.4799 49.4573 30.2356C49.4803 30.2205 49.4993 30.259 49.4764 30.274L49.4764 30.274Z" fill="#0AA79F"/>
<path d="M48.0774 31.8644C47.9576 31.7991 47.865 31.6933 47.816 31.566C47.767 31.4387 47.7648 31.2982 47.8099 31.1694C47.8191 31.1434 47.86 31.1565 47.8508 31.1826C47.8086 31.3024 47.8106 31.4333 47.8564 31.5517C47.9023 31.6702 47.989 31.7683 48.1009 31.8285C48.1252 31.8416 48.1015 31.8774 48.0774 31.8644Z" fill="#0AA79F"/>
<path d="M47.9521 33.0352C48.2203 32.9588 48.4498 32.7842 48.595 32.5462C48.6093 32.5226 48.6452 32.5461 48.6309 32.5697C48.4793 32.8171 48.2401 32.9983 47.9608 33.0772C47.9342 33.0846 47.9256 33.0426 47.9521 33.0352V33.0352Z" fill="#0AA79F"/>
<path d="M48.7862 30.8355C48.8272 30.8704 48.8763 30.8946 48.9291 30.9058C48.9818 30.9171 49.0365 30.9151 49.0882 30.9C49.1147 30.8921 49.1233 30.9342 49.097 30.942C49.0397 30.9584 48.9793 30.9605 48.9211 30.9482C48.8628 30.9359 48.8084 30.9095 48.7627 30.8714C48.7581 30.8681 48.7549 30.8633 48.7537 30.8578C48.7526 30.8522 48.7535 30.8465 48.7565 30.8417C48.7596 30.8369 48.7645 30.8336 48.7701 30.8325C48.7756 30.8313 48.7814 30.8324 48.7862 30.8355Z" fill="#0AA79F"/>
</g>
<defs>
<clipPath id="clip0_1_368">
<rect width="52.1381" height="56" fill="white" transform="translate(0.930969)"/>
</clipPath>
</defs>
</svg>
