<svg width="78" height="56" viewBox="0 0 78 56" fill="none" xmlns="http://www.w3.org/2000/svg">
<g clip-path="url(#clip0_1_622)">
<path opacity="0.1" d="M45.3092 9.87611C40.3168 9.70296 35.5581 8.09452 31.0209 6.3351C26.4838 4.57569 21.9868 2.62596 17.1112 1.69366C13.9765 1.09336 10.3915 1.00893 7.86629 2.68606C5.43568 4.29951 4.65057 7.08495 4.22826 9.66933C3.91063 11.6141 3.72636 13.6604 4.59464 15.4813C5.19907 16.7449 6.27169 17.8074 7.01378 19.018C9.59496 23.2302 7.77021 28.4247 4.9725 32.541C3.6604 34.4728 2.13822 36.311 1.12582 38.3652C0.113421 40.4193 -0.355493 42.7726 0.530713 44.8676C1.40903 46.9426 3.50122 48.5038 5.76836 49.6006C10.3729 51.8266 15.7984 52.4634 21.0891 52.8283C32.8005 53.6275 44.575 53.2812 56.3172 52.9349C60.6629 52.8061 65.028 52.6766 69.3027 52.0047C71.6767 51.6319 74.1281 51.0409 75.8518 49.6142C78.0393 47.8026 78.5821 44.736 77.1158 42.4642C74.6565 38.6549 67.8573 37.7083 66.1379 33.62C65.1922 31.3697 66.1637 28.8626 67.5389 26.7755C70.4879 22.2986 75.4323 18.3705 75.6926 13.2526C75.8718 9.7373 73.495 6.21776 69.8197 4.55423C65.968 2.80912 60.6264 3.0295 57.7849 5.91368C54.8589 8.88514 49.7166 10.0285 45.3092 9.87611Z" fill="#00BFA6"/>
<path d="M17.4317 51.8765C17.4317 51.8765 13.4882 48.9014 12.7433 45.1172C12.4412 43.5278 11.6309 42.079 10.4338 40.988C9.86122 40.4748 9.24274 40.015 8.58615 39.6143" stroke="#535461" stroke-width="2" stroke-miterlimit="10"/>
<path d="M8.10359 37.2303C8.44919 37.6969 8.60549 39.6738 8.60549 39.6738C8.60549 39.6738 6.75779 38.9475 6.41149 38.4818C6.24519 38.2578 6.17485 37.9772 6.21592 37.7015C6.257 37.4258 6.40614 37.1777 6.63053 37.0118C6.85491 36.8458 7.13617 36.7756 7.41243 36.8166C7.68868 36.8576 7.9373 37.0064 8.10359 37.2303Z" fill="#00BFA6"/>
<path d="M11.4175 38.7815C11.4534 39.3604 10.5091 41.1047 10.5091 41.1047C10.5091 41.1047 9.35259 39.492 9.31603 38.9132C9.30212 38.6372 9.39773 38.3669 9.58215 38.1608C9.76657 37.9547 10.0249 37.8294 10.3013 37.8121C10.5776 37.7948 10.8497 37.8868 11.0585 38.0683C11.2673 38.2497 11.396 38.506 11.4168 38.7815H11.4175Z" fill="#00BFA6"/>
<path d="M14.6297 43.2405C14.3687 43.7585 12.6702 44.7888 12.6702 44.7888C12.6702 44.7888 12.4888 42.8141 12.7497 42.296C12.8782 42.0524 13.0974 41.8689 13.3601 41.7849C13.6228 41.701 13.9081 41.7233 14.1545 41.847C14.4009 41.9708 14.5887 42.1862 14.6776 42.4468C14.7665 42.7074 14.7493 42.9924 14.6297 43.2405Z" fill="#00BFA6"/>
<path d="M16.2996 47.1586C16.1296 47.7131 14.6304 49.0146 14.6304 49.0146C14.6304 49.0146 14.1163 47.0992 14.2862 46.544C14.3679 46.2776 14.5523 46.0544 14.7988 45.9237C15.0454 45.7929 15.3339 45.7652 15.6009 45.8467C15.8678 45.9282 16.0914 46.1122 16.2225 46.3583C16.3535 46.6043 16.3812 46.8922 16.2996 47.1586Z" fill="#00BFA6"/>
<path d="M8.79979 42.507C9.37339 42.5843 11.1867 41.7672 11.1867 41.7672C11.1867 41.7672 9.6566 40.5022 9.08014 40.4249C8.80346 40.3878 8.52334 40.4619 8.30141 40.6309C8.07948 40.7999 7.93391 41.05 7.89674 41.3261C7.85956 41.6022 7.93382 41.8817 8.10318 42.1032C8.27253 42.3246 8.52311 42.4699 8.79979 42.507Z" fill="#00BFA6"/>
<path d="M10.811 47.0656C11.3846 46.9676 12.8666 45.6475 12.8666 45.6475C12.8666 45.6475 11.0268 44.8976 10.4539 44.9957C10.3168 45.0181 10.1854 45.0674 10.0674 45.1408C9.94949 45.2141 9.84726 45.3101 9.76667 45.4231C9.68607 45.5361 9.62869 45.6639 9.59786 45.7991C9.56702 45.9344 9.56333 46.0744 9.587 46.211C9.61067 46.3477 9.66123 46.4784 9.73577 46.5954C9.81031 46.7125 9.90734 46.8137 10.0213 46.8931C10.1352 46.9726 10.2638 47.0287 10.3996 47.0583C10.5353 47.0879 10.6757 47.0904 10.8124 47.0656H10.811Z" fill="#00BFA6"/>
<path d="M13.3742 51.2291C13.9557 51.2291 15.6406 50.1781 15.6406 50.1781C15.6406 50.1781 13.955 49.1284 13.3735 49.1284C13.0943 49.1284 12.8266 49.2391 12.6292 49.4361C12.4318 49.633 12.321 49.9002 12.321 50.1788C12.321 50.4573 12.4318 50.7245 12.6292 50.9215C12.8266 51.1185 13.0943 51.2291 13.3735 51.2291H13.3742Z" fill="#00BFA6"/>
<path d="M55.7408 26.1451C55.7408 26.1451 58.1714 21.8486 61.8352 20.6107C63.3737 20.1009 64.705 19.107 65.6296 17.7781C66.0631 17.1428 66.4373 16.469 66.7473 15.7654" stroke="#535461" stroke-width="2" stroke-miterlimit="10"/>
<path d="M69.0475 14.9782C68.6302 15.3817 66.6878 15.7996 66.6878 15.7996C66.6878 15.7996 67.1646 13.8749 67.5819 13.4706C67.7834 13.2824 68.0508 13.1807 68.3266 13.1873C68.6024 13.1939 68.8647 13.3084 69.0568 13.506C69.2489 13.7036 69.3556 13.9687 69.3538 14.244C69.3521 14.5193 69.2421 14.783 69.0475 14.9782Z" fill="#00BFA6"/>
<path d="M67.949 18.4577C67.3754 18.5707 65.5206 17.8681 65.5206 17.8681C65.5206 17.8681 66.9689 16.5087 67.5389 16.3978C67.6758 16.3674 67.8173 16.3647 67.9553 16.3897C68.0932 16.4148 68.2247 16.4671 68.3421 16.5435C68.4595 16.62 68.5605 16.719 68.639 16.835C68.7175 16.9509 68.772 17.0813 68.7993 17.2185C68.8266 17.3557 68.8262 17.497 68.7981 17.634C68.7699 17.7711 68.7146 17.9011 68.6354 18.0166C68.5562 18.132 68.4547 18.2305 68.3368 18.3062C68.219 18.382 68.0871 18.4335 67.949 18.4577Z" fill="#00BFA6"/>
<path d="M63.9511 22.2269C63.4019 22.0373 62.1536 20.4947 62.1536 20.4947C62.1536 20.4947 64.0895 20.0525 64.6401 20.2421C64.7724 20.2859 64.8947 20.3555 64.9998 20.4468C65.1049 20.5381 65.1908 20.6494 65.2525 20.7741C65.3142 20.8989 65.3505 21.0346 65.3592 21.1734C65.3679 21.3122 65.3489 21.4514 65.3033 21.5828C65.2576 21.7143 65.1863 21.8354 65.0934 21.9391C65.0005 22.0428 64.8879 22.127 64.7621 22.1869C64.6363 22.2468 64.4998 22.2812 64.3606 22.2881C64.2214 22.2949 64.0822 22.2741 63.9511 22.2269Z" fill="#00BFA6"/>
<path d="M60.2772 24.3992C59.7036 24.3047 58.2151 22.9918 58.2151 22.9918C58.2151 22.9918 60.0499 22.2291 60.6228 22.3235C60.8985 22.3688 61.1449 22.5215 61.3078 22.7481C61.4707 22.9746 61.5368 23.2565 61.4914 23.5317C61.4461 23.8068 61.293 24.0527 61.066 24.2153C60.839 24.3778 60.5565 24.4437 60.2808 24.3985L60.2772 24.3992Z" fill="#00BFA6"/>
<path d="M63.9009 16.3635C63.9002 16.9437 64.9549 18.6273 64.9549 18.6273C64.9549 18.6273 66.0081 16.9459 66.0081 16.3663C66.0118 16.2261 65.9873 16.0866 65.9361 15.956C65.8848 15.8255 65.8079 15.7064 65.7099 15.606C65.6118 15.5055 65.4946 15.4257 65.3651 15.3712C65.2356 15.3167 65.0965 15.2886 64.9559 15.2886C64.8154 15.2886 64.6763 15.3167 64.5468 15.3712C64.4173 15.4257 64.3001 15.5055 64.202 15.606C64.104 15.7064 64.027 15.8255 63.9758 15.956C63.9246 16.0866 63.9001 16.2261 63.9038 16.3663L63.9009 16.3635Z" fill="#00BFA6"/>
<path d="M59.6398 18.958C59.8133 19.5118 61.3218 20.8033 61.3218 20.8033C61.3218 20.8033 61.8237 18.8843 61.6488 18.3305C61.5581 18.0739 61.3711 17.8625 61.1273 17.7407C60.8835 17.6189 60.6018 17.5963 60.3416 17.6777C60.0814 17.759 59.863 17.9379 59.7324 18.1767C59.6017 18.4155 59.569 18.6956 59.6412 18.958H59.6398Z" fill="#00BFA6"/>
<path d="M55.849 22.0467C55.9265 22.6191 57.1941 24.1481 57.1941 24.1481C57.1941 24.1481 58.0122 22.3415 57.9348 21.7669C57.9194 21.6277 57.8763 21.493 57.808 21.3706C57.7397 21.2483 57.6475 21.1408 57.537 21.0545C57.4265 20.9683 57.2997 20.9049 57.1643 20.8682C57.0289 20.8315 56.8874 20.8222 56.7483 20.8409C56.6092 20.8596 56.4753 20.9058 56.3544 20.9769C56.2334 21.0479 56.128 21.1424 56.0442 21.2548C55.9604 21.3671 55.9 21.4951 55.8665 21.6311C55.8329 21.7671 55.827 21.9084 55.849 22.0467Z" fill="#00BFA6"/>
<path opacity="0.25" d="M69.0475 14.9782C68.6302 15.3817 66.6878 15.7996 66.6878 15.7996C66.6878 15.7996 67.1646 13.8749 67.5819 13.4706C67.7834 13.2824 68.0508 13.1807 68.3266 13.1873C68.6024 13.1939 68.8647 13.3084 69.0568 13.506C69.2489 13.7036 69.3556 13.9687 69.3538 14.244C69.3521 14.5193 69.2421 14.783 69.0475 14.9782Z" fill="black"/>
<path opacity="0.25" d="M67.949 18.4577C67.3754 18.5707 65.5206 17.8681 65.5206 17.8681C65.5206 17.8681 66.9689 16.5087 67.5389 16.3978C67.6758 16.3674 67.8173 16.3647 67.9553 16.3897C68.0932 16.4148 68.2247 16.4671 68.3421 16.5435C68.4595 16.62 68.5605 16.719 68.639 16.835C68.7175 16.9509 68.772 17.0813 68.7993 17.2185C68.8266 17.3557 68.8262 17.497 68.7981 17.634C68.7699 17.7711 68.7146 17.9011 68.6354 18.0166C68.5562 18.132 68.4547 18.2305 68.3368 18.3062C68.219 18.382 68.0871 18.4335 67.949 18.4577Z" fill="black"/>
<path opacity="0.25" d="M63.9511 22.2269C63.4019 22.0373 62.1536 20.4947 62.1536 20.4947C62.1536 20.4947 64.0895 20.0525 64.6401 20.2421C64.7724 20.2859 64.8947 20.3555 64.9998 20.4468C65.1049 20.5381 65.1908 20.6494 65.2525 20.7741C65.3142 20.8989 65.3505 21.0346 65.3592 21.1734C65.3679 21.3122 65.3489 21.4514 65.3033 21.5828C65.2576 21.7143 65.1863 21.8354 65.0934 21.9391C65.0005 22.0428 64.8879 22.127 64.7621 22.1869C64.6363 22.2468 64.4998 22.2812 64.3606 22.2881C64.2214 22.2949 64.0822 22.2741 63.9511 22.2269Z" fill="black"/>
<path opacity="0.25" d="M60.2772 24.3992C59.7036 24.3047 58.2151 22.9918 58.2151 22.9918C58.2151 22.9918 60.0499 22.2291 60.6228 22.3235C60.8985 22.3688 61.1449 22.5215 61.3078 22.7481C61.4707 22.9746 61.5368 23.2565 61.4914 23.5317C61.4461 23.8068 61.293 24.0527 61.066 24.2153C60.839 24.3778 60.5565 24.4437 60.2808 24.3985L60.2772 24.3992Z" fill="black"/>
<path opacity="0.25" d="M63.9009 16.3635C63.9002 16.9437 64.9549 18.6273 64.9549 18.6273C64.9549 18.6273 66.0081 16.9459 66.0081 16.3663C66.0118 16.2261 65.9873 16.0866 65.9361 15.956C65.8848 15.8255 65.8079 15.7064 65.7099 15.606C65.6118 15.5055 65.4946 15.4257 65.3651 15.3712C65.2356 15.3167 65.0965 15.2886 64.9559 15.2886C64.8154 15.2886 64.6763 15.3167 64.5468 15.3712C64.4173 15.4257 64.3001 15.5055 64.202 15.606C64.104 15.7064 64.027 15.8255 63.9758 15.956C63.9246 16.0866 63.9001 16.2261 63.9038 16.3663L63.9009 16.3635Z" fill="black"/>
<path opacity="0.25" d="M59.6398 18.958C59.8133 19.5118 61.3218 20.8033 61.3218 20.8033C61.3218 20.8033 61.8237 18.8843 61.6488 18.3305C61.5581 18.0739 61.3711 17.8625 61.1273 17.7407C60.8835 17.6189 60.6018 17.5963 60.3416 17.6777C60.0814 17.759 59.863 17.9379 59.7324 18.1767C59.6017 18.4155 59.569 18.6956 59.6412 18.958H59.6398Z" fill="black"/>
<path opacity="0.25" d="M55.849 22.0467C55.9265 22.6191 57.1941 24.1481 57.1941 24.1481C57.1941 24.1481 58.0122 22.3415 57.9348 21.7669C57.9194 21.6277 57.8763 21.493 57.808 21.3706C57.7397 21.2483 57.6475 21.1408 57.537 21.0545C57.4265 20.9683 57.2997 20.9049 57.1643 20.8682C57.0289 20.8315 56.8874 20.8222 56.7483 20.8409C56.6092 20.8596 56.4753 20.9058 56.3544 20.9769C56.2334 21.0479 56.128 21.1424 56.0442 21.2548C55.9604 21.3671 55.9 21.4951 55.8665 21.6311C55.8329 21.7671 55.827 21.9084 55.849 22.0467Z" fill="black"/>
<path d="M55.8806 26.06C55.8806 26.06 56.3581 21.1488 59.2017 18.5373C60.4011 17.4489 61.2147 16.0019 61.5205 14.4131C61.6596 13.6579 61.729 12.8915 61.7277 12.1235" stroke="#535461" stroke-width="2" stroke-miterlimit="10"/>
<path d="M63.5101 10.4664C63.295 11.0045 61.6861 12.1722 61.6861 12.1722C61.6861 12.1722 61.3405 10.2196 61.5577 9.68152C61.6623 9.42316 61.8655 9.21684 62.1225 9.10796C62.3795 8.99907 62.6694 8.99653 62.9283 9.1009C63.1872 9.20527 63.3939 9.40799 63.503 9.66448C63.6122 9.92097 63.6147 10.2102 63.5101 10.4686V10.4664Z" fill="#00BFA6"/>
<path d="M63.9195 14.0953C63.4442 14.4287 61.4602 14.5382 61.4602 14.5382C61.4602 14.5382 62.2332 12.7108 62.7085 12.3774C62.8213 12.2932 62.9498 12.2324 63.0865 12.1987C63.2232 12.165 63.3653 12.1589 63.5043 12.181C63.6434 12.203 63.7766 12.2527 63.8961 12.327C64.0156 12.4014 64.1189 12.4989 64.2 12.6138C64.281 12.7287 64.3381 12.8587 64.3679 12.9961C64.3977 13.1334 64.3996 13.2753 64.3734 13.4134C64.3473 13.5515 64.2936 13.6829 64.2157 13.7999C64.1377 13.9169 64.037 14.0171 63.9195 14.0946V14.0953Z" fill="#00BFA6"/>
<path d="M61.7929 19.1597C61.2136 19.2084 59.4455 18.3011 59.4455 18.3011C59.4455 18.3011 61.0372 17.1134 61.6166 17.0647C61.8948 17.0414 62.1709 17.1293 62.3841 17.3091C62.5974 17.4889 62.7303 17.7459 62.7537 18.0235C62.7771 18.3011 62.689 18.5766 62.5088 18.7895C62.3287 19.0023 62.0711 19.1349 61.7929 19.1583V19.1597Z" fill="#00BFA6"/>
<path d="M59.3186 22.6291C58.7557 22.7722 56.86 22.1805 56.86 22.1805C56.86 22.1805 58.2273 20.7416 58.7901 20.5956C59.0604 20.5257 59.3473 20.5658 59.588 20.707C59.8286 20.8482 60.0031 21.0791 60.0732 21.3487C60.1433 21.6184 60.1031 21.9047 59.9616 22.1449C59.8201 22.385 59.5888 22.5592 59.3186 22.6291Z" fill="#00BFA6"/>
<path d="M59.3688 13.8178C59.6039 14.3479 61.2487 15.4634 61.2487 15.4634C61.2487 15.4634 61.5284 13.5001 61.2932 12.9699C61.176 12.7218 60.9662 12.5294 60.7087 12.4336C60.4512 12.3378 60.1664 12.3463 59.9151 12.4573C59.6638 12.5683 59.466 12.773 59.3639 13.0276C59.2618 13.2822 59.2636 13.5666 59.3688 13.8199V13.8178Z" fill="#00BFA6"/>
<path d="M56.5266 17.9118C56.9102 18.3476 58.8131 18.9185 58.8131 18.9185C58.8131 18.9185 58.4919 16.9617 58.1083 16.5259C58.0177 16.4201 57.907 16.3332 57.7825 16.2704C57.6581 16.2076 57.5224 16.1702 57.3833 16.1602C57.2442 16.1502 57.1044 16.1679 56.9723 16.2122C56.8401 16.2566 56.718 16.3267 56.6132 16.4186C56.5084 16.5104 56.423 16.6221 56.3618 16.7471C56.3006 16.8722 56.265 17.0082 56.2569 17.1471C56.2489 17.286 56.2685 17.4252 56.3148 17.5565C56.3611 17.6878 56.4331 17.8086 56.5266 17.9118Z" fill="#00BFA6"/>
<path d="M54.3118 22.2707C54.6158 22.7644 56.3947 23.648 56.3947 23.648C56.3947 23.648 56.4097 21.6654 56.1079 21.171C55.9576 20.9427 55.7241 20.7818 55.457 20.7224C55.1898 20.663 54.91 20.7098 54.6769 20.8528C54.4437 20.9959 54.2756 21.2239 54.2081 21.4886C54.1406 21.7533 54.1791 22.0338 54.3154 22.2707H54.3118Z" fill="#00BFA6"/>
<path d="M52.2239 6.82656C52.3429 6.39082 52.4863 5.95294 52.5867 5.51147C52.4663 5.95294 52.3221 6.39225 52.2239 6.82656Z" fill="url(#paint0_linear_1_622)"/>
<path d="M51.6905 11.0236C51.6804 11.0065 51.6733 10.9893 51.6654 10.9735C51.6654 10.9664 51.6582 10.9607 51.6553 10.9535C51.6397 10.9609 51.6237 10.9673 51.6073 10.9728C51.5757 10.985 51.5435 10.9964 51.5105 11.0057C51.4775 11.015 51.4639 11.02 51.4388 11.0258C51.418 11.0329 51.3967 11.0384 51.375 11.0422L51.3807 11.0551C51.4072 11.0494 51.4331 11.0444 51.4596 11.0372L51.4668 11.1259C51.4969 11.1259 51.5248 11.1216 51.5521 11.1216C51.565 11.1209 51.5779 11.1209 51.5908 11.1216C51.6467 11.1216 51.6955 11.1216 51.7342 11.1216C51.7191 11.0894 51.7034 11.0558 51.6905 11.0236ZM66.2455 34.1436C65.9085 33.6907 65.2359 28.8295 65.2359 28.8295C65.2359 28.8295 63.9131 25.373 64.2737 23.9935C64.6344 22.614 63.2886 19.0844 63.2886 19.0844C63.2886 19.0844 62.3995 18.6988 62.3515 18.1264C62.3515 18.1264 58.7213 16.9816 58.5514 16.123C58.4137 15.4189 56.1624 14.9138 55.3536 14.7542C55.1069 13.7611 54.8589 12.8346 54.676 12.3287C54.6266 12.1713 54.58 12.0353 54.5369 11.928C54.2279 11.141 53.2729 11.0694 52.5803 11.1324C52.5502 10.9982 52.4945 10.8712 52.4161 10.7582C52.4046 10.7193 52.3819 10.6847 52.3508 10.6587C52.3359 10.6461 52.3201 10.6346 52.3035 10.6244C52.291 10.6012 52.2745 10.5804 52.2547 10.5628C52.2351 10.5452 52.2134 10.5298 52.1902 10.517C52.1735 10.5081 52.1563 10.5002 52.1386 10.4934C52.097 10.4776 52.0541 10.4659 52.0102 10.4584C51.9592 10.4479 51.9074 10.4412 51.8554 10.4383C51.9819 10.3831 52.0948 10.3008 52.1859 10.1972C52.2479 10.1245 52.2941 10.0397 52.3214 9.94823C52.3441 9.87214 52.3543 9.79288 52.3515 9.71354C52.3329 9.74624 52.3113 9.77714 52.287 9.80584C52.3171 9.48888 52.1493 9.1669 52.0533 8.85137C51.9369 8.44058 51.9153 8.00881 51.9902 7.58851C52.0862 6.95458 52.3243 6.31349 52.4856 5.66811C52.486 5.66454 52.486 5.66094 52.4856 5.65738C52.5702 5.33687 52.6226 5.00874 52.6419 4.67786C52.6699 4.0103 52.4985 3.34417 52.2232 2.73599C51.9787 2.19722 51.618 1.66704 51.066 1.44809C50.6558 1.28281 50.1962 1.30929 49.7546 1.2821C48.7637 1.22056 47.8187 0.872831 46.8766 0.55658C45.9344 0.240329 44.965 -0.0473018 43.9734 0.00779167C42.9818 0.0628851 41.9616 0.540123 41.5091 1.41589C41.3657 1.68922 41.2833 1.9933 41.1119 2.25017C40.7907 2.73456 40.2157 2.97712 39.736 3.31125C39.2563 3.64539 38.834 4.11977 38.6605 4.68573C38.5658 4.99065 38.5524 5.31497 38.6218 5.62661C38.6374 5.69699 38.6575 5.7663 38.682 5.8341C38.7501 6.02316 38.8562 6.19629 38.9939 6.34282C39.0978 6.45113 39.2171 6.54347 39.3481 6.61686C39.5126 6.70785 39.6887 6.7762 39.8715 6.82006C39.8651 6.84153 39.8586 6.86442 39.8514 6.8866C39.84 6.9231 39.8299 6.95816 39.8192 6.99751C39.7955 7.08551 39.7733 7.17495 39.7546 7.2651C39.7539 7.27152 39.7539 7.278 39.7546 7.28442C39.6666 7.6914 39.6224 8.1066 39.6227 8.52295C39.6226 8.71986 39.6326 8.91665 39.6528 9.11252C39.9396 12.016 42.3416 14.3063 45.3092 14.4552C45.411 14.4602 45.5135 14.463 45.6175 14.463C45.6648 14.463 45.7114 14.463 45.7609 14.463C45.8075 14.5246 45.8534 14.5875 45.8971 14.6491C45.9409 14.7106 45.981 14.7736 46.019 14.8351L45.9151 14.7278L45.8111 14.6326C45.7829 14.6712 45.7515 14.7073 45.7172 14.7406C45.6494 14.7168 45.5802 14.6973 45.51 14.682C45.2124 14.6161 44.7593 14.5918 44.1627 14.7714C43.6142 14.9353 42.9438 15.2723 42.1594 15.9126L38.3371 18.2022L36.2693 19.4572L35.5244 21.2746C35.5244 21.2746 34.9644 23.434 34.3413 25.9082C34.317 25.9153 34.2933 25.9225 34.2696 25.9311C34.2192 25.9253 34.1684 25.9225 34.1176 25.9225C33.7561 25.9216 33.4084 26.0606 33.1474 26.3102C32.8864 26.5599 32.7325 26.9007 32.7181 27.2612C31.4791 28.7637 31.4088 30.2663 31.6999 30.956C31.7263 31.0206 31.7594 31.0823 31.7989 31.1399C31.9896 31.4146 32.3459 32.123 32.7073 32.8778C32.698 32.9401 32.6922 32.9923 32.6894 33.0317C32.6887 33.0445 32.6887 33.0574 32.6894 33.0703C32.6894 33.0703 32.9045 36.3122 32.1875 37.2417C32.0305 37.4442 32.0541 37.7103 32.1875 38.0051C32.6679 39.0655 34.5672 40.4815 34.5672 40.4815C34.5672 40.4815 36.8451 40.4693 38.1142 40.3312C38.1106 40.4586 38.1077 40.5852 38.1048 40.709C38.0762 41.9597 38.0762 43.0079 38.0762 43.0079L38.0288 44.3194C38.0288 44.3194 37.5986 47.0834 37.3835 47.8454C37.248 48.3233 37.4043 52.7487 37.5406 56.0021H59.9839C60.2478 54.0774 59.8757 48.2296 59.8757 48.2296C59.8757 48.2296 59.5222 46.7178 59.5093 45.3998C59.5086 45.3983 59.5082 45.3968 59.5082 45.3951C59.5082 45.3935 59.5086 45.392 59.5093 45.3905C59.5093 45.2753 59.5093 45.163 59.5136 45.0528L59.6764 45.0471L59.9689 45.037H59.9954C59.9954 45.037 60.0026 45.0099 60.0191 44.9655C60.0578 44.855 60.1106 44.7499 60.1761 44.6528C60.3009 44.4689 60.4959 44.2886 60.7891 44.2765C60.9512 44.27 61.2021 44.1391 61.4853 43.9459C61.4872 43.9463 61.4892 43.9463 61.4911 43.9459C62.2532 43.4315 63.2606 42.482 63.5051 42.326C63.8414 42.1114 65.4518 40.6804 65.4518 40.6804C65.4518 40.6804 65.6919 40.377 65.9479 40.0114L65.9572 39.9985C66.2756 39.5406 66.614 38.9932 66.5308 38.8208C66.3874 38.5117 66.6269 37.7726 66.6269 37.7726C67.3747 36.4067 66.5825 34.5965 66.2455 34.1436ZM52.3809 12.1362C52.3878 12.1576 52.3921 12.1797 52.3938 12.2021C52.3759 12.1784 52.358 12.1534 52.3401 12.1305L52.3229 12.1076L52.3107 12.0904L52.3379 12.0532C52.3379 12.0532 52.3379 12.0532 52.3379 12.0582C52.3568 12.0814 52.3714 12.1079 52.3809 12.1362ZM52.14 11.5023C52.0619 11.518 52.0002 11.5323 51.9601 11.5431C51.9091 11.4529 51.8604 11.3628 51.8167 11.2712C51.9316 11.3377 52.0399 11.4151 52.14 11.5023ZM52.0052 11.6153C52.005 11.6139 52.005 11.6125 52.0052 11.611L52.011 11.6153C52.0404 11.6347 52.069 11.6533 52.0956 11.6726C52.1192 11.6898 52.1407 11.7062 52.1622 11.7234C52.1479 11.7484 52.1321 11.7742 52.1164 11.7949C52.0913 11.7556 52.0676 11.7177 52.0447 11.6783C52.0303 11.6626 52.0174 11.6411 52.0052 11.6153ZM51.575 10.7324C51.7136 10.7188 51.8531 10.7188 51.9916 10.7324C52.011 10.7324 52.0282 10.736 52.0454 10.7389C52.0843 10.7449 52.1224 10.7547 52.1594 10.7682C52.2441 10.8865 52.2963 11.0249 52.3107 11.1696L52.2719 11.1753L52.2339 11.1825C52.1622 11.1946 52.0905 11.2068 52.0346 11.2182L51.9629 11.2333C51.8676 11.254 51.8124 11.2698 51.8102 11.2705C51.8009 11.2512 51.7916 11.2333 51.7815 11.2147C51.7658 11.1839 51.7493 11.1524 51.7349 11.1216C51.7206 11.0909 51.7019 11.0558 51.6869 11.0236C51.6768 11.0065 51.6697 10.9893 51.6618 10.9735C51.6618 10.9664 51.6546 10.9607 51.6517 10.9535C51.6476 10.9459 51.644 10.938 51.641 10.9299C51.5973 10.8412 51.5571 10.7524 51.5184 10.6652C51.5141 10.6566 51.5105 10.6473 51.5069 10.6387L51.5614 10.6351V10.6537L51.575 10.7324ZM34.4682 55.1177C34.4625 54.0523 34.3851 52.8997 34.17 51.8178C34.0782 51.3578 33.9835 50.8977 33.8875 50.4455C33.8631 50.3325 33.8394 50.2208 33.8158 50.1092L33.5949 50.1386H33.5749C32.9726 47.3045 32.3431 44.8074 32.3431 44.8074C32.3431 44.8074 31.0926 40.0429 31.2375 39.6629C31.2561 39.6136 31.2324 39.4805 31.1794 39.2851C30.8768 38.2019 29.6135 35.2168 29.1718 34.1965C29.1718 34.1922 29.1682 34.1872 29.1668 34.1836C29.0951 34.0126 29.0435 33.8974 29.0277 33.8638L29.1316 32.3412L29.1374 32.2496L29.151 32.055L29.1453 32.05L29.151 31.9599C29.151 31.9599 28.0597 31.0669 26.2113 30.4222C26.1396 30.3965 26.0636 30.3714 25.9883 30.3471C26.0808 29.7311 26.2034 29.0356 26.3633 28.358C26.3784 28.2901 26.3949 28.2242 26.4121 28.1577C26.4271 28.0912 26.4443 28.0268 26.4615 27.9616C26.4888 27.8558 26.5182 27.7513 26.5483 27.6483C26.648 27.6168 26.7462 27.5817 26.843 27.5445L26.8803 27.5302C28.0727 27.0672 29.0566 26.1887 29.6498 25.0573C30.243 23.926 30.4054 22.6185 30.1068 21.3769C29.9365 20.6727 29.6221 20.0114 29.1833 19.4343C29.1503 19.39 29.1151 19.3456 29.08 19.302C29.0449 19.2583 29.0026 19.2097 28.9631 19.1653C29.1704 18.6952 29.4149 18.248 29.4349 17.7908C29.4385 17.7329 29.4385 17.6749 29.4349 17.617V17.6098C29.4084 17.3157 29.2779 17.0181 28.9739 16.7054C28.5301 16.2468 27.8984 16.0142 27.2667 15.9026C26.6351 15.791 25.9912 15.7881 25.3559 15.713C24.3027 15.5871 23.2767 15.263 22.2234 15.1635C20.926 15.0436 19.6199 15.2657 18.4355 15.8075C17.6518 16.1652 16.8581 16.7906 16.8108 17.6484C16.7721 18.3575 17.2668 19.0372 17.142 19.7377C17.018 20.426 16.3153 20.9676 16.377 21.6638C16.4007 21.9357 16.5405 22.179 16.7154 22.3958C16.7757 22.4673 16.8395 22.5389 16.9054 22.6104C17.1607 22.8802 17.4417 23.1392 17.5844 23.479C17.5902 23.4934 17.5959 23.5077 17.6009 23.522C17.7221 23.8575 17.6676 24.2818 17.3679 24.4743C17.3696 24.4756 17.3708 24.4773 17.3715 24.4793C17.3758 24.485 17.3801 24.4893 17.3837 24.4951C17.3841 24.4939 17.3841 24.4926 17.3837 24.4915C17.4899 24.6172 17.6332 24.7063 17.7931 24.7462L17.854 24.7648C17.8045 24.8185 17.7579 24.8743 17.7106 24.9329L17.6798 24.9737C17.6008 25.0797 17.5289 25.1909 17.4647 25.3064C17.4281 25.3708 17.393 25.4352 17.3636 25.4996C17.2653 25.6959 17.1942 25.9046 17.1521 26.1199C17.0754 26.5936 17.1836 27.0873 17.0675 27.5509C16.9241 28.1233 16.4702 28.5627 16.2143 29.0943C15.7296 30.096 16.0042 31.2715 16.1017 32.3777C16.2343 33.8803 16.0192 35.3892 15.8048 36.8818C15.6911 37.6755 15.5773 38.47 15.4636 39.2651C15.1768 41.2609 14.89 43.2566 14.6032 45.2524C14.4985 45.9837 14.3744 46.755 13.8862 47.3195H13.8912C13.8912 47.3195 13.8912 47.3238 13.8862 47.3252C14.0327 47.3891 14.1886 47.4292 14.3479 47.444C14.9853 47.5077 15.6607 47.2 16.2343 46.8637C16.6886 46.6018 17.1188 46.3003 17.5199 45.9629C17.4611 46.1775 17.398 46.4115 17.3306 46.6634C17.3308 46.6658 17.3308 46.6681 17.3306 46.6705C16.5211 49.7472 15.2191 55.3875 15.2191 55.3875C15.2191 55.3875 15.1008 55.6329 14.9473 55.9985H35.1666C34.93 55.7123 34.7099 55.4383 34.5378 55.2172L34.4682 55.1177ZM19.4974 26.6695C19.5024 26.6609 19.506 26.653 19.511 26.6451C19.511 26.668 19.511 26.6902 19.511 26.7117C19.511 26.7331 19.511 26.7525 19.511 26.7725C19.511 26.7925 19.511 26.7904 19.511 26.8004C19.511 26.8004 19.511 26.8104 19.511 26.8004C19.511 26.8297 19.5045 26.8591 19.4995 26.8884C19.4995 26.8884 19.4995 26.892 19.4995 26.8948L19.5712 26.9213L19.6544 26.9557C20.1458 27.1493 20.6434 27.3246 21.1472 27.4815C21.1988 27.498 21.2511 27.5137 21.3035 27.5288L21.3142 27.6175C21.3271 27.7084 21.3393 27.8007 21.3508 27.893C21.3508 27.893 21.3508 27.8973 21.3508 27.9001C21.3831 28.1555 21.4146 28.4103 21.4426 28.6593C21.4426 28.6593 20.1262 28.1584 20.1427 28.919C20.1419 28.9326 20.1419 28.9462 20.1427 28.9598C20.1412 28.9779 20.1412 28.996 20.1427 29.0141C20.1549 29.6066 20.3406 29.9579 20.3778 30.1382C20.3756 30.1457 20.3717 30.1525 20.3664 30.1582C20.3346 30.2273 20.3236 30.3041 20.3348 30.3793C20.3336 30.5073 20.3437 30.6352 20.3649 30.7614C20.3262 30.785 20.2882 30.8086 20.2502 30.8329C20.2215 30.8508 20.1943 30.8709 20.1663 30.8909C19.9904 30.282 19.7603 29.6901 19.4787 29.1222C19.2816 28.7172 19.06 28.2951 19.0622 27.8507C19.0622 27.8221 19.0622 27.7928 19.0657 27.7635C19.0737 27.6347 19.0983 27.5075 19.1389 27.385C19.1554 27.3384 19.1733 27.2927 19.1934 27.2476C19.2402 27.1405 19.2926 27.0359 19.3504 26.9342C19.3877 26.8669 19.4271 26.8004 19.4651 26.7331C19.4773 26.7131 19.4888 26.6924 19.5002 26.6723L19.4974 26.6695ZM51.6905 11.0236C51.6804 11.0065 51.6733 10.9893 51.6654 10.9735C51.6654 10.9664 51.6582 10.9607 51.6553 10.9535C51.6397 10.9609 51.6237 10.9673 51.6073 10.9728C51.5757 10.985 51.5435 10.9964 51.5105 11.0057C51.4775 11.015 51.4639 11.02 51.4388 11.0258L51.375 11.0422L51.3807 11.0551C51.4072 11.0494 51.4331 11.0444 51.4596 11.0372L51.4668 11.1259C51.4969 11.1259 51.5248 11.1216 51.5521 11.1216H51.5908C51.6467 11.1216 51.6955 11.1216 51.7342 11.1216C51.7191 11.0894 51.7034 11.0558 51.6905 11.0236Z" fill="url(#paint1_linear_1_622)"/>
<path d="M36.0241 21.533L35.5939 21.7226C35.5939 21.7226 32.7897 32.5939 32.7897 33.4725C32.7897 34.3512 38.7358 39.2402 38.7358 39.2402L39.6636 32.991C39.6636 32.991 38.3314 18.6602 36.0241 21.533Z" fill="#15B5C7"/>
<path d="M49.067 18.075L46.5826 16.7814C46.4434 16.1894 46.1965 15.628 45.8541 15.125C45.4906 14.6013 45.0073 14.0868 44.4051 13.8185C42.8829 13.1374 50.8437 9.56201 50.8437 9.56201C50.9691 9.99151 51.1167 10.4142 51.2861 10.8284C51.6962 11.8387 52.3766 13.1452 53.2535 13.5173C54.7441 14.1505 49.067 18.075 49.067 18.075Z" fill="#FFC1C7"/>
<path opacity="0.1" d="M51.2861 10.8284C50.9459 12.0223 50.2386 13.0793 49.2639 13.8502C48.2892 14.6212 47.0965 15.0671 45.8541 15.125C45.4906 14.6013 45.0073 14.0868 44.4051 13.8185C42.8829 13.1374 50.8437 9.56201 50.8437 9.56201C50.9691 9.99151 51.1167 10.4142 51.2861 10.8284Z" fill="black"/>
<path d="M51.5098 9.02318C51.51 10.194 51.1624 11.3386 50.5107 12.3123C49.8591 13.2859 48.9328 14.0448 47.8489 14.493C46.765 14.9412 45.5722 15.0586 44.4215 14.8303C43.2707 14.602 42.2137 14.0383 41.384 13.2105C40.5543 12.3826 39.9893 11.3278 39.7604 10.1795C39.5314 9.03118 39.6489 7.84091 40.098 6.75922C40.547 5.67754 41.3074 4.75303 42.283 4.10263C43.2585 3.45222 44.4055 3.10515 45.5788 3.10529C46.3586 3.10169 47.1314 3.2523 47.8526 3.54842C48.5737 3.84453 49.229 4.28029 49.7804 4.83053C50.3319 5.38077 50.7686 6.03458 51.0654 6.7542C51.3623 7.47382 51.5133 8.24499 51.5098 9.02318Z" fill="#FFC1C7"/>
<path d="M52.3659 17.3151L50.7483 21.0815L49.3215 23.5815H44.7542L43.4221 20.1635L43.962 16.6189H47.4501L49.7022 16.4923L50.463 16.239L50.9534 16.5166L52.3659 17.3151Z" fill="#575A89"/>
<path opacity="0.1" d="M51.8087 12.2944C51.8087 12.2944 52.8176 12.5091 51.9141 13.2482C51.0107 13.9873 47.894 16.3377 47.894 16.3377C47.894 16.3377 48.9888 17.3108 48.7622 18.4506L52.3895 16.4329L53.0348 13.2045C53.0348 13.2045 53.1072 12.2343 51.8087 12.2944Z" fill="black"/>
<path opacity="0.1" d="M48.6074 16.3376L46.3001 16.7176C46.3001 16.7176 46.7762 18.4741 46.5381 18.9728C46.5309 18.9883 46.525 19.0044 46.5202 19.0208L45.5788 21.5601L46.2843 23.5542L48.7264 20.2307L47.894 18.9728C47.894 18.9728 48.7737 17.8094 49.2971 17.4059C49.8205 17.0023 48.6074 16.3376 48.6074 16.3376Z" fill="black"/>
<path d="M48.6074 16.2397L46.3001 16.619C46.3001 16.619 46.7762 18.3755 46.5381 18.8742C46.5309 18.8897 46.525 18.9057 46.5202 18.9222L45.5788 21.4615L46.2843 23.4556L48.7264 20.1299L47.894 18.8721C47.894 18.8721 48.7737 17.7087 49.2971 17.3051C49.8205 16.9016 48.6074 16.2397 48.6074 16.2397Z" fill="#DCE6F2"/>
<path d="M51.9055 12.1047C51.9055 12.1047 52.9144 12.3194 52.0102 13.0585C51.1061 13.7976 47.894 16.3376 47.894 16.3376C47.894 16.3376 49.0834 17.1211 48.8576 18.2602L52.4849 16.2432L53.1302 13.0148C53.1302 13.0148 53.2019 12.0446 51.9055 12.1047Z" fill="#575A89"/>
<path opacity="0.1" d="M46.0126 15.3489C46.0126 15.3489 46.2327 15.7596 47.2042 16.5001C47.2042 16.5001 45.5867 17.3587 46.2054 18.5658L43.7311 17.9218L43.3504 16.7348L46.0126 15.3489Z" fill="black"/>
<path d="M45.9172 15.2544C45.9172 15.2544 46.1373 15.6651 47.1089 16.4056C47.1089 16.4056 45.4913 17.2599 46.1101 18.4706L43.6365 17.8266L43.2557 16.6403L45.9172 15.2544Z" fill="#575A89"/>
<path opacity="0.1" d="M52.3659 17.3151L50.7483 21.0815L49.3244 23.5814H44.7542L43.4221 20.1635L43.9612 16.6189H44.9313C44.9156 17.446 45.2181 18.4177 45.1988 18.779C45.1658 19.3729 46.0864 22.5769 46.0864 22.5769C46.0864 22.5769 48.013 19.4673 48.7737 19.1904C49.2519 19.0166 50.2651 17.5698 50.9527 16.5166L52.3659 17.3151Z" fill="black"/>
<path d="M58.7378 37.1353L58.5736 37.3413C58.5736 37.3413 59.7631 43.2993 59.434 44.6523C59.3781 44.8962 59.3461 45.1449 59.3386 45.395V45.4057C59.2806 46.7823 59.6971 48.5689 59.6971 48.5689C59.6971 48.5689 60.0298 53.835 59.8405 56.0008H37.5692C37.4387 52.7983 37.2982 48.6491 37.4258 48.189C37.6409 47.4299 38.0711 44.6759 38.0711 44.6759L38.1185 43.3708C38.1185 43.3708 38.1185 42.1094 38.1572 40.7042C38.1737 40.0724 38.198 39.4091 38.2332 38.821C38.2783 38.0811 38.3414 37.4579 38.4282 37.1517C38.4816 36.9196 38.5124 36.6828 38.52 36.4448C38.52 36.4226 38.52 36.3997 38.5243 36.3768C38.5243 36.3053 38.5314 36.228 38.5343 36.1486C38.5343 36.1264 38.5343 36.1042 38.5343 36.077C38.5479 35.6163 38.5429 35.0696 38.5279 34.5029C38.5279 34.4722 38.5279 34.4407 38.5279 34.4092C38.5157 33.9842 38.4977 33.5506 38.4777 33.1385C38.4153 31.8506 38.3343 30.7616 38.3343 30.7616L35.5989 21.7177L36.336 19.906L38.3816 18.6553L42.1637 16.3765C44.0086 14.8632 45.2232 15.0449 45.6863 15.2109C45.7313 15.2262 45.7754 15.2442 45.8183 15.2646C45.8326 15.2717 45.8441 15.2775 45.8548 15.2839C45.8696 15.2909 45.8837 15.299 45.8971 15.3082C45.7703 15.3691 45.6601 15.4597 45.5759 15.5722C45.4811 15.7003 45.4135 15.8464 45.3773 16.0015C45.3531 16.0977 45.3361 16.1955 45.3264 16.2942C45.3171 16.3979 45.3135 16.5053 45.3135 16.6133C45.3186 16.8502 45.339 17.0866 45.3744 17.3209C45.3744 17.3252 45.3744 17.3309 45.3744 17.3367C45.3981 17.5041 45.4275 17.6679 45.4562 17.8218C45.4559 17.8244 45.4559 17.827 45.4562 17.8296C45.4892 18.0092 45.5222 18.1752 45.5444 18.3183C45.5487 18.3441 45.5523 18.3677 45.5558 18.3899C45.5717 18.4844 45.5791 18.5802 45.5781 18.6761C45.5861 18.9076 45.6174 19.1377 45.6713 19.363C45.6899 19.4574 45.7114 19.5583 45.7351 19.6635C45.7674 19.8066 45.8025 19.9626 45.8405 20.1214C45.8613 20.2087 45.8835 20.2988 45.9065 20.3883C45.9151 20.424 45.9244 20.4598 45.933 20.4963L45.9473 20.5528C46.1 21.1589 46.2657 21.762 46.3675 22.1269C46.4277 22.3416 46.4657 22.474 46.4657 22.474C46.4657 22.474 47.5455 20.7317 48.4073 19.74C48.4202 19.7257 48.4317 19.7121 48.4439 19.6992C48.5292 19.6012 48.6131 19.5118 48.6934 19.4331C48.8691 19.2585 49.0268 19.134 49.1537 19.0882C49.1808 19.0783 49.2069 19.0661 49.2319 19.0517C49.5846 18.8521 50.1539 18.1273 50.6867 17.3681C50.739 17.2966 50.7899 17.2186 50.8415 17.1449C50.9598 16.9746 51.0746 16.8036 51.1828 16.6398C51.266 16.5146 51.3456 16.3929 51.4209 16.277C51.7794 15.7204 52.0317 15.3054 52.0317 15.3054L52.5293 15.2832L52.6161 15.2789H52.6742L54.9334 15.1744C54.9334 15.1744 55.0309 15.1909 55.1915 15.2231C55.2002 15.2231 55.2088 15.2231 55.2181 15.2288C56.0197 15.3876 58.2467 15.8906 58.3829 16.5883C58.5492 17.4426 62.1414 18.5824 62.1414 18.5824C62.1887 19.1548 63.0685 19.5318 63.0685 19.5318C63.0685 19.5318 64.4006 23.0449 64.0443 24.4215C63.6922 25.781 64.9606 29.1438 64.9943 29.2383L64.7512 29.5445L58.7378 37.1353Z" fill="#15B5C7"/>
<path opacity="0.1" d="M51.8081 12.0447C51.8081 12.0447 54.0071 11.4222 54.5068 12.7037C55.0066 13.9851 56.1244 19.1604 56.1244 19.1604C56.1244 19.1604 53.222 19.7063 52.4612 19.1604C52.015 18.8364 51.4627 18.6922 50.9147 18.7568L49.2735 19.8723L48.7888 19.7292C48.7888 19.7292 51.4144 15.834 51.9851 14.5103C52.5559 13.1866 52.7488 12.5949 51.8081 12.0447Z" fill="black"/>
<path d="M51.7127 11.7586C51.7127 11.7586 53.9131 11.1361 54.415 12.4176C54.9169 13.699 56.0326 18.8742 56.0326 18.8742C56.0326 18.8742 53.1309 19.4201 52.3695 18.8742C51.9235 18.5502 51.3714 18.4061 50.8236 18.4707L49.181 19.5861L48.6963 19.443C48.6963 19.443 51.3219 15.5479 51.8927 14.2242C52.4634 12.9005 52.6534 12.3102 51.7127 11.7586Z" fill="#15B5C7"/>
<path opacity="0.1" d="M36.9519 32.4043C36.9519 32.4043 38.5931 32.8078 38.9028 33.7337C39.2126 34.6596 37.6897 34.6832 37.6897 34.6832C37.6897 34.6832 36.7619 33.0454 36.9519 32.4043Z" fill="black"/>
<path opacity="0.1" d="M43.065 39.2402C43.065 39.2402 39.0455 47.4535 39.9733 48.2369C40.9011 49.0204 43.065 39.2402 43.065 39.2402Z" fill="black"/>
<path opacity="0.1" d="M48.6074 33.1877C48.6074 33.1877 51.8188 41.1656 51.1764 42.3977C50.5339 43.6297 52.5559 42.3977 52.5559 42.3977L48.6074 33.1877Z" fill="black"/>
<path d="M53.0793 41.0684C53.0793 41.0684 42.2326 41.5907 45.3967 44.9614C48.5608 48.3321 55.0539 45.1045 55.0539 45.1045L53.0793 41.0684Z" fill="#FFC1C7"/>
<path opacity="0.1" d="M51.5098 9.0232C51.5107 9.79953 51.358 10.5684 51.0602 11.2856C50.9605 11.2971 50.8609 11.3042 50.7648 11.3085C50.6214 10.9944 50.6981 10.6316 50.701 10.2861C50.7039 9.94047 50.5762 9.53407 50.2428 9.44105C49.5782 9.25431 49.1193 10.4943 48.464 10.2703C47.9621 10.1 48.0933 9.34017 47.8043 8.90157C47.5756 8.55455 47.1175 8.45653 46.7611 8.23901C46.0032 7.77465 46.0262 7.03197 45.6741 6.32935C45.3056 5.5931 44.5269 5.81061 43.8508 6.24492C43.3375 6.57548 42.8944 7.01837 42.3451 7.28167C41.8698 7.51063 41.3356 7.59363 40.8086 7.6058C40.4842 7.61834 40.1596 7.58412 39.845 7.5042C40.2151 6.11569 41.0786 4.90892 42.2746 4.10891C43.4705 3.30891 44.9173 2.9703 46.3449 3.15623C47.7726 3.34216 49.0838 4.03993 50.034 5.11942C50.9841 6.1989 51.5084 7.58642 51.509 9.0232H51.5098Z" fill="black"/>
<path d="M43.853 6.05538C43.3389 6.38594 42.8965 6.82812 42.3473 7.09286C41.8719 7.3211 41.3378 7.4041 40.8108 7.41626C40.1655 7.43057 39.4707 7.31752 39.0297 6.85245C38.6246 6.42315 38.5279 5.76274 38.6992 5.19965C38.8706 4.63655 39.2814 4.16933 39.7639 3.8309C40.2465 3.49246 40.8065 3.2585 41.1262 2.7741C41.2955 2.51795 41.3772 2.21601 41.5177 1.94341C41.9673 1.07121 42.9782 0.598985 43.9555 0.540314C44.9328 0.481643 45.9014 0.772136 46.8321 1.08696C47.7627 1.40178 48.7006 1.74808 49.6829 1.81319C50.1202 1.84038 50.5748 1.81319 50.9806 1.97847C51.5263 2.19956 51.884 2.72831 52.1278 3.26637C52.401 3.87311 52.5709 4.53566 52.5422 5.19822C52.482 6.61276 51.5456 8.00083 51.9572 9.35598C52.0662 9.71731 52.2705 10.0879 52.1615 10.4493C52.0023 10.9766 51.3205 11.0968 50.7691 11.1218C50.6257 10.8077 50.7024 10.4443 50.7053 10.0994C50.7082 9.75452 50.5805 9.3474 50.2479 9.25438C49.5825 9.06907 49.1236 10.3069 48.4697 10.0836C47.9714 9.91264 48.1005 9.1535 47.8108 8.7149C47.5821 8.36716 47.1232 8.26985 46.7676 8.05234C46.0097 7.58798 46.0326 6.84529 45.6806 6.14267C45.3092 5.40285 44.5298 5.62036 43.853 6.05538Z" fill="#483F44"/>
<path d="M33.3354 33.2821L32.7883 33.4725C32.7883 33.4725 33.0034 36.7008 32.2864 37.6267C31.5694 38.5525 34.641 40.8543 34.641 40.8543C34.641 40.8543 38.8512 40.8307 38.9702 40.4965C39.0893 40.1624 38.7551 34.5149 38.7551 34.5149C38.7551 34.5149 36.4952 33.6363 36.6852 32.2361C36.6852 32.2361 35.9954 35.5353 34.973 35.3929C33.9506 35.2505 32.7897 34.3983 33.3354 33.2821Z" fill="#15B5C7"/>
<path opacity="0.1" d="M35.1601 36.3918C35.9573 36.3918 36.6035 35.802 36.6035 35.0746C36.6035 34.3471 35.9573 33.7573 35.1601 33.7573C34.363 33.7573 33.7168 34.3471 33.7168 35.0746C33.7168 35.802 34.363 36.3918 35.1601 36.3918Z" fill="black"/>
<path d="M36.7382 33.3774C36.7382 33.3774 36.4514 24.6426 33.9549 26.5887C31.4583 28.5349 31.4339 30.8624 31.9093 31.55C32.3846 32.2376 33.909 35.6799 33.909 35.6799C34.1474 35.8178 34.4152 35.8973 34.6904 35.9121C34.9656 35.9268 35.2403 35.8762 35.4922 35.7645C35.744 35.6528 35.9657 35.4832 36.1392 35.2695C36.3127 35.0558 36.4329 34.8041 36.4901 34.5351L36.7382 33.3774Z" fill="#FFC1C7"/>
<path opacity="0.1" d="M52.3121 11.252C52.3004 11.2136 52.2781 11.1794 52.2476 11.1533C52.1242 11.0409 51.8589 11.0016 51.4589 11.0359L51.4754 11.2248C52.0088 11.179 52.1142 11.2849 52.1278 11.3028V11.3207L52.1443 11.3443C52.2108 11.4335 52.2579 11.5356 52.2826 11.644C52.3073 11.7525 52.3091 11.8648 52.2877 11.974C52.1708 12.5571 51.4531 13.0215 51.446 13.0265L51.4287 13.0365L51.418 13.0529C51.1083 13.5116 49.3566 14.8059 48.8985 15.1408L48.8583 15.095C48.6533 15.2724 46.8507 16.8472 46.7532 17.4504C46.6901 17.8289 46.2628 17.9756 46.1079 18.0164C45.9445 17.8926 45.4139 17.4711 45.1378 16.9989C44.879 16.5546 45.9208 15.6874 46.0126 15.349L45.8692 15.2023C45.8541 15.2567 44.5162 16.5045 44.8883 17.142C45.1866 17.6536 45.7315 18.0915 45.9222 18.236C45.8613 18.7884 45.482 22.0317 44.8991 22.8002C44.1749 23.7554 43.5662 28.5693 43.6336 30.25C43.6931 31.7432 43.3023 34.5637 41.9974 35.775C41.7715 35.994 41.4989 36.1591 41.2001 36.2582C40.9013 36.3574 40.5839 36.3878 40.2716 36.3474H40.2558H40.24C40.2214 36.3474 38.3285 36.5406 36.7382 35.2027C35.4369 34.1101 34.6998 32.3271 34.5464 29.9015H34.5148L34.5019 29.1953C34.8548 29.1404 35.1725 28.9511 35.3885 28.6672C35.6044 28.3834 35.7016 28.027 35.6598 27.6731C35.618 27.3192 35.4403 26.9953 35.1642 26.7693C34.888 26.5434 34.5348 26.4331 34.1788 26.4615C33.8229 26.49 33.4918 26.655 33.2552 26.922C33.0186 27.1889 32.8949 27.537 32.9101 27.893C32.9253 28.2491 33.0782 28.5854 33.3367 28.8313C33.5951 29.0772 33.939 29.2136 34.2962 29.2118H34.3119L34.3248 29.9137L34.2617 29.918C34.4195 32.4222 35.1938 34.2746 36.5561 35.4187C37.5916 36.275 38.9142 36.7069 40.2565 36.6272C40.3518 36.6376 40.4475 36.6429 40.5433 36.643C41.1586 36.6461 41.7507 36.4085 42.1924 35.9811C43.5669 34.7039 43.9849 31.7797 43.9197 30.2357C43.848 28.4548 44.4868 23.814 45.1278 22.969C45.7559 22.1398 46.1366 18.9086 46.2033 18.2825C46.4306 18.2188 46.9447 18.0178 47.0321 17.4955C47.0952 17.1177 48.2991 15.9536 49.0397 15.3089L49.0175 15.2831C49.4161 14.9927 50.6558 14.0768 51.2703 13.4887C51.461 13.3062 51.6503 13.1238 51.8482 12.9499C52.0862 12.7395 52.3888 12.4054 52.4684 12.0104C52.4955 11.8801 52.4957 11.7455 52.4688 11.6151C52.4419 11.4847 52.3886 11.3611 52.3121 11.252Z" fill="black"/>
<path d="M45.8979 18.191C45.8677 18.1702 45.1536 17.6601 44.7958 17.0462C44.4244 16.4087 45.7623 15.1616 45.7767 15.1072L45.9201 15.2539C45.829 15.5916 44.7872 16.4595 45.0461 16.9031C45.3723 17.4633 46.0592 17.9534 46.0663 17.9584L45.8979 18.191Z" fill="#353146"/>
<path d="M48.8053 15.2795L48.6934 15.1257C48.7164 15.1092 50.9684 13.4836 51.3234 12.9577L51.3348 12.942L51.3513 12.9312C51.3585 12.9262 52.0762 12.4626 52.1931 11.8787C52.2146 11.7697 52.213 11.6574 52.1883 11.5491C52.1636 11.4407 52.1164 11.3388 52.0497 11.2498L52.0332 11.2255V11.2083C52.0188 11.1897 51.9134 11.0845 51.38 11.1303L51.3635 10.9407C51.7643 10.9064 52.0289 10.9457 52.1522 11.0581C52.1829 11.0844 52.2055 11.1189 52.2174 11.1575C52.295 11.2663 52.3494 11.3898 52.3772 11.5204C52.4051 11.6509 52.4059 11.7858 52.3795 11.9167C52.2999 12.3123 51.9981 12.6465 51.7593 12.8561C51.5621 13.03 51.3721 13.2139 51.1821 13.3949C50.4615 14.0839 48.8841 15.223 48.8053 15.2795Z" fill="#15B5C7"/>
<path d="M34.4094 28.9462L34.2194 28.9497L34.2406 30.1022L34.4306 30.0987L34.4094 28.9462Z" fill="#15B5C7"/>
<path d="M34.2037 29.1208C34.9699 29.1208 35.5911 28.5009 35.5911 27.7363C35.5911 26.9717 34.9699 26.3518 34.2037 26.3518C33.4374 26.3518 32.8163 26.9717 32.8163 27.7363C32.8163 28.5009 33.4374 29.1208 34.2037 29.1208Z" fill="#00BFA6"/>
<path d="M34.2037 28.886C34.84 28.886 35.3559 28.3713 35.3559 27.7362C35.3559 27.1012 34.84 26.5864 34.2037 26.5864C33.5673 26.5864 33.0515 27.1012 33.0515 27.7362C33.0515 28.3713 33.5673 28.886 34.2037 28.886Z" fill="#15B5C7"/>
<path d="M40.453 36.5506C40.3572 36.5508 40.2614 36.5457 40.1662 36.5356C38.8239 36.6145 37.5016 36.1826 36.4658 35.3271C35.1035 34.1823 34.3306 32.332 34.1714 29.8256L34.4582 29.8077C34.6116 32.2333 35.3487 34.017 36.6508 35.1089C38.2411 36.4433 40.1332 36.2537 40.1518 36.2537H40.1676H40.1834C40.4958 36.2939 40.8132 36.2633 41.1121 36.1642C41.411 36.0651 41.6837 35.9 41.9099 35.6813C43.2141 34.4699 43.6049 31.6494 43.5454 30.1562C43.4737 28.4741 44.0824 23.6602 44.8073 22.7057C45.4418 21.8693 45.8355 18.0993 45.8398 18.0614L45.8505 17.9541L45.9566 17.9355C45.9631 17.9355 46.5826 17.8181 46.66 17.3559C46.7604 16.7535 48.56 15.1786 48.7644 15.0005L48.9515 15.2151C48.208 15.8591 47.0042 17.0239 46.9439 17.4024C46.8565 17.9262 46.3424 18.1265 46.1158 18.1895C46.0441 18.8162 45.6663 22.0467 45.0403 22.876C44.3993 23.721 43.7605 28.3617 43.8322 30.1426C43.8938 31.6867 43.4801 34.6116 42.1057 35.8881C41.6631 36.3165 41.0696 36.5544 40.453 36.5506Z" fill="#353146"/>
<g opacity="0.1">
<path d="M52.1207 7.33183C52.2383 6.89823 52.3802 6.46178 52.4792 6.02246C52.3609 6.46392 52.2182 6.89823 52.1207 7.33183Z" fill="black"/>
<path d="M50.9211 10.7389C50.7777 10.4248 50.8545 10.0613 50.8573 9.71647C50.8602 9.3716 50.7326 8.96805 50.3999 8.87146C49.7345 8.68615 49.2756 9.92468 48.6217 9.70073C48.1198 9.52972 48.2525 8.77058 47.9628 8.33197C47.7341 7.98424 47.2759 7.88693 46.9203 7.66942C46.1617 7.20506 46.1847 6.46238 45.8333 5.75975C45.4641 5.02279 44.6861 5.2403 44.0093 5.67533C43.4952 6.00589 43.0528 6.44878 42.5036 6.7128C42.0282 6.94104 41.4941 7.02404 40.9671 7.03621C40.3254 7.05123 39.627 6.93747 39.1861 6.47239C38.8462 6.11464 38.7236 5.59018 38.7939 5.09863C38.7817 5.13226 38.7709 5.16589 38.7602 5.19952C38.5881 5.76262 38.6885 6.42445 39.0907 6.85232C39.5317 7.3174 40.23 7.43045 40.8717 7.41614C41.3994 7.40397 41.9329 7.32097 42.409 7.09273C42.9596 6.82799 43.402 6.38582 43.9147 6.05526C44.5915 5.62023 45.3702 5.40272 45.7387 6.13968C46.09 6.8423 46.0678 7.58499 46.8257 8.04935C47.1842 8.264 47.6394 8.36417 47.8689 8.7119C48.1557 9.15194 48.0288 9.90965 48.5278 10.0807C49.181 10.3039 49.6399 9.06608 50.3052 9.25139C50.6379 9.34441 50.7663 9.75224 50.7627 10.0964C50.7591 10.4406 50.6845 10.8047 50.8265 11.1188C51.3779 11.0938 52.0597 10.9757 52.2196 10.4463C52.2416 10.3703 52.2518 10.2914 52.2497 10.2123C52.0167 10.6137 51.4173 10.7167 50.9211 10.7389Z" fill="black"/>
</g>
<path opacity="0.1" d="M63.8794 28.3689L64.7118 29.2476C64.7118 29.2476 65.3779 34.0894 65.7106 34.5423C66.0433 34.9952 66.8291 36.7968 66.0913 38.1498C66.0913 38.1498 65.8533 38.8861 65.996 39.1944C66.1386 39.5028 64.9262 41.0462 64.9262 41.0462C64.9262 41.0462 63.3323 42.47 62.9989 42.6839C62.6655 42.8979 60.906 44.6065 60.3116 44.6301C59.7172 44.6537 59.5229 45.3899 59.5229 45.3899L56.1688 45.5087C56.1688 45.5087 54.3161 45.4121 53.9132 45.6733C53.9132 45.6733 54.1283 42.8485 52.0583 40.9968L54.6983 40.0473C54.6983 40.0473 55.6978 39.618 56.0068 39.1694C56.2012 38.8944 56.477 38.687 56.7955 38.5763C56.7955 38.5763 57.5325 38.0539 57.5562 37.7692C57.5799 37.4844 58.4575 37.1352 58.4575 37.1352L57.9606 32.9031L58.2223 25.8768C58.2223 25.8768 59.0547 19.9897 60.8149 20.3224C62.5752 20.6551 63.8794 28.3689 63.8794 28.3689Z" fill="black"/>
<path d="M64.1662 28.3689L64.9986 29.2476C64.9986 29.2476 65.6647 34.0894 65.9974 34.5423C66.3301 34.9952 67.1159 36.7968 66.3781 38.1498C66.3781 38.1498 66.1408 38.8861 66.2835 39.1944C66.4262 39.5028 65.213 41.0462 65.213 41.0462C65.213 41.0462 63.6191 42.47 63.2857 42.6839C62.9523 42.8979 61.1928 44.6065 60.5984 44.6301C60.004 44.6537 59.8097 45.3899 59.8097 45.3899L56.4556 45.5087C56.4556 45.5087 54.6015 45.4121 54.2 45.6733C54.2 45.6733 54.4151 42.8485 52.3451 40.9968L54.9851 40.0473C54.9851 40.0473 55.9846 39.618 56.2936 39.1694C56.488 38.8944 56.7638 38.687 57.0823 38.5763C57.0823 38.5763 57.8193 38.0539 57.843 37.7692C57.8667 37.4844 58.7443 37.1352 58.7443 37.1352L58.2474 32.9031L58.5091 25.8768C58.5091 25.8768 59.3415 19.9897 61.1018 20.3224C62.862 20.6551 64.1662 28.3689 64.1662 28.3689Z" fill="#15B5C7"/>
<path opacity="0.1" d="M61.0716 35.4666C61.0716 35.4666 63.5216 34.8226 64.164 35.6097C64.8064 36.3967 61.0716 35.4666 61.0716 35.4666Z" fill="black"/>
<path opacity="0.1" d="M60.5009 36.5464C61.3333 37.1281 63.9023 37.1517 63.9023 37.1517L60.5009 36.5464Z" fill="black"/>
<path opacity="0.1" d="M61.7614 39.4541C61.8331 39.4777 63.5273 41.2822 64.2386 40.7363C64.9499 40.1903 61.7614 39.4541 61.7614 39.4541Z" fill="black"/>
<path opacity="0.1" d="M38.9437 24.3098C38.9437 24.3098 39.4413 27.7285 39.1961 29.1208C38.9509 30.5132 39.8457 32.2383 39.8457 32.2383L38.9437 24.3098Z" fill="black"/>
<path d="M27.9278 25.7C27.3542 26.1487 26.9355 27.2105 26.6322 28.3774C26.103 30.413 25.9302 32.7735 25.9302 32.7735C25.9302 32.7735 21.363 31.7288 21.6957 31.2545C21.905 30.9561 21.624 28.708 21.3895 27.0781C21.2497 26.115 21.1249 25.3673 21.1249 25.3673C21.1249 25.3673 29.498 24.4651 27.9278 25.7Z" fill="#FFCCD0"/>
<path opacity="0.1" d="M27.9278 25.6048C27.3542 26.0541 26.9355 27.1152 26.6322 28.2822C25.7222 28.5579 24.7544 28.5828 23.8314 28.3541C22.9084 28.1255 22.0646 27.6519 21.3895 26.9835C21.2497 26.0198 21.1249 25.2721 21.1249 25.2721C21.1249 25.2721 29.498 24.3705 27.9278 25.6048Z" fill="black"/>
<path d="M30.3828 23.0476C30.3833 24.2921 29.9425 25.4967 29.1386 26.448C28.3347 27.3994 27.2194 28.0363 25.9902 28.2461C24.7609 28.4558 23.497 28.2247 22.422 27.5939C21.347 26.963 20.5303 25.973 20.1165 24.7991C19.7027 23.6251 19.7183 22.3429 20.1608 21.1794C20.6032 20.0158 21.4438 19.046 22.5339 18.4415C23.624 17.837 24.8933 17.6369 26.117 17.8765C27.3408 18.116 28.4401 18.7799 29.2205 19.7506C29.9726 20.6857 30.3826 21.8487 30.3828 23.0476Z" fill="#FFCCD0"/>
<path opacity="0.1" d="M34.5471 56.0007H33.0414L32.9145 53.3469L32.7819 50.6001C32.7819 50.6001 33.1239 50.5493 33.6688 50.4734L33.8889 50.4441H33.9068C34.0258 51.0015 34.1434 51.5739 34.2567 52.1456C34.4453 53.1605 34.5434 54.19 34.55 55.2222C34.55 55.2937 34.55 55.3653 34.55 55.4326C34.5543 55.6236 34.55 55.8146 34.5471 56.0007Z" fill="black"/>
<path d="M34.2582 56.0006H15.3754C15.4571 55.8153 15.5116 55.7029 15.5116 55.7029C15.5116 55.7029 17.0223 49.1075 17.7902 46.317C17.7904 46.3146 17.7904 46.3123 17.7902 46.3099C17.8861 45.9308 18.002 45.557 18.1372 45.1901C18.146 45.1652 18.1573 45.1412 18.1709 45.1186C18.5509 44.5018 19.027 43.8371 18.3609 42.8876C17.6948 41.9382 17.9307 37.7604 17.9307 37.7604C17.9307 37.7604 18.7395 34.1993 19.5956 32.3004C19.7255 32.0063 19.9099 31.7392 20.1391 31.5133C20.2136 31.4406 20.2931 31.3732 20.3771 31.3116C20.441 31.2637 20.5075 31.2195 20.5764 31.1792L20.5901 31.1706C20.9497 30.9671 21.3491 30.8434 21.7609 30.8079C22.0535 30.7773 22.3488 30.7855 22.6392 30.8322C24.0273 31.0354 25.1387 31.3752 26.022 31.7623C28.4161 32.812 29.141 34.2186 29.1553 34.248L29.161 34.2601C29.2571 34.4841 30.6624 37.7582 31.1686 39.2858C31.2998 39.6836 31.3715 39.9634 31.3428 40.04C31.1994 40.4192 32.437 45.1665 32.437 45.1665C32.437 45.1665 33.0106 47.4561 33.5842 50.1399C33.6093 50.2516 33.6329 50.3632 33.6559 50.4762C33.7584 50.9635 33.8602 51.46 33.9584 51.9559C34.1488 52.9778 34.2469 54.0146 34.2517 55.054C34.2622 55.3779 34.2644 55.6934 34.2582 56.0006Z" fill="#1D7067"/>
<path opacity="0.1" d="M21.6484 29.1751C21.6484 29.1751 20.3456 28.6743 20.3613 29.4341C20.3771 30.194 20.679 30.5575 20.5836 30.6684C20.4883 30.7793 20.6309 31.444 20.6309 31.444C20.6309 31.444 22.3912 31.444 23.1999 31.8075C24.0087 32.1709 26.99 32.8993 27.3707 33.1211C27.7514 33.3429 29.1632 34.3375 29.1632 34.3375L29.2901 32.4543C29.2901 32.4543 27.831 31.2515 25.437 30.6348C23.0429 30.018 21.6484 29.1751 21.6484 29.1751Z" fill="black"/>
<path d="M21.6484 29.0802C21.6484 29.0802 20.3456 28.5793 20.3613 29.3392C20.3771 30.099 20.679 30.4625 20.5836 30.5734C20.4883 30.6843 20.6309 31.349 20.6309 31.349C20.6309 31.349 22.3912 31.349 23.1999 31.7132C24.0087 32.0774 26.99 32.8051 27.3707 33.0261C27.7514 33.2472 29.1632 34.2425 29.1632 34.2425L29.2915 32.365C29.2915 32.365 27.8324 31.1623 25.4384 30.5455C23.0443 29.9287 21.6484 29.0802 21.6484 29.0802Z" fill="#1D7067"/>
<path opacity="0.1" d="M25.5811 33.6121C25.5811 33.6121 28.0705 36.3016 27.9436 37.0465C27.8167 37.7913 25.5811 33.6121 25.5811 33.6121Z" fill="black"/>
<path opacity="0.1" d="M21.5372 43.3279C21.5372 43.3279 19.7125 45.0057 19.1747 45.1009C18.637 45.1961 19.587 45.5123 20.2051 45.2597C20.8231 45.0072 22.1409 44.3425 22.1409 44.3425L21.5372 43.3279Z" fill="black"/>
<path d="M34.9995 56.0008H30.7442C30.1491 55.4857 29.5862 55.0084 29.2277 54.7215C28.6541 54.2622 28.2404 53.586 27.9766 53.0422C27.9171 52.9184 27.8654 52.8025 27.8217 52.6974C27.7434 52.5162 27.6745 52.3311 27.6152 52.1428L30.7664 50.2754C30.9405 50.4232 31.1042 50.5829 31.2561 50.7533L31.2941 50.797C31.4691 51.0031 31.6232 51.237 31.6368 51.4288C31.6526 51.652 32.275 52.5156 32.9109 53.3449C33.5562 54.1885 34.2173 54.9948 34.261 55.0492C34.261 55.0492 34.37 55.1973 34.5478 55.4248C34.6733 55.5894 34.8282 55.7869 34.9995 56.0008Z" fill="#FFCCD0"/>
<path opacity="0.1" d="M29.2205 19.7507C29.0692 20.0913 28.9337 20.4447 28.9137 20.8239C28.857 21.9186 28.9488 24.3664 27.7342 24.9159C27.1326 25.1863 26.4888 24.5925 25.8291 24.5782C25.3545 24.5681 24.9193 24.8686 24.6296 25.2443C24.3399 25.6199 24.16 26.0657 23.9499 26.4907C23.7587 26.8764 23.5384 27.2472 23.291 27.5997C23.217 27.7076 23.1356 27.8102 23.0472 27.9067C22.3066 27.5948 21.6471 27.1184 21.1189 26.5136C20.5908 25.9089 20.208 25.1918 19.9996 24.4171C19.7912 23.6423 19.7628 22.8303 19.9165 22.043C20.0703 21.2556 20.4021 20.5136 20.8867 19.8736C21.3713 19.2336 21.9959 18.7124 22.7129 18.3498C23.4299 17.9872 24.2204 17.7926 25.0242 17.7811C25.828 17.7695 26.6238 17.9411 27.351 18.283C28.0782 18.6248 28.7176 19.1278 29.2205 19.7535V19.7507Z" fill="black"/>
<path d="M28.8183 20.6307C28.7609 21.7254 28.8534 24.1731 27.6381 24.7219C27.0366 24.9924 26.3927 24.3992 25.7331 24.3849C25.2584 24.3742 24.8239 24.6754 24.5335 25.0503C24.2432 25.4252 24.0646 25.8717 23.8538 26.2974C23.6625 26.6832 23.4423 27.0539 23.1949 27.4065C23.0472 27.6154 22.8837 27.825 22.6565 27.9424C22.2607 28.1484 21.781 28.0325 21.3565 27.9002C20.8059 27.727 20.2634 27.5319 19.729 27.3149C19.7412 27.2344 19.7475 27.153 19.7476 27.0716C19.7318 27.1017 19.7146 27.1296 19.6974 27.1596L19.6637 27.2183C19.6028 27.3256 19.5433 27.4329 19.4888 27.5431C19.468 27.5853 19.4479 27.629 19.43 27.6726C19.3579 27.8351 19.3126 28.0081 19.2959 28.1849C19.2593 28.6622 19.4952 29.1151 19.7046 29.5444C20.5098 31.2051 21.0074 33.1469 20.4015 34.8892C20.1391 35.6469 19.6845 36.3202 19.3525 37.0521C18.7722 38.3485 18.6014 39.7906 18.8628 41.1863C19.0285 42.0535 19.3604 42.9121 19.2787 43.7914C19.1353 45.3047 17.8275 46.4309 16.5175 47.2051C15.8099 47.6215 14.9437 47.9921 14.1923 47.663C14.6713 47.1049 14.7946 46.3329 14.8978 45.6045C15.1803 43.6178 15.4636 41.6301 15.7475 39.6415C15.8608 38.8502 15.9738 38.0588 16.0866 37.2675C16.2974 35.7807 16.5111 34.2774 16.3792 32.7813C16.2831 31.6787 16.0121 30.5082 16.491 29.51C16.7441 28.9813 17.1951 28.5434 17.3356 27.9739C17.4511 27.5109 17.3435 27.0187 17.4195 26.5471C17.4611 26.3326 17.5315 26.1247 17.6289 25.929C17.7528 25.6634 17.9146 25.4171 18.1093 25.1977C17.9171 25.1419 17.7379 25.0653 17.6289 24.9051C17.9372 24.7047 17.9838 24.2533 17.844 23.9141C17.7042 23.575 17.4245 23.3167 17.1729 23.0491C16.9212 22.7815 16.6789 22.4695 16.6473 22.1046C16.5864 21.4099 17.2819 20.8718 17.4045 20.1864C17.5285 19.4887 17.0381 18.8105 17.0775 18.1043C17.1234 17.2507 17.9092 16.6303 18.685 16.2704C19.8557 15.7296 21.1489 15.5075 22.4335 15.6265C23.4788 15.7252 24.4905 16.0479 25.533 16.1731C26.1618 16.2447 26.7992 16.2518 27.4238 16.362C28.0483 16.4722 28.6742 16.7047 29.1137 17.1619C30.2724 18.3676 28.8843 19.36 28.8183 20.6307Z" fill="#FFE0D0"/>
<path opacity="0.1" d="M27.8489 53.0428C27.4833 52.8846 26.8179 52.9791 25.6757 52.6321C24.5336 52.285 24.3134 50.7167 24.3134 50.7167V50.7117C24.2998 50.6759 24.1937 50.4426 23.4753 49.6255C22.6816 48.7233 20.9658 44.1663 20.9658 44.1663C20.9658 44.1663 19.4443 42.5356 19.4924 41.9346C19.5404 41.3336 19.2221 39.7345 19.2536 37.9457C19.2852 36.157 22.6787 34.9707 22.6787 34.9707C29.2127 33.8151 27.674 41.3322 27.4998 41.9017C27.3255 42.4712 28.2297 44.0096 28.2297 44.0096C28.102 44.6793 28.7531 45.716 28.7531 45.716C28.7531 45.716 28.9108 46.6333 28.9431 46.9818C28.9449 46.9978 28.9485 47.0137 28.9538 47.029C29.0585 47.3574 29.9117 47.655 30.2588 47.8361C30.6237 48.0264 31.7974 49.6878 31.7974 49.6878C32.0505 50.9077 28.2132 53.203 27.8489 53.0428Z" fill="black"/>
<path d="M28.0389 52.7567C27.674 52.5979 27.0079 52.693 25.8664 52.3453C24.725 51.9976 24.5042 50.4306 24.5042 50.4306V50.4256C24.4912 50.3891 24.3844 50.1566 23.666 49.3395C22.8723 48.4372 21.1565 43.8795 21.1565 43.8795C21.1565 43.8795 19.635 42.2496 19.6824 41.6486C19.7297 41.0476 19.4128 39.4484 19.4443 37.6611C19.4759 35.8738 22.8673 34.6882 22.8673 34.6882C29.4012 33.5327 27.8626 41.0497 27.6883 41.6192C27.5141 42.1888 28.4182 43.7271 28.4182 43.7271C28.2906 44.3968 28.9416 45.4336 28.9416 45.4336C28.9416 45.4336 29.0994 46.3508 29.1324 46.6993C29.1336 46.7154 29.1369 46.7313 29.1424 46.7465C29.2471 47.0749 30.1003 47.3726 30.448 47.5536C30.8123 47.7432 31.9867 49.4053 31.9867 49.4053C32.2413 50.6231 28.4039 52.9184 28.0389 52.7567Z" fill="#1D7067"/>
<path opacity="0.1" d="M22.9963 38.6125C22.9963 38.6125 25.8507 41.6176 26.5956 41.6176C27.3406 41.6176 22.9963 38.6125 22.9963 38.6125Z" fill="black"/>
<path d="M28.0389 52.7567C27.674 52.5979 27.0079 52.693 25.8664 52.3453C24.725 51.9976 24.5042 50.4306 24.5042 50.4306V50.4256C25.2606 49.9248 27.1764 48.5102 27.9314 47.9929C28.4627 47.6302 28.8965 47.0971 29.1503 46.7437C29.255 47.0721 30.1082 47.3697 30.4559 47.5507C30.8202 47.7403 31.9946 49.4024 31.9946 49.4024C32.2412 50.6231 28.4039 52.9184 28.0389 52.7567Z" fill="#1D7067"/>
<g opacity="0.1">
<path d="M17.6332 24.913C17.6368 24.9188 17.6418 24.9238 17.6461 24.9295C17.6676 24.9023 17.6898 24.8751 17.7128 24.8494C17.6883 24.8731 17.6617 24.8944 17.6332 24.913Z" fill="black"/>
<path d="M19.2966 28.1927C19.3267 27.7956 19.5397 27.4457 19.739 27.0966C19.6085 27.0465 19.478 26.9957 19.349 26.9428C19.3612 26.8625 19.3675 26.7814 19.3676 26.7002C19.1661 27.0579 18.9467 27.41 18.9159 27.8128C18.8793 28.2908 19.1152 28.7429 19.3246 29.1722C20.1305 30.8322 20.6274 32.7741 20.0215 34.517C19.7584 35.274 19.3045 35.948 18.9725 36.68C18.3924 37.9762 18.2219 39.418 18.4835 40.8134C18.6477 41.6813 18.9804 42.5392 18.8987 43.4186C18.7553 44.9318 17.4482 46.058 16.1375 46.8315C15.6019 47.1477 14.976 47.4375 14.3773 47.4168C14.3219 47.5058 14.2601 47.5907 14.1923 47.6708C14.9444 48.002 15.8099 47.6293 16.5175 47.2114C17.8289 46.4387 19.1389 45.3153 19.2823 43.7992C19.364 42.9199 19.0313 42.062 18.8664 41.1941C18.6047 39.7988 18.7747 38.3571 19.354 37.0606C19.6838 36.3294 20.1427 35.6547 20.4029 34.8977C21.0088 33.1547 20.5112 31.2129 19.706 29.5529C19.4974 29.1207 19.26 28.6707 19.2966 28.1927Z" fill="black"/>
<path d="M29.1123 17.1706C29.0418 17.0984 28.966 17.0314 28.8857 16.9702C29.7547 18.095 28.5 19.0509 28.4376 20.2615C28.3817 21.3562 28.4734 23.8047 27.2581 24.3527C26.6573 24.6239 26.0127 24.03 25.3538 24.0157C24.8784 24.0057 24.4439 24.3069 24.1535 24.6819C23.8632 25.0568 23.6846 25.5033 23.4746 25.9283C23.2829 26.314 23.0624 26.6847 22.8149 27.0373C22.6715 27.2469 22.5037 27.4559 22.2757 27.5739C21.8814 27.7793 21.4017 27.6641 20.9765 27.531C20.5631 27.4012 20.1534 27.2581 19.7476 27.1017C19.7468 27.1762 19.7405 27.2506 19.729 27.3242C20.2639 27.5417 20.8066 27.7368 21.3573 27.9095C21.7817 28.0426 22.2614 28.1578 22.6565 27.9524C22.8838 27.8344 23.0487 27.6247 23.1956 27.4151C23.4433 27.063 23.6636 26.6924 23.8546 26.3068C24.0654 25.8818 24.2432 25.4346 24.5343 25.0597C24.8254 24.6847 25.2592 24.3842 25.7338 24.3942C26.3934 24.4085 27.038 25.0024 27.6389 24.7312C28.8542 24.1832 28.7617 21.7347 28.8183 20.64C28.8843 19.3671 30.2724 18.3755 29.1123 17.1706Z" fill="black"/>
</g>
<path opacity="0.1" d="M19.6644 27.2191C19.6035 27.3265 19.544 27.4338 19.4895 27.544C19.4687 27.5862 19.4486 27.6298 19.4307 27.6735C19.055 27.2957 18.1401 26.3978 17.6296 26.1194C17.7537 25.8539 17.9155 25.6077 18.11 25.3882C18.11 25.3882 19.3267 26.03 19.6644 27.2191Z" fill="black"/>
<path d="M19.6981 27.1604C19.4164 25.8875 18.11 25.1985 18.11 25.1985C17.9154 25.4178 17.7536 25.6641 17.6296 25.9297C18.1681 26.2238 19.1604 27.2098 19.4895 27.5439L19.6981 27.1604Z" fill="#1D7067"/>
</g>
<defs>
<linearGradient id="paint0_linear_1_622" x1="52.4053" y1="6.82656" x2="52.4053" y2="5.51147" gradientUnits="userSpaceOnUse">
<stop stop-color="#808080" stop-opacity="0.25"/>
<stop offset="0.54" stop-color="#808080" stop-opacity="0.12"/>
<stop offset="1" stop-color="#808080" stop-opacity="0.1"/>
</linearGradient>
<linearGradient id="paint1_linear_1_622" x1="40.4171" y1="56.0006" x2="40.4171" y2="-7.82149e-05" gradientUnits="userSpaceOnUse">
<stop stop-color="#808080" stop-opacity="0.25"/>
<stop offset="0.54" stop-color="#808080" stop-opacity="0.12"/>
<stop offset="1" stop-color="#808080" stop-opacity="0.1"/>
</linearGradient>
<clipPath id="clip0_1_622">
<rect width="77.875" height="56" fill="white" transform="translate(0.0625)"/>
</clipPath>
</defs>
</svg>
