<svg width="216" height="160" viewBox="0 0 216 160" fill="none" xmlns="http://www.w3.org/2000/svg">
<g clip-path="url(#clip0_1_1283)">
<path d="M184.626 108.941H177.741L177.716 108.914C176.491 107.614 175.941 105.787 176.243 104.029C176.339 103.461 176.522 102.91 176.787 102.391L178.882 98.294L178.05 83.6178C178.034 83.3458 178.129 83.0871 178.316 82.8893C178.503 82.6913 178.756 82.5824 179.029 82.5824H180.317C180.846 82.5824 181.277 82.9962 181.298 83.5247L181.858 98.0308L184.758 102.56C185.006 102.947 185.205 103.359 185.351 103.784C185.919 105.434 185.711 107.226 184.779 108.7L184.779 108.701L184.626 108.941L184.626 108.941Z" fill="#3F3D56"/>
<path d="M184.034 107.925C183.969 108.028 183.855 108.09 183.734 108.09H178.492C178.391 108.09 178.293 108.049 178.226 107.973C177.342 106.967 176.952 105.648 177.106 104.363C177.123 104.222 177.228 104.106 177.365 104.07C178.459 103.781 179.779 103.614 181.201 103.614C182.313 103.614 183.364 103.717 184.292 103.899C184.419 103.924 184.524 104.017 184.561 104.141C184.932 105.4 184.757 106.782 184.034 107.925Z" fill="#F9A826"/>
<path d="M239.308 112.043H-23.3091C-23.5067 112.043 -23.667 111.883 -23.667 111.685C-23.667 111.487 -23.5067 111.327 -23.3091 111.327H239.308C239.506 111.327 239.666 111.487 239.666 111.685C239.666 111.883 239.506 112.043 239.308 112.043Z" fill="#F3B418"/>
<path d="M53.4407 45.5691C49.5922 44.4172 47.0672 41.4977 47.8007 39.0487C48.5342 36.5996 52.2481 35.5488 56.0978 36.7017C57.6419 37.1411 59.0583 37.944 60.2285 39.043L76.4727 44.1299L73.9231 51.702L58.1798 45.8833C56.5977 46.1586 54.9726 46.0508 53.4406 45.5691H53.4407Z" fill="#A0616A"/>
<path d="M125.5 47.559L125.695 60.9345C125.695 60.9345 108.881 60.7109 102.999 61.176C97.1166 61.641 60.4496 48.2195 60.4496 48.2195L66.5392 39.584L106.989 49.3479L125.5 47.559Z" fill="white"/>
<path d="M54.6375 29.3704H52.1323V63.3698H54.6375V29.3704Z" fill="#F9A826"/>
<path d="M63.683 111.685H49.192L49.1388 111.629C46.5621 108.892 45.4037 105.049 46.04 101.347C46.2424 100.153 46.6273 98.9925 47.1844 97.9L51.593 89.2785L49.8422 58.3913C49.8099 57.8188 50.0089 57.2743 50.4025 56.858C50.796 56.4414 51.3292 56.2122 51.9032 56.2122H54.6126C55.7269 56.2122 56.6339 57.0831 56.6774 58.1952L57.8566 88.7245L63.9608 98.2572C64.4823 99.0718 64.9015 99.9383 65.2072 100.833C66.4037 104.304 65.9654 108.076 64.0045 111.179L64.0042 111.18L63.683 111.685H63.683Z" fill="#3F3D56"/>
<path d="M62.4363 109.548C62.2988 109.764 62.0602 109.895 61.8039 109.895H50.7734C50.5606 109.895 50.3544 109.808 50.2139 109.648C48.3519 107.53 47.5315 104.755 47.8568 102.05C47.8924 101.754 48.1115 101.51 48.4001 101.434C50.703 100.827 53.4819 100.474 56.4745 100.474C58.8149 100.474 61.0252 100.691 62.9795 101.075C63.2471 101.128 63.4683 101.323 63.5453 101.584C64.3257 104.233 63.9569 107.141 62.4363 109.548V109.548Z" fill="#F9A826"/>
<path d="M114.763 28.6546L116.91 43.3281L99.7316 45.1175L100.805 26.1494L114.763 28.6546Z" fill="#A0616A"/>
<path d="M98.4334 33.0253C104.832 33.0253 110.019 27.8382 110.019 21.4395C110.019 15.0409 104.832 9.85376 98.4334 9.85376C92.0347 9.85376 86.8476 15.0409 86.8476 21.4395C86.8476 27.8382 92.0347 33.0253 98.4334 33.0253Z" fill="#A0616A"/>
<path d="M62.3381 74.0058C59.0612 71.064 54.8434 70.4026 52.9175 72.5284C50.9917 74.6543 52.0873 78.7616 55.3657 81.7041C56.6587 82.8978 58.2269 83.7584 59.9389 84.2138L73.9851 96.5L79.7803 89.6625L65.3179 78.2764C64.6864 76.6278 63.6646 75.1634 62.3381 74.0059V74.0058Z" fill="#A0616A"/>
<path d="M100.805 41.5387L118.342 39.0334L128.721 46.907L129.794 90.2116L139.815 159.284L73.2478 160C73.2478 160 78.2583 115.264 80.7635 112.759C83.2687 110.253 85.0581 98.801 85.0581 98.801L90.0686 49.4122L100.805 41.5387Z" fill="white"/>
<path d="M94.1843 49.2333C94.1843 49.2333 84.8792 48.5175 82.7318 54.9595C80.5845 61.4015 78.0793 82.517 78.0793 82.517L72.353 83.2327L67.3426 77.8644L61.9742 90.7484C61.9742 90.7484 80.9424 111.506 88.1002 102.201C95.2579 92.8958 94.1843 49.2333 94.1843 49.2333Z" fill="white"/>
<path d="M121.384 82.517C121.384 82.517 112.079 77.5065 113.152 69.9908C114.226 62.4752 121.026 60.6857 116.373 52.0964C111.721 43.507 114.226 33.4861 114.226 33.4861L113.066 31.6967C113.066 31.6967 103.656 35.2756 100.709 31.6967C97.7632 28.1178 99.1948 24.8968 94.9001 24.181C90.6054 23.4652 84.8792 16.3075 87.7423 11.6549C90.6054 7.00234 90.2476 4.13922 94.9001 3.42344C99.5527 2.70766 110.647 -2.30279 112.437 1.27611C114.226 4.855 120.31 8.79178 119.237 12.3707C118.163 15.9496 118.163 27.4203 118.163 27.4203C118.163 27.4203 133.389 33.4861 131.144 39.0334C128.9 44.5807 124.963 44.5807 128.542 55.3174C132.121 66.0541 121.384 82.517 121.384 82.517H121.384Z" fill="#2F2E41"/>
<path d="M203.275 108.58H196.896V97.8859H203.275C204 97.8838 204.586 97.2941 204.584 96.5688C204.582 95.8465 203.997 95.2615 203.275 95.2594H158.811C158.086 95.2615 157.5 95.8512 157.502 96.5765C157.504 97.2988 158.089 97.8838 158.811 97.8859H164.252V108.58H158.811C158.086 108.582 157.5 109.171 157.502 109.897C157.504 110.619 158.089 111.204 158.811 111.206H203.275C204 111.204 204.586 110.614 204.584 109.889C204.582 109.167 203.997 108.582 203.275 108.58H203.275ZM166.878 108.58L169.878 100.59L194.269 97.8859V108.58H166.878V108.58Z" fill="#F2F2F2"/>
</g>
<defs>
<clipPath id="clip0_1_1283">
<rect width="263.333" height="160" fill="white" transform="translate(-23.667)"/>
</clipPath>
</defs>
</svg>
